%TF.GenerationSoftware,Altium Limited,Altium Designer,24.0.1 (36)*%
G04 Layer_Physical_Order=2*
G04 Layer_Color=16711680*
%FSLAX45Y45*%
%MOMM*%
%TF.SameCoordinates,A6A5E014-E172-412D-830F-878A72C9C493*%
%TF.FilePolarity,Positive*%
%TF.FileFunction,Copper,L2,Bot,Signal*%
%TF.Part,Single*%
G01*
G75*
%TA.AperFunction,ComponentPad*%
%ADD10C,1.00000*%
%TA.AperFunction,ViaPad*%
%ADD11C,1.52400*%
%TA.AperFunction,WasherPad*%
%ADD12C,1.52400*%
%TA.AperFunction,Conductor*%
%ADD13C,0.12700*%
D10*
X1400000Y-925002D02*
D03*
X1699999Y-999998D02*
D03*
Y950001D02*
D03*
Y650001D02*
D03*
Y200000D02*
D03*
X1699999Y350002D02*
D03*
X1400000Y275001D02*
D03*
Y124999D02*
D03*
Y875000D02*
D03*
Y725003D02*
D03*
Y424998D02*
D03*
Y-24998D02*
D03*
X1699999Y49998D02*
D03*
Y799999D02*
D03*
Y499999D02*
D03*
X1400000Y575000D02*
D03*
X1699999Y-100000D02*
D03*
X1400000Y-175001D02*
D03*
X1699999Y-250002D02*
D03*
X1400000Y-324998D02*
D03*
X1699999Y-399999D02*
D03*
X1400000Y-475000D02*
D03*
X1699999Y-550001D02*
D03*
X1400000Y-625002D02*
D03*
X1699999Y-699998D02*
D03*
X1400000Y-774999D02*
D03*
X1699999Y-850001D02*
D03*
D11*
Y1900002D02*
D03*
D12*
Y-1900001D02*
D03*
D13*
X1400000Y-774999D02*
X1405951Y-769048D01*
X1400000Y-625002D02*
X1405951Y-619051D01*
X1400000Y-475000D02*
X1405951Y-469049D01*
X1400000Y-324998D02*
X1405946Y-319052D01*
X1400000Y-175001D02*
X1405951Y-169050D01*
X1400000Y-24998D02*
X1405946Y-19053D01*
X1400000Y124999D02*
X1405951Y130950D01*
X1400000Y275001D02*
X1405951Y280952D01*
X1400000Y424998D02*
X1405951Y430949D01*
X1400000Y575000D02*
X1405951Y580951D01*
X1400000Y725003D02*
X1405946Y730948D01*
%TF.MD5,c4e75410a98067409cd667a1490f8a06*%
M02*
