%TF.GenerationSoftware,Altium Limited,Altium Designer,24.0.1 (36)*%
G04 Layer_Color=65535*
%FSLAX45Y45*%
%MOMM*%
%TF.SameCoordinates,A6A5E014-E172-412D-830F-878A72C9C493*%
%TF.FilePolarity,Positive*%
%TF.FileFunction,Legend,Top*%
%TF.Part,Single*%
G01*
G75*
%TA.AperFunction,NonConductor*%
%ADD14C,0.25400*%
D14*
X1699999Y2049999D02*
Y2125000D01*
Y-1749999D02*
Y-1674998D01*
X1850002Y1900002D02*
X1924998D01*
X1475001D02*
X1550002D01*
X1699999Y-2124999D02*
Y-2049998D01*
Y1674998D02*
Y1749999D01*
X1475001Y-1900001D02*
X1550002D01*
X1850002D02*
X1924998D01*
X1749600Y1151967D02*
Y1050400D01*
X1648033Y1151967D01*
X1622641D01*
X1597249Y1126575D01*
Y1075792D01*
X1622641Y1050400D01*
X1597249Y1304318D02*
X1622641Y1253534D01*
X1673425Y1202751D01*
X1724208D01*
X1749600Y1228143D01*
Y1278926D01*
X1724208Y1304318D01*
X1698817D01*
X1673425Y1278926D01*
Y1202751D01*
X2123816Y101575D02*
X2098425D01*
Y76183D01*
X2123816D01*
Y101575D01*
X2098425Y126967D01*
X2047641D01*
X2022249Y101575D01*
Y50792D01*
X2047641Y25400D01*
X2149208D01*
X2174600Y50792D01*
Y126967D01*
X2073033Y203143D02*
Y253926D01*
X2098425Y279318D01*
X2174600D01*
Y203143D01*
X2149208Y177751D01*
X2123816Y203143D01*
Y279318D01*
X2022249Y431669D02*
X2174600D01*
Y355493D01*
X2149208Y330101D01*
X2098425D01*
X2073033Y355493D01*
Y431669D01*
X2174600Y482452D02*
X2073033D01*
Y507844D01*
X2098425Y533236D01*
X2174600D01*
X2098425D01*
X2073033Y558628D01*
X2098425Y584019D01*
X2174600D01*
Y634803D02*
Y685586D01*
Y660195D01*
X2073033D01*
Y634803D01*
Y863329D02*
Y787154D01*
X2098425Y761762D01*
X2149208D01*
X2174600Y787154D01*
Y863329D01*
Y939504D02*
Y990288D01*
X2149208Y1015680D01*
X2098425D01*
X2073033Y990288D01*
Y939504D01*
X2098425Y914112D01*
X2149208D01*
X2174600Y939504D01*
X1474600Y1076967D02*
Y975400D01*
X1373033Y1076967D01*
X1347641D01*
X1322249Y1051575D01*
Y1000792D01*
X1347641Y975400D01*
X1322249Y1229318D02*
Y1127751D01*
X1398425D01*
X1373033Y1178534D01*
Y1203926D01*
X1398425Y1229318D01*
X1449208D01*
X1474600Y1203926D01*
Y1153142D01*
X1449208Y1127751D01*
X1196284Y-52045D02*
X1209613Y-65374D01*
X1236271D01*
X1249600Y-52045D01*
Y1271D01*
X1236271Y14600D01*
X1209613D01*
X1196284Y1271D01*
X1774600Y-1174600D02*
Y-1123817D01*
Y-1149208D01*
X1622249D01*
X1647641Y-1174600D01*
X2199600Y-948033D02*
Y-1049600D01*
X2098033Y-948033D01*
X2072641D01*
X2047249Y-973425D01*
Y-1024208D01*
X2072641Y-1049600D01*
Y-897249D02*
X2047249Y-871858D01*
Y-821074D01*
X2072641Y-795682D01*
X2098033D01*
X2123425Y-821074D01*
Y-846466D01*
Y-821074D01*
X2148816Y-795682D01*
X2174208D01*
X2199600Y-821074D01*
Y-871858D01*
X2174208Y-897249D01*
X2199600Y-744899D02*
Y-694115D01*
Y-719507D01*
X2047249D01*
X2072641Y-744899D01*
X2199600Y-516373D02*
Y-617940D01*
X2098033Y-516373D01*
X2072641D01*
X2047249Y-541764D01*
Y-592548D01*
X2072641Y-617940D01*
X2199600Y-364022D02*
Y-465589D01*
X2098033Y-364022D01*
X2072641D01*
X2047249Y-389414D01*
Y-440197D01*
X2072641Y-465589D01*
Y-313238D02*
X2047249Y-287847D01*
Y-237063D01*
X2072641Y-211671D01*
X2174208D01*
X2199600Y-237063D01*
Y-287847D01*
X2174208Y-313238D01*
X2072641D01*
X1474600Y-1048033D02*
Y-1149600D01*
X1373033Y-1048033D01*
X1347641D01*
X1322249Y-1073425D01*
Y-1124208D01*
X1347641Y-1149600D01*
X1399600Y1775400D02*
X1247249D01*
X1298033Y1826184D01*
X1247249Y1876967D01*
X1399600D01*
Y2029318D02*
Y1927751D01*
X1298033Y2029318D01*
X1272641D01*
X1247249Y2003926D01*
Y1953143D01*
X1272641Y1927751D01*
X1374599Y-2024600D02*
X1222249D01*
X1273032Y-1973817D01*
X1222249Y-1923033D01*
X1374599D01*
Y-1770682D02*
Y-1872249D01*
X1273032Y-1770682D01*
X1247640D01*
X1222249Y-1796074D01*
Y-1846858D01*
X1247640Y-1872249D01*
%TF.MD5,680402137cd03d85503f128a40e3611d*%
M02*
