%TF.GenerationSoftware,Altium Limited,Altium Designer,24.0.1 (36)*%
G04 Layer_Color=2752767*
%FSLAX45Y45*%
%MOMM*%
%TF.SameCoordinates,A6A5E014-E172-412D-830F-878A72C9C493*%
%TF.FilePolarity,Positive*%
%TF.FileFunction,Drawing*%
%TF.Part,Single*%
G01*
G75*
%TA.AperFunction,NonConductor*%
%ADD23C,0.12700*%
D23*
X1400000Y-975802D02*
X1425400Y-950402D01*
X1450800D01*
X1425400Y-925002D01*
X1450800Y-899602D01*
X1425400D01*
X1400000Y-874202D01*
X1374600Y-899602D01*
X1349200D01*
X1374600Y-925002D01*
X1349200Y-950402D01*
X1374600D01*
X1400000Y-975802D01*
X1699999Y-1050798D02*
X1725399Y-1025398D01*
X1750799D01*
X1725399Y-999998D01*
X1750799Y-974598D01*
X1725399D01*
X1699999Y-949198D01*
X1674599Y-974598D01*
X1649199D01*
X1674599Y-999998D01*
X1649199Y-1025398D01*
X1674599D01*
X1699999Y-1050798D01*
X1649199Y1849202D02*
Y1950802D01*
X1750799D01*
Y1849202D01*
X1649199D01*
X1699999Y899201D02*
X1725399Y924601D01*
X1750799D01*
X1725399Y950001D01*
X1750799Y975401D01*
X1725399D01*
X1699999Y1000801D01*
X1674599Y975401D01*
X1649199D01*
X1674599Y950001D01*
X1649199Y924601D01*
X1674599D01*
X1699999Y899201D01*
Y599201D02*
X1725399Y624601D01*
X1750799D01*
X1725399Y650001D01*
X1750799Y675401D01*
X1725399D01*
X1699999Y700801D01*
X1674599Y675401D01*
X1649199D01*
X1674599Y650001D01*
X1649199Y624601D01*
X1674599D01*
X1699999Y599201D01*
Y149200D02*
X1725399Y174600D01*
X1750799D01*
X1725399Y200000D01*
X1750799Y225400D01*
X1725399D01*
X1699999Y250800D01*
X1674599Y225400D01*
X1649199D01*
X1674599Y200000D01*
X1649199Y174600D01*
X1674599D01*
X1699999Y149200D01*
X1699999Y299202D02*
X1725399Y324602D01*
X1750799D01*
X1725399Y350002D01*
X1750799Y375402D01*
X1725399D01*
X1699999Y400802D01*
X1674599Y375402D01*
X1649199D01*
X1674599Y350002D01*
X1649199Y324602D01*
X1674599D01*
X1699999Y299202D01*
X1400000Y224201D02*
X1425400Y249601D01*
X1450800D01*
X1425400Y275001D01*
X1450800Y300401D01*
X1425400D01*
X1400000Y325801D01*
X1374600Y300401D01*
X1349200D01*
X1374600Y275001D01*
X1349200Y249601D01*
X1374600D01*
X1400000Y224201D01*
Y74199D02*
X1425400Y99599D01*
X1450800D01*
X1425400Y124999D01*
X1450800Y150399D01*
X1425400D01*
X1400000Y175799D01*
X1374600Y150399D01*
X1349200D01*
X1374600Y124999D01*
X1349200Y99599D01*
X1374600D01*
X1400000Y74199D01*
Y824200D02*
X1425400Y849600D01*
X1450800D01*
X1425400Y875000D01*
X1450800Y900400D01*
X1425400D01*
X1400000Y925800D01*
X1374600Y900400D01*
X1349200D01*
X1374600Y875000D01*
X1349200Y849600D01*
X1374600D01*
X1400000Y824200D01*
Y674203D02*
X1425400Y699603D01*
X1450800D01*
X1425400Y725003D01*
X1450800Y750403D01*
X1425400D01*
X1400000Y775803D01*
X1374600Y750403D01*
X1349200D01*
X1374600Y725003D01*
X1349200Y699603D01*
X1374600D01*
X1400000Y674203D01*
Y374198D02*
X1425400Y399598D01*
X1450800D01*
X1425400Y424998D01*
X1450800Y450398D01*
X1425400D01*
X1400000Y475798D01*
X1374600Y450398D01*
X1349200D01*
X1374600Y424998D01*
X1349200Y399598D01*
X1374600D01*
X1400000Y374198D01*
Y-75798D02*
X1425400Y-50398D01*
X1450800D01*
X1425400Y-24998D01*
X1450800Y402D01*
X1425400D01*
X1400000Y25802D01*
X1374600Y402D01*
X1349200D01*
X1374600Y-24998D01*
X1349200Y-50398D01*
X1374600D01*
X1400000Y-75798D01*
X1699999Y-802D02*
X1725399Y24598D01*
X1750799D01*
X1725399Y49998D01*
X1750799Y75398D01*
X1725399D01*
X1699999Y100798D01*
X1674599Y75398D01*
X1649199D01*
X1674599Y49998D01*
X1649199Y24598D01*
X1674599D01*
X1699999Y-802D01*
Y749199D02*
X1725399Y774599D01*
X1750799D01*
X1725399Y799999D01*
X1750799Y825399D01*
X1725399D01*
X1699999Y850799D01*
X1674599Y825399D01*
X1649199D01*
X1674599Y799999D01*
X1649199Y774599D01*
X1674599D01*
X1699999Y749199D01*
Y449199D02*
X1725399Y474599D01*
X1750799D01*
X1725399Y499999D01*
X1750799Y525399D01*
X1725399D01*
X1699999Y550799D01*
X1674599Y525399D01*
X1649199D01*
X1674599Y499999D01*
X1649199Y474599D01*
X1674599D01*
X1699999Y449199D01*
X1400000Y524200D02*
X1425400Y549600D01*
X1450800D01*
X1425400Y575000D01*
X1450800Y600400D01*
X1425400D01*
X1400000Y625800D01*
X1374600Y600400D01*
X1349200D01*
X1374600Y575000D01*
X1349200Y549600D01*
X1374600D01*
X1400000Y524200D01*
X1699999Y-150800D02*
X1725399Y-125400D01*
X1750799D01*
X1725399Y-100000D01*
X1750799Y-74600D01*
X1725399D01*
X1699999Y-49200D01*
X1674599Y-74600D01*
X1649199D01*
X1674599Y-100000D01*
X1649199Y-125400D01*
X1674599D01*
X1699999Y-150800D01*
X1400000Y-225801D02*
X1425400Y-200401D01*
X1450800D01*
X1425400Y-175001D01*
X1450800Y-149601D01*
X1425400D01*
X1400000Y-124201D01*
X1374600Y-149601D01*
X1349200D01*
X1374600Y-175001D01*
X1349200Y-200401D01*
X1374600D01*
X1400000Y-225801D01*
X1699999Y-300802D02*
X1725399Y-275402D01*
X1750799D01*
X1725399Y-250002D01*
X1750799Y-224602D01*
X1725399D01*
X1699999Y-199202D01*
X1674599Y-224602D01*
X1649199D01*
X1674599Y-250002D01*
X1649199Y-275402D01*
X1674599D01*
X1699999Y-300802D01*
X1400000Y-375798D02*
X1425400Y-350398D01*
X1450800D01*
X1425400Y-324998D01*
X1450800Y-299598D01*
X1425400D01*
X1400000Y-274198D01*
X1374600Y-299598D01*
X1349200D01*
X1374600Y-324998D01*
X1349200Y-350398D01*
X1374600D01*
X1400000Y-375798D01*
X1699999Y-450799D02*
X1725399Y-425399D01*
X1750799D01*
X1725399Y-399999D01*
X1750799Y-374599D01*
X1725399D01*
X1699999Y-349199D01*
X1674599Y-374599D01*
X1649199D01*
X1674599Y-399999D01*
X1649199Y-425399D01*
X1674599D01*
X1699999Y-450799D01*
X1400000Y-525800D02*
X1425400Y-500400D01*
X1450800D01*
X1425400Y-475000D01*
X1450800Y-449600D01*
X1425400D01*
X1400000Y-424200D01*
X1374600Y-449600D01*
X1349200D01*
X1374600Y-475000D01*
X1349200Y-500400D01*
X1374600D01*
X1400000Y-525800D01*
X1699999Y-600801D02*
X1725399Y-575401D01*
X1750799D01*
X1725399Y-550001D01*
X1750799Y-524601D01*
X1725399D01*
X1699999Y-499201D01*
X1674599Y-524601D01*
X1649199D01*
X1674599Y-550001D01*
X1649199Y-575401D01*
X1674599D01*
X1699999Y-600801D01*
X1400000Y-675802D02*
X1425400Y-650402D01*
X1450800D01*
X1425400Y-625002D01*
X1450800Y-599602D01*
X1425400D01*
X1400000Y-574202D01*
X1374600Y-599602D01*
X1349200D01*
X1374600Y-625002D01*
X1349200Y-650402D01*
X1374600D01*
X1400000Y-675802D01*
X1699999Y-750798D02*
X1725399Y-725398D01*
X1750799D01*
X1725399Y-699998D01*
X1750799Y-674598D01*
X1725399D01*
X1699999Y-649198D01*
X1674599Y-674598D01*
X1649199D01*
X1674599Y-699998D01*
X1649199Y-725398D01*
X1674599D01*
X1699999Y-750798D01*
X1400000Y-825799D02*
X1425400Y-800399D01*
X1450800D01*
X1425400Y-774999D01*
X1450800Y-749599D01*
X1425400D01*
X1400000Y-724199D01*
X1374600Y-749599D01*
X1349200D01*
X1374600Y-774999D01*
X1349200Y-800399D01*
X1374600D01*
X1400000Y-825799D01*
X1699999Y-1950801D02*
X1649199Y-1849201D01*
X1750799D01*
X1699999Y-1950801D01*
Y-900801D02*
X1725399Y-875401D01*
X1750799D01*
X1725399Y-850001D01*
X1750799Y-824601D01*
X1725399D01*
X1699999Y-799201D01*
X1674599Y-824601D01*
X1649199D01*
X1674599Y-850001D01*
X1649199Y-875401D01*
X1674599D01*
X1699999Y-900801D01*
%TF.MD5,3740ebb0d7ec9f705ea26f162ad99d3b*%
M02*
