%TF.GenerationSoftware,Altium Limited,Altium Designer,23.8.1 (32)*%
G04 Layer_Color=0*
%FSLAX45Y45*%
%MOMM*%
%TF.SameCoordinates,FFDA7915-0CCF-4A61-A553-F8016C92DBF7*%
%TF.FilePolarity,Positive*%
%TF.FileFunction,Other,Top_Component_Center*%
%TF.Part,Single*%
G01*
G75*
%TA.AperFunction,NonConductor*%
%ADD19C,0.10000*%
D19*
X950000Y-600000D02*
X1050000D01*
X1000000Y-650000D02*
Y-550000D01*
X950000Y-200000D02*
X1050000D01*
X1000000Y-250000D02*
Y-150000D01*
X950000Y200000D02*
X1050000D01*
X1000000Y150000D02*
Y250000D01*
X950000Y600000D02*
X1050000D01*
X1000000Y550000D02*
Y650000D01*
X150000Y-600000D02*
X250000D01*
X200000Y-650000D02*
Y-550000D01*
X550000Y-800000D02*
X650000D01*
X600000Y-850000D02*
Y-750000D01*
X550000Y-400000D02*
X650000D01*
X600000Y-450000D02*
Y-350000D01*
X550000Y0D02*
X650000D01*
X600000Y-50000D02*
Y50000D01*
X550000Y400000D02*
X650000D01*
X600000Y350000D02*
Y450000D01*
X550000Y800000D02*
X650000D01*
X600000Y750000D02*
Y850000D01*
X150000Y600000D02*
X250000D01*
X200000Y550000D02*
Y650000D01*
X-250000Y-600000D02*
X-150000D01*
X-200000Y-650000D02*
Y-550000D01*
X-250000Y600000D02*
X-150000D01*
X-200000Y550000D02*
Y650000D01*
X-650000Y-800000D02*
X-550000D01*
X-600000Y-850000D02*
Y-750000D01*
X-650000Y-400000D02*
X-550000D01*
X-600000Y-450000D02*
Y-350000D01*
X-650000Y0D02*
X-550000D01*
X-600000Y-50000D02*
Y50000D01*
X-650000Y400000D02*
X-550000D01*
X-600000Y350000D02*
Y450000D01*
X-650000Y800000D02*
X-550000D01*
X-600000Y750000D02*
Y850000D01*
X150000Y-200000D02*
X250000D01*
X200000Y-250000D02*
Y-150000D01*
X-1050000Y-600000D02*
X-950000D01*
X-1000000Y-650000D02*
Y-550000D01*
X-1050000Y-200000D02*
X-950000D01*
X-1000000Y-250000D02*
Y-150000D01*
X-1050000Y200000D02*
X-950000D01*
X-1000000Y150000D02*
Y250000D01*
X-1050000Y600000D02*
X-950000D01*
X-1000000Y550000D02*
Y650000D01*
X-250000Y-200000D02*
X-150000D01*
X-200000Y-250000D02*
Y-150000D01*
X-250000Y200000D02*
X-150000D01*
X-200000Y150000D02*
Y250000D01*
X150000Y200000D02*
X250000D01*
X200000Y150000D02*
Y250000D01*
%TF.MD5,f4a604d62bbc8fb302311429ae4912b7*%
M02*
