%TF.GenerationSoftware,Altium Limited,Altium Designer,23.8.1 (32)*%
G04 Layer_Color=2752767*
%FSLAX45Y45*%
%MOMM*%
%TF.SameCoordinates,FFDA7915-0CCF-4A61-A553-F8016C92DBF7*%
%TF.FilePolarity,Positive*%
%TF.FileFunction,Drawing*%
%TF.Part,Single*%
G01*
G75*
%TA.AperFunction,NonConductor*%
%ADD23C,0.12700*%
D23*
X1049200Y-950800D02*
Y-849200D01*
X1150800D01*
Y-950800D01*
X1049200D01*
X1849200Y-750800D02*
Y-649200D01*
X1950800D01*
Y-750800D01*
X1849200D01*
Y-460800D02*
Y-359200D01*
X1950800D01*
Y-460800D01*
X1849200D01*
Y-150800D02*
Y-49200D01*
X1950800D01*
Y-150800D01*
X1849200D01*
Y149200D02*
Y250800D01*
X1950800D01*
Y149200D01*
X1849200D01*
Y449200D02*
Y550800D01*
X1950800D01*
Y449200D01*
X1849200D01*
X-1950800Y-850800D02*
Y-749200D01*
X-1849200D01*
Y-850800D01*
X-1950800D01*
Y-550800D02*
Y-449200D01*
X-1849200D01*
Y-550800D01*
X-1950800D01*
Y-250800D02*
Y-149200D01*
X-1849200D01*
Y-250800D01*
X-1950800D01*
Y49200D02*
Y150800D01*
X-1849200D01*
Y49200D01*
X-1950800D01*
Y349200D02*
Y450800D01*
X-1849200D01*
Y349200D01*
X-1950800D01*
Y649200D02*
Y750800D01*
X-1849200D01*
Y649200D01*
X-1950800D01*
X749200Y-650800D02*
Y-549200D01*
X850800D01*
Y-650800D01*
X749200D01*
X-850800D02*
Y-549200D01*
X-749200D01*
Y-650800D01*
X-850800D01*
X749200Y849200D02*
Y950800D01*
X850800D01*
Y849200D01*
X749200D01*
X359200Y-660800D02*
Y-559200D01*
X460800D01*
Y-660800D01*
X359200D01*
X349200Y-150800D02*
Y-49200D01*
X450800D01*
Y-150800D01*
X349200D01*
Y149200D02*
Y250800D01*
X450800D01*
Y149200D01*
X349200D01*
Y549200D02*
Y650800D01*
X450800D01*
Y549200D01*
X349200D01*
X-450800D02*
Y650800D01*
X-349200D01*
Y549200D01*
X-450800D01*
Y149200D02*
Y250800D01*
X-349200D01*
Y149200D01*
X-450800D01*
Y-150800D02*
Y-49200D01*
X-349200D01*
Y-150800D01*
X-450800D01*
X-460800Y-650800D02*
Y-549200D01*
X-359200D01*
Y-650800D01*
X-460800D01*
X-850800Y849200D02*
Y950800D01*
X-749200D01*
Y849200D01*
X-850800D01*
%TF.MD5,3730c1432fdbaf6fe513507c7c5e56e9*%
M02*
