%TF.GenerationSoftware,Altium Limited,Altium Designer,23.8.1 (32)*%
G04 Layer_Color=128*
%FSLAX45Y45*%
%MOMM*%
%TF.SameCoordinates,FFDA7915-0CCF-4A61-A553-F8016C92DBF7*%
%TF.FilePolarity,Positive*%
%TF.FileFunction,Drillmap*%
%TF.Part,Single*%
G01*
G75*
%TA.AperFunction,NonConductor*%
%ADD23C,0.12700*%
D23*
X1064440Y-900000D02*
X1135560D01*
X1100000Y-935560D02*
Y-864440D01*
X1864440Y-700000D02*
X1935560D01*
X1900000Y-735560D02*
Y-664440D01*
X1864440Y-410000D02*
X1935560D01*
X1900000Y-445560D02*
Y-374440D01*
X1864440Y-100000D02*
X1935560D01*
X1900000Y-135560D02*
Y-64440D01*
X1864440Y200000D02*
X1935560D01*
X1900000Y164440D02*
Y235560D01*
X1864440Y500000D02*
X1935560D01*
X1900000Y464440D02*
Y535560D01*
X-1935560Y-800000D02*
X-1864440D01*
X-1900000Y-835560D02*
Y-764440D01*
X-1935560Y-500000D02*
X-1864440D01*
X-1900000Y-535560D02*
Y-464440D01*
X-1935560Y-200000D02*
X-1864440D01*
X-1900000Y-235560D02*
Y-164440D01*
X-1935560Y100000D02*
X-1864440D01*
X-1900000Y64440D02*
Y135560D01*
X-1935560Y400000D02*
X-1864440D01*
X-1900000Y364440D02*
Y435560D01*
X-1935560Y700000D02*
X-1864440D01*
X-1900000Y664440D02*
Y735560D01*
X764440Y-600000D02*
X835560D01*
X800000Y-635560D02*
Y-564440D01*
X-835560Y-600000D02*
X-764440D01*
X-800000Y-635560D02*
Y-564440D01*
X764440Y900000D02*
X835560D01*
X800000Y864440D02*
Y935560D01*
X374440Y-610000D02*
X445560D01*
X410000Y-645560D02*
Y-574440D01*
X364440Y-100000D02*
X435560D01*
X400000Y-135560D02*
Y-64440D01*
X364440Y200000D02*
X435560D01*
X400000Y164440D02*
Y235560D01*
X364440Y600000D02*
X435560D01*
X400000Y564440D02*
Y635560D01*
X-435560Y600000D02*
X-364440D01*
X-400000Y564440D02*
Y635560D01*
X-435560Y200000D02*
X-364440D01*
X-400000Y164440D02*
Y235560D01*
X-435560Y-100000D02*
X-364440D01*
X-400000Y-135560D02*
Y-64440D01*
X-445560Y-600000D02*
X-374440D01*
X-410000Y-635560D02*
Y-564440D01*
X-835560Y900000D02*
X-764440D01*
X-800000Y864440D02*
Y935560D01*
%TF.MD5,e8b0106bc79bd09c3bbc272dcea43ba1*%
M02*
