%TF.GenerationSoftware,Altium Limited,Altium Designer,23.8.1 (32)*%
G04 Layer_Physical_Order=2*
G04 Layer_Color=16711680*
%FSLAX45Y45*%
%MOMM*%
%TF.SameCoordinates,FFDA7915-0CCF-4A61-A553-F8016C92DBF7*%
%TF.FilePolarity,Positive*%
%TF.FileFunction,Copper,L2,Bot,Signal*%
%TF.Part,Single*%
G01*
G75*
%TA.AperFunction,Conductor*%
%ADD13C,0.25400*%
%TA.AperFunction,ViaPad*%
%ADD14C,1.27000*%
D13*
X-1900000Y700000D02*
X-1000000D01*
X-800000Y900000D01*
X-600000Y400000D02*
X-400000Y600000D01*
X-1900000Y400000D02*
X-600000D01*
X-500000Y100000D02*
X-400000Y200000D01*
X-1900000Y100000D02*
X-500000D01*
X-1900000Y-200000D02*
X-500000D01*
X-400000Y-100000D01*
X-1900000Y-500000D02*
X-900000D01*
X-800000Y-600000D01*
X-1900000Y-800000D02*
X-610000D01*
X-410000Y-600000D01*
X410000Y-610000D02*
X700000Y-900000D01*
X1100000D01*
X800000Y-600000D02*
X900000Y-700000D01*
X1900000D01*
X400000Y-100000D02*
X710000Y-410000D01*
X1900000D01*
X400000Y200000D02*
X700000Y-100000D01*
X1900000D01*
X400000Y600000D02*
X800000Y200000D01*
X1900000D01*
X800000Y900000D02*
X1200000Y500000D01*
X1900000D01*
D14*
X1100000Y-900000D02*
D03*
X1900000Y-700000D02*
D03*
Y-410000D02*
D03*
Y-100000D02*
D03*
Y200000D02*
D03*
Y500000D02*
D03*
X-1900000Y-800000D02*
D03*
Y-500000D02*
D03*
Y-200000D02*
D03*
Y100000D02*
D03*
Y400000D02*
D03*
Y700000D02*
D03*
X800000Y-600000D02*
D03*
X-800000D02*
D03*
X800000Y900000D02*
D03*
X410000Y-610000D02*
D03*
X400000Y-100000D02*
D03*
Y200000D02*
D03*
Y600000D02*
D03*
X-400000D02*
D03*
Y200000D02*
D03*
Y-100000D02*
D03*
X-410000Y-600000D02*
D03*
X-800000Y900000D02*
D03*
%TF.MD5,b681c55bebc4a513526a723ab5cded52*%
M02*
