%TF.GenerationSoftware,Altium Limited,Altium Designer,23.8.1 (32)*%
G04 Layer_Physical_Order=1*
G04 Layer_Color=255*
%FSLAX45Y45*%
%MOMM*%
%TF.SameCoordinates,FFDA7915-0CCF-4A61-A553-F8016C92DBF7*%
%TF.FilePolarity,Positive*%
%TF.FileFunction,Copper,L1,Top,Signal*%
%TF.Part,Single*%
G01*
G75*
%TA.AperFunction,SMDPad,CuDef*%
%ADD10R,1.30707X0.90606*%
%ADD11R,2.00000X1.00000*%
%TA.AperFunction,ConnectorPad*%
%ADD12R,2.00000X1.00000*%
%TA.AperFunction,Conductor*%
%ADD13C,0.25400*%
%TA.AperFunction,ViaPad*%
%ADD14C,1.27000*%
D10*
X1000000Y-522392D02*
D03*
Y-677608D02*
D03*
Y-122392D02*
D03*
Y-277608D02*
D03*
Y277608D02*
D03*
Y122392D02*
D03*
Y677608D02*
D03*
Y522392D02*
D03*
X200000Y-522392D02*
D03*
Y-677608D02*
D03*
X600000Y-722392D02*
D03*
Y-877608D02*
D03*
Y-322392D02*
D03*
Y-477608D02*
D03*
Y77608D02*
D03*
Y-77608D02*
D03*
Y477608D02*
D03*
Y322392D02*
D03*
Y877608D02*
D03*
Y722392D02*
D03*
X200000Y677608D02*
D03*
Y522392D02*
D03*
X-200000Y-522392D02*
D03*
Y-677608D02*
D03*
Y677608D02*
D03*
Y522392D02*
D03*
X-600000Y-722392D02*
D03*
Y-877608D02*
D03*
Y-322392D02*
D03*
Y-477608D02*
D03*
Y77608D02*
D03*
Y-77608D02*
D03*
Y477608D02*
D03*
Y322392D02*
D03*
Y877608D02*
D03*
Y722392D02*
D03*
X200000Y-122392D02*
D03*
Y-277608D02*
D03*
X-1000000Y-522392D02*
D03*
Y-677608D02*
D03*
Y-122392D02*
D03*
Y-277608D02*
D03*
Y277608D02*
D03*
Y122392D02*
D03*
Y677608D02*
D03*
Y522392D02*
D03*
X-200000Y-122392D02*
D03*
Y-277608D02*
D03*
Y277608D02*
D03*
Y122392D02*
D03*
X200000Y277608D02*
D03*
Y122392D02*
D03*
D11*
X1700000Y-1000000D02*
D03*
X1400000Y-925000D02*
D03*
X1700000Y-850000D02*
D03*
X1400000Y-775000D02*
D03*
X1700000Y-700000D02*
D03*
X1400000Y-625000D02*
D03*
X1700000Y-550000D02*
D03*
X1400000Y-475000D02*
D03*
X1700000Y-400000D02*
D03*
Y-250000D02*
D03*
X1400000Y-325000D02*
D03*
Y-175000D02*
D03*
X1700000Y-100000D02*
D03*
X1400000Y-25000D02*
D03*
X1700000Y50000D02*
D03*
X1400000Y125000D02*
D03*
X1700000Y200000D02*
D03*
X1400000Y275000D02*
D03*
X1700000Y350000D02*
D03*
X1400000Y425000D02*
D03*
X1700000Y500000D02*
D03*
X1400000Y575000D02*
D03*
X1700000Y650000D02*
D03*
X1400000Y725000D02*
D03*
Y875000D02*
D03*
X1700000Y800000D02*
D03*
Y950000D02*
D03*
X-1700000Y-950000D02*
D03*
X-1400000Y-875000D02*
D03*
X-1700000Y-800000D02*
D03*
X-1400000Y-725000D02*
D03*
X-1700000Y-650000D02*
D03*
X-1400000Y-575000D02*
D03*
X-1700000Y-500000D02*
D03*
X-1400000Y-425000D02*
D03*
X-1700000Y-350000D02*
D03*
X-1400000Y-275000D02*
D03*
X-1700000Y-200000D02*
D03*
X-1400000Y-125000D02*
D03*
X-1700000Y-50000D02*
D03*
X-1400000Y25000D02*
D03*
X-1700000Y100000D02*
D03*
X-1400000Y175000D02*
D03*
X-1700000Y250000D02*
D03*
X-1400000Y325000D02*
D03*
X-1700000Y400000D02*
D03*
X-1400000Y475000D02*
D03*
X-1700000Y550000D02*
D03*
X-1400000Y625000D02*
D03*
X-1700000Y700000D02*
D03*
X-1400000Y775000D02*
D03*
X-1700000Y850000D02*
D03*
X-1400000Y925000D02*
D03*
D12*
X-1700000Y1000000D02*
D03*
D13*
X-850000Y250000D02*
Y365121D01*
X-1180000Y380000D02*
X-864879D01*
X-850000Y365121D01*
X-1275000Y475000D02*
X-1180000Y380000D01*
X-1230000Y530000D02*
X-1120000Y420000D01*
X-840000D01*
X-782392Y477608D01*
X1170000Y810000D02*
X1235000Y875000D01*
X1000000Y677608D02*
Y1005121D01*
X1700000Y500000D02*
X1900000D01*
X1235000Y875000D02*
X1400000D01*
X622392Y900000D02*
X800000D01*
X600000Y877608D02*
X622392Y900000D01*
X-800000D02*
X-622392D01*
X-600000Y877608D01*
X-723002Y-619440D02*
X-620051Y-722392D01*
X-780560Y-619440D02*
X-723002D01*
X-800000Y-600000D02*
X-780560Y-619440D01*
X-620051Y-722392D02*
X-600000D01*
X-330000Y-520000D02*
X-202392D01*
X-200000Y-522392D01*
X-410000Y-600000D02*
X-330000Y-520000D01*
X-410000Y-600000D02*
Y-600000D01*
X-222392Y-100000D02*
X-200000Y-122392D01*
X-400000Y-100000D02*
X-222392D01*
X-202488Y275121D02*
X-200000Y277608D01*
X-330000Y270000D02*
Y275121D01*
X-202488D01*
X-400000Y200000D02*
Y200000D01*
X-330000Y270000D01*
X-380000Y600000D02*
X-302392Y677608D01*
X-200000D01*
X-400000Y600000D02*
X-380000D01*
X200000Y677608D02*
X302392D01*
X380000Y600000D01*
X400000D01*
X200000Y277608D02*
X322392D01*
X400000Y200000D01*
Y200000D02*
Y200000D01*
X200000Y-122392D02*
X222392Y-100000D01*
X400000D01*
X780560Y-619440D02*
X800000Y-600000D01*
X600000Y-722392D02*
X620051D01*
X723002Y-619440D01*
X780560D01*
X202392Y-520000D02*
X325121D01*
X340000Y-534879D01*
Y-540000D02*
Y-534879D01*
X200000Y-522392D02*
X202392Y-520000D01*
X410000Y-610000D02*
Y-610000D01*
X340000Y-540000D02*
X410000Y-610000D01*
X1570000Y-1000000D02*
X1700000D01*
X1100000Y-900000D02*
X1230000Y-1030000D01*
X1540000D02*
X1570000Y-1000000D01*
X1230000Y-1030000D02*
X1540000D01*
X1700000Y200000D02*
X1900000D01*
X1700000Y-100000D02*
X1900000D01*
X1700000Y-400000D02*
X1710000Y-410000D01*
X1900000D01*
X1700000Y-700000D02*
X1900000D01*
X-1900000Y-800000D02*
X-1700000D01*
X-1900000Y-500000D02*
X-1700000D01*
X-1900000Y-200000D02*
X-1700000D01*
X-1900000Y100000D02*
X-1700000D01*
X-1900000Y400000D02*
X-1700000D01*
X-1900000Y700000D02*
X-1700000D01*
X600000Y-322392D02*
X747271D01*
X824879Y-400000D01*
X-734879Y-320000D02*
X-602392D01*
X-824879Y-410000D02*
X-734879Y-320000D01*
X-602392D02*
X-600000Y-322392D01*
X-288575Y521425D02*
X-200967D01*
X-410000Y400000D02*
X-288575Y521425D01*
X-410000Y344879D02*
Y400000D01*
X-200967Y521425D02*
X-200000Y522392D01*
X-579949Y-77608D02*
X-379949Y-277608D01*
X-220051D01*
X-717608Y-77608D02*
X-579949D01*
X-220051Y-277608D02*
X-200000D01*
X1550000Y820000D02*
Y1005121D01*
X1014879Y1020000D02*
X1535121D01*
X1000000Y1005121D02*
X1014879Y1020000D01*
X1535121D02*
X1550000Y1005121D01*
X-1680000Y1020000D02*
X-1230000D01*
X-1700000Y1000000D02*
X-1680000Y1020000D01*
X-1230000D02*
X-1170000Y960000D01*
X1570000Y800000D02*
X1700000D01*
X1550000Y820000D02*
X1570000Y800000D01*
X-1052654Y710211D02*
X-1020051Y677608D01*
X-1052654Y710211D02*
Y730262D01*
X-1170000Y847608D02*
X-1052654Y730262D01*
X-1020051Y677608D02*
X-1000000D01*
X-1170000Y847608D02*
Y960000D01*
X-1395000Y770000D02*
X-1244879D01*
X-1230000Y530000D02*
Y755121D01*
X-1400000Y775000D02*
X-1395000Y770000D01*
X-1244879D02*
X-1230000Y755121D01*
X-782392Y477608D02*
X-600000D01*
X-1400000Y475000D02*
X-1275000D01*
X-850000Y250000D02*
X-780000Y180000D01*
X-722443D02*
X-620051Y77608D01*
X-600000D01*
X-780000Y180000D02*
X-722443D01*
X812392Y477608D02*
X870000Y420000D01*
X1155121D02*
X1170000Y434879D01*
Y810000D01*
X870000Y420000D02*
X1155121D01*
X814879Y380000D02*
X1225121D01*
X800000Y190000D02*
Y365121D01*
X814879Y380000D01*
X1225121D02*
X1240000Y394879D01*
Y555121D01*
X600000Y477608D02*
X812392D01*
X1240000Y555121D02*
X1254879Y570000D01*
X1395000D02*
X1400000Y575000D01*
X1254879Y570000D02*
X1395000D01*
X600000Y77608D02*
X632603Y110211D01*
X720211D01*
X800000Y190000D01*
X-1210000Y189879D02*
Y262729D01*
X-1400000Y175000D02*
X-1224879D01*
X-1210000Y189879D01*
Y262729D02*
X-1195121Y277608D01*
X-1000000D01*
X1397392D02*
X1400000Y275000D01*
X1000000Y277608D02*
X1397392D01*
X1000000Y-522392D02*
X1002392Y-520000D01*
X1175121D01*
X1190000Y-680000D02*
Y-534879D01*
X1175121Y-520000D02*
X1190000Y-534879D01*
Y-680000D02*
X1247700Y-737700D01*
X1362700D02*
X1400000Y-775000D01*
X1247700Y-737700D02*
X1362700D01*
X1275000Y-475000D02*
X1400000D01*
X1200000Y-400000D02*
X1275000Y-475000D01*
X824879Y-400000D02*
X1200000D01*
X-1274879Y-575000D02*
X-1260000Y-560121D01*
Y-500000D01*
X-1400000Y-575000D02*
X-1274879D01*
X-1170000Y-410000D02*
X-824879D01*
X-1260000Y-500000D02*
X-1170000Y-410000D01*
X-1450000Y-875000D02*
X-1425000D01*
X-1420000Y-880000D02*
X-1214879D01*
X-1425000Y-875000D02*
X-1420000Y-880000D01*
X-1214879D02*
X-1200000Y-865121D01*
Y-610000D01*
X-1112392Y-522392D02*
X-1000000D01*
X-1200000Y-610000D02*
X-1112392Y-522392D01*
X-1400000Y-275000D02*
X-1255000D01*
X-1102392Y-122392D02*
X-1000000D01*
X-1255000Y-275000D02*
X-1102392Y-122392D01*
X1000000D02*
X1297392D01*
X1350000Y-175000D01*
X1400000D01*
X-779949Y-77608D02*
X-717608D01*
X-1000000Y-277608D02*
X-814879D01*
X-800000Y-262729D02*
Y-160000D01*
X-814879Y-277608D02*
X-800000Y-262729D01*
Y-160000D02*
X-717608Y-77608D01*
X-979949Y122392D02*
X-779949Y-77608D01*
X-1000000Y122392D02*
X-979949D01*
X860000Y-230000D02*
X907608Y-277608D01*
X1000000D01*
X854784Y-230000D02*
X860000D01*
X702392Y-77608D02*
X854784Y-230000D01*
X-600000Y322392D02*
X-592392Y330000D01*
X-424879D01*
X-410000Y344879D01*
X297608Y522392D02*
X497608Y322392D01*
X600000D01*
X200000Y522392D02*
X297608D01*
X-1400000Y25000D02*
X-1117443D01*
X220051Y-277608D02*
X379949D01*
X220051D02*
X420051Y-477608D01*
X600000D01*
X200000Y-277608D02*
X220051D01*
X-600000Y-477608D02*
X-420051D01*
X-220051Y-277608D01*
X-920000Y-880000D02*
X-414879D01*
X-1000000Y-800000D02*
X-920000Y-880000D01*
X-1000000Y-800000D02*
Y-677608D01*
X-827608Y522392D02*
X-810000Y540000D01*
X-1000000Y522392D02*
X-827608D01*
X-795121Y722392D02*
X-600000D01*
X-810000Y707513D02*
X-795121Y722392D01*
X-810000Y540000D02*
Y707513D01*
X-600000Y722392D02*
X-384879D01*
X-370000Y737271D01*
Y785121D01*
X-355121Y800000D02*
X-40000D01*
X-370000Y785121D02*
X-355121Y800000D01*
X-40000D02*
X0Y760000D01*
X-400000Y-865121D02*
Y-834879D01*
X-414879Y-880000D02*
X-400000Y-865121D01*
Y-834879D02*
X-385121Y-820000D01*
X-14879D01*
X0Y-805121D01*
X600000Y-77608D02*
X702392D01*
X902392Y122392D01*
X1000000D01*
Y-760000D02*
Y-677608D01*
X882392Y-877608D02*
X1000000Y-760000D01*
X600000Y-877608D02*
X882392D01*
X857608Y522392D02*
X1000000D01*
X600000Y722392D02*
X777608D01*
X810000Y570000D02*
X857608Y522392D01*
X810000Y570000D02*
Y690000D01*
X777608Y722392D02*
X810000Y690000D01*
X427608Y722392D02*
X600000D01*
X410000Y740000D02*
X427608Y722392D01*
X410000Y740000D02*
Y785121D01*
X40000Y800000D02*
X395121D01*
X410000Y785121D01*
X0Y760000D02*
X40000Y800000D01*
X0Y505121D02*
Y760000D01*
X577608Y-900000D02*
X600000Y-877608D01*
X424879Y-900000D02*
X577608D01*
X410000Y-885121D02*
Y-840000D01*
Y-885121D02*
X424879Y-900000D01*
X390000Y-820000D02*
X410000Y-840000D01*
X14879Y-820000D02*
X390000D01*
X0Y-805121D02*
Y-665121D01*
Y-805121D02*
X14879Y-820000D01*
X-17271Y522392D02*
X0Y505121D01*
X-200000Y522392D02*
X-17271D01*
X197608Y520000D02*
X200000Y522392D01*
X0Y105121D02*
Y505121D01*
X14879Y520000D02*
X197608D01*
X0Y505121D02*
X14879Y520000D01*
X-17271Y122392D02*
X0Y105121D01*
X-200000Y122392D02*
X-17271D01*
X14879Y120000D02*
X197608D01*
X0Y-277608D02*
Y105121D01*
X197608Y120000D02*
X200000Y122392D01*
X0Y105121D02*
X14879Y120000D01*
X-12487Y-677608D02*
X0Y-665121D01*
X-200000Y-677608D02*
X-12487D01*
X0Y-277608D02*
X200000D01*
X-200000D02*
X0D01*
X197608Y-680000D02*
X200000Y-677608D01*
X14879Y-680000D02*
X197608D01*
X0Y-665121D02*
Y-277608D01*
Y-665121D02*
X14879Y-680000D01*
X1167443Y-25000D02*
X1400000D01*
X1020051Y122392D02*
X1167443Y-25000D01*
X1000000Y122392D02*
X1020051D01*
X579949Y-77608D02*
X600000D01*
X379949Y-277608D02*
X579949Y-77608D01*
X-1117443Y25000D02*
X-1020051Y122392D01*
X-1000000D01*
X-1437300Y137700D02*
X-1400000Y175000D01*
D14*
X1100000Y-900000D02*
D03*
X1900000Y-700000D02*
D03*
Y-410000D02*
D03*
Y-100000D02*
D03*
Y200000D02*
D03*
Y500000D02*
D03*
X-1900000Y-800000D02*
D03*
Y-500000D02*
D03*
Y-200000D02*
D03*
Y100000D02*
D03*
Y400000D02*
D03*
Y700000D02*
D03*
X800000Y-600000D02*
D03*
X-800000D02*
D03*
X800000Y900000D02*
D03*
X410000Y-610000D02*
D03*
X400000Y-100000D02*
D03*
Y200000D02*
D03*
Y600000D02*
D03*
X-400000D02*
D03*
Y200000D02*
D03*
Y-100000D02*
D03*
X-410000Y-600000D02*
D03*
X-800000Y900000D02*
D03*
%TF.MD5,ed26432b721416547cbab7fb223fecb8*%
M02*
