%TF.GenerationSoftware,Altium Limited,Altium Designer,23.8.1 (32)*%
G04 Layer_Color=16711935*
%FSLAX45Y45*%
%MOMM*%
%TF.SameCoordinates,FFDA7915-0CCF-4A61-A553-F8016C92DBF7*%
%TF.FilePolarity,Positive*%
%TF.FileFunction,Other,Top_Assembly*%
%TF.Part,Single*%
G01*
G75*
%TA.AperFunction,NonConductor*%
%ADD15C,0.20000*%
G36*
X200001Y283050D02*
X149858D01*
X149910Y282998D01*
X149962Y282894D01*
X150118Y282738D01*
X150326Y282530D01*
X150587Y282269D01*
X150847Y281905D01*
X151212Y281488D01*
X151576Y281020D01*
X151941Y280551D01*
X152357Y279978D01*
X153294Y278676D01*
X154284Y277218D01*
X155325Y275552D01*
X155377Y275500D01*
X155429Y275344D01*
X155585Y275084D01*
X155742Y274771D01*
X156002Y274355D01*
X156262Y273886D01*
X156523Y273365D01*
X156835Y272792D01*
X157512Y271543D01*
X158189Y270137D01*
X158814Y268731D01*
X159387Y267325D01*
X151732D01*
X151680Y267377D01*
X151576Y267638D01*
X151420Y267950D01*
X151159Y268419D01*
X150899Y268991D01*
X150535Y269668D01*
X150118Y270397D01*
X149649Y271230D01*
X149129Y272116D01*
X148556Y273001D01*
X147254Y274927D01*
X145848Y276906D01*
X144234Y278833D01*
X144182Y278885D01*
X144026Y279041D01*
X143818Y279301D01*
X143453Y279614D01*
X143089Y280030D01*
X142620Y280499D01*
X142099Y281020D01*
X141474Y281540D01*
X140173Y282686D01*
X138715Y283883D01*
X137205Y284925D01*
X136424Y285393D01*
X135643Y285810D01*
Y290913D01*
X200001D01*
Y283050D01*
D02*
G37*
G36*
Y245768D02*
X186671Y237281D01*
X186619Y237229D01*
X186411Y237124D01*
X186098Y236916D01*
X185734Y236656D01*
X185265Y236343D01*
X184693Y235979D01*
X184068Y235562D01*
X183443Y235146D01*
X181985Y234157D01*
X180527Y233115D01*
X179121Y232126D01*
X178496Y231605D01*
X177871Y231136D01*
X177819D01*
X177715Y231032D01*
X177559Y230928D01*
X177351Y230720D01*
X176830Y230303D01*
X176205Y229678D01*
X175476Y229054D01*
X174747Y228325D01*
X174122Y227544D01*
X173602Y226815D01*
X173550Y226710D01*
X173393Y226502D01*
X173185Y226138D01*
X172925Y225617D01*
X172612Y225044D01*
X172300Y224419D01*
X172040Y223743D01*
X171831Y223014D01*
Y222961D01*
X171779Y222753D01*
X171727Y222389D01*
X171675Y221868D01*
X171623Y221243D01*
X171571Y220410D01*
X171519Y219421D01*
Y208486D01*
X200001D01*
Y199999D01*
X135903D01*
Y229783D01*
X135955Y230512D01*
X136007Y231293D01*
X136059Y232230D01*
X136111Y233219D01*
X136320Y235302D01*
X136632Y237437D01*
X136840Y238478D01*
X137101Y239520D01*
X137361Y240457D01*
X137673Y241342D01*
Y241394D01*
X137777Y241550D01*
X137882Y241759D01*
X137986Y242071D01*
X138194Y242488D01*
X138454Y242904D01*
X139079Y243894D01*
X139444Y244466D01*
X139912Y245039D01*
X140433Y245664D01*
X140954Y246237D01*
X141579Y246810D01*
X142255Y247434D01*
X142984Y247955D01*
X143766Y248476D01*
X143818Y248528D01*
X143974Y248580D01*
X144182Y248736D01*
X144547Y248892D01*
X144963Y249101D01*
X145432Y249309D01*
X146005Y249569D01*
X146629Y249830D01*
X147306Y250090D01*
X148035Y250350D01*
X149649Y250767D01*
X151472Y251079D01*
X152409Y251131D01*
X153398Y251183D01*
X153451D01*
X153711D01*
X154075Y251131D01*
X154544D01*
X155117Y251027D01*
X155794Y250975D01*
X156575Y250819D01*
X157408Y250611D01*
X158293Y250402D01*
X159178Y250090D01*
X160168Y249725D01*
X161105Y249309D01*
X162094Y248788D01*
X163083Y248215D01*
X164021Y247538D01*
X164906Y246757D01*
X164958Y246705D01*
X165114Y246549D01*
X165323Y246289D01*
X165635Y245924D01*
X166051Y245456D01*
X166468Y244883D01*
X166937Y244206D01*
X167405Y243373D01*
X167926Y242488D01*
X168395Y241498D01*
X168915Y240353D01*
X169384Y239155D01*
X169853Y237801D01*
X170217Y236343D01*
X170582Y234781D01*
X170842Y233115D01*
Y233167D01*
X170894Y233271D01*
X170998Y233428D01*
X171102Y233688D01*
X171467Y234261D01*
X171883Y235042D01*
X172352Y235875D01*
X172925Y236708D01*
X173497Y237489D01*
X174070Y238218D01*
X174122Y238270D01*
X174226Y238374D01*
X174435Y238582D01*
X174695Y238843D01*
X175008Y239207D01*
X175424Y239572D01*
X175893Y240040D01*
X176413Y240509D01*
X176986Y241030D01*
X177611Y241603D01*
X178340Y242175D01*
X179069Y242748D01*
X180735Y243998D01*
X182558Y245247D01*
X200001Y256338D01*
Y245768D01*
D02*
G37*
%LPC*%
G36*
X153398Y242436D02*
X153346D01*
X153190D01*
X152982D01*
X152617Y242384D01*
X152253Y242331D01*
X151784Y242279D01*
X151316Y242175D01*
X150743Y242019D01*
X149597Y241603D01*
X148973Y241342D01*
X148348Y241030D01*
X147723Y240665D01*
X147098Y240197D01*
X146525Y239676D01*
X145952Y239103D01*
X145900Y239051D01*
X145848Y238947D01*
X145692Y238739D01*
X145484Y238478D01*
X145276Y238114D01*
X145015Y237697D01*
X144755Y237177D01*
X144442Y236604D01*
X144182Y235875D01*
X143922Y235146D01*
X143661Y234261D01*
X143453Y233375D01*
X143245Y232334D01*
X143089Y231241D01*
X143037Y230043D01*
X142984Y228741D01*
Y208486D01*
X164177D01*
Y227648D01*
X164125Y228116D01*
Y228689D01*
X164073Y229314D01*
X164021Y229991D01*
X163865Y231449D01*
X163656Y232959D01*
X163396Y234417D01*
X163188Y235094D01*
X162979Y235719D01*
Y235771D01*
X162927Y235875D01*
X162875Y236031D01*
X162771Y236239D01*
X162459Y236864D01*
X162042Y237593D01*
X161521Y238374D01*
X160844Y239207D01*
X160063Y239988D01*
X159178Y240717D01*
X159126D01*
X159074Y240769D01*
X158918Y240874D01*
X158710Y240978D01*
X158189Y241238D01*
X157460Y241603D01*
X156575Y241915D01*
X155637Y242175D01*
X154544Y242384D01*
X153398Y242436D01*
D02*
G37*
%LPD*%
D15*
X920000Y-732911D02*
X1080000D01*
Y-467089D01*
X920000D02*
X1080000D01*
X920000Y-732911D02*
Y-467089D01*
Y-332911D02*
X1080000D01*
Y-67089D01*
X920000D02*
X1080000D01*
X920000Y-332911D02*
Y-67089D01*
Y67089D02*
X1080000D01*
Y332911D01*
X920000D02*
X1080000D01*
X920000Y67089D02*
Y332911D01*
Y467089D02*
X1080000D01*
Y732911D01*
X920000D02*
X1080000D01*
X920000Y467089D02*
Y732911D01*
X120000Y-732911D02*
X280000D01*
Y-467089D01*
X120000D02*
X280000D01*
X120000Y-732911D02*
Y-467089D01*
X520000Y-932911D02*
X680000D01*
Y-667089D01*
X520000D02*
X680000D01*
X520000Y-932911D02*
Y-667089D01*
Y-532911D02*
X680000D01*
Y-267089D01*
X520000D02*
X680000D01*
X520000Y-532911D02*
Y-267089D01*
Y-132911D02*
X680000D01*
Y132911D01*
X520000D02*
X680000D01*
X520000Y-132911D02*
Y132911D01*
Y267089D02*
X680000D01*
Y532911D01*
X520000D02*
X680000D01*
X520000Y267089D02*
Y532911D01*
Y667089D02*
X680000D01*
Y932911D01*
X520000D02*
X680000D01*
X520000Y667089D02*
Y932911D01*
X120000Y467089D02*
X280000D01*
Y732911D01*
X120000D02*
X280000D01*
X120000Y467089D02*
Y732911D01*
X-280000Y-732911D02*
X-120000D01*
Y-467089D01*
X-280000D02*
X-120000D01*
X-280000Y-732911D02*
Y-467089D01*
Y467089D02*
X-120000D01*
Y732911D01*
X-280000D02*
X-120000D01*
X-280000Y467089D02*
Y732911D01*
X-680000Y-932911D02*
X-520000D01*
Y-667089D01*
X-680000D02*
X-520000D01*
X-680000Y-932911D02*
Y-667089D01*
Y-532911D02*
X-520000D01*
Y-267089D01*
X-680000D02*
X-520000D01*
X-680000Y-532911D02*
Y-267089D01*
Y-132911D02*
X-520000D01*
Y132911D01*
X-680000D02*
X-520000D01*
X-680000Y-132911D02*
Y132911D01*
Y267089D02*
X-520000D01*
Y532911D01*
X-680000D02*
X-520000D01*
X-680000Y267089D02*
Y532911D01*
Y667089D02*
X-520000D01*
Y932911D01*
X-680000D02*
X-520000D01*
X-680000Y667089D02*
Y932911D01*
X120000Y-332911D02*
X280000D01*
Y-67089D01*
X120000D02*
X280000D01*
X120000Y-332911D02*
Y-67089D01*
X-1080000Y-732911D02*
X-920000D01*
Y-467089D01*
X-1080000D02*
X-920000D01*
X-1080000Y-732911D02*
Y-467089D01*
Y-332911D02*
X-920000D01*
Y-67089D01*
X-1080000D02*
X-920000D01*
X-1080000Y-332911D02*
Y-67089D01*
Y67089D02*
X-920000D01*
Y332911D01*
X-1080000D02*
X-920000D01*
X-1080000Y67089D02*
Y332911D01*
Y467089D02*
X-920000D01*
Y732911D01*
X-1080000D02*
X-920000D01*
X-1080000Y467089D02*
Y732911D01*
X-280000Y-332911D02*
X-120000D01*
Y-67089D01*
X-280000D02*
X-120000D01*
X-280000Y-332911D02*
Y-67089D01*
Y67089D02*
X-120000D01*
Y332911D01*
X-280000D02*
X-120000D01*
X-280000Y67089D02*
Y332911D01*
X120000Y67089D02*
X280000D01*
Y332911D01*
X120000D02*
X280000D01*
X120000Y67089D02*
Y332911D01*
%TF.MD5,86684fb2e192c2d5d566570323952f43*%
M02*
