%TF.GenerationSoftware,Altium Limited,Altium Designer,24.0.1 (36)*%
G04 Layer_Physical_Order=2*
G04 Layer_Color=16711680*
%FSLAX45Y45*%
%MOMM*%
%TF.SameCoordinates,BA06A275-F6DB-48CF-8214-C1EAF842E6E6*%
%TF.FilePolarity,Positive*%
%TF.FileFunction,Copper,L2,Bot,Signal*%
%TF.Part,Single*%
G01*
G75*
%TA.AperFunction,Conductor*%
%ADD12C,0.12700*%
%ADD13C,0.25400*%
%TA.AperFunction,ViaPad*%
%ADD14C,2.00000*%
%TA.AperFunction,ComponentPad*%
G04:AMPARAMS|DCode=15|XSize=1mm|YSize=2mm|CornerRadius=0.25mm|HoleSize=0mm|Usage=FLASHONLY|Rotation=90.000|XOffset=0mm|YOffset=0mm|HoleType=Round|Shape=RoundedRectangle|*
%AMROUNDEDRECTD15*
21,1,1.00000,1.50000,0,0,90.0*
21,1,0.50000,2.00000,0,0,90.0*
1,1,0.50000,0.75000,0.25000*
1,1,0.50000,0.75000,-0.25000*
1,1,0.50000,-0.75000,-0.25000*
1,1,0.50000,-0.75000,0.25000*
%
%ADD15ROUNDEDRECTD15*%
%TA.AperFunction,ViaPad*%
%ADD16C,1.52400*%
%ADD17C,1.27000*%
D12*
X1405951Y-619051D02*
X3605949D01*
X3625000Y-600000D01*
X1405951Y-769048D02*
X3605952D01*
X3625000Y-750000D01*
X1400000Y-925002D02*
X1405951Y-919051D01*
X3605949D01*
X3625000Y-900000D01*
X1400000Y-774999D02*
X1405951Y-769048D01*
X1400000Y-625002D02*
X1405951Y-619051D01*
X1400000Y-475000D02*
X1405951Y-469049D01*
X3605951D01*
X3625000Y-450000D01*
X1400000Y-324998D02*
X1405946Y-319052D01*
X3605948D01*
X3625000Y-300000D01*
X1400000Y-175001D02*
X1405951Y-169050D01*
X3605950D01*
X3625000Y-150000D01*
X1400000Y-24998D02*
X1405946Y-19053D01*
X3605948D01*
X3625000Y0D01*
X1400000Y124999D02*
X1405951Y130950D01*
X3605950D01*
X3625000Y150000D01*
X1400000Y275001D02*
X1405951Y280952D01*
X3605952D01*
X3625000Y300000D01*
X1400000Y424998D02*
X1405951Y430949D01*
X3605949D01*
X3625000Y450000D01*
X1400000Y575000D02*
X1405951Y580951D01*
X3605951D01*
X3625000Y600000D01*
X1400000Y725003D02*
X1405946Y730948D01*
X3605949D01*
X3625000Y750000D01*
X1400000Y875000D02*
X1405951Y880951D01*
X3605951D01*
X3625000Y900000D01*
D13*
X1340000Y-25000D02*
X1400000D01*
X1340000Y-175000D02*
X1400000D01*
X1340000Y-325000D02*
X1400000D01*
X1340000Y125000D02*
X1400000D01*
X1340000Y275000D02*
X1400000D01*
D14*
X3000000Y-1450000D02*
D03*
X2500000D02*
D03*
X2000000D02*
D03*
D15*
X1699999Y-999998D02*
D03*
Y950001D02*
D03*
Y650001D02*
D03*
Y200000D02*
D03*
Y350002D02*
D03*
X1400000Y275001D02*
D03*
Y124999D02*
D03*
Y875000D02*
D03*
Y725003D02*
D03*
Y424998D02*
D03*
Y-24998D02*
D03*
X1699999Y49998D02*
D03*
Y799999D02*
D03*
Y499999D02*
D03*
X1400000Y575000D02*
D03*
X1699999Y-100000D02*
D03*
X1400000Y-175001D02*
D03*
X1699999Y-250002D02*
D03*
X1400000Y-324998D02*
D03*
X1699999Y-399999D02*
D03*
X1400000Y-475000D02*
D03*
X1699999Y-550001D02*
D03*
X1400000Y-625002D02*
D03*
X1699999Y-699998D02*
D03*
X1400000Y-774999D02*
D03*
X1699999Y-850001D02*
D03*
X1400000Y-925002D02*
D03*
D16*
X3100000Y-1900000D02*
D03*
X3099999Y1900002D02*
D03*
X1699999D02*
D03*
Y-1900001D02*
D03*
D17*
X3625000Y-600000D02*
D03*
Y-750000D02*
D03*
Y-300000D02*
D03*
Y900000D02*
D03*
Y750000D02*
D03*
Y600000D02*
D03*
Y450000D02*
D03*
Y-900000D02*
D03*
Y-450000D02*
D03*
Y-150000D02*
D03*
Y150000D02*
D03*
Y300000D02*
D03*
Y0D02*
D03*
%TF.MD5,1beea2e9cfeabb9ef4cde5b47883f896*%
M02*
