%TF.GenerationSoftware,Altium Limited,Altium Designer,24.0.1 (36)*%
G04 Layer_Color=16711935*
%FSLAX45Y45*%
%MOMM*%
%TF.SameCoordinates,0C073018-5ED0-424A-AD4F-26D4017CAF05*%
%TF.FilePolarity,Positive*%
%TF.FileFunction,Other,Mechanical_1*%
%TF.Part,Single*%
G01*
G75*
%TA.AperFunction,NonConductor*%
%ADD43C,0.10000*%
D43*
X1715419Y9310300D02*
Y9330294D01*
Y9320297D01*
X1775400D01*
Y9310300D01*
Y9330294D01*
X1725416Y9400271D02*
X1715419Y9390274D01*
Y9370280D01*
X1725416Y9360284D01*
X1765403D01*
X1775400Y9370280D01*
Y9390274D01*
X1765403Y9400271D01*
X1715419Y9460251D02*
Y9420264D01*
X1745410D01*
X1735413Y9440258D01*
Y9450255D01*
X1745410Y9460251D01*
X1765403D01*
X1775400Y9450255D01*
Y9430261D01*
X1765403Y9420264D01*
X1715419Y10560300D02*
Y10580294D01*
Y10570297D01*
X1775400D01*
Y10560300D01*
Y10580294D01*
X1725416Y10650271D02*
X1715419Y10640274D01*
Y10620280D01*
X1725416Y10610284D01*
X1765403D01*
X1775400Y10620280D01*
Y10640274D01*
X1765403Y10650271D01*
X1775400Y10700254D02*
X1715419D01*
X1745410Y10670264D01*
Y10710251D01*
%TF.MD5,ec6a939d45758f4a66f2419686954cc2*%
M02*
