%TF.GenerationSoftware,Altium Limited,Altium Designer,24.0.1 (36)*%
G04 Layer_Color=0*
%FSLAX45Y45*%
%MOMM*%
%TF.SameCoordinates,0C073018-5ED0-424A-AD4F-26D4017CAF05*%
%TF.FilePolarity,Positive*%
%TF.FileFunction,Other,Top_Component_Center*%
%TF.Part,Single*%
G01*
G75*
%TA.AperFunction,NonConductor*%
%ADD43C,0.10000*%
D43*
X3320000Y12680000D02*
X3420000D01*
X3370002Y12630003D02*
Y12730002D01*
X2949999Y10789999D02*
X3049999D01*
X3000001Y10740001D02*
Y10840001D01*
X2950002Y9559999D02*
X3050002D01*
X3000000Y9510001D02*
Y9610001D01*
X2999998Y8969998D02*
Y9069998D01*
X2950000Y9020001D02*
X3050000D01*
X2350002Y9459999D02*
X2450002D01*
X2399999Y9410001D02*
Y9510001D01*
X850003Y9810002D02*
X950002D01*
X900000Y9760000D02*
Y9859999D01*
X3000000Y10209998D02*
Y10309998D01*
X2949998Y10260001D02*
X3049997D01*
X2350002Y10690001D02*
X2450002D01*
X2399999Y10639999D02*
Y10739999D01*
X850003Y11080001D02*
X950002D01*
X900000Y11029999D02*
Y11129998D01*
X850003Y9290000D02*
X950002D01*
X900000Y9240003D02*
Y9340002D01*
X850003Y10539999D02*
X950002D01*
X900000Y10490002D02*
Y10590001D01*
%TF.MD5,b494be178acb080a3b0eb2f9b5f5383b*%
M02*
