%TF.GenerationSoftware,Altium Limited,Altium Designer,24.0.1 (36)*%
G04 Layer_Color=8388736*
%FSLAX45Y45*%
%MOMM*%
%TF.SameCoordinates,0C073018-5ED0-424A-AD4F-26D4017CAF05*%
%TF.FilePolarity,Positive*%
%TF.FileFunction,Other,Top_3D_Body*%
%TF.Part,Single*%
G01*
G75*
%TA.AperFunction,NonConductor*%
%ADD42C,0.20000*%
D42*
X3124750Y12874751D02*
X3615249D01*
X3124750Y12485253D02*
Y12874751D01*
Y12485253D02*
X3615249D01*
Y12874751D01*
X2900002Y10852498D02*
X3100001D01*
Y10727499D02*
Y10852498D01*
X2900002Y10727499D02*
X3100001D01*
X2900002D02*
Y10852498D01*
X2900000Y9622498D02*
X3100000D01*
Y9497499D02*
Y9622498D01*
X2900000Y9497499D02*
X3100000D01*
X2900000D02*
Y9622498D01*
X2899998Y8957502D02*
Y9082500D01*
Y8957502D02*
X3100002D01*
Y9082500D01*
X2899998D02*
X3100002D01*
X2337500Y9559999D02*
X2462499D01*
X2337500Y9359999D02*
Y9559999D01*
Y9359999D02*
X2462499D01*
Y9559999D01*
X837501Y9710002D02*
X962499D01*
Y9910002D01*
X837501D02*
X962499D01*
X837501Y9710002D02*
Y9910002D01*
X2900000Y10197501D02*
Y10322500D01*
Y10197501D02*
X3100000D01*
Y10322500D01*
X2900000D02*
X3100000D01*
X2337500Y10790001D02*
X2462499D01*
X2337500Y10590001D02*
Y10790001D01*
Y10590001D02*
X2462499D01*
Y10790001D01*
X837501Y10980001D02*
X962499D01*
Y11180001D01*
X837501D02*
X962499D01*
X837501Y10980001D02*
Y11180001D01*
Y9190000D02*
X962499D01*
Y9390000D01*
X837501D02*
X962499D01*
X837501Y9190000D02*
Y9390000D01*
Y10439999D02*
X962499D01*
Y10639999D01*
X837501D02*
X962499D01*
X837501Y10439999D02*
Y10639999D01*
%TF.MD5,98f5d977568be2e977c2248bceb5a8e9*%
M02*
