%TF.GenerationSoftware,Altium Limited,Altium Designer,24.0.1 (36)*%
G04 Layer_Color=32768*
%FSLAX45Y45*%
%MOMM*%
%TF.SameCoordinates,0C073018-5ED0-424A-AD4F-26D4017CAF05*%
%TF.FilePolarity,Positive*%
%TF.FileFunction,Other,Top_Courtyard*%
%TF.Part,Single*%
G01*
G75*
%TA.AperFunction,NonConductor*%
%ADD42C,0.20000*%
D42*
X3099751Y13049818D02*
X3640253D01*
X3099751Y12310186D02*
Y13049818D01*
Y12310186D02*
X3640253D01*
Y13049818D01*
X2789395Y10913107D02*
X3210608D01*
Y10666895D02*
Y10913107D01*
X2789395Y10666895D02*
X3210608D01*
X2789395D02*
Y10913107D01*
X2789393Y9683107D02*
X3210606D01*
Y9436895D02*
Y9683107D01*
X2789393Y9436895D02*
X3210606D01*
X2789393D02*
Y9683107D01*
X2789391Y8896892D02*
Y9143104D01*
Y8896892D02*
X3210604D01*
Y9143104D01*
X2789391D02*
X3210604D01*
X2276896Y9670605D02*
X2523108D01*
X2276896Y9249392D02*
Y9670605D01*
Y9249392D02*
X2523108D01*
Y9670605D01*
X776891Y9599395D02*
X1023109D01*
Y10020609D01*
X776891D02*
X1023109D01*
X776891Y9599395D02*
Y10020609D01*
X2789393Y10136892D02*
Y10383104D01*
Y10136892D02*
X3210607D01*
Y10383104D01*
X2789393D02*
X3210607D01*
X2276896Y10900608D02*
X2523108D01*
X2276896Y10479395D02*
Y10900608D01*
Y10479395D02*
X2523108D01*
Y10900608D01*
X776891Y10869394D02*
X1023109D01*
Y11290608D01*
X776891D02*
X1023109D01*
X776891Y10869394D02*
Y11290608D01*
Y9079393D02*
X1023109D01*
Y9500607D01*
X776891D02*
X1023109D01*
X776891Y9079393D02*
Y9500607D01*
Y10329392D02*
X1023109D01*
Y10750606D01*
X776891D02*
X1023109D01*
X776891Y10329392D02*
Y10750606D01*
%TF.MD5,404fcc86c7a36d21d4aeab3a56f4d2e5*%
M02*
