%TF.GenerationSoftware,Altium Limited,Altium Designer,24.0.1 (36)*%
G04 Layer_Color=16711935*
%FSLAX45Y45*%
%MOMM*%
%TF.SameCoordinates,0C073018-5ED0-424A-AD4F-26D4017CAF05*%
%TF.FilePolarity,Positive*%
%TF.FileFunction,Other,Mechanical_13*%
%TF.Part,Single*%
G01*
G75*
%TA.AperFunction,NonConductor*%
%ADD42C,0.20000*%
%ADD43C,0.10000*%
%ADD48C,0.07620*%
%ADD74C,0.02540*%
D42*
X6640000Y10820000D02*
X6840000D01*
Y13460001D01*
X6640000D02*
X6840000D01*
X6640000Y10820000D02*
Y13460001D01*
X3145000Y11665000D02*
X3395000D01*
Y11995000D01*
X3145000D02*
X3395000D01*
X3145000Y11665000D02*
Y11995000D01*
D43*
X5933050Y13140028D02*
G03*
X5492950Y13140028I-220050J43970D01*
G01*
X5003050Y13150029D02*
G03*
X4562950Y13150029I-220050J43970D01*
G01*
X1640000Y9340000D02*
G03*
X1640000Y9340000I-50000J0D01*
G01*
X3366485Y9016613D02*
G03*
X3366454Y9403366I133515J193387D01*
G01*
X3366485Y10286612D02*
G03*
X3366454Y10673365I133515J193387D01*
G01*
X1640000Y10590000D02*
G03*
X1640000Y10590000I-50000J0D01*
G01*
X5513000Y13039999D02*
X5913000D01*
X5933000Y13139999D01*
X5493000D02*
X5513000Y13039999D01*
X4583000Y13050000D02*
X4983000D01*
X5003000Y13150000D01*
X4563000D02*
X4583000Y13050000D01*
X5349500Y11629800D02*
X5870500D01*
X5349500D02*
Y11890200D01*
X5870500D01*
Y11629800D02*
Y11890200D01*
X5793000Y11629800D02*
X5870500Y11707200D01*
X4399500Y11629800D02*
X4920500D01*
X4399500D02*
Y11890200D01*
X4920500D01*
Y11629800D02*
Y11890200D01*
X4843000Y11629800D02*
X4920500Y11707200D01*
X4760000Y12257500D02*
X4960000D01*
X4760000D02*
Y12382500D01*
X4960000D01*
Y12257500D02*
Y12382500D01*
X5700000Y12387500D02*
X5900000D01*
X5700000D02*
Y12512500D01*
X5900000D01*
Y12387500D02*
Y12512500D01*
X3132999Y6896500D02*
X3259999Y6769500D01*
X3132999D02*
X6866997D01*
Y8230502D01*
X3132999D02*
X6866997D01*
X3132999Y6769500D02*
Y8230502D01*
X1133003Y2569501D02*
Y4030499D01*
X4867001D01*
Y2569501D02*
Y4030499D01*
X1133003Y2569501D02*
X4867001D01*
X1133003Y2696501D02*
X1260003Y2569501D01*
X3133002Y596499D02*
X3260002Y469499D01*
X3133002D02*
X6867006D01*
Y1930497D01*
X3133002D02*
X6867006D01*
X3133002Y469499D02*
Y1930497D01*
X825001Y1005000D02*
Y1126001D01*
Y1005000D02*
X888998D01*
Y1126001D01*
X571001Y1005000D02*
Y1126001D01*
Y1005000D02*
X634998D01*
Y1126001D01*
X825001Y1634001D02*
Y1755001D01*
X888998D01*
Y1634001D02*
Y1755001D01*
X634998Y1634001D02*
Y1755001D01*
X571001D02*
X634998D01*
X571001Y1634001D02*
Y1755001D01*
X476000Y1126001D02*
Y1634001D01*
Y1126001D02*
X984000D01*
Y1634001D01*
X476000D02*
X984000D01*
X4890000Y9430000D02*
X6290000D01*
X4890000D02*
Y10330000D01*
X6290000D01*
Y9430000D02*
Y10330000D01*
X1575000Y11948000D02*
X1702000Y12075000D01*
X1575000Y11585000D02*
Y12075000D01*
Y11585000D02*
X1965000D01*
Y12075000D01*
X1575000D02*
X1965000D01*
X1575000Y12848000D02*
X1702000Y12975000D01*
X1575000Y12485000D02*
Y12975000D01*
Y12485000D02*
X1965000D01*
Y12975000D01*
X1575000D02*
X1965000D01*
X1045000Y11920000D02*
Y12240000D01*
X795000Y11920000D02*
X1045000D01*
X795000D02*
Y12240000D01*
X1045000D01*
Y12420000D02*
Y12740000D01*
X795000Y12420000D02*
X1045000D01*
X795000D02*
Y12740000D01*
X1045000D01*
X2695000Y11670000D02*
Y11990000D01*
X2445000Y11670000D02*
X2695000D01*
X2445000D02*
Y11990000D01*
X2695000D01*
Y12620000D02*
Y12939999D01*
X2445000Y12620000D02*
X2695000D01*
X2445000D02*
Y12939999D01*
X2695000D01*
X7900003Y1429997D02*
X8100003D01*
Y3569998D01*
X7900003D02*
X8100003D01*
X7900003Y1429997D02*
Y3569998D01*
X1499999Y9250000D02*
X2000003D01*
X1499999Y9649999D02*
X2000003D01*
X1499999Y9250000D02*
Y9649999D01*
X2000003Y9250000D02*
Y9649999D01*
X3366501Y9016633D02*
Y9403364D01*
X1133000Y4669499D02*
Y6130502D01*
X4866998D01*
Y4669499D02*
Y6130502D01*
X1133000Y4669499D02*
X4866998D01*
X1133000Y4796499D02*
X1260000Y4669499D01*
X7899998Y5430001D02*
Y7570002D01*
X8099997D01*
Y5430001D02*
Y7570002D01*
X7899998Y5430001D02*
X8099997D01*
X3366501Y10286635D02*
Y10673365D01*
X2000003Y10500000D02*
Y10899999D01*
X1499999Y10500000D02*
Y10899999D01*
X2000003D01*
X1499999Y10500000D02*
X2000003D01*
D48*
X7639650Y11112899D02*
X7724289Y11028260D01*
X7639650D02*
X7724289Y11112899D01*
X7639650Y11070579D02*
X7724289D01*
X7681970Y11028260D02*
Y11112899D01*
X7639650Y12812898D02*
X7724289Y12728260D01*
X7639650D02*
X7724289Y12812898D01*
X7639650Y12770579D02*
X7724289D01*
X7681970Y12728260D02*
Y12812898D01*
D74*
X7614250Y11045200D02*
X7728550D01*
X7614250Y10613400D02*
Y11045200D01*
Y10613400D02*
X7728550D01*
Y11045200D01*
X8071450D02*
X8185750D01*
X8071450Y10613400D02*
Y11045200D01*
Y10613400D02*
X8185750D01*
Y11045200D01*
X7842850D02*
X7957150D01*
X7842850Y10943600D02*
Y11045200D01*
Y10943600D02*
X7957150D01*
Y11045200D01*
X7572340D02*
X8227660D01*
Y11654800D01*
X7572340D02*
X8227660D01*
X7572340Y11045200D02*
Y11654800D01*
Y12745200D02*
Y13354800D01*
X8227660D01*
Y12745200D02*
Y13354800D01*
X7572340Y12745200D02*
X8227660D01*
X7957150Y12643600D02*
Y12745200D01*
X7842850Y12643600D02*
X7957150D01*
X7842850D02*
Y12745200D01*
X7957150D01*
X8185750Y12313400D02*
Y12745200D01*
X8071450Y12313400D02*
X8185750D01*
X8071450D02*
Y12745200D01*
X8185750D01*
X7728550Y12313400D02*
Y12745200D01*
X7614250Y12313400D02*
X7728550D01*
X7614250D02*
Y12745200D01*
X7728550D01*
%TF.MD5,0892d7cf030ecc96a0e3220c0d819243*%
M02*
