%TF.GenerationSoftware,Altium Limited,Altium Designer,24.0.1 (36)*%
G04 Layer_Physical_Order=2*
G04 Layer_Color=36540*
%FSLAX45Y45*%
%MOMM*%
%TF.SameCoordinates,D94C8493-D55A-4E0A-ACE1-C1AA60FE3F93*%
%TF.FilePolarity,Positive*%
%TF.FileFunction,Copper,L2,Inr,Signal*%
%TF.Part,Single*%
G01*
G75*
%TA.AperFunction,Conductor*%
%ADD12C,0.20000*%
%TA.AperFunction,ViaPad*%
%ADD13C,5.00000*%
%ADD14C,0.50000*%
G36*
X10000000Y0D02*
X0D01*
Y3000000D01*
X10000000D01*
Y0D01*
D02*
G37*
%LPC*%
G36*
X9521675Y2775400D02*
X9512700D01*
Y2512700D01*
X9775400D01*
Y2521675D01*
X9768619Y2564490D01*
X9755223Y2605717D01*
X9735543Y2644341D01*
X9710063Y2679411D01*
X9679411Y2710063D01*
X9644341Y2735543D01*
X9605717Y2755223D01*
X9564490Y2768619D01*
X9521675Y2775400D01*
D02*
G37*
G36*
X9487300D02*
X9478325D01*
X9435510Y2768619D01*
X9394283Y2755223D01*
X9355659Y2735543D01*
X9320589Y2710063D01*
X9289937Y2679411D01*
X9264457Y2644341D01*
X9244777Y2605717D01*
X9231381Y2564490D01*
X9224600Y2521675D01*
Y2512700D01*
X9487300D01*
Y2775400D01*
D02*
G37*
G36*
X521675D02*
X512700D01*
Y2512700D01*
X775400D01*
Y2521675D01*
X768619Y2564490D01*
X755223Y2605717D01*
X735543Y2644341D01*
X710063Y2679411D01*
X679411Y2710063D01*
X644341Y2735543D01*
X605717Y2755223D01*
X564490Y2768619D01*
X521675Y2775400D01*
D02*
G37*
G36*
X487300D02*
X478325D01*
X435510Y2768619D01*
X394283Y2755223D01*
X355659Y2735543D01*
X320589Y2710063D01*
X289937Y2679411D01*
X264457Y2644341D01*
X244777Y2605717D01*
X231381Y2564490D01*
X224600Y2521675D01*
Y2512700D01*
X487300D01*
Y2775400D01*
D02*
G37*
G36*
X9775400Y2487300D02*
X9512700D01*
Y2224600D01*
X9521675D01*
X9564490Y2231381D01*
X9605717Y2244777D01*
X9644341Y2264457D01*
X9679411Y2289937D01*
X9710063Y2320589D01*
X9735543Y2355659D01*
X9755223Y2394283D01*
X9768619Y2435510D01*
X9775400Y2478325D01*
Y2487300D01*
D02*
G37*
G36*
X9487300D02*
X9224600D01*
Y2478325D01*
X9231381Y2435510D01*
X9244777Y2394283D01*
X9264457Y2355659D01*
X9289937Y2320589D01*
X9320589Y2289937D01*
X9355659Y2264457D01*
X9394283Y2244777D01*
X9435510Y2231381D01*
X9478325Y2224600D01*
X9487300D01*
Y2487300D01*
D02*
G37*
G36*
X775400D02*
X512700D01*
Y2224600D01*
X521675D01*
X564490Y2231381D01*
X605717Y2244777D01*
X644341Y2264457D01*
X679411Y2289937D01*
X710063Y2320589D01*
X735543Y2355659D01*
X755223Y2394283D01*
X768619Y2435510D01*
X775400Y2478325D01*
Y2487300D01*
D02*
G37*
G36*
X487300D02*
X224600D01*
Y2478325D01*
X231381Y2435510D01*
X244777Y2394283D01*
X264457Y2355659D01*
X289937Y2320589D01*
X320589Y2289937D01*
X355659Y2264457D01*
X394283Y2244777D01*
X435510Y2231381D01*
X478325Y2224600D01*
X487300D01*
Y2487300D01*
D02*
G37*
G36*
X8931962Y2385000D02*
X8918038D01*
X8905174Y2379672D01*
X8895328Y2369826D01*
X8890000Y2356962D01*
Y2343038D01*
X8895328Y2330174D01*
X8904608Y2320895D01*
Y2029106D01*
X8895328Y2019826D01*
X8890000Y2006962D01*
Y1993038D01*
X8895328Y1980174D01*
X8905174Y1970329D01*
X8918038Y1965000D01*
X8931962D01*
X8944826Y1970329D01*
X8954671Y1980174D01*
X8960000Y1993038D01*
Y2006962D01*
X8954671Y2019826D01*
X8945392Y2029106D01*
Y2320895D01*
X8954671Y2330174D01*
X8960000Y2343038D01*
Y2356962D01*
X8954671Y2369826D01*
X8944826Y2379672D01*
X8931962Y2385000D01*
D02*
G37*
G36*
X8831962D02*
X8818038D01*
X8805174Y2379672D01*
X8795328Y2369826D01*
X8790000Y2356962D01*
Y2343038D01*
X8795328Y2330174D01*
X8804608Y2320895D01*
Y2029106D01*
X8795328Y2019826D01*
X8790000Y2006962D01*
Y1993038D01*
X8795328Y1980174D01*
X8805174Y1970329D01*
X8818038Y1965000D01*
X8831962D01*
X8844826Y1970329D01*
X8854671Y1980174D01*
X8860000Y1993038D01*
Y2006962D01*
X8854671Y2019826D01*
X8845392Y2029106D01*
Y2320895D01*
X8854671Y2330174D01*
X8860000Y2343038D01*
Y2356962D01*
X8854671Y2369826D01*
X8844826Y2379672D01*
X8831962Y2385000D01*
D02*
G37*
G36*
X8731962D02*
X8718038D01*
X8705174Y2379672D01*
X8695329Y2369826D01*
X8690000Y2356962D01*
Y2343038D01*
X8695329Y2330174D01*
X8704608Y2320895D01*
Y2029106D01*
X8695329Y2019826D01*
X8690000Y2006962D01*
Y1993038D01*
X8695329Y1980174D01*
X8705174Y1970329D01*
X8718038Y1965000D01*
X8731962D01*
X8744826Y1970329D01*
X8754672Y1980174D01*
X8760000Y1993038D01*
Y2006962D01*
X8754672Y2019826D01*
X8745392Y2029106D01*
Y2320895D01*
X8754672Y2330174D01*
X8760000Y2343038D01*
Y2356962D01*
X8754672Y2369826D01*
X8744826Y2379672D01*
X8731962Y2385000D01*
D02*
G37*
G36*
X8631962D02*
X8618038D01*
X8605174Y2379672D01*
X8595329Y2369826D01*
X8590000Y2356962D01*
Y2343038D01*
X8595329Y2330174D01*
X8604608Y2320895D01*
Y2029106D01*
X8595329Y2019826D01*
X8590000Y2006962D01*
Y1993038D01*
X8595329Y1980174D01*
X8605174Y1970329D01*
X8618038Y1965000D01*
X8631962D01*
X8644826Y1970329D01*
X8654672Y1980174D01*
X8660000Y1993038D01*
Y2006962D01*
X8654672Y2019826D01*
X8645392Y2029106D01*
Y2320895D01*
X8654672Y2330174D01*
X8660000Y2343038D01*
Y2356962D01*
X8654672Y2369826D01*
X8644826Y2379672D01*
X8631962Y2385000D01*
D02*
G37*
G36*
X8531962D02*
X8518038D01*
X8505174Y2379672D01*
X8495328Y2369826D01*
X8490000Y2356962D01*
Y2343038D01*
X8495328Y2330174D01*
X8504608Y2320895D01*
Y2029106D01*
X8495328Y2019826D01*
X8490000Y2006962D01*
Y1993038D01*
X8495328Y1980174D01*
X8505174Y1970329D01*
X8518038Y1965000D01*
X8531962D01*
X8544826Y1970329D01*
X8554671Y1980174D01*
X8560000Y1993038D01*
Y2006962D01*
X8554671Y2019826D01*
X8545392Y2029106D01*
Y2320895D01*
X8554671Y2330174D01*
X8560000Y2343038D01*
Y2356962D01*
X8554671Y2369826D01*
X8544826Y2379672D01*
X8531962Y2385000D01*
D02*
G37*
G36*
X8431962D02*
X8418038D01*
X8405174Y2379672D01*
X8395328Y2369826D01*
X8390000Y2356962D01*
Y2343038D01*
X8395328Y2330174D01*
X8404608Y2320895D01*
Y2029106D01*
X8395328Y2019826D01*
X8390000Y2006962D01*
Y1993038D01*
X8395328Y1980174D01*
X8405174Y1970329D01*
X8418038Y1965000D01*
X8431962D01*
X8444826Y1970329D01*
X8454671Y1980174D01*
X8460000Y1993038D01*
Y2006962D01*
X8454671Y2019826D01*
X8445392Y2029106D01*
Y2320895D01*
X8454671Y2330174D01*
X8460000Y2343038D01*
Y2356962D01*
X8454671Y2369826D01*
X8444826Y2379672D01*
X8431962Y2385000D01*
D02*
G37*
G36*
X8331962D02*
X8318038D01*
X8305174Y2379672D01*
X8295329Y2369826D01*
X8290000Y2356962D01*
Y2343038D01*
X8295329Y2330174D01*
X8304608Y2320895D01*
Y2029106D01*
X8295329Y2019826D01*
X8290000Y2006962D01*
Y1993038D01*
X8295329Y1980174D01*
X8305174Y1970329D01*
X8318038Y1965000D01*
X8331962D01*
X8344826Y1970329D01*
X8354672Y1980174D01*
X8360000Y1993038D01*
Y2006962D01*
X8354672Y2019826D01*
X8345392Y2029106D01*
Y2320895D01*
X8354672Y2330174D01*
X8360000Y2343038D01*
Y2356962D01*
X8354672Y2369826D01*
X8344826Y2379672D01*
X8331962Y2385000D01*
D02*
G37*
G36*
X8231962D02*
X8218038D01*
X8205174Y2379672D01*
X8195329Y2369826D01*
X8190000Y2356962D01*
Y2343038D01*
X8195329Y2330174D01*
X8204608Y2320895D01*
Y2029106D01*
X8195329Y2019826D01*
X8190000Y2006962D01*
Y1993038D01*
X8195329Y1980174D01*
X8205174Y1970329D01*
X8218038Y1965000D01*
X8231962D01*
X8244826Y1970329D01*
X8254672Y1980174D01*
X8260000Y1993038D01*
Y2006962D01*
X8254672Y2019826D01*
X8245392Y2029106D01*
Y2320895D01*
X8254672Y2330174D01*
X8260000Y2343038D01*
Y2356962D01*
X8254672Y2369826D01*
X8244826Y2379672D01*
X8231962Y2385000D01*
D02*
G37*
G36*
X8131962D02*
X8118038D01*
X8105174Y2379672D01*
X8095328Y2369826D01*
X8090000Y2356962D01*
Y2343038D01*
X8095328Y2330174D01*
X8104608Y2320895D01*
Y2029106D01*
X8095328Y2019826D01*
X8090000Y2006962D01*
Y1993038D01*
X8095328Y1980174D01*
X8105174Y1970329D01*
X8118038Y1965000D01*
X8131962D01*
X8144826Y1970329D01*
X8154672Y1980174D01*
X8160000Y1993038D01*
Y2006962D01*
X8154672Y2019826D01*
X8145392Y2029106D01*
Y2320895D01*
X8154672Y2330174D01*
X8160000Y2343038D01*
Y2356962D01*
X8154672Y2369826D01*
X8144826Y2379672D01*
X8131962Y2385000D01*
D02*
G37*
G36*
X8031962D02*
X8018038D01*
X8005174Y2379672D01*
X7995328Y2369826D01*
X7990000Y2356962D01*
Y2343038D01*
X7995328Y2330174D01*
X8004608Y2320895D01*
Y2029106D01*
X7995328Y2019826D01*
X7990000Y2006962D01*
Y1993038D01*
X7995328Y1980174D01*
X8005174Y1970329D01*
X8018038Y1965000D01*
X8031962D01*
X8044826Y1970329D01*
X8054671Y1980174D01*
X8060000Y1993038D01*
Y2006962D01*
X8054671Y2019826D01*
X8045392Y2029106D01*
Y2320895D01*
X8054671Y2330174D01*
X8060000Y2343038D01*
Y2356962D01*
X8054671Y2369826D01*
X8044826Y2379672D01*
X8031962Y2385000D01*
D02*
G37*
G36*
X7931962D02*
X7918038D01*
X7905174Y2379672D01*
X7895328Y2369826D01*
X7890000Y2356962D01*
Y2343038D01*
X7895328Y2330174D01*
X7904608Y2320895D01*
Y2029106D01*
X7895328Y2019826D01*
X7890000Y2006962D01*
Y1993038D01*
X7895328Y1980174D01*
X7905174Y1970329D01*
X7918038Y1965000D01*
X7931962D01*
X7944826Y1970329D01*
X7954671Y1980174D01*
X7960000Y1993038D01*
Y2006962D01*
X7954671Y2019826D01*
X7945392Y2029106D01*
Y2320895D01*
X7954671Y2330174D01*
X7960000Y2343038D01*
Y2356962D01*
X7954671Y2369826D01*
X7944826Y2379672D01*
X7931962Y2385000D01*
D02*
G37*
G36*
X7831962D02*
X7818038D01*
X7805174Y2379672D01*
X7795329Y2369826D01*
X7790000Y2356962D01*
Y2343038D01*
X7795329Y2330174D01*
X7804608Y2320895D01*
Y2029106D01*
X7795329Y2019826D01*
X7790000Y2006962D01*
Y1993038D01*
X7795329Y1980174D01*
X7805174Y1970329D01*
X7818038Y1965000D01*
X7831962D01*
X7844826Y1970329D01*
X7854672Y1980174D01*
X7860000Y1993038D01*
Y2006962D01*
X7854672Y2019826D01*
X7845392Y2029106D01*
Y2320895D01*
X7854672Y2330174D01*
X7860000Y2343038D01*
Y2356962D01*
X7854672Y2369826D01*
X7844826Y2379672D01*
X7831962Y2385000D01*
D02*
G37*
G36*
X7731962D02*
X7718038D01*
X7705174Y2379672D01*
X7695329Y2369826D01*
X7690000Y2356962D01*
Y2343038D01*
X7695329Y2330174D01*
X7704608Y2320895D01*
Y2029106D01*
X7695329Y2019826D01*
X7690000Y2006962D01*
Y1993038D01*
X7695329Y1980174D01*
X7705174Y1970329D01*
X7718038Y1965000D01*
X7731962D01*
X7744826Y1970329D01*
X7754672Y1980174D01*
X7760000Y1993038D01*
Y2006962D01*
X7754672Y2019826D01*
X7745392Y2029106D01*
Y2320895D01*
X7754672Y2330174D01*
X7760000Y2343038D01*
Y2356962D01*
X7754672Y2369826D01*
X7744826Y2379672D01*
X7731962Y2385000D01*
D02*
G37*
G36*
X7631962D02*
X7618038D01*
X7605174Y2379672D01*
X7595328Y2369826D01*
X7590000Y2356962D01*
Y2343038D01*
X7595328Y2330174D01*
X7604608Y2320895D01*
Y2029106D01*
X7595328Y2019826D01*
X7590000Y2006962D01*
Y1993038D01*
X7595328Y1980174D01*
X7605174Y1970329D01*
X7618038Y1965000D01*
X7631962D01*
X7644826Y1970329D01*
X7654672Y1980174D01*
X7660000Y1993038D01*
Y2006962D01*
X7654672Y2019826D01*
X7645392Y2029106D01*
Y2320895D01*
X7654672Y2330174D01*
X7660000Y2343038D01*
Y2356962D01*
X7654672Y2369826D01*
X7644826Y2379672D01*
X7631962Y2385000D01*
D02*
G37*
G36*
X7531962D02*
X7518038D01*
X7505174Y2379672D01*
X7495328Y2369826D01*
X7490000Y2356962D01*
Y2343038D01*
X7495328Y2330174D01*
X7504608Y2320895D01*
Y2029106D01*
X7495328Y2019826D01*
X7490000Y2006962D01*
Y1993038D01*
X7495328Y1980174D01*
X7505174Y1970329D01*
X7518038Y1965000D01*
X7531962D01*
X7544826Y1970329D01*
X7554671Y1980174D01*
X7560000Y1993038D01*
Y2006962D01*
X7554671Y2019826D01*
X7545392Y2029106D01*
Y2320895D01*
X7554671Y2330174D01*
X7560000Y2343038D01*
Y2356962D01*
X7554671Y2369826D01*
X7544826Y2379672D01*
X7531962Y2385000D01*
D02*
G37*
G36*
X5956962D02*
X5943038D01*
X5930174Y2379672D01*
X5920329Y2369826D01*
X5915000Y2356962D01*
Y2343038D01*
X5920329Y2330174D01*
X5929608Y2320895D01*
Y2029106D01*
X5920329Y2019826D01*
X5915000Y2006962D01*
Y1993038D01*
X5920329Y1980174D01*
X5930174Y1970329D01*
X5943038Y1965000D01*
X5956962D01*
X5969826Y1970329D01*
X5979672Y1980174D01*
X5985000Y1993038D01*
Y2006962D01*
X5979672Y2019826D01*
X5970392Y2029106D01*
Y2320895D01*
X5979672Y2330174D01*
X5985000Y2343038D01*
Y2356962D01*
X5979672Y2369826D01*
X5969826Y2379672D01*
X5956962Y2385000D01*
D02*
G37*
G36*
X5856962D02*
X5843038D01*
X5830174Y2379672D01*
X5820328Y2369826D01*
X5815000Y2356962D01*
Y2343038D01*
X5820328Y2330174D01*
X5829608Y2320895D01*
Y2029106D01*
X5820328Y2019826D01*
X5815000Y2006962D01*
Y1993038D01*
X5820328Y1980174D01*
X5830174Y1970329D01*
X5843038Y1965000D01*
X5856962D01*
X5869826Y1970329D01*
X5879672Y1980174D01*
X5885000Y1993038D01*
Y2006962D01*
X5879672Y2019826D01*
X5870392Y2029106D01*
Y2320895D01*
X5879672Y2330174D01*
X5885000Y2343038D01*
Y2356962D01*
X5879672Y2369826D01*
X5869826Y2379672D01*
X5856962Y2385000D01*
D02*
G37*
G36*
X5756962D02*
X5743038D01*
X5730174Y2379672D01*
X5720328Y2369826D01*
X5715000Y2356962D01*
Y2343038D01*
X5720328Y2330174D01*
X5729608Y2320895D01*
Y2029106D01*
X5720328Y2019826D01*
X5715000Y2006962D01*
Y1993038D01*
X5720328Y1980174D01*
X5730174Y1970329D01*
X5743038Y1965000D01*
X5756962D01*
X5769826Y1970329D01*
X5779671Y1980174D01*
X5785000Y1993038D01*
Y2006962D01*
X5779671Y2019826D01*
X5770392Y2029106D01*
Y2320895D01*
X5779671Y2330174D01*
X5785000Y2343038D01*
Y2356962D01*
X5779671Y2369826D01*
X5769826Y2379672D01*
X5756962Y2385000D01*
D02*
G37*
G36*
X5656962D02*
X5643038D01*
X5630174Y2379672D01*
X5620328Y2369826D01*
X5615000Y2356962D01*
Y2343038D01*
X5620328Y2330174D01*
X5629608Y2320895D01*
Y2029106D01*
X5620328Y2019826D01*
X5615000Y2006962D01*
Y1993038D01*
X5620328Y1980174D01*
X5630174Y1970329D01*
X5643038Y1965000D01*
X5656962D01*
X5669826Y1970329D01*
X5679671Y1980174D01*
X5685000Y1993038D01*
Y2006962D01*
X5679671Y2019826D01*
X5670392Y2029106D01*
Y2320895D01*
X5679671Y2330174D01*
X5685000Y2343038D01*
Y2356962D01*
X5679671Y2369826D01*
X5669826Y2379672D01*
X5656962Y2385000D01*
D02*
G37*
G36*
X5556962D02*
X5543038D01*
X5530174Y2379672D01*
X5520329Y2369826D01*
X5515000Y2356962D01*
Y2343038D01*
X5520329Y2330174D01*
X5529608Y2320895D01*
Y2029106D01*
X5520329Y2019826D01*
X5515000Y2006962D01*
Y1993038D01*
X5520329Y1980174D01*
X5530174Y1970329D01*
X5543038Y1965000D01*
X5556962D01*
X5569826Y1970329D01*
X5579672Y1980174D01*
X5585000Y1993038D01*
Y2006962D01*
X5579672Y2019826D01*
X5570392Y2029106D01*
Y2320895D01*
X5579672Y2330174D01*
X5585000Y2343038D01*
Y2356962D01*
X5579672Y2369826D01*
X5569826Y2379672D01*
X5556962Y2385000D01*
D02*
G37*
G36*
X5456962D02*
X5443038D01*
X5430174Y2379672D01*
X5420329Y2369826D01*
X5415000Y2356962D01*
Y2343038D01*
X5420329Y2330174D01*
X5429608Y2320895D01*
Y2029106D01*
X5420329Y2019826D01*
X5415000Y2006962D01*
Y1993038D01*
X5420329Y1980174D01*
X5430174Y1970329D01*
X5443038Y1965000D01*
X5456962D01*
X5469826Y1970329D01*
X5479672Y1980174D01*
X5485000Y1993038D01*
Y2006962D01*
X5479672Y2019826D01*
X5470392Y2029106D01*
Y2320895D01*
X5479672Y2330174D01*
X5485000Y2343038D01*
Y2356962D01*
X5479672Y2369826D01*
X5469826Y2379672D01*
X5456962Y2385000D01*
D02*
G37*
G36*
X5356962D02*
X5343038D01*
X5330174Y2379672D01*
X5320328Y2369826D01*
X5315000Y2356962D01*
Y2343038D01*
X5320328Y2330174D01*
X5329608Y2320895D01*
Y2029106D01*
X5320328Y2019826D01*
X5315000Y2006962D01*
Y1993038D01*
X5320328Y1980174D01*
X5330174Y1970329D01*
X5343038Y1965000D01*
X5356962D01*
X5369826Y1970329D01*
X5379671Y1980174D01*
X5385000Y1993038D01*
Y2006962D01*
X5379671Y2019826D01*
X5370392Y2029106D01*
Y2320895D01*
X5379671Y2330174D01*
X5385000Y2343038D01*
Y2356962D01*
X5379671Y2369826D01*
X5369826Y2379672D01*
X5356962Y2385000D01*
D02*
G37*
G36*
X5256962D02*
X5243038D01*
X5230174Y2379672D01*
X5220328Y2369826D01*
X5215000Y2356962D01*
Y2343038D01*
X5220328Y2330174D01*
X5229608Y2320895D01*
Y2029106D01*
X5220328Y2019826D01*
X5215000Y2006962D01*
Y1993038D01*
X5220328Y1980174D01*
X5230174Y1970329D01*
X5243038Y1965000D01*
X5256962D01*
X5269826Y1970329D01*
X5279671Y1980174D01*
X5285000Y1993038D01*
Y2006962D01*
X5279671Y2019826D01*
X5270392Y2029106D01*
Y2320895D01*
X5279671Y2330174D01*
X5285000Y2343038D01*
Y2356962D01*
X5279671Y2369826D01*
X5269826Y2379672D01*
X5256962Y2385000D01*
D02*
G37*
G36*
X5156962D02*
X5143038D01*
X5130174Y2379672D01*
X5120329Y2369826D01*
X5115000Y2356962D01*
Y2343038D01*
X5120329Y2330174D01*
X5129608Y2320895D01*
Y2029106D01*
X5120329Y2019826D01*
X5115000Y2006962D01*
Y1993038D01*
X5120329Y1980174D01*
X5130174Y1970329D01*
X5143038Y1965000D01*
X5156962D01*
X5169826Y1970329D01*
X5179672Y1980174D01*
X5185000Y1993038D01*
Y2006962D01*
X5179672Y2019826D01*
X5170392Y2029106D01*
Y2320895D01*
X5179672Y2330174D01*
X5185000Y2343038D01*
Y2356962D01*
X5179672Y2369826D01*
X5169826Y2379672D01*
X5156962Y2385000D01*
D02*
G37*
G36*
X5056962D02*
X5043038D01*
X5030174Y2379672D01*
X5020329Y2369826D01*
X5015000Y2356962D01*
Y2343038D01*
X5020329Y2330174D01*
X5029608Y2320895D01*
Y2029106D01*
X5020329Y2019826D01*
X5015000Y2006962D01*
Y1993038D01*
X5020329Y1980174D01*
X5030174Y1970329D01*
X5043038Y1965000D01*
X5056962D01*
X5069826Y1970329D01*
X5079672Y1980174D01*
X5085000Y1993038D01*
Y2006962D01*
X5079672Y2019826D01*
X5070392Y2029106D01*
Y2320895D01*
X5079672Y2330174D01*
X5085000Y2343038D01*
Y2356962D01*
X5079672Y2369826D01*
X5069826Y2379672D01*
X5056962Y2385000D01*
D02*
G37*
G36*
X4956962D02*
X4943038D01*
X4930174Y2379672D01*
X4920328Y2369826D01*
X4915000Y2356962D01*
Y2343038D01*
X4920328Y2330174D01*
X4929608Y2320895D01*
Y2029106D01*
X4920328Y2019826D01*
X4915000Y2006962D01*
Y1993038D01*
X4920328Y1980174D01*
X4930174Y1970329D01*
X4943038Y1965000D01*
X4956962D01*
X4969826Y1970329D01*
X4979672Y1980174D01*
X4985000Y1993038D01*
Y2006962D01*
X4979672Y2019826D01*
X4970392Y2029106D01*
Y2320895D01*
X4979672Y2330174D01*
X4985000Y2343038D01*
Y2356962D01*
X4979672Y2369826D01*
X4969826Y2379672D01*
X4956962Y2385000D01*
D02*
G37*
G36*
X4856962D02*
X4843038D01*
X4830174Y2379672D01*
X4820328Y2369826D01*
X4815000Y2356962D01*
Y2343038D01*
X4820328Y2330174D01*
X4829608Y2320895D01*
Y2029106D01*
X4820328Y2019826D01*
X4815000Y2006962D01*
Y1993038D01*
X4820328Y1980174D01*
X4830174Y1970329D01*
X4843038Y1965000D01*
X4856962D01*
X4869826Y1970329D01*
X4879671Y1980174D01*
X4885000Y1993038D01*
Y2006962D01*
X4879671Y2019826D01*
X4870392Y2029106D01*
Y2320895D01*
X4879671Y2330174D01*
X4885000Y2343038D01*
Y2356962D01*
X4879671Y2369826D01*
X4869826Y2379672D01*
X4856962Y2385000D01*
D02*
G37*
G36*
X4756962D02*
X4743038D01*
X4730174Y2379672D01*
X4720328Y2369826D01*
X4715000Y2356962D01*
Y2343038D01*
X4720328Y2330174D01*
X4729608Y2320895D01*
Y2029106D01*
X4720328Y2019826D01*
X4715000Y2006962D01*
Y1993038D01*
X4720328Y1980174D01*
X4730174Y1970329D01*
X4743038Y1965000D01*
X4756962D01*
X4769826Y1970329D01*
X4779671Y1980174D01*
X4785000Y1993038D01*
Y2006962D01*
X4779671Y2019826D01*
X4770392Y2029106D01*
Y2320895D01*
X4779671Y2330174D01*
X4785000Y2343038D01*
Y2356962D01*
X4779671Y2369826D01*
X4769826Y2379672D01*
X4756962Y2385000D01*
D02*
G37*
G36*
X4656962D02*
X4643038D01*
X4630174Y2379672D01*
X4620329Y2369826D01*
X4615000Y2356962D01*
Y2343038D01*
X4620329Y2330174D01*
X4629608Y2320895D01*
Y2029106D01*
X4620329Y2019826D01*
X4615000Y2006962D01*
Y1993038D01*
X4620329Y1980174D01*
X4630174Y1970329D01*
X4643038Y1965000D01*
X4656962D01*
X4669826Y1970329D01*
X4679672Y1980174D01*
X4685000Y1993038D01*
Y2006962D01*
X4679672Y2019826D01*
X4670392Y2029106D01*
Y2320895D01*
X4679672Y2330174D01*
X4685000Y2343038D01*
Y2356962D01*
X4679672Y2369826D01*
X4669826Y2379672D01*
X4656962Y2385000D01*
D02*
G37*
G36*
X4556962D02*
X4543038D01*
X4530174Y2379672D01*
X4520329Y2369826D01*
X4515000Y2356962D01*
Y2343038D01*
X4520329Y2330174D01*
X4529608Y2320895D01*
Y2029106D01*
X4520329Y2019826D01*
X4515000Y2006962D01*
Y1993038D01*
X4520329Y1980174D01*
X4530174Y1970329D01*
X4543038Y1965000D01*
X4556962D01*
X4569826Y1970329D01*
X4579672Y1980174D01*
X4585000Y1993038D01*
Y2006962D01*
X4579672Y2019826D01*
X4570392Y2029106D01*
Y2320895D01*
X4579672Y2330174D01*
X4585000Y2343038D01*
Y2356962D01*
X4579672Y2369826D01*
X4569826Y2379672D01*
X4556962Y2385000D01*
D02*
G37*
G36*
X2981962D02*
X2968038D01*
X2955174Y2379672D01*
X2945328Y2369826D01*
X2940000Y2356962D01*
Y2343038D01*
X2945328Y2330174D01*
X2954608Y2320895D01*
Y2029106D01*
X2945328Y2019826D01*
X2940000Y2006962D01*
Y1993038D01*
X2945328Y1980174D01*
X2955174Y1970329D01*
X2968038Y1965000D01*
X2981962D01*
X2994826Y1970329D01*
X3004671Y1980174D01*
X3010000Y1993038D01*
Y2006962D01*
X3004671Y2019826D01*
X2995392Y2029106D01*
Y2320895D01*
X3004671Y2330174D01*
X3010000Y2343038D01*
Y2356962D01*
X3004671Y2369826D01*
X2994826Y2379672D01*
X2981962Y2385000D01*
D02*
G37*
G36*
X2881962D02*
X2868038D01*
X2855174Y2379672D01*
X2845329Y2369826D01*
X2840000Y2356962D01*
Y2343038D01*
X2845329Y2330174D01*
X2854608Y2320895D01*
Y2029106D01*
X2845329Y2019826D01*
X2840000Y2006962D01*
Y1993038D01*
X2845329Y1980174D01*
X2855174Y1970329D01*
X2868038Y1965000D01*
X2881962D01*
X2894826Y1970329D01*
X2904672Y1980174D01*
X2910000Y1993038D01*
Y2006962D01*
X2904672Y2019826D01*
X2895392Y2029106D01*
Y2320895D01*
X2904672Y2330174D01*
X2910000Y2343038D01*
Y2356962D01*
X2904672Y2369826D01*
X2894826Y2379672D01*
X2881962Y2385000D01*
D02*
G37*
G36*
X2781962D02*
X2768038D01*
X2755174Y2379672D01*
X2745329Y2369826D01*
X2740000Y2356962D01*
Y2343038D01*
X2745329Y2330174D01*
X2754608Y2320895D01*
Y2029106D01*
X2745329Y2019826D01*
X2740000Y2006962D01*
Y1993038D01*
X2745329Y1980174D01*
X2755174Y1970329D01*
X2768038Y1965000D01*
X2781962D01*
X2794826Y1970329D01*
X2804672Y1980174D01*
X2810000Y1993038D01*
Y2006962D01*
X2804672Y2019826D01*
X2795392Y2029106D01*
Y2320895D01*
X2804672Y2330174D01*
X2810000Y2343038D01*
Y2356962D01*
X2804672Y2369826D01*
X2794826Y2379672D01*
X2781962Y2385000D01*
D02*
G37*
G36*
X2681962D02*
X2668038D01*
X2655174Y2379672D01*
X2645328Y2369826D01*
X2640000Y2356962D01*
Y2343038D01*
X2645328Y2330174D01*
X2654608Y2320895D01*
Y2029106D01*
X2645328Y2019826D01*
X2640000Y2006962D01*
Y1993038D01*
X2645328Y1980174D01*
X2655174Y1970329D01*
X2668038Y1965000D01*
X2681962D01*
X2694826Y1970329D01*
X2704672Y1980174D01*
X2710000Y1993038D01*
Y2006962D01*
X2704672Y2019826D01*
X2695392Y2029106D01*
Y2320895D01*
X2704672Y2330174D01*
X2710000Y2343038D01*
Y2356962D01*
X2704672Y2369826D01*
X2694826Y2379672D01*
X2681962Y2385000D01*
D02*
G37*
G36*
X2581962D02*
X2568038D01*
X2555174Y2379672D01*
X2545328Y2369826D01*
X2540000Y2356962D01*
Y2343038D01*
X2545328Y2330174D01*
X2554608Y2320895D01*
Y2029106D01*
X2545328Y2019826D01*
X2540000Y2006962D01*
Y1993038D01*
X2545328Y1980174D01*
X2555174Y1970329D01*
X2568038Y1965000D01*
X2581962D01*
X2594826Y1970329D01*
X2604671Y1980174D01*
X2610000Y1993038D01*
Y2006962D01*
X2604671Y2019826D01*
X2595392Y2029106D01*
Y2320895D01*
X2604671Y2330174D01*
X2610000Y2343038D01*
Y2356962D01*
X2604671Y2369826D01*
X2594826Y2379672D01*
X2581962Y2385000D01*
D02*
G37*
G36*
X2481962D02*
X2468038D01*
X2455174Y2379672D01*
X2445328Y2369826D01*
X2440000Y2356962D01*
Y2343038D01*
X2445328Y2330174D01*
X2454608Y2320895D01*
Y2029106D01*
X2445328Y2019826D01*
X2440000Y2006962D01*
Y1993038D01*
X2445328Y1980174D01*
X2455174Y1970329D01*
X2468038Y1965000D01*
X2481962D01*
X2494826Y1970329D01*
X2504671Y1980174D01*
X2510000Y1993038D01*
Y2006962D01*
X2504671Y2019826D01*
X2495392Y2029106D01*
Y2320895D01*
X2504671Y2330174D01*
X2510000Y2343038D01*
Y2356962D01*
X2504671Y2369826D01*
X2494826Y2379672D01*
X2481962Y2385000D01*
D02*
G37*
G36*
X2381962D02*
X2368038D01*
X2355174Y2379672D01*
X2345329Y2369826D01*
X2340000Y2356962D01*
Y2343038D01*
X2345329Y2330174D01*
X2354608Y2320895D01*
Y2029106D01*
X2345329Y2019826D01*
X2340000Y2006962D01*
Y1993038D01*
X2345329Y1980174D01*
X2355174Y1970329D01*
X2368038Y1965000D01*
X2381962D01*
X2394826Y1970329D01*
X2404672Y1980174D01*
X2410000Y1993038D01*
Y2006962D01*
X2404672Y2019826D01*
X2395392Y2029106D01*
Y2320895D01*
X2404672Y2330174D01*
X2410000Y2343038D01*
Y2356962D01*
X2404672Y2369826D01*
X2394826Y2379672D01*
X2381962Y2385000D01*
D02*
G37*
G36*
X2281962D02*
X2268038D01*
X2255174Y2379672D01*
X2245329Y2369826D01*
X2240000Y2356962D01*
Y2343038D01*
X2245329Y2330174D01*
X2254608Y2320895D01*
Y2029106D01*
X2245329Y2019826D01*
X2240000Y2006962D01*
Y1993038D01*
X2245329Y1980174D01*
X2255174Y1970329D01*
X2268038Y1965000D01*
X2281962D01*
X2294826Y1970329D01*
X2304672Y1980174D01*
X2310000Y1993038D01*
Y2006962D01*
X2304672Y2019826D01*
X2295392Y2029106D01*
Y2320895D01*
X2304672Y2330174D01*
X2310000Y2343038D01*
Y2356962D01*
X2304672Y2369826D01*
X2294826Y2379672D01*
X2281962Y2385000D01*
D02*
G37*
G36*
X2181962D02*
X2168038D01*
X2155174Y2379672D01*
X2145328Y2369826D01*
X2140000Y2356962D01*
Y2343038D01*
X2145328Y2330174D01*
X2154608Y2320895D01*
Y2029106D01*
X2145328Y2019826D01*
X2140000Y2006962D01*
Y1993038D01*
X2145328Y1980174D01*
X2155174Y1970329D01*
X2168038Y1965000D01*
X2181962D01*
X2194826Y1970329D01*
X2204671Y1980174D01*
X2210000Y1993038D01*
Y2006962D01*
X2204671Y2019826D01*
X2195392Y2029106D01*
Y2320895D01*
X2204671Y2330174D01*
X2210000Y2343038D01*
Y2356962D01*
X2204671Y2369826D01*
X2194826Y2379672D01*
X2181962Y2385000D01*
D02*
G37*
G36*
X2081962D02*
X2068038D01*
X2055174Y2379672D01*
X2045328Y2369826D01*
X2040000Y2356962D01*
Y2343038D01*
X2045328Y2330174D01*
X2054608Y2320895D01*
Y2029106D01*
X2045328Y2019826D01*
X2040000Y2006962D01*
Y1993038D01*
X2045328Y1980174D01*
X2055174Y1970329D01*
X2068038Y1965000D01*
X2081962D01*
X2094826Y1970329D01*
X2104671Y1980174D01*
X2110000Y1993038D01*
Y2006962D01*
X2104671Y2019826D01*
X2095392Y2029106D01*
Y2320895D01*
X2104671Y2330174D01*
X2110000Y2343038D01*
Y2356962D01*
X2104671Y2369826D01*
X2094826Y2379672D01*
X2081962Y2385000D01*
D02*
G37*
G36*
X1981962D02*
X1968038D01*
X1955174Y2379672D01*
X1945329Y2369826D01*
X1940000Y2356962D01*
Y2343038D01*
X1945329Y2330174D01*
X1954608Y2320895D01*
Y2029106D01*
X1945329Y2019826D01*
X1940000Y2006962D01*
Y1993038D01*
X1945329Y1980174D01*
X1955174Y1970329D01*
X1968038Y1965000D01*
X1981962D01*
X1994826Y1970329D01*
X2004672Y1980174D01*
X2010000Y1993038D01*
Y2006962D01*
X2004672Y2019826D01*
X1995392Y2029106D01*
Y2320895D01*
X2004672Y2330174D01*
X2010000Y2343038D01*
Y2356962D01*
X2004672Y2369826D01*
X1994826Y2379672D01*
X1981962Y2385000D01*
D02*
G37*
G36*
X1881962D02*
X1868038D01*
X1855174Y2379672D01*
X1845329Y2369826D01*
X1840000Y2356962D01*
Y2343038D01*
X1845329Y2330174D01*
X1854608Y2320895D01*
Y2029106D01*
X1845329Y2019826D01*
X1840000Y2006962D01*
Y1993038D01*
X1845329Y1980174D01*
X1855174Y1970329D01*
X1868038Y1965000D01*
X1881962D01*
X1894826Y1970329D01*
X1904672Y1980174D01*
X1910000Y1993038D01*
Y2006962D01*
X1904672Y2019826D01*
X1895392Y2029106D01*
Y2320895D01*
X1904672Y2330174D01*
X1910000Y2343038D01*
Y2356962D01*
X1904672Y2369826D01*
X1894826Y2379672D01*
X1881962Y2385000D01*
D02*
G37*
G36*
X1781962D02*
X1768038D01*
X1755174Y2379672D01*
X1745328Y2369826D01*
X1740000Y2356962D01*
Y2343038D01*
X1745328Y2330174D01*
X1754608Y2320895D01*
Y2029106D01*
X1745328Y2019826D01*
X1740000Y2006962D01*
Y1993038D01*
X1745328Y1980174D01*
X1755174Y1970329D01*
X1768038Y1965000D01*
X1781962D01*
X1794826Y1970329D01*
X1804672Y1980174D01*
X1810000Y1993038D01*
Y2006962D01*
X1804672Y2019826D01*
X1795392Y2029106D01*
Y2320895D01*
X1804672Y2330174D01*
X1810000Y2343038D01*
Y2356962D01*
X1804672Y2369826D01*
X1794826Y2379672D01*
X1781962Y2385000D01*
D02*
G37*
G36*
X1681962D02*
X1668038D01*
X1655174Y2379672D01*
X1645328Y2369826D01*
X1640000Y2356962D01*
Y2343038D01*
X1645328Y2330174D01*
X1654608Y2320895D01*
Y2029106D01*
X1645328Y2019826D01*
X1640000Y2006962D01*
Y1993038D01*
X1645328Y1980174D01*
X1655174Y1970329D01*
X1668038Y1965000D01*
X1681962D01*
X1694826Y1970329D01*
X1704671Y1980174D01*
X1710000Y1993038D01*
Y2006962D01*
X1704671Y2019826D01*
X1695392Y2029106D01*
Y2320895D01*
X1704671Y2330174D01*
X1710000Y2343038D01*
Y2356962D01*
X1704671Y2369826D01*
X1694826Y2379672D01*
X1681962Y2385000D01*
D02*
G37*
G36*
X1581962D02*
X1568038D01*
X1555174Y2379672D01*
X1545328Y2369826D01*
X1540000Y2356962D01*
Y2343038D01*
X1545328Y2330174D01*
X1554608Y2320895D01*
Y2029106D01*
X1545328Y2019826D01*
X1540000Y2006962D01*
Y1993038D01*
X1545328Y1980174D01*
X1555174Y1970329D01*
X1568038Y1965000D01*
X1581962D01*
X1594826Y1970329D01*
X1604671Y1980174D01*
X1610000Y1993038D01*
Y2006962D01*
X1604671Y2019826D01*
X1595392Y2029106D01*
Y2320895D01*
X1604671Y2330174D01*
X1610000Y2343038D01*
Y2356962D01*
X1604671Y2369826D01*
X1594826Y2379672D01*
X1581962Y2385000D01*
D02*
G37*
G36*
X1481962D02*
X1468038D01*
X1455174Y2379672D01*
X1445329Y2369826D01*
X1440000Y2356962D01*
Y2343038D01*
X1445329Y2330174D01*
X1454608Y2320895D01*
Y2029106D01*
X1445329Y2019826D01*
X1440000Y2006962D01*
Y1993038D01*
X1445329Y1980174D01*
X1455174Y1970329D01*
X1468038Y1965000D01*
X1481962D01*
X1494826Y1970329D01*
X1504672Y1980174D01*
X1510000Y1993038D01*
Y2006962D01*
X1504672Y2019826D01*
X1495392Y2029106D01*
Y2320895D01*
X1504672Y2330174D01*
X1510000Y2343038D01*
Y2356962D01*
X1504672Y2369826D01*
X1494826Y2379672D01*
X1481962Y2385000D01*
D02*
G37*
G36*
X1381962D02*
X1368038D01*
X1355174Y2379672D01*
X1345329Y2369826D01*
X1340000Y2356962D01*
Y2343038D01*
X1345329Y2330174D01*
X1354608Y2320895D01*
Y2029106D01*
X1345329Y2019826D01*
X1340000Y2006962D01*
Y1993038D01*
X1345329Y1980174D01*
X1355174Y1970329D01*
X1368038Y1965000D01*
X1381962D01*
X1394826Y1970329D01*
X1404672Y1980174D01*
X1410000Y1993038D01*
Y2006962D01*
X1404672Y2019826D01*
X1395392Y2029106D01*
Y2320895D01*
X1404672Y2330174D01*
X1410000Y2343038D01*
Y2356962D01*
X1404672Y2369826D01*
X1394826Y2379672D01*
X1381962Y2385000D01*
D02*
G37*
G36*
X1281962D02*
X1268038D01*
X1255174Y2379672D01*
X1245328Y2369826D01*
X1240000Y2356962D01*
Y2343038D01*
X1245328Y2330174D01*
X1254608Y2320895D01*
Y2029106D01*
X1245328Y2019826D01*
X1240000Y2006962D01*
Y1993038D01*
X1245328Y1980174D01*
X1255174Y1970329D01*
X1268038Y1965000D01*
X1281962D01*
X1294826Y1970329D01*
X1304672Y1980174D01*
X1310000Y1993038D01*
Y2006962D01*
X1304672Y2019826D01*
X1295392Y2029106D01*
Y2320895D01*
X1304672Y2330174D01*
X1310000Y2343038D01*
Y2356962D01*
X1304672Y2369826D01*
X1294826Y2379672D01*
X1281962Y2385000D01*
D02*
G37*
G36*
X1181962D02*
X1168038D01*
X1155174Y2379672D01*
X1145328Y2369826D01*
X1140000Y2356962D01*
Y2343038D01*
X1145328Y2330174D01*
X1154608Y2320895D01*
Y2029106D01*
X1145328Y2019826D01*
X1140000Y2006962D01*
Y1993038D01*
X1145328Y1980174D01*
X1155174Y1970329D01*
X1168038Y1965000D01*
X1181962D01*
X1194826Y1970329D01*
X1204671Y1980174D01*
X1210000Y1993038D01*
Y2006962D01*
X1204671Y2019826D01*
X1195392Y2029106D01*
Y2320895D01*
X1204671Y2330174D01*
X1210000Y2343038D01*
Y2356962D01*
X1204671Y2369826D01*
X1194826Y2379672D01*
X1181962Y2385000D01*
D02*
G37*
G36*
X1081962D02*
X1068038D01*
X1055174Y2379672D01*
X1045328Y2369826D01*
X1040000Y2356962D01*
Y2343038D01*
X1045328Y2330174D01*
X1054608Y2320895D01*
Y2029106D01*
X1045328Y2019826D01*
X1040000Y2006962D01*
Y1993038D01*
X1045328Y1980174D01*
X1055174Y1970329D01*
X1068038Y1965000D01*
X1081962D01*
X1094826Y1970329D01*
X1104671Y1980174D01*
X1110000Y1993038D01*
Y2006962D01*
X1104671Y2019826D01*
X1095392Y2029106D01*
Y2320895D01*
X1104671Y2330174D01*
X1110000Y2343038D01*
Y2356962D01*
X1104671Y2369826D01*
X1094826Y2379672D01*
X1081962Y2385000D01*
D02*
G37*
G36*
X8881962Y1035000D02*
X8868038D01*
X8855174Y1029672D01*
X8845329Y1019826D01*
X8840000Y1006962D01*
Y993038D01*
X8845329Y980174D01*
X8854608Y970894D01*
Y679106D01*
X8845329Y669826D01*
X8840000Y656962D01*
Y643038D01*
X8845329Y630174D01*
X8855174Y620328D01*
X8868038Y615000D01*
X8881962D01*
X8894826Y620328D01*
X8904672Y630174D01*
X8910000Y643038D01*
Y656962D01*
X8904672Y669826D01*
X8895392Y679106D01*
Y970894D01*
X8904672Y980174D01*
X8910000Y993038D01*
Y1006962D01*
X8904672Y1019826D01*
X8894826Y1029672D01*
X8881962Y1035000D01*
D02*
G37*
G36*
X8781962D02*
X8768038D01*
X8755174Y1029672D01*
X8745328Y1019826D01*
X8740000Y1006962D01*
Y993038D01*
X8745328Y980174D01*
X8754608Y970894D01*
Y679106D01*
X8745328Y669826D01*
X8740000Y656962D01*
Y643038D01*
X8745328Y630174D01*
X8755174Y620328D01*
X8768038Y615000D01*
X8781962D01*
X8794826Y620328D01*
X8804671Y630174D01*
X8810000Y643038D01*
Y656962D01*
X8804671Y669826D01*
X8795392Y679106D01*
Y970894D01*
X8804671Y980174D01*
X8810000Y993038D01*
Y1006962D01*
X8804671Y1019826D01*
X8794826Y1029672D01*
X8781962Y1035000D01*
D02*
G37*
G36*
X8681962D02*
X8668038D01*
X8655174Y1029672D01*
X8645328Y1019826D01*
X8640000Y1006962D01*
Y993038D01*
X8645328Y980174D01*
X8654608Y970894D01*
Y679106D01*
X8645328Y669826D01*
X8640000Y656962D01*
Y643038D01*
X8645328Y630174D01*
X8655174Y620328D01*
X8668038Y615000D01*
X8681962D01*
X8694826Y620328D01*
X8704671Y630174D01*
X8710000Y643038D01*
Y656962D01*
X8704671Y669826D01*
X8695392Y679106D01*
Y970894D01*
X8704671Y980174D01*
X8710000Y993038D01*
Y1006962D01*
X8704671Y1019826D01*
X8694826Y1029672D01*
X8681962Y1035000D01*
D02*
G37*
G36*
X8581962D02*
X8568038D01*
X8555174Y1029672D01*
X8545329Y1019826D01*
X8540000Y1006962D01*
Y993038D01*
X8545329Y980174D01*
X8554608Y970894D01*
Y679106D01*
X8545329Y669826D01*
X8540000Y656962D01*
Y643038D01*
X8545329Y630174D01*
X8555174Y620328D01*
X8568038Y615000D01*
X8581962D01*
X8594826Y620328D01*
X8604672Y630174D01*
X8610000Y643038D01*
Y656962D01*
X8604672Y669826D01*
X8595392Y679106D01*
Y970894D01*
X8604672Y980174D01*
X8610000Y993038D01*
Y1006962D01*
X8604672Y1019826D01*
X8594826Y1029672D01*
X8581962Y1035000D01*
D02*
G37*
G36*
X8481962D02*
X8468038D01*
X8455174Y1029672D01*
X8445329Y1019826D01*
X8440000Y1006962D01*
Y993038D01*
X8445329Y980174D01*
X8454608Y970894D01*
Y679106D01*
X8445329Y669826D01*
X8440000Y656962D01*
Y643038D01*
X8445329Y630174D01*
X8455174Y620328D01*
X8468038Y615000D01*
X8481962D01*
X8494826Y620328D01*
X8504672Y630174D01*
X8510000Y643038D01*
Y656962D01*
X8504672Y669826D01*
X8495392Y679106D01*
Y970894D01*
X8504672Y980174D01*
X8510000Y993038D01*
Y1006962D01*
X8504672Y1019826D01*
X8494826Y1029672D01*
X8481962Y1035000D01*
D02*
G37*
G36*
X8381962D02*
X8368038D01*
X8355174Y1029672D01*
X8345328Y1019826D01*
X8340000Y1006962D01*
Y993038D01*
X8345328Y980174D01*
X8354608Y970894D01*
Y679106D01*
X8345328Y669826D01*
X8340000Y656962D01*
Y643038D01*
X8345328Y630174D01*
X8355174Y620328D01*
X8368038Y615000D01*
X8381962D01*
X8394826Y620328D01*
X8404672Y630174D01*
X8410000Y643038D01*
Y656962D01*
X8404672Y669826D01*
X8395392Y679106D01*
Y970894D01*
X8404672Y980174D01*
X8410000Y993038D01*
Y1006962D01*
X8404672Y1019826D01*
X8394826Y1029672D01*
X8381962Y1035000D01*
D02*
G37*
G36*
X8281962D02*
X8268038D01*
X8255174Y1029672D01*
X8245328Y1019826D01*
X8240000Y1006962D01*
Y993038D01*
X8245328Y980174D01*
X8254608Y970894D01*
Y679106D01*
X8245328Y669826D01*
X8240000Y656962D01*
Y643038D01*
X8245328Y630174D01*
X8255174Y620328D01*
X8268038Y615000D01*
X8281962D01*
X8294826Y620328D01*
X8304671Y630174D01*
X8310000Y643038D01*
Y656962D01*
X8304671Y669826D01*
X8295392Y679106D01*
Y970894D01*
X8304671Y980174D01*
X8310000Y993038D01*
Y1006962D01*
X8304671Y1019826D01*
X8294826Y1029672D01*
X8281962Y1035000D01*
D02*
G37*
G36*
X8181962D02*
X8168038D01*
X8155174Y1029672D01*
X8145328Y1019826D01*
X8140000Y1006962D01*
Y993038D01*
X8145328Y980174D01*
X8154608Y970894D01*
Y679106D01*
X8145328Y669826D01*
X8140000Y656962D01*
Y643038D01*
X8145328Y630174D01*
X8155174Y620328D01*
X8168038Y615000D01*
X8181962D01*
X8194826Y620328D01*
X8204671Y630174D01*
X8210000Y643038D01*
Y656962D01*
X8204671Y669826D01*
X8195392Y679106D01*
Y970894D01*
X8204671Y980174D01*
X8210000Y993038D01*
Y1006962D01*
X8204671Y1019826D01*
X8194826Y1029672D01*
X8181962Y1035000D01*
D02*
G37*
G36*
X8081962D02*
X8068038D01*
X8055174Y1029672D01*
X8045329Y1019826D01*
X8040000Y1006962D01*
Y993038D01*
X8045329Y980174D01*
X8054608Y970894D01*
Y679106D01*
X8045329Y669826D01*
X8040000Y656962D01*
Y643038D01*
X8045329Y630174D01*
X8055174Y620328D01*
X8068038Y615000D01*
X8081962D01*
X8094826Y620328D01*
X8104672Y630174D01*
X8110000Y643038D01*
Y656962D01*
X8104672Y669826D01*
X8095392Y679106D01*
Y970894D01*
X8104672Y980174D01*
X8110000Y993038D01*
Y1006962D01*
X8104672Y1019826D01*
X8094826Y1029672D01*
X8081962Y1035000D01*
D02*
G37*
G36*
X7981962D02*
X7968038D01*
X7955174Y1029672D01*
X7945329Y1019826D01*
X7940000Y1006962D01*
Y993038D01*
X7945329Y980174D01*
X7954608Y970894D01*
Y679106D01*
X7945329Y669826D01*
X7940000Y656962D01*
Y643038D01*
X7945329Y630174D01*
X7955174Y620328D01*
X7968038Y615000D01*
X7981962D01*
X7994826Y620328D01*
X8004672Y630174D01*
X8010000Y643038D01*
Y656962D01*
X8004672Y669826D01*
X7995392Y679106D01*
Y970894D01*
X8004672Y980174D01*
X8010000Y993038D01*
Y1006962D01*
X8004672Y1019826D01*
X7994826Y1029672D01*
X7981962Y1035000D01*
D02*
G37*
G36*
X7881962D02*
X7868038D01*
X7855174Y1029672D01*
X7845328Y1019826D01*
X7840000Y1006962D01*
Y993038D01*
X7845328Y980174D01*
X7854608Y970894D01*
Y679106D01*
X7845328Y669826D01*
X7840000Y656962D01*
Y643038D01*
X7845328Y630174D01*
X7855174Y620328D01*
X7868038Y615000D01*
X7881962D01*
X7894826Y620328D01*
X7904672Y630174D01*
X7910000Y643038D01*
Y656962D01*
X7904672Y669826D01*
X7895392Y679106D01*
Y970894D01*
X7904672Y980174D01*
X7910000Y993038D01*
Y1006962D01*
X7904672Y1019826D01*
X7894826Y1029672D01*
X7881962Y1035000D01*
D02*
G37*
G36*
X7781962D02*
X7768038D01*
X7755174Y1029672D01*
X7745328Y1019826D01*
X7740000Y1006962D01*
Y993038D01*
X7745328Y980174D01*
X7754608Y970894D01*
Y679106D01*
X7745328Y669826D01*
X7740000Y656962D01*
Y643038D01*
X7745328Y630174D01*
X7755174Y620328D01*
X7768038Y615000D01*
X7781962D01*
X7794826Y620328D01*
X7804671Y630174D01*
X7810000Y643038D01*
Y656962D01*
X7804671Y669826D01*
X7795392Y679106D01*
Y970894D01*
X7804671Y980174D01*
X7810000Y993038D01*
Y1006962D01*
X7804671Y1019826D01*
X7794826Y1029672D01*
X7781962Y1035000D01*
D02*
G37*
G36*
X7681962D02*
X7668038D01*
X7655174Y1029672D01*
X7645328Y1019826D01*
X7640000Y1006962D01*
Y993038D01*
X7645328Y980174D01*
X7654608Y970894D01*
Y679106D01*
X7645328Y669826D01*
X7640000Y656962D01*
Y643038D01*
X7645328Y630174D01*
X7655174Y620328D01*
X7668038Y615000D01*
X7681962D01*
X7694826Y620328D01*
X7704671Y630174D01*
X7710000Y643038D01*
Y656962D01*
X7704671Y669826D01*
X7695392Y679106D01*
Y970894D01*
X7704671Y980174D01*
X7710000Y993038D01*
Y1006962D01*
X7704671Y1019826D01*
X7694826Y1029672D01*
X7681962Y1035000D01*
D02*
G37*
G36*
X7581962D02*
X7568038D01*
X7555174Y1029672D01*
X7545329Y1019826D01*
X7540000Y1006962D01*
Y993038D01*
X7545329Y980174D01*
X7554608Y970894D01*
Y679106D01*
X7545329Y669826D01*
X7540000Y656962D01*
Y643038D01*
X7545329Y630174D01*
X7555174Y620328D01*
X7568038Y615000D01*
X7581962D01*
X7594826Y620328D01*
X7604672Y630174D01*
X7610000Y643038D01*
Y656962D01*
X7604672Y669826D01*
X7595392Y679106D01*
Y970894D01*
X7604672Y980174D01*
X7610000Y993038D01*
Y1006962D01*
X7604672Y1019826D01*
X7594826Y1029672D01*
X7581962Y1035000D01*
D02*
G37*
G36*
X7481962D02*
X7468038D01*
X7455174Y1029672D01*
X7445329Y1019826D01*
X7440000Y1006962D01*
Y993038D01*
X7445329Y980174D01*
X7454608Y970894D01*
Y679106D01*
X7445329Y669826D01*
X7440000Y656962D01*
Y643038D01*
X7445329Y630174D01*
X7455174Y620328D01*
X7468038Y615000D01*
X7481962D01*
X7494826Y620328D01*
X7504672Y630174D01*
X7510000Y643038D01*
Y656962D01*
X7504672Y669826D01*
X7495392Y679106D01*
Y970894D01*
X7504672Y980174D01*
X7510000Y993038D01*
Y1006962D01*
X7504672Y1019826D01*
X7494826Y1029672D01*
X7481962Y1035000D01*
D02*
G37*
G36*
X5906962D02*
X5893038D01*
X5880174Y1029672D01*
X5870328Y1019826D01*
X5865000Y1006962D01*
Y993038D01*
X5870328Y980174D01*
X5879608Y970894D01*
Y679106D01*
X5870328Y669826D01*
X5865000Y656962D01*
Y643038D01*
X5870328Y630174D01*
X5880174Y620328D01*
X5893038Y615000D01*
X5906962D01*
X5919826Y620328D01*
X5929671Y630174D01*
X5935000Y643038D01*
Y656962D01*
X5929671Y669826D01*
X5920392Y679106D01*
Y970894D01*
X5929671Y980174D01*
X5935000Y993038D01*
Y1006962D01*
X5929671Y1019826D01*
X5919826Y1029672D01*
X5906962Y1035000D01*
D02*
G37*
G36*
X5806962D02*
X5793038D01*
X5780174Y1029672D01*
X5770329Y1019826D01*
X5765000Y1006962D01*
Y993038D01*
X5770329Y980174D01*
X5779608Y970894D01*
Y679106D01*
X5770329Y669826D01*
X5765000Y656962D01*
Y643038D01*
X5770329Y630174D01*
X5780174Y620328D01*
X5793038Y615000D01*
X5806962D01*
X5819826Y620328D01*
X5829672Y630174D01*
X5835000Y643038D01*
Y656962D01*
X5829672Y669826D01*
X5820392Y679106D01*
Y970894D01*
X5829672Y980174D01*
X5835000Y993038D01*
Y1006962D01*
X5829672Y1019826D01*
X5819826Y1029672D01*
X5806962Y1035000D01*
D02*
G37*
G36*
X5706962D02*
X5693038D01*
X5680174Y1029672D01*
X5670329Y1019826D01*
X5665000Y1006962D01*
Y993038D01*
X5670329Y980174D01*
X5679608Y970894D01*
Y679106D01*
X5670329Y669826D01*
X5665000Y656962D01*
Y643038D01*
X5670329Y630174D01*
X5680174Y620328D01*
X5693038Y615000D01*
X5706962D01*
X5719826Y620328D01*
X5729672Y630174D01*
X5735000Y643038D01*
Y656962D01*
X5729672Y669826D01*
X5720392Y679106D01*
Y970894D01*
X5729672Y980174D01*
X5735000Y993038D01*
Y1006962D01*
X5729672Y1019826D01*
X5719826Y1029672D01*
X5706962Y1035000D01*
D02*
G37*
G36*
X5606962D02*
X5593038D01*
X5580174Y1029672D01*
X5570328Y1019826D01*
X5565000Y1006962D01*
Y993038D01*
X5570328Y980174D01*
X5579608Y970894D01*
Y679106D01*
X5570328Y669826D01*
X5565000Y656962D01*
Y643038D01*
X5570328Y630174D01*
X5580174Y620328D01*
X5593038Y615000D01*
X5606962D01*
X5619826Y620328D01*
X5629671Y630174D01*
X5635000Y643038D01*
Y656962D01*
X5629671Y669826D01*
X5620392Y679106D01*
Y970894D01*
X5629671Y980174D01*
X5635000Y993038D01*
Y1006962D01*
X5629671Y1019826D01*
X5619826Y1029672D01*
X5606962Y1035000D01*
D02*
G37*
G36*
X5506962D02*
X5493038D01*
X5480174Y1029672D01*
X5470328Y1019826D01*
X5465000Y1006962D01*
Y993038D01*
X5470328Y980174D01*
X5479608Y970894D01*
Y679106D01*
X5470328Y669826D01*
X5465000Y656962D01*
Y643038D01*
X5470328Y630174D01*
X5480174Y620328D01*
X5493038Y615000D01*
X5506962D01*
X5519826Y620328D01*
X5529671Y630174D01*
X5535000Y643038D01*
Y656962D01*
X5529671Y669826D01*
X5520392Y679106D01*
Y970894D01*
X5529671Y980174D01*
X5535000Y993038D01*
Y1006962D01*
X5529671Y1019826D01*
X5519826Y1029672D01*
X5506962Y1035000D01*
D02*
G37*
G36*
X5406962D02*
X5393038D01*
X5380174Y1029672D01*
X5370329Y1019826D01*
X5365000Y1006962D01*
Y993038D01*
X5370329Y980174D01*
X5379608Y970894D01*
Y679106D01*
X5370329Y669826D01*
X5365000Y656962D01*
Y643038D01*
X5370329Y630174D01*
X5380174Y620328D01*
X5393038Y615000D01*
X5406962D01*
X5419826Y620328D01*
X5429672Y630174D01*
X5435000Y643038D01*
Y656962D01*
X5429672Y669826D01*
X5420392Y679106D01*
Y970894D01*
X5429672Y980174D01*
X5435000Y993038D01*
Y1006962D01*
X5429672Y1019826D01*
X5419826Y1029672D01*
X5406962Y1035000D01*
D02*
G37*
G36*
X5306962D02*
X5293038D01*
X5280174Y1029672D01*
X5270329Y1019826D01*
X5265000Y1006962D01*
Y993038D01*
X5270329Y980174D01*
X5279608Y970894D01*
Y679106D01*
X5270329Y669826D01*
X5265000Y656962D01*
Y643038D01*
X5270329Y630174D01*
X5280174Y620328D01*
X5293038Y615000D01*
X5306962D01*
X5319826Y620328D01*
X5329672Y630174D01*
X5335000Y643038D01*
Y656962D01*
X5329672Y669826D01*
X5320392Y679106D01*
Y970894D01*
X5329672Y980174D01*
X5335000Y993038D01*
Y1006962D01*
X5329672Y1019826D01*
X5319826Y1029672D01*
X5306962Y1035000D01*
D02*
G37*
G36*
X5206962D02*
X5193038D01*
X5180174Y1029672D01*
X5170328Y1019826D01*
X5165000Y1006962D01*
Y993038D01*
X5170328Y980174D01*
X5179608Y970894D01*
Y679106D01*
X5170328Y669826D01*
X5165000Y656962D01*
Y643038D01*
X5170328Y630174D01*
X5180174Y620328D01*
X5193038Y615000D01*
X5206962D01*
X5219826Y620328D01*
X5229672Y630174D01*
X5235000Y643038D01*
Y656962D01*
X5229672Y669826D01*
X5220392Y679106D01*
Y970894D01*
X5229672Y980174D01*
X5235000Y993038D01*
Y1006962D01*
X5229672Y1019826D01*
X5219826Y1029672D01*
X5206962Y1035000D01*
D02*
G37*
G36*
X5106962D02*
X5093038D01*
X5080174Y1029672D01*
X5070328Y1019826D01*
X5065000Y1006962D01*
Y993038D01*
X5070328Y980174D01*
X5079608Y970894D01*
Y679106D01*
X5070328Y669826D01*
X5065000Y656962D01*
Y643038D01*
X5070328Y630174D01*
X5080174Y620328D01*
X5093038Y615000D01*
X5106962D01*
X5119826Y620328D01*
X5129671Y630174D01*
X5135000Y643038D01*
Y656962D01*
X5129671Y669826D01*
X5120392Y679106D01*
Y970894D01*
X5129671Y980174D01*
X5135000Y993038D01*
Y1006962D01*
X5129671Y1019826D01*
X5119826Y1029672D01*
X5106962Y1035000D01*
D02*
G37*
G36*
X5006962D02*
X4993038D01*
X4980174Y1029672D01*
X4970328Y1019826D01*
X4965000Y1006962D01*
Y993038D01*
X4970328Y980174D01*
X4979608Y970894D01*
Y679106D01*
X4970328Y669826D01*
X4965000Y656962D01*
Y643038D01*
X4970328Y630174D01*
X4980174Y620328D01*
X4993038Y615000D01*
X5006962D01*
X5019826Y620328D01*
X5029671Y630174D01*
X5035000Y643038D01*
Y656962D01*
X5029671Y669826D01*
X5020392Y679106D01*
Y970894D01*
X5029671Y980174D01*
X5035000Y993038D01*
Y1006962D01*
X5029671Y1019826D01*
X5019826Y1029672D01*
X5006962Y1035000D01*
D02*
G37*
G36*
X4906962D02*
X4893038D01*
X4880174Y1029672D01*
X4870329Y1019826D01*
X4865000Y1006962D01*
Y993038D01*
X4870329Y980174D01*
X4879608Y970894D01*
Y679106D01*
X4870329Y669826D01*
X4865000Y656962D01*
Y643038D01*
X4870329Y630174D01*
X4880174Y620328D01*
X4893038Y615000D01*
X4906962D01*
X4919826Y620328D01*
X4929672Y630174D01*
X4935000Y643038D01*
Y656962D01*
X4929672Y669826D01*
X4920392Y679106D01*
Y970894D01*
X4929672Y980174D01*
X4935000Y993038D01*
Y1006962D01*
X4929672Y1019826D01*
X4919826Y1029672D01*
X4906962Y1035000D01*
D02*
G37*
G36*
X4806962D02*
X4793038D01*
X4780174Y1029672D01*
X4770329Y1019826D01*
X4765000Y1006962D01*
Y993038D01*
X4770329Y980174D01*
X4779608Y970894D01*
Y679106D01*
X4770329Y669826D01*
X4765000Y656962D01*
Y643038D01*
X4770329Y630174D01*
X4780174Y620328D01*
X4793038Y615000D01*
X4806962D01*
X4819826Y620328D01*
X4829672Y630174D01*
X4835000Y643038D01*
Y656962D01*
X4829672Y669826D01*
X4820392Y679106D01*
Y970894D01*
X4829672Y980174D01*
X4835000Y993038D01*
Y1006962D01*
X4829672Y1019826D01*
X4819826Y1029672D01*
X4806962Y1035000D01*
D02*
G37*
G36*
X4706962D02*
X4693038D01*
X4680174Y1029672D01*
X4670328Y1019826D01*
X4665000Y1006962D01*
Y993038D01*
X4670328Y980174D01*
X4679608Y970894D01*
Y679106D01*
X4670328Y669826D01*
X4665000Y656962D01*
Y643038D01*
X4670328Y630174D01*
X4680174Y620328D01*
X4693038Y615000D01*
X4706962D01*
X4719826Y620328D01*
X4729672Y630174D01*
X4735000Y643038D01*
Y656962D01*
X4729672Y669826D01*
X4720392Y679106D01*
Y970894D01*
X4729672Y980174D01*
X4735000Y993038D01*
Y1006962D01*
X4729672Y1019826D01*
X4719826Y1029672D01*
X4706962Y1035000D01*
D02*
G37*
G36*
X4606962D02*
X4593038D01*
X4580174Y1029672D01*
X4570328Y1019826D01*
X4565000Y1006962D01*
Y993038D01*
X4570328Y980174D01*
X4579608Y970894D01*
Y679106D01*
X4570328Y669826D01*
X4565000Y656962D01*
Y643038D01*
X4570328Y630174D01*
X4580174Y620328D01*
X4593038Y615000D01*
X4606962D01*
X4619826Y620328D01*
X4629671Y630174D01*
X4635000Y643038D01*
Y656962D01*
X4629671Y669826D01*
X4620392Y679106D01*
Y970894D01*
X4629671Y980174D01*
X4635000Y993038D01*
Y1006962D01*
X4629671Y1019826D01*
X4619826Y1029672D01*
X4606962Y1035000D01*
D02*
G37*
G36*
X4506962D02*
X4493038D01*
X4480174Y1029672D01*
X4470328Y1019826D01*
X4465000Y1006962D01*
Y993038D01*
X4470328Y980174D01*
X4479608Y970894D01*
Y679106D01*
X4470328Y669826D01*
X4465000Y656962D01*
Y643038D01*
X4470328Y630174D01*
X4480174Y620328D01*
X4493038Y615000D01*
X4506962D01*
X4519826Y620328D01*
X4529671Y630174D01*
X4535000Y643038D01*
Y656962D01*
X4529671Y669826D01*
X4520392Y679106D01*
Y970894D01*
X4529671Y980174D01*
X4535000Y993038D01*
Y1006962D01*
X4529671Y1019826D01*
X4519826Y1029672D01*
X4506962Y1035000D01*
D02*
G37*
G36*
X2931962D02*
X2918038D01*
X2905174Y1029672D01*
X2895328Y1019826D01*
X2890000Y1006962D01*
Y993038D01*
X2895328Y980174D01*
X2904608Y970894D01*
Y679106D01*
X2895328Y669826D01*
X2890000Y656962D01*
Y643038D01*
X2895328Y630174D01*
X2905174Y620328D01*
X2918038Y615000D01*
X2931962D01*
X2944826Y620328D01*
X2954672Y630174D01*
X2960000Y643038D01*
Y656962D01*
X2954672Y669826D01*
X2945392Y679106D01*
Y970894D01*
X2954672Y980174D01*
X2960000Y993038D01*
Y1006962D01*
X2954672Y1019826D01*
X2944826Y1029672D01*
X2931962Y1035000D01*
D02*
G37*
G36*
X2831962D02*
X2818038D01*
X2805174Y1029672D01*
X2795328Y1019826D01*
X2790000Y1006962D01*
Y993038D01*
X2795328Y980174D01*
X2804608Y970894D01*
Y679106D01*
X2795328Y669826D01*
X2790000Y656962D01*
Y643038D01*
X2795328Y630174D01*
X2805174Y620328D01*
X2818038Y615000D01*
X2831962D01*
X2844826Y620328D01*
X2854671Y630174D01*
X2860000Y643038D01*
Y656962D01*
X2854671Y669826D01*
X2845392Y679106D01*
Y970894D01*
X2854671Y980174D01*
X2860000Y993038D01*
Y1006962D01*
X2854671Y1019826D01*
X2844826Y1029672D01*
X2831962Y1035000D01*
D02*
G37*
G36*
X2731962D02*
X2718038D01*
X2705174Y1029672D01*
X2695328Y1019826D01*
X2690000Y1006962D01*
Y993038D01*
X2695328Y980174D01*
X2704608Y970894D01*
Y679106D01*
X2695328Y669826D01*
X2690000Y656962D01*
Y643038D01*
X2695328Y630174D01*
X2705174Y620328D01*
X2718038Y615000D01*
X2731962D01*
X2744826Y620328D01*
X2754671Y630174D01*
X2760000Y643038D01*
Y656962D01*
X2754671Y669826D01*
X2745392Y679106D01*
Y970894D01*
X2754671Y980174D01*
X2760000Y993038D01*
Y1006962D01*
X2754671Y1019826D01*
X2744826Y1029672D01*
X2731962Y1035000D01*
D02*
G37*
G36*
X2631962D02*
X2618038D01*
X2605174Y1029672D01*
X2595329Y1019826D01*
X2590000Y1006962D01*
Y993038D01*
X2595329Y980174D01*
X2604608Y970894D01*
Y679106D01*
X2595329Y669826D01*
X2590000Y656962D01*
Y643038D01*
X2595329Y630174D01*
X2605174Y620328D01*
X2618038Y615000D01*
X2631962D01*
X2644826Y620328D01*
X2654672Y630174D01*
X2660000Y643038D01*
Y656962D01*
X2654672Y669826D01*
X2645392Y679106D01*
Y970894D01*
X2654672Y980174D01*
X2660000Y993038D01*
Y1006962D01*
X2654672Y1019826D01*
X2644826Y1029672D01*
X2631962Y1035000D01*
D02*
G37*
G36*
X2531962D02*
X2518038D01*
X2505174Y1029672D01*
X2495329Y1019826D01*
X2490000Y1006962D01*
Y993038D01*
X2495329Y980174D01*
X2504608Y970894D01*
Y679106D01*
X2495329Y669826D01*
X2490000Y656962D01*
Y643038D01*
X2495329Y630174D01*
X2505174Y620328D01*
X2518038Y615000D01*
X2531962D01*
X2544826Y620328D01*
X2554672Y630174D01*
X2560000Y643038D01*
Y656962D01*
X2554672Y669826D01*
X2545392Y679106D01*
Y970894D01*
X2554672Y980174D01*
X2560000Y993038D01*
Y1006962D01*
X2554672Y1019826D01*
X2544826Y1029672D01*
X2531962Y1035000D01*
D02*
G37*
G36*
X2431962D02*
X2418038D01*
X2405174Y1029672D01*
X2395328Y1019826D01*
X2390000Y1006962D01*
Y993038D01*
X2395328Y980174D01*
X2404608Y970894D01*
Y679106D01*
X2395328Y669826D01*
X2390000Y656962D01*
Y643038D01*
X2395328Y630174D01*
X2405174Y620328D01*
X2418038Y615000D01*
X2431962D01*
X2444826Y620328D01*
X2454671Y630174D01*
X2460000Y643038D01*
Y656962D01*
X2454671Y669826D01*
X2445392Y679106D01*
Y970894D01*
X2454671Y980174D01*
X2460000Y993038D01*
Y1006962D01*
X2454671Y1019826D01*
X2444826Y1029672D01*
X2431962Y1035000D01*
D02*
G37*
G36*
X2331962D02*
X2318038D01*
X2305174Y1029672D01*
X2295328Y1019826D01*
X2290000Y1006962D01*
Y993038D01*
X2295328Y980174D01*
X2304608Y970894D01*
Y679106D01*
X2295328Y669826D01*
X2290000Y656962D01*
Y643038D01*
X2295328Y630174D01*
X2305174Y620328D01*
X2318038Y615000D01*
X2331962D01*
X2344826Y620328D01*
X2354671Y630174D01*
X2360000Y643038D01*
Y656962D01*
X2354671Y669826D01*
X2345392Y679106D01*
Y970894D01*
X2354671Y980174D01*
X2360000Y993038D01*
Y1006962D01*
X2354671Y1019826D01*
X2344826Y1029672D01*
X2331962Y1035000D01*
D02*
G37*
G36*
X2231962D02*
X2218038D01*
X2205174Y1029672D01*
X2195329Y1019826D01*
X2190000Y1006962D01*
Y993038D01*
X2195329Y980174D01*
X2204608Y970894D01*
Y679106D01*
X2195329Y669826D01*
X2190000Y656962D01*
Y643038D01*
X2195329Y630174D01*
X2205174Y620328D01*
X2218038Y615000D01*
X2231962D01*
X2244826Y620328D01*
X2254672Y630174D01*
X2260000Y643038D01*
Y656962D01*
X2254672Y669826D01*
X2245392Y679106D01*
Y970894D01*
X2254672Y980174D01*
X2260000Y993038D01*
Y1006962D01*
X2254672Y1019826D01*
X2244826Y1029672D01*
X2231962Y1035000D01*
D02*
G37*
G36*
X2131962D02*
X2118038D01*
X2105174Y1029672D01*
X2095329Y1019826D01*
X2090000Y1006962D01*
Y993038D01*
X2095329Y980174D01*
X2104608Y970894D01*
Y679106D01*
X2095329Y669826D01*
X2090000Y656962D01*
Y643038D01*
X2095329Y630174D01*
X2105174Y620328D01*
X2118038Y615000D01*
X2131962D01*
X2144826Y620328D01*
X2154672Y630174D01*
X2160000Y643038D01*
Y656962D01*
X2154672Y669826D01*
X2145392Y679106D01*
Y970894D01*
X2154672Y980174D01*
X2160000Y993038D01*
Y1006962D01*
X2154672Y1019826D01*
X2144826Y1029672D01*
X2131962Y1035000D01*
D02*
G37*
G36*
X2031962D02*
X2018038D01*
X2005174Y1029672D01*
X1995328Y1019826D01*
X1990000Y1006962D01*
Y993038D01*
X1995328Y980174D01*
X2004608Y970894D01*
Y679106D01*
X1995328Y669826D01*
X1990000Y656962D01*
Y643038D01*
X1995328Y630174D01*
X2005174Y620328D01*
X2018038Y615000D01*
X2031962D01*
X2044826Y620328D01*
X2054672Y630174D01*
X2060000Y643038D01*
Y656962D01*
X2054672Y669826D01*
X2045392Y679106D01*
Y970894D01*
X2054672Y980174D01*
X2060000Y993038D01*
Y1006962D01*
X2054672Y1019826D01*
X2044826Y1029672D01*
X2031962Y1035000D01*
D02*
G37*
G36*
X1931962D02*
X1918038D01*
X1905174Y1029672D01*
X1895328Y1019826D01*
X1890000Y1006962D01*
Y993038D01*
X1895328Y980174D01*
X1904608Y970894D01*
Y679106D01*
X1895328Y669826D01*
X1890000Y656962D01*
Y643038D01*
X1895328Y630174D01*
X1905174Y620328D01*
X1918038Y615000D01*
X1931962D01*
X1944826Y620328D01*
X1954671Y630174D01*
X1960000Y643038D01*
Y656962D01*
X1954671Y669826D01*
X1945392Y679106D01*
Y970894D01*
X1954671Y980174D01*
X1960000Y993038D01*
Y1006962D01*
X1954671Y1019826D01*
X1944826Y1029672D01*
X1931962Y1035000D01*
D02*
G37*
G36*
X1831962D02*
X1818038D01*
X1805174Y1029672D01*
X1795328Y1019826D01*
X1790000Y1006962D01*
Y993038D01*
X1795328Y980174D01*
X1804608Y970894D01*
Y679106D01*
X1795328Y669826D01*
X1790000Y656962D01*
Y643038D01*
X1795328Y630174D01*
X1805174Y620328D01*
X1818038Y615000D01*
X1831962D01*
X1844826Y620328D01*
X1854671Y630174D01*
X1860000Y643038D01*
Y656962D01*
X1854671Y669826D01*
X1845392Y679106D01*
Y970894D01*
X1854671Y980174D01*
X1860000Y993038D01*
Y1006962D01*
X1854671Y1019826D01*
X1844826Y1029672D01*
X1831962Y1035000D01*
D02*
G37*
G36*
X1731962D02*
X1718038D01*
X1705174Y1029672D01*
X1695329Y1019826D01*
X1690000Y1006962D01*
Y993038D01*
X1695329Y980174D01*
X1704608Y970894D01*
Y679106D01*
X1695329Y669826D01*
X1690000Y656962D01*
Y643038D01*
X1695329Y630174D01*
X1705174Y620328D01*
X1718038Y615000D01*
X1731962D01*
X1744826Y620328D01*
X1754672Y630174D01*
X1760000Y643038D01*
Y656962D01*
X1754672Y669826D01*
X1745392Y679106D01*
Y970894D01*
X1754672Y980174D01*
X1760000Y993038D01*
Y1006962D01*
X1754672Y1019826D01*
X1744826Y1029672D01*
X1731962Y1035000D01*
D02*
G37*
G36*
X1631962D02*
X1618038D01*
X1605174Y1029672D01*
X1595329Y1019826D01*
X1590000Y1006962D01*
Y993038D01*
X1595329Y980174D01*
X1604608Y970894D01*
Y679106D01*
X1595329Y669826D01*
X1590000Y656962D01*
Y643038D01*
X1595329Y630174D01*
X1605174Y620328D01*
X1618038Y615000D01*
X1631962D01*
X1644826Y620328D01*
X1654672Y630174D01*
X1660000Y643038D01*
Y656962D01*
X1654672Y669826D01*
X1645392Y679106D01*
Y970894D01*
X1654672Y980174D01*
X1660000Y993038D01*
Y1006962D01*
X1654672Y1019826D01*
X1644826Y1029672D01*
X1631962Y1035000D01*
D02*
G37*
G36*
X1531962D02*
X1518038D01*
X1505174Y1029672D01*
X1495328Y1019826D01*
X1490000Y1006962D01*
Y993038D01*
X1495328Y980174D01*
X1504608Y970894D01*
Y679106D01*
X1495328Y669826D01*
X1490000Y656962D01*
Y643038D01*
X1495328Y630174D01*
X1505174Y620328D01*
X1518038Y615000D01*
X1531962D01*
X1544826Y620328D01*
X1554672Y630174D01*
X1560000Y643038D01*
Y656962D01*
X1554672Y669826D01*
X1545392Y679106D01*
Y970894D01*
X1554672Y980174D01*
X1560000Y993038D01*
Y1006962D01*
X1554672Y1019826D01*
X1544826Y1029672D01*
X1531962Y1035000D01*
D02*
G37*
G36*
X1431962D02*
X1418038D01*
X1405174Y1029672D01*
X1395328Y1019826D01*
X1390000Y1006962D01*
Y993038D01*
X1395328Y980174D01*
X1404608Y970894D01*
Y679106D01*
X1395328Y669826D01*
X1390000Y656962D01*
Y643038D01*
X1395328Y630174D01*
X1405174Y620328D01*
X1418038Y615000D01*
X1431962D01*
X1444826Y620328D01*
X1454671Y630174D01*
X1460000Y643038D01*
Y656962D01*
X1454671Y669826D01*
X1445392Y679106D01*
Y970894D01*
X1454671Y980174D01*
X1460000Y993038D01*
Y1006962D01*
X1454671Y1019826D01*
X1444826Y1029672D01*
X1431962Y1035000D01*
D02*
G37*
G36*
X1331962D02*
X1318038D01*
X1305174Y1029672D01*
X1295328Y1019826D01*
X1290000Y1006962D01*
Y993038D01*
X1295328Y980174D01*
X1304608Y970894D01*
Y679106D01*
X1295328Y669826D01*
X1290000Y656962D01*
Y643038D01*
X1295328Y630174D01*
X1305174Y620328D01*
X1318038Y615000D01*
X1331962D01*
X1344826Y620328D01*
X1354671Y630174D01*
X1360000Y643038D01*
Y656962D01*
X1354671Y669826D01*
X1345392Y679106D01*
Y970894D01*
X1354671Y980174D01*
X1360000Y993038D01*
Y1006962D01*
X1354671Y1019826D01*
X1344826Y1029672D01*
X1331962Y1035000D01*
D02*
G37*
G36*
X1231962D02*
X1218038D01*
X1205174Y1029672D01*
X1195329Y1019826D01*
X1190000Y1006962D01*
Y993038D01*
X1195329Y980174D01*
X1204608Y970894D01*
Y679106D01*
X1195329Y669826D01*
X1190000Y656962D01*
Y643038D01*
X1195329Y630174D01*
X1205174Y620328D01*
X1218038Y615000D01*
X1231962D01*
X1244826Y620328D01*
X1254672Y630174D01*
X1260000Y643038D01*
Y656962D01*
X1254672Y669826D01*
X1245392Y679106D01*
Y970894D01*
X1254672Y980174D01*
X1260000Y993038D01*
Y1006962D01*
X1254672Y1019826D01*
X1244826Y1029672D01*
X1231962Y1035000D01*
D02*
G37*
G36*
X1131962D02*
X1118038D01*
X1105174Y1029672D01*
X1095329Y1019826D01*
X1090000Y1006962D01*
Y993038D01*
X1095329Y980174D01*
X1104608Y970894D01*
Y679106D01*
X1095329Y669826D01*
X1090000Y656962D01*
Y643038D01*
X1095329Y630174D01*
X1105174Y620328D01*
X1118038Y615000D01*
X1131962D01*
X1144826Y620328D01*
X1154672Y630174D01*
X1160000Y643038D01*
Y656962D01*
X1154672Y669826D01*
X1145392Y679106D01*
Y970894D01*
X1154672Y980174D01*
X1160000Y993038D01*
Y1006962D01*
X1154672Y1019826D01*
X1144826Y1029672D01*
X1131962Y1035000D01*
D02*
G37*
G36*
X1031962D02*
X1018038D01*
X1005174Y1029672D01*
X995328Y1019826D01*
X990000Y1006962D01*
Y993038D01*
X995328Y980174D01*
X1004608Y970894D01*
Y679106D01*
X995328Y669826D01*
X990000Y656962D01*
Y643038D01*
X995328Y630174D01*
X1005174Y620328D01*
X1018038Y615000D01*
X1031962D01*
X1044826Y620328D01*
X1054671Y630174D01*
X1060000Y643038D01*
Y656962D01*
X1054671Y669826D01*
X1045392Y679106D01*
Y970894D01*
X1054671Y980174D01*
X1060000Y993038D01*
Y1006962D01*
X1054671Y1019826D01*
X1044826Y1029672D01*
X1031962Y1035000D01*
D02*
G37*
G36*
X9521675Y775400D02*
X9512700D01*
Y512700D01*
X9775400D01*
Y521675D01*
X9768619Y564490D01*
X9755223Y605717D01*
X9735543Y644341D01*
X9710063Y679411D01*
X9679411Y710063D01*
X9644341Y735543D01*
X9605717Y755223D01*
X9564490Y768619D01*
X9521675Y775400D01*
D02*
G37*
G36*
X9487300D02*
X9478325D01*
X9435510Y768619D01*
X9394283Y755223D01*
X9355659Y735543D01*
X9320589Y710063D01*
X9289937Y679411D01*
X9264457Y644341D01*
X9244777Y605717D01*
X9231381Y564490D01*
X9224600Y521675D01*
Y512700D01*
X9487300D01*
Y775400D01*
D02*
G37*
G36*
X521675D02*
X512700D01*
Y512700D01*
X775400D01*
Y521675D01*
X768619Y564490D01*
X755223Y605717D01*
X735543Y644341D01*
X710063Y679411D01*
X679411Y710063D01*
X644341Y735543D01*
X605717Y755223D01*
X564490Y768619D01*
X521675Y775400D01*
D02*
G37*
G36*
X487300D02*
X478325D01*
X435510Y768619D01*
X394283Y755223D01*
X355659Y735543D01*
X320589Y710063D01*
X289937Y679411D01*
X264457Y644341D01*
X244777Y605717D01*
X231381Y564490D01*
X224600Y521675D01*
Y512700D01*
X487300D01*
Y775400D01*
D02*
G37*
G36*
X9775400Y487300D02*
X9512700D01*
Y224600D01*
X9521675D01*
X9564490Y231381D01*
X9605717Y244777D01*
X9644341Y264457D01*
X9679411Y289937D01*
X9710063Y320589D01*
X9735543Y355659D01*
X9755223Y394283D01*
X9768619Y435510D01*
X9775400Y478325D01*
Y487300D01*
D02*
G37*
G36*
X9487300D02*
X9224600D01*
Y478325D01*
X9231381Y435510D01*
X9244777Y394283D01*
X9264457Y355659D01*
X9289937Y320589D01*
X9320589Y289937D01*
X9355659Y264457D01*
X9394283Y244777D01*
X9435510Y231381D01*
X9478325Y224600D01*
X9487300D01*
Y487300D01*
D02*
G37*
G36*
X775400D02*
X512700D01*
Y224600D01*
X521675D01*
X564490Y231381D01*
X605717Y244777D01*
X644341Y264457D01*
X679411Y289937D01*
X710063Y320589D01*
X735543Y355659D01*
X755223Y394283D01*
X768619Y435510D01*
X775400Y478325D01*
Y487300D01*
D02*
G37*
G36*
X487300D02*
X224600D01*
Y478325D01*
X231381Y435510D01*
X244777Y394283D01*
X264457Y355659D01*
X289937Y320589D01*
X320589Y289937D01*
X355659Y264457D01*
X394283Y244777D01*
X435510Y231381D01*
X478325Y224600D01*
X487300D01*
Y487300D01*
D02*
G37*
%LPD*%
D12*
X5900000Y650000D02*
Y1000000D01*
X5800000Y650000D02*
Y1000000D01*
X5700000Y650000D02*
Y1000000D01*
X5600000Y650000D02*
Y1000000D01*
X5500000Y650000D02*
Y1000000D01*
X5400000Y650000D02*
Y1000000D01*
X5300000Y650000D02*
Y1000000D01*
X5200000Y650000D02*
Y1000000D01*
X5100000Y650000D02*
Y1000000D01*
X5000000Y650000D02*
Y1000000D01*
X4900000Y650000D02*
Y1000000D01*
X4800000Y650000D02*
Y1000000D01*
X4700000Y650000D02*
Y1000000D01*
X4600000Y650000D02*
Y1000000D01*
X4500000Y650000D02*
Y1000000D01*
X4550000Y2000000D02*
Y2350000D01*
X4650000Y2000000D02*
Y2350000D01*
X4750000Y2000000D02*
Y2350000D01*
X4850000Y2000000D02*
Y2350000D01*
X4950000Y2000000D02*
Y2350000D01*
X5050000Y2000000D02*
Y2350000D01*
X5150000Y2000000D02*
Y2350000D01*
X5250000Y2000000D02*
Y2350000D01*
X5350000Y2000000D02*
Y2350000D01*
X5450000Y2000000D02*
Y2350000D01*
X5550000Y2000000D02*
Y2350000D01*
X5650000Y2000000D02*
Y2350000D01*
X5750000Y2000000D02*
Y2350000D01*
X5850000Y2000000D02*
Y2350000D01*
X5950000Y2000000D02*
Y2350000D01*
X7525000Y2000000D02*
Y2350000D01*
X7625000Y2000000D02*
Y2350000D01*
X7725000Y2000000D02*
Y2350000D01*
X7825000Y2000000D02*
Y2350000D01*
X7925000Y2000000D02*
Y2350000D01*
X8025000Y2000000D02*
Y2350000D01*
X8125000Y2000000D02*
Y2350000D01*
X8225000Y2000000D02*
Y2350000D01*
X8325000Y2000000D02*
Y2350000D01*
X8425000Y2000000D02*
Y2350000D01*
X8525000Y2000000D02*
Y2350000D01*
X8625000Y2000000D02*
Y2350000D01*
X8725000Y2000000D02*
Y2350000D01*
X8825000Y2000000D02*
Y2350000D01*
X8925000Y2000000D02*
Y2350000D01*
X8875000Y650000D02*
Y1000000D01*
X8775000Y650000D02*
Y1000000D01*
X8675000Y650000D02*
Y1000000D01*
X8575000Y650000D02*
Y1000000D01*
X8475000Y650000D02*
Y1000000D01*
X8375000Y650000D02*
Y1000000D01*
X8275000Y650000D02*
Y1000000D01*
X8175000Y650000D02*
Y1000000D01*
X8075000Y650000D02*
Y1000000D01*
X7975000Y650000D02*
Y1000000D01*
X7875000Y650000D02*
Y1000000D01*
X7775000Y650000D02*
Y1000000D01*
X7675000Y650000D02*
Y1000000D01*
X7575000Y650000D02*
Y1000000D01*
X7475000Y650000D02*
Y1000000D01*
X2975000Y2000000D02*
Y2350000D01*
X2875000Y2000000D02*
Y2350000D01*
X2775000Y2000000D02*
Y2350000D01*
X2675000Y2000000D02*
Y2350000D01*
X2575000Y2000000D02*
Y2350000D01*
X2475000Y2000000D02*
Y2350000D01*
X2375000Y2000000D02*
Y2350000D01*
X2275000Y2000000D02*
Y2350000D01*
X2175000Y2000000D02*
Y2350000D01*
X2075000Y2000000D02*
Y2350000D01*
X1975000Y2000000D02*
Y2350000D01*
X1875000Y2000000D02*
Y2350000D01*
X1775000Y2000000D02*
Y2350000D01*
X1675000Y2000000D02*
Y2350000D01*
X1575000Y2000000D02*
Y2350000D01*
X1475000Y2000000D02*
Y2350000D01*
X1375000Y2000000D02*
Y2350000D01*
X1275000Y2000000D02*
Y2350000D01*
X1175000Y2000000D02*
Y2350000D01*
X1075000Y2000000D02*
Y2350000D01*
X2925000Y650000D02*
Y1000000D01*
X2825000Y650000D02*
Y1000000D01*
X2725000Y650000D02*
Y1000000D01*
X2625000Y650000D02*
Y1000000D01*
X2525000Y650000D02*
Y1000000D01*
X2425000Y650000D02*
Y1000000D01*
X2325000Y650000D02*
Y1000000D01*
X2225000Y650000D02*
Y1000000D01*
X2125000Y650000D02*
Y1000000D01*
X2025000Y650000D02*
Y1000000D01*
X1925000Y650000D02*
Y1000000D01*
X1825000Y650000D02*
Y1000000D01*
X1725000Y650000D02*
Y1000000D01*
X1625000Y650000D02*
Y1000000D01*
X1525000Y650000D02*
Y1000000D01*
X1425000Y650000D02*
Y1000000D01*
X1325000Y650000D02*
Y1000000D01*
X1225000Y650000D02*
Y1000000D01*
X1125000Y650000D02*
Y1000000D01*
X1025000Y650000D02*
Y1000000D01*
X2025000D02*
X2027500Y997500D01*
D13*
X9500000Y2500000D02*
D03*
Y500000D02*
D03*
X500000D02*
D03*
Y2500000D02*
D03*
D14*
X7575000Y1000000D02*
D03*
X8925000Y2000000D02*
D03*
X8725000D02*
D03*
X8625000D02*
D03*
X7625000D02*
D03*
X7525000D02*
D03*
X8525000D02*
D03*
X8425000D02*
D03*
X7725000D02*
D03*
X7825000D02*
D03*
X7925000D02*
D03*
X8025000D02*
D03*
X8225000D02*
D03*
X8325000D02*
D03*
X8125000D02*
D03*
X8825000D02*
D03*
X8925000Y2350000D02*
D03*
X7525000D02*
D03*
X7775000Y650000D02*
D03*
X7575000D02*
D03*
X7475000D02*
D03*
X7675000D02*
D03*
X7625000Y2350000D02*
D03*
X7725000D02*
D03*
X8725000D02*
D03*
X8625000D02*
D03*
X8825000D02*
D03*
X8525000D02*
D03*
X8425000D02*
D03*
X8325000D02*
D03*
X8225000D02*
D03*
X8125000D02*
D03*
X8025000D02*
D03*
X7925000D02*
D03*
X7825000D02*
D03*
X7875000Y650000D02*
D03*
X7975000D02*
D03*
X8875000D02*
D03*
X8775000D02*
D03*
X8675000D02*
D03*
X8475000D02*
D03*
X8375000D02*
D03*
X8275000D02*
D03*
X8175000D02*
D03*
X8075000D02*
D03*
X8575000D02*
D03*
X7975000Y1000000D02*
D03*
X7875000D02*
D03*
X7775000D02*
D03*
X7675000D02*
D03*
X8375000D02*
D03*
X8275000D02*
D03*
X8175000D02*
D03*
X8075000D02*
D03*
X8775000D02*
D03*
X8675000D02*
D03*
X8575000D02*
D03*
X7475000D02*
D03*
X8475000D02*
D03*
X8875000D02*
D03*
X5650000Y2350000D02*
D03*
X4550000D02*
D03*
X4650000D02*
D03*
X4750000D02*
D03*
X4850000D02*
D03*
X4950000D02*
D03*
X5050000D02*
D03*
X5150000D02*
D03*
X5250000D02*
D03*
X5350000D02*
D03*
X5450000D02*
D03*
X5550000D02*
D03*
X5750000D02*
D03*
X5850000D02*
D03*
X5950000D02*
D03*
X5650000Y2000000D02*
D03*
X4550000D02*
D03*
X4650000D02*
D03*
X4750000D02*
D03*
X4850000D02*
D03*
X4950000D02*
D03*
X5050000D02*
D03*
X5150000D02*
D03*
X5250000D02*
D03*
X5350000D02*
D03*
X5450000D02*
D03*
X5550000D02*
D03*
X5750000D02*
D03*
X5850000D02*
D03*
X5950000D02*
D03*
X5600000Y650000D02*
D03*
X4500000D02*
D03*
X4600000D02*
D03*
X4700000D02*
D03*
X4800000D02*
D03*
X4900000D02*
D03*
X5000000D02*
D03*
X5100000D02*
D03*
X5200000D02*
D03*
X5300000D02*
D03*
X5400000D02*
D03*
X5500000D02*
D03*
X5700000D02*
D03*
X5800000D02*
D03*
X5900000D02*
D03*
X5600000Y1000000D02*
D03*
X4500000D02*
D03*
X4600000D02*
D03*
X4700000D02*
D03*
X4800000D02*
D03*
X4900000D02*
D03*
X5000000D02*
D03*
X5100000D02*
D03*
X5200000D02*
D03*
X5300000D02*
D03*
X5400000D02*
D03*
X5500000D02*
D03*
X5700000D02*
D03*
X5800000D02*
D03*
X5900000D02*
D03*
X2175000Y2350000D02*
D03*
X1075000D02*
D03*
X1175000D02*
D03*
X1275000D02*
D03*
X1375000D02*
D03*
X1475000D02*
D03*
X1575000D02*
D03*
X1675000D02*
D03*
X1775000D02*
D03*
X1875000D02*
D03*
X1975000D02*
D03*
X2075000D02*
D03*
X2275000D02*
D03*
X2375000D02*
D03*
X2475000D02*
D03*
X2575000D02*
D03*
X2675000D02*
D03*
X2775000D02*
D03*
X2875000D02*
D03*
X2975000D02*
D03*
X2175000Y2000000D02*
D03*
X1075000D02*
D03*
X1175000D02*
D03*
X1275000D02*
D03*
X1375000D02*
D03*
X1475000D02*
D03*
X1575000D02*
D03*
X1675000D02*
D03*
X1775000D02*
D03*
X1875000D02*
D03*
X1975000D02*
D03*
X2075000D02*
D03*
X2275000D02*
D03*
X2375000D02*
D03*
X2475000D02*
D03*
X2575000D02*
D03*
X2675000D02*
D03*
X2775000D02*
D03*
X2875000D02*
D03*
X2975000D02*
D03*
X2025000Y650000D02*
D03*
X1925000D02*
D03*
X2125000D02*
D03*
X2225000D02*
D03*
X2325000D02*
D03*
X2425000D02*
D03*
X2525000D02*
D03*
X2625000D02*
D03*
X2725000D02*
D03*
X2825000D02*
D03*
X2925000D02*
D03*
X1825000D02*
D03*
X1725000D02*
D03*
X1625000D02*
D03*
X1525000D02*
D03*
X1425000D02*
D03*
X1325000D02*
D03*
X1225000D02*
D03*
X1125000D02*
D03*
X1025000D02*
D03*
X2925000Y1000000D02*
D03*
X2825000D02*
D03*
X2725000D02*
D03*
X2625000D02*
D03*
X2525000D02*
D03*
X2425000D02*
D03*
X2325000D02*
D03*
X2225000D02*
D03*
X2025000D02*
D03*
X1925000D02*
D03*
X1825000D02*
D03*
X1725000D02*
D03*
X1625000D02*
D03*
X1525000D02*
D03*
X1425000D02*
D03*
X1325000D02*
D03*
X1225000D02*
D03*
X1125000D02*
D03*
X1025000D02*
D03*
X2125000D02*
D03*
%TF.MD5,dd8336c28cdd379cf1a752859ab64e40*%
M02*
