%TF.GenerationSoftware,Altium Limited,Altium Designer,24.0.1 (36)*%
G04 Layer_Physical_Order=1*
G04 Layer_Color=255*
%FSLAX45Y45*%
%MOMM*%
%TF.SameCoordinates,D94C8493-D55A-4E0A-ACE1-C1AA60FE3F93*%
%TF.FilePolarity,Positive*%
%TF.FileFunction,Copper,L1,Top,Signal*%
%TF.Part,Single*%
G01*
G75*
%TA.AperFunction,SMDPad,CuDef*%
%ADD10R,0.40000X1.50000*%
%ADD11R,0.80000X1.50000*%
%TA.AperFunction,Conductor*%
%ADD12C,0.20000*%
%TA.AperFunction,ViaPad*%
%ADD13C,5.00000*%
%ADD14C,0.50000*%
G36*
X10000000Y0D02*
X0D01*
Y3000000D01*
X10000000D01*
Y0D01*
D02*
G37*
%LPC*%
G36*
X9521675Y2775400D02*
X9512700D01*
Y2512700D01*
X9775400D01*
Y2521675D01*
X9768619Y2564490D01*
X9755223Y2605717D01*
X9735543Y2644341D01*
X9710063Y2679411D01*
X9679411Y2710063D01*
X9644341Y2735543D01*
X9605717Y2755223D01*
X9564490Y2768619D01*
X9521675Y2775400D01*
D02*
G37*
G36*
X9487300D02*
X9478325D01*
X9435510Y2768619D01*
X9394283Y2755223D01*
X9355659Y2735543D01*
X9320589Y2710063D01*
X9289937Y2679411D01*
X9264457Y2644341D01*
X9244777Y2605717D01*
X9231381Y2564490D01*
X9224600Y2521675D01*
Y2512700D01*
X9487300D01*
Y2775400D01*
D02*
G37*
G36*
X521675D02*
X512700D01*
Y2512700D01*
X775400D01*
Y2521675D01*
X768619Y2564490D01*
X755223Y2605717D01*
X735543Y2644341D01*
X710063Y2679411D01*
X679411Y2710063D01*
X644341Y2735543D01*
X605717Y2755223D01*
X564490Y2768619D01*
X521675Y2775400D01*
D02*
G37*
G36*
X487300D02*
X478325D01*
X435510Y2768619D01*
X394283Y2755223D01*
X355659Y2735543D01*
X320589Y2710063D01*
X289937Y2679411D01*
X264457Y2644341D01*
X244777Y2605717D01*
X231381Y2564490D01*
X224600Y2521675D01*
Y2512700D01*
X487300D01*
Y2775400D01*
D02*
G37*
G36*
X9775400Y2487300D02*
X9512700D01*
Y2224600D01*
X9521675D01*
X9564490Y2231381D01*
X9605717Y2244777D01*
X9644341Y2264457D01*
X9679411Y2289937D01*
X9710063Y2320589D01*
X9735543Y2355659D01*
X9755223Y2394283D01*
X9768619Y2435510D01*
X9775400Y2478325D01*
Y2487300D01*
D02*
G37*
G36*
X9487300D02*
X9224600D01*
Y2478325D01*
X9231381Y2435510D01*
X9244777Y2394283D01*
X9264457Y2355659D01*
X9289937Y2320589D01*
X9320589Y2289937D01*
X9355659Y2264457D01*
X9394283Y2244777D01*
X9435510Y2231381D01*
X9478325Y2224600D01*
X9487300D01*
Y2487300D01*
D02*
G37*
G36*
X775400D02*
X512700D01*
Y2224600D01*
X521675D01*
X564490Y2231381D01*
X605717Y2244777D01*
X644341Y2264457D01*
X679411Y2289937D01*
X710063Y2320589D01*
X735543Y2355659D01*
X755223Y2394283D01*
X768619Y2435510D01*
X775400Y2478325D01*
Y2487300D01*
D02*
G37*
G36*
X487300D02*
X224600D01*
Y2478325D01*
X231381Y2435510D01*
X244777Y2394283D01*
X264457Y2355659D01*
X289937Y2320589D01*
X320589Y2289937D01*
X355659Y2264457D01*
X394283Y2244777D01*
X435510Y2231381D01*
X478325Y2224600D01*
X487300D01*
Y2487300D01*
D02*
G37*
G36*
X9100000Y2050000D02*
X7300000D01*
Y950000D01*
X9100000D01*
Y2050000D01*
D02*
G37*
G36*
X6125000D02*
X4325000D01*
Y950000D01*
X6125000D01*
Y2050000D01*
D02*
G37*
G36*
X3150000D02*
X850000D01*
Y950000D01*
X3150000D01*
Y2050000D01*
D02*
G37*
G36*
X9521675Y775400D02*
X9512700D01*
Y512700D01*
X9775400D01*
Y521675D01*
X9768619Y564490D01*
X9755223Y605717D01*
X9735543Y644341D01*
X9710063Y679411D01*
X9679411Y710063D01*
X9644341Y735543D01*
X9605717Y755223D01*
X9564490Y768619D01*
X9521675Y775400D01*
D02*
G37*
G36*
X9487300D02*
X9478325D01*
X9435510Y768619D01*
X9394283Y755223D01*
X9355659Y735543D01*
X9320589Y710063D01*
X9289937Y679411D01*
X9264457Y644341D01*
X9244777Y605717D01*
X9231381Y564490D01*
X9224600Y521675D01*
Y512700D01*
X9487300D01*
Y775400D01*
D02*
G37*
G36*
X521675D02*
X512700D01*
Y512700D01*
X775400D01*
Y521675D01*
X768619Y564490D01*
X755223Y605717D01*
X735543Y644341D01*
X710063Y679411D01*
X679411Y710063D01*
X644341Y735543D01*
X605717Y755223D01*
X564490Y768619D01*
X521675Y775400D01*
D02*
G37*
G36*
X487300D02*
X478325D01*
X435510Y768619D01*
X394283Y755223D01*
X355659Y735543D01*
X320589Y710063D01*
X289937Y679411D01*
X264457Y644341D01*
X244777Y605717D01*
X231381Y564490D01*
X224600Y521675D01*
Y512700D01*
X487300D01*
Y775400D01*
D02*
G37*
G36*
X9775400Y487300D02*
X9512700D01*
Y224600D01*
X9521675D01*
X9564490Y231381D01*
X9605717Y244777D01*
X9644341Y264457D01*
X9679411Y289937D01*
X9710063Y320589D01*
X9735543Y355659D01*
X9755223Y394283D01*
X9768619Y435510D01*
X9775400Y478325D01*
Y487300D01*
D02*
G37*
G36*
X9487300D02*
X9224600D01*
Y478325D01*
X9231381Y435510D01*
X9244777Y394283D01*
X9264457Y355659D01*
X9289937Y320589D01*
X9320589Y289937D01*
X9355659Y264457D01*
X9394283Y244777D01*
X9435510Y231381D01*
X9478325Y224600D01*
X9487300D01*
Y487300D01*
D02*
G37*
G36*
X775400D02*
X512700D01*
Y224600D01*
X521675D01*
X564490Y231381D01*
X605717Y244777D01*
X644341Y264457D01*
X679411Y289937D01*
X710063Y320589D01*
X735543Y355659D01*
X755223Y394283D01*
X768619Y435510D01*
X775400Y478325D01*
Y487300D01*
D02*
G37*
G36*
X487300D02*
X224600D01*
Y478325D01*
X231381Y435510D01*
X244777Y394283D01*
X264457Y355659D01*
X289937Y320589D01*
X320589Y289937D01*
X355659Y264457D01*
X394283Y244777D01*
X435510Y231381D01*
X478325Y224600D01*
X487300D01*
Y487300D01*
D02*
G37*
%LPD*%
D10*
X1025000Y1360000D02*
D03*
X1075000Y1640000D02*
D03*
X1125000Y1360000D02*
D03*
X1175000Y1640000D02*
D03*
X1225000Y1360000D02*
D03*
X1275000Y1640000D02*
D03*
X1325000Y1360000D02*
D03*
X1375000Y1640000D02*
D03*
X1425000Y1360000D02*
D03*
X1475000Y1640000D02*
D03*
X1525000Y1360000D02*
D03*
X1575000Y1640000D02*
D03*
X1625000Y1360000D02*
D03*
X1675000Y1640000D02*
D03*
X1725000Y1360000D02*
D03*
X1775000Y1640000D02*
D03*
X1825000Y1360000D02*
D03*
X1875000Y1640000D02*
D03*
X1925000Y1360000D02*
D03*
X1975000Y1640000D02*
D03*
X2025000Y1360000D02*
D03*
X2075000Y1640000D02*
D03*
X2125000Y1360000D02*
D03*
X2175000Y1640000D02*
D03*
X2225000Y1360000D02*
D03*
X2275000Y1640000D02*
D03*
X2325000Y1360000D02*
D03*
X2375000Y1640000D02*
D03*
X2425000Y1360000D02*
D03*
X2475000Y1640000D02*
D03*
X2525000Y1360000D02*
D03*
X2575000Y1640000D02*
D03*
X2625000Y1360000D02*
D03*
X2675000Y1640000D02*
D03*
X2725000Y1360000D02*
D03*
X2775000Y1640000D02*
D03*
X2825000Y1360000D02*
D03*
X2875000Y1640000D02*
D03*
X2925000Y1360000D02*
D03*
X2975000Y1640000D02*
D03*
X5950000D02*
D03*
X5900000Y1360000D02*
D03*
X5850000Y1640000D02*
D03*
X5800000Y1360000D02*
D03*
X5750000Y1640000D02*
D03*
X5700000Y1360000D02*
D03*
X5650000Y1640000D02*
D03*
X5600000Y1360000D02*
D03*
X5550000Y1640000D02*
D03*
X5500000Y1360000D02*
D03*
X5450000Y1640000D02*
D03*
X5400000Y1360000D02*
D03*
X5350000Y1640000D02*
D03*
X5300000Y1360000D02*
D03*
X5250000Y1640000D02*
D03*
X5200000Y1360000D02*
D03*
X5150000Y1640000D02*
D03*
X5100000Y1360000D02*
D03*
X5050000Y1640000D02*
D03*
X5000000Y1360000D02*
D03*
X4950000Y1640000D02*
D03*
X4900000Y1360000D02*
D03*
X4850000Y1640000D02*
D03*
X4800000Y1360000D02*
D03*
X4750000Y1640000D02*
D03*
X4700000Y1360000D02*
D03*
X4650000Y1640000D02*
D03*
X4600000Y1360000D02*
D03*
X4550000Y1640000D02*
D03*
X4500000Y1360000D02*
D03*
X7475000D02*
D03*
X7525000Y1640000D02*
D03*
X7575000Y1360000D02*
D03*
X7625000Y1640000D02*
D03*
X7675000Y1360000D02*
D03*
X7725000Y1640000D02*
D03*
X7775000Y1360000D02*
D03*
X7825000Y1640000D02*
D03*
X7875000Y1360000D02*
D03*
X7925000Y1640000D02*
D03*
X7975000Y1360000D02*
D03*
X8025000Y1640000D02*
D03*
X8075000Y1360000D02*
D03*
X8125000Y1640000D02*
D03*
X8175000Y1360000D02*
D03*
X8225000Y1640000D02*
D03*
X8275000Y1360000D02*
D03*
X8325000Y1640000D02*
D03*
X8375000Y1360000D02*
D03*
X8425000Y1640000D02*
D03*
X8475000Y1360000D02*
D03*
X8525000Y1640000D02*
D03*
X8575000Y1360000D02*
D03*
X8625000Y1640000D02*
D03*
X8675000Y1360000D02*
D03*
X8725000Y1640000D02*
D03*
X8775000Y1360000D02*
D03*
X8825000Y1640000D02*
D03*
X8875000Y1360000D02*
D03*
X8925000Y1640000D02*
D03*
D11*
X925000Y1360000D02*
D03*
Y1640000D02*
D03*
X3075000Y1360000D02*
D03*
Y1640000D02*
D03*
X6050000Y1360000D02*
D03*
Y1640000D02*
D03*
X4400000D02*
D03*
Y1360000D02*
D03*
X7375000D02*
D03*
Y1640000D02*
D03*
X9025000D02*
D03*
Y1360000D02*
D03*
D12*
X7525000Y1640000D02*
Y2000000D01*
Y1640000D02*
X7525000Y1640000D01*
X7625000D02*
Y2000000D01*
X7725000Y1640000D02*
Y2000000D01*
X7825000Y1640000D02*
Y2000000D01*
X7925000Y1640000D02*
Y2000000D01*
Y1640000D02*
X7925000Y1640000D01*
X8025000Y1640000D02*
Y2000000D01*
Y1640000D02*
X8025000Y1640000D01*
X8125000D02*
Y2000000D01*
X8225000Y1640000D02*
Y2000000D01*
X8325000Y1640000D02*
Y2000000D01*
X8425000Y1640000D02*
Y2000000D01*
Y1640000D02*
X8425000Y1640000D01*
X8525000Y1640000D02*
Y2000000D01*
Y1640000D02*
X8525000Y1640000D01*
X8625000D02*
Y2000000D01*
X8725000Y1640000D02*
Y2000000D01*
X8825000Y1640000D02*
Y2000000D01*
Y1640000D02*
X8825000Y1640000D01*
X8925000Y1640000D02*
Y2000000D01*
Y1640000D02*
X8925000Y1640000D01*
X8875000Y1000000D02*
Y1360000D01*
X8775000Y1000000D02*
Y1360000D01*
X8775000Y1360000D01*
X8675000Y1000000D02*
Y1360000D01*
X8675000Y1360000D01*
X8575000Y1000000D02*
Y1360000D01*
X8475000Y1000000D02*
Y1360000D01*
X8375000Y1000000D02*
Y1360000D01*
X8275000Y1000000D02*
Y1360000D01*
X8275000Y1360000D01*
X8175000Y1360000D02*
X8175000Y1360000D01*
X8175000Y1000000D02*
Y1360000D01*
X8075000Y1000000D02*
Y1360000D01*
X7975000Y1000000D02*
Y1360000D01*
X7875000Y1000000D02*
Y1360000D01*
X7775000Y1000000D02*
Y1360000D01*
X7775000Y1360000D01*
X7675000Y1000000D02*
Y1360000D01*
X7675000Y1360000D01*
X7575000Y1000000D02*
Y1360000D01*
X7475000Y1000000D02*
Y1360000D01*
X4550000Y1640000D02*
Y2000000D01*
X4650000Y1640000D02*
Y2000000D01*
X4650000Y1640000D02*
X4650000Y1640000D01*
X4750000Y1640000D02*
Y2000000D01*
X4850000Y1640000D02*
Y2000000D01*
X4950000Y1640000D02*
Y2000000D01*
X5050000Y1640000D02*
Y2000000D01*
X5150000Y2000000D02*
X5150000Y2000000D01*
X5150000Y1640000D02*
Y2000000D01*
X5250000Y1640000D02*
Y2000000D01*
X5350000Y1640000D02*
Y2000000D01*
X5450000Y1640000D02*
Y2000000D01*
X5550000Y1640000D02*
Y2000000D01*
X5650000Y1640000D02*
Y2000000D01*
X5750000Y1640000D02*
Y2000000D01*
X5850000Y1640000D02*
Y2000000D01*
X5950000Y1640000D02*
Y2000000D01*
X5900000Y1000000D02*
Y1360000D01*
X5800000Y1000000D02*
Y1360000D01*
X5700000Y1000000D02*
Y1360000D01*
X5600000Y1000000D02*
Y1360000D01*
X5500000Y1000000D02*
Y1360000D01*
X5400000Y1000000D02*
X5400000Y1000000D01*
X5400000Y1000000D02*
Y1360000D01*
X5300000Y1000000D02*
Y1360000D01*
X5200000Y1000000D02*
Y1360000D01*
X5100000Y1000000D02*
Y1360000D01*
X5000000Y1000000D02*
Y1360000D01*
X4900000D02*
X4900000Y1360000D01*
Y1000000D02*
Y1360000D01*
X4800000Y1000000D02*
Y1360000D01*
X4700000Y1000000D02*
Y1360000D01*
X4600000Y1000000D02*
Y1360000D01*
X4500000Y1000000D02*
Y1360000D01*
X2975000Y2000000D02*
X2975000Y2000000D01*
Y1640000D02*
Y2000000D01*
X2875000Y1640000D02*
Y2000000D01*
X2775000Y1640000D02*
Y2000000D01*
X2675000Y1640000D02*
Y2000000D01*
X2575000Y1640000D02*
Y2000000D01*
X2575000Y2000000D02*
X2575000Y2000000D01*
X2475000Y2000000D02*
X2475000Y2000000D01*
Y1640000D02*
Y2000000D01*
X2375000Y1640000D02*
Y2000000D01*
X2275000Y1640000D02*
Y2000000D01*
X2175000Y1640000D02*
Y2000000D01*
X2075000D02*
X2075000Y2000000D01*
Y1640000D02*
Y2000000D01*
X1975000Y1640000D02*
Y2000000D01*
X1875000Y1640000D02*
Y2000000D01*
X1775000Y1640000D02*
Y2000000D01*
X1675000Y1640000D02*
Y2000000D01*
X1575000Y1640000D02*
Y2000000D01*
X1575000Y2000000D02*
X1575000Y2000000D01*
X1475000Y1640000D02*
Y2000000D01*
X1375000Y1640000D02*
Y2000000D01*
X1275000Y1640000D02*
Y2000000D01*
X1175000Y1640000D02*
Y2000000D01*
X1175000Y2000000D02*
X1175000Y2000000D01*
X1075000Y2000000D02*
X1075000Y2000000D01*
Y1640000D02*
Y2000000D01*
X2925000Y1000000D02*
Y1360000D01*
X2825000Y1000000D02*
Y1360000D01*
X2725000Y1000000D02*
X2725000Y1000000D01*
Y1360000D01*
X2625000Y1000000D02*
Y1360000D01*
X2525000Y1000000D02*
Y1360000D01*
X2425000Y1000000D02*
Y1360000D01*
X2325000Y1000000D02*
Y1360000D01*
X2325000Y1000000D02*
X2325000Y1000000D01*
X2225000Y1000000D02*
Y1360000D01*
X2125000Y1000000D02*
Y1360000D01*
X2025000Y1000000D02*
Y1360000D01*
X1925000Y1000000D02*
Y1360000D01*
X1825000Y1000000D02*
X1825000Y1000000D01*
Y1360000D01*
X1725000Y1000000D02*
Y1360000D01*
X1625000Y1000000D02*
Y1360000D01*
X1525000Y1000000D02*
Y1360000D01*
X1425000Y1000000D02*
Y1360000D01*
X1325000Y1000000D02*
X1325000Y1000000D01*
Y1360000D01*
X1225000Y1000000D02*
Y1360000D01*
X1125000Y1000000D02*
Y1360000D01*
X1025000Y1000000D02*
Y1360000D01*
D13*
X9500000Y2500000D02*
D03*
Y500000D02*
D03*
X500000D02*
D03*
Y2500000D02*
D03*
D14*
X7575000Y1000000D02*
D03*
X8925000Y2000000D02*
D03*
X8725000D02*
D03*
X8625000D02*
D03*
X7625000D02*
D03*
X7525000D02*
D03*
X8525000D02*
D03*
X8425000D02*
D03*
X7725000D02*
D03*
X7825000D02*
D03*
X7925000D02*
D03*
X8025000D02*
D03*
X8225000D02*
D03*
X8325000D02*
D03*
X8125000D02*
D03*
X8825000D02*
D03*
X7975000Y1000000D02*
D03*
X7875000D02*
D03*
X7775000D02*
D03*
X7675000D02*
D03*
X8375000D02*
D03*
X8275000D02*
D03*
X8175000D02*
D03*
X8075000D02*
D03*
X8775000D02*
D03*
X8675000D02*
D03*
X8575000D02*
D03*
X7475000D02*
D03*
X8475000D02*
D03*
X8875000D02*
D03*
X5650000Y2000000D02*
D03*
X4550000D02*
D03*
X4650000D02*
D03*
X4750000D02*
D03*
X4850000D02*
D03*
X4950000D02*
D03*
X5050000D02*
D03*
X5150000D02*
D03*
X5250000D02*
D03*
X5350000D02*
D03*
X5450000D02*
D03*
X5550000D02*
D03*
X5750000D02*
D03*
X5850000D02*
D03*
X5950000D02*
D03*
X5600000Y1000000D02*
D03*
X4500000D02*
D03*
X4600000D02*
D03*
X4700000D02*
D03*
X4800000D02*
D03*
X4900000D02*
D03*
X5000000D02*
D03*
X5100000D02*
D03*
X5200000D02*
D03*
X5300000D02*
D03*
X5400000D02*
D03*
X5500000D02*
D03*
X5700000D02*
D03*
X5800000D02*
D03*
X5900000D02*
D03*
X2175000Y2000000D02*
D03*
X1075000D02*
D03*
X1175000D02*
D03*
X1275000D02*
D03*
X1375000D02*
D03*
X1475000D02*
D03*
X1575000D02*
D03*
X1675000D02*
D03*
X1775000D02*
D03*
X1875000D02*
D03*
X1975000D02*
D03*
X2075000D02*
D03*
X2275000D02*
D03*
X2375000D02*
D03*
X2475000D02*
D03*
X2575000D02*
D03*
X2675000D02*
D03*
X2775000D02*
D03*
X2875000D02*
D03*
X2975000D02*
D03*
X2925000Y1000000D02*
D03*
X2825000D02*
D03*
X2725000D02*
D03*
X2625000D02*
D03*
X2525000D02*
D03*
X2425000D02*
D03*
X2325000D02*
D03*
X2225000D02*
D03*
X2025000D02*
D03*
X1925000D02*
D03*
X1825000D02*
D03*
X1725000D02*
D03*
X1625000D02*
D03*
X1525000D02*
D03*
X1425000D02*
D03*
X1325000D02*
D03*
X1225000D02*
D03*
X1125000D02*
D03*
X1025000D02*
D03*
X2125000D02*
D03*
%TF.MD5,1f820b91ed4cf34616917ec09874dea3*%
M02*
