%TF.GenerationSoftware,Altium Limited,Altium Designer,24.0.1 (36)*%
G04 Layer_Color=32896*
%FSLAX45Y45*%
%MOMM*%
%TF.SameCoordinates,D94C8493-D55A-4E0A-ACE1-C1AA60FE3F93*%
%TF.FilePolarity,Positive*%
%TF.FileFunction,Legend,Bot*%
%TF.Part,Single*%
G01*
G75*
%TA.AperFunction,NonConductor*%
%ADD15C,0.10000*%
%ADD16C,0.25400*%
D15*
X2970000Y1240000D02*
G03*
X2980000Y1240000I5000J0D01*
G01*
D02*
G03*
X2970000Y1240000I-5000J0D01*
G01*
X5985000Y1250000D02*
G03*
X5975000Y1250000I-5000J0D01*
G01*
D02*
G03*
X5985000Y1250000I5000J0D01*
G01*
X8950000D02*
G03*
X8960000Y1250000I5000J0D01*
G01*
D02*
G03*
X8950000Y1250000I-5000J0D01*
G01*
X3160000Y1600000D02*
X3320000D01*
Y1400000D02*
Y1600000D01*
X3160000Y1400000D02*
X3320000D01*
X680000Y1600000D02*
X860000D01*
X680000Y1400000D02*
Y1600000D01*
Y1400000D02*
X860000D01*
X4155000Y1600000D02*
X4325000D01*
X4155000Y1400000D02*
Y1600000D01*
Y1400000D02*
X4325000D01*
X6125000Y1600000D02*
X6295000D01*
Y1400000D02*
Y1600000D01*
X6125000Y1400000D02*
X6295000D01*
X9100000D02*
X9270000D01*
Y1600000D01*
X9100000D02*
X9270000D01*
X7130000Y1400000D02*
X7300000D01*
X7130000D02*
Y1600000D01*
X7300000D01*
D16*
X5624600Y327751D02*
X5573816D01*
X5599208D01*
Y175400D01*
X5624600D01*
X5573816D01*
X5497641D02*
Y276967D01*
X5421466D01*
X5396074Y251575D01*
Y175400D01*
X5345290D02*
X5269115D01*
X5243723Y200792D01*
X5269115Y226183D01*
X5319898D01*
X5345290Y251575D01*
X5319898Y276967D01*
X5243723D01*
X5192940Y175400D02*
X5142156D01*
X5167548D01*
Y276967D01*
X5192940D01*
X4964413Y327751D02*
Y175400D01*
X5040589D01*
X5065981Y200792D01*
Y251575D01*
X5040589Y276967D01*
X4964413D01*
X4837455Y175400D02*
X4888238D01*
X4913630Y200792D01*
Y251575D01*
X4888238Y276967D01*
X4837455D01*
X4812063Y251575D01*
Y226183D01*
X4913630D01*
X1159393Y2047451D02*
X1210176D01*
X1184785D01*
Y1920492D01*
X1210176Y1895100D01*
X1235568D01*
X1260960Y1920492D01*
X1032434Y1895100D02*
Y2047451D01*
X1108609Y1971275D01*
X1007042D01*
X956258D02*
X854691D01*
X803908Y1895100D02*
Y2047451D01*
X727732D01*
X702340Y2022059D01*
Y1971275D01*
X727732Y1945884D01*
X803908D01*
X651557Y1895100D02*
X600774D01*
X626165D01*
Y1996667D01*
X651557D01*
X6272413Y2047451D02*
X6323196D01*
X6297805D01*
Y1920492D01*
X6323196Y1895100D01*
X6348588D01*
X6373980Y1920492D01*
X6120062Y2047451D02*
X6221629D01*
Y1971275D01*
X6170846Y1996667D01*
X6145454D01*
X6120062Y1971275D01*
Y1920492D01*
X6145454Y1895100D01*
X6196237D01*
X6221629Y1920492D01*
X6069278Y1971275D02*
X5967711D01*
X5916928Y2047451D02*
Y1895100D01*
X5815360D01*
X5688402D02*
X5739185D01*
X5764577Y1920492D01*
Y1971275D01*
X5739185Y1996667D01*
X5688402D01*
X5663010Y1971275D01*
Y1945884D01*
X5764577D01*
X5586834Y1895100D02*
Y2022059D01*
Y1971275D01*
X5612226D01*
X5561443D01*
X5586834D01*
Y2022059D01*
X5561443Y2047451D01*
X5459876Y2022059D02*
Y1996667D01*
X5485267D01*
X5434484D01*
X5459876D01*
Y1920492D01*
X5434484Y1895100D01*
X9249293Y2098251D02*
X9300076D01*
X9274685D01*
Y1971292D01*
X9300076Y1945900D01*
X9325468D01*
X9350860Y1971292D01*
X9096942Y2098251D02*
X9147726Y2072859D01*
X9198509Y2022075D01*
Y1971292D01*
X9173117Y1945900D01*
X9122334D01*
X9096942Y1971292D01*
Y1996684D01*
X9122334Y2022075D01*
X9198509D01*
X9046158D02*
X8944591D01*
X8893808Y1945900D02*
Y2098251D01*
X8817632D01*
X8792240Y2072859D01*
Y2022075D01*
X8817632Y1996684D01*
X8893808D01*
X8843024D02*
X8792240Y1945900D01*
X8741457D02*
X8690673D01*
X8716065D01*
Y2047467D01*
X8741457D01*
X8563715Y1895117D02*
X8538323D01*
X8512931Y1920508D01*
Y2047467D01*
X8589106D01*
X8614498Y2022075D01*
Y1971292D01*
X8589106Y1945900D01*
X8512931D01*
X8462147Y2098251D02*
Y1945900D01*
Y2022075D01*
X8436756Y2047467D01*
X8385972D01*
X8360580Y2022075D01*
Y1945900D01*
X8284405Y2072859D02*
Y2047467D01*
X8309797D01*
X8259013D01*
X8284405D01*
Y1971292D01*
X8259013Y1945900D01*
%TF.MD5,1477d7f3c70032db90ccd03fc3349b7d*%
M02*
