%TF.GenerationSoftware,Altium Limited,Altium Designer,24.0.1 (36)*%
G04 Layer_Physical_Order=3*
G04 Layer_Color=16440176*
%FSLAX45Y45*%
%MOMM*%
%TF.SameCoordinates,D94C8493-D55A-4E0A-ACE1-C1AA60FE3F93*%
%TF.FilePolarity,Positive*%
%TF.FileFunction,Copper,L3,Inr,Signal*%
%TF.Part,Single*%
G01*
G75*
%TA.AperFunction,ViaPad*%
%ADD13C,5.00000*%
%ADD14C,0.50000*%
G36*
X10000000Y0D02*
X0D01*
Y3000000D01*
X10000000D01*
Y0D01*
D02*
G37*
%LPC*%
G36*
X9521675Y2775400D02*
X9512700D01*
Y2512700D01*
X9775400D01*
Y2521675D01*
X9768619Y2564490D01*
X9755223Y2605717D01*
X9735543Y2644341D01*
X9710063Y2679411D01*
X9679411Y2710063D01*
X9644341Y2735543D01*
X9605717Y2755223D01*
X9564490Y2768619D01*
X9521675Y2775400D01*
D02*
G37*
G36*
X9487300D02*
X9478325D01*
X9435510Y2768619D01*
X9394283Y2755223D01*
X9355659Y2735543D01*
X9320589Y2710063D01*
X9289937Y2679411D01*
X9264457Y2644341D01*
X9244777Y2605717D01*
X9231381Y2564490D01*
X9224600Y2521675D01*
Y2512700D01*
X9487300D01*
Y2775400D01*
D02*
G37*
G36*
X521675D02*
X512700D01*
Y2512700D01*
X775400D01*
Y2521675D01*
X768619Y2564490D01*
X755223Y2605717D01*
X735543Y2644341D01*
X710063Y2679411D01*
X679411Y2710063D01*
X644341Y2735543D01*
X605717Y2755223D01*
X564490Y2768619D01*
X521675Y2775400D01*
D02*
G37*
G36*
X487300D02*
X478325D01*
X435510Y2768619D01*
X394283Y2755223D01*
X355659Y2735543D01*
X320589Y2710063D01*
X289937Y2679411D01*
X264457Y2644341D01*
X244777Y2605717D01*
X231381Y2564490D01*
X224600Y2521675D01*
Y2512700D01*
X487300D01*
Y2775400D01*
D02*
G37*
G36*
X8931962Y2385000D02*
X8918038D01*
X8905174Y2379672D01*
X8895328Y2369826D01*
X8890000Y2356962D01*
Y2343038D01*
X8895328Y2330174D01*
X8905174Y2320329D01*
X8918038Y2315000D01*
X8931962D01*
X8944826Y2320329D01*
X8954671Y2330174D01*
X8960000Y2343038D01*
Y2356962D01*
X8954671Y2369826D01*
X8944826Y2379672D01*
X8931962Y2385000D01*
D02*
G37*
G36*
X8831962D02*
X8818038D01*
X8805174Y2379672D01*
X8795328Y2369826D01*
X8790000Y2356962D01*
Y2343038D01*
X8795328Y2330174D01*
X8805174Y2320329D01*
X8818038Y2315000D01*
X8831962D01*
X8844826Y2320329D01*
X8854671Y2330174D01*
X8860000Y2343038D01*
Y2356962D01*
X8854671Y2369826D01*
X8844826Y2379672D01*
X8831962Y2385000D01*
D02*
G37*
G36*
X8731962D02*
X8718038D01*
X8705174Y2379672D01*
X8695329Y2369826D01*
X8690000Y2356962D01*
Y2343038D01*
X8695329Y2330174D01*
X8705174Y2320329D01*
X8718038Y2315000D01*
X8731962D01*
X8744826Y2320329D01*
X8754672Y2330174D01*
X8760000Y2343038D01*
Y2356962D01*
X8754672Y2369826D01*
X8744826Y2379672D01*
X8731962Y2385000D01*
D02*
G37*
G36*
X8631962D02*
X8618038D01*
X8605174Y2379672D01*
X8595329Y2369826D01*
X8590000Y2356962D01*
Y2343038D01*
X8595329Y2330174D01*
X8605174Y2320329D01*
X8618038Y2315000D01*
X8631962D01*
X8644826Y2320329D01*
X8654672Y2330174D01*
X8660000Y2343038D01*
Y2356962D01*
X8654672Y2369826D01*
X8644826Y2379672D01*
X8631962Y2385000D01*
D02*
G37*
G36*
X8531962D02*
X8518038D01*
X8505174Y2379672D01*
X8495328Y2369826D01*
X8490000Y2356962D01*
Y2343038D01*
X8495328Y2330174D01*
X8505174Y2320329D01*
X8518038Y2315000D01*
X8531962D01*
X8544826Y2320329D01*
X8554671Y2330174D01*
X8560000Y2343038D01*
Y2356962D01*
X8554671Y2369826D01*
X8544826Y2379672D01*
X8531962Y2385000D01*
D02*
G37*
G36*
X8431962D02*
X8418038D01*
X8405174Y2379672D01*
X8395328Y2369826D01*
X8390000Y2356962D01*
Y2343038D01*
X8395328Y2330174D01*
X8405174Y2320329D01*
X8418038Y2315000D01*
X8431962D01*
X8444826Y2320329D01*
X8454671Y2330174D01*
X8460000Y2343038D01*
Y2356962D01*
X8454671Y2369826D01*
X8444826Y2379672D01*
X8431962Y2385000D01*
D02*
G37*
G36*
X8331962D02*
X8318038D01*
X8305174Y2379672D01*
X8295329Y2369826D01*
X8290000Y2356962D01*
Y2343038D01*
X8295329Y2330174D01*
X8305174Y2320329D01*
X8318038Y2315000D01*
X8331962D01*
X8344826Y2320329D01*
X8354672Y2330174D01*
X8360000Y2343038D01*
Y2356962D01*
X8354672Y2369826D01*
X8344826Y2379672D01*
X8331962Y2385000D01*
D02*
G37*
G36*
X8231962D02*
X8218038D01*
X8205174Y2379672D01*
X8195329Y2369826D01*
X8190000Y2356962D01*
Y2343038D01*
X8195329Y2330174D01*
X8205174Y2320329D01*
X8218038Y2315000D01*
X8231962D01*
X8244826Y2320329D01*
X8254672Y2330174D01*
X8260000Y2343038D01*
Y2356962D01*
X8254672Y2369826D01*
X8244826Y2379672D01*
X8231962Y2385000D01*
D02*
G37*
G36*
X8131962D02*
X8118038D01*
X8105174Y2379672D01*
X8095328Y2369826D01*
X8090000Y2356962D01*
Y2343038D01*
X8095328Y2330174D01*
X8105174Y2320329D01*
X8118038Y2315000D01*
X8131962D01*
X8144826Y2320329D01*
X8154672Y2330174D01*
X8160000Y2343038D01*
Y2356962D01*
X8154672Y2369826D01*
X8144826Y2379672D01*
X8131962Y2385000D01*
D02*
G37*
G36*
X8031962D02*
X8018038D01*
X8005174Y2379672D01*
X7995328Y2369826D01*
X7990000Y2356962D01*
Y2343038D01*
X7995328Y2330174D01*
X8005174Y2320329D01*
X8018038Y2315000D01*
X8031962D01*
X8044826Y2320329D01*
X8054671Y2330174D01*
X8060000Y2343038D01*
Y2356962D01*
X8054671Y2369826D01*
X8044826Y2379672D01*
X8031962Y2385000D01*
D02*
G37*
G36*
X7931962D02*
X7918038D01*
X7905174Y2379672D01*
X7895328Y2369826D01*
X7890000Y2356962D01*
Y2343038D01*
X7895328Y2330174D01*
X7905174Y2320329D01*
X7918038Y2315000D01*
X7931962D01*
X7944826Y2320329D01*
X7954671Y2330174D01*
X7960000Y2343038D01*
Y2356962D01*
X7954671Y2369826D01*
X7944826Y2379672D01*
X7931962Y2385000D01*
D02*
G37*
G36*
X7831962D02*
X7818038D01*
X7805174Y2379672D01*
X7795329Y2369826D01*
X7790000Y2356962D01*
Y2343038D01*
X7795329Y2330174D01*
X7805174Y2320329D01*
X7818038Y2315000D01*
X7831962D01*
X7844826Y2320329D01*
X7854672Y2330174D01*
X7860000Y2343038D01*
Y2356962D01*
X7854672Y2369826D01*
X7844826Y2379672D01*
X7831962Y2385000D01*
D02*
G37*
G36*
X7731962D02*
X7718038D01*
X7705174Y2379672D01*
X7695329Y2369826D01*
X7690000Y2356962D01*
Y2343038D01*
X7695329Y2330174D01*
X7705174Y2320329D01*
X7718038Y2315000D01*
X7731962D01*
X7744826Y2320329D01*
X7754672Y2330174D01*
X7760000Y2343038D01*
Y2356962D01*
X7754672Y2369826D01*
X7744826Y2379672D01*
X7731962Y2385000D01*
D02*
G37*
G36*
X7631962D02*
X7618038D01*
X7605174Y2379672D01*
X7595328Y2369826D01*
X7590000Y2356962D01*
Y2343038D01*
X7595328Y2330174D01*
X7605174Y2320329D01*
X7618038Y2315000D01*
X7631962D01*
X7644826Y2320329D01*
X7654672Y2330174D01*
X7660000Y2343038D01*
Y2356962D01*
X7654672Y2369826D01*
X7644826Y2379672D01*
X7631962Y2385000D01*
D02*
G37*
G36*
X7531962D02*
X7518038D01*
X7505174Y2379672D01*
X7495328Y2369826D01*
X7490000Y2356962D01*
Y2343038D01*
X7495328Y2330174D01*
X7505174Y2320329D01*
X7518038Y2315000D01*
X7531962D01*
X7544826Y2320329D01*
X7554671Y2330174D01*
X7560000Y2343038D01*
Y2356962D01*
X7554671Y2369826D01*
X7544826Y2379672D01*
X7531962Y2385000D01*
D02*
G37*
G36*
X5956962D02*
X5943038D01*
X5930174Y2379672D01*
X5920329Y2369826D01*
X5915000Y2356962D01*
Y2343038D01*
X5920329Y2330174D01*
X5930174Y2320329D01*
X5943038Y2315000D01*
X5956962D01*
X5969826Y2320329D01*
X5979672Y2330174D01*
X5985000Y2343038D01*
Y2356962D01*
X5979672Y2369826D01*
X5969826Y2379672D01*
X5956962Y2385000D01*
D02*
G37*
G36*
X5856962D02*
X5843038D01*
X5830174Y2379672D01*
X5820328Y2369826D01*
X5815000Y2356962D01*
Y2343038D01*
X5820328Y2330174D01*
X5830174Y2320329D01*
X5843038Y2315000D01*
X5856962D01*
X5869826Y2320329D01*
X5879672Y2330174D01*
X5885000Y2343038D01*
Y2356962D01*
X5879672Y2369826D01*
X5869826Y2379672D01*
X5856962Y2385000D01*
D02*
G37*
G36*
X5756962D02*
X5743038D01*
X5730174Y2379672D01*
X5720328Y2369826D01*
X5715000Y2356962D01*
Y2343038D01*
X5720328Y2330174D01*
X5730174Y2320329D01*
X5743038Y2315000D01*
X5756962D01*
X5769826Y2320329D01*
X5779671Y2330174D01*
X5785000Y2343038D01*
Y2356962D01*
X5779671Y2369826D01*
X5769826Y2379672D01*
X5756962Y2385000D01*
D02*
G37*
G36*
X5656962D02*
X5643038D01*
X5630174Y2379672D01*
X5620328Y2369826D01*
X5615000Y2356962D01*
Y2343038D01*
X5620328Y2330174D01*
X5630174Y2320329D01*
X5643038Y2315000D01*
X5656962D01*
X5669826Y2320329D01*
X5679671Y2330174D01*
X5685000Y2343038D01*
Y2356962D01*
X5679671Y2369826D01*
X5669826Y2379672D01*
X5656962Y2385000D01*
D02*
G37*
G36*
X5556962D02*
X5543038D01*
X5530174Y2379672D01*
X5520329Y2369826D01*
X5515000Y2356962D01*
Y2343038D01*
X5520329Y2330174D01*
X5530174Y2320329D01*
X5543038Y2315000D01*
X5556962D01*
X5569826Y2320329D01*
X5579672Y2330174D01*
X5585000Y2343038D01*
Y2356962D01*
X5579672Y2369826D01*
X5569826Y2379672D01*
X5556962Y2385000D01*
D02*
G37*
G36*
X5456962D02*
X5443038D01*
X5430174Y2379672D01*
X5420329Y2369826D01*
X5415000Y2356962D01*
Y2343038D01*
X5420329Y2330174D01*
X5430174Y2320329D01*
X5443038Y2315000D01*
X5456962D01*
X5469826Y2320329D01*
X5479672Y2330174D01*
X5485000Y2343038D01*
Y2356962D01*
X5479672Y2369826D01*
X5469826Y2379672D01*
X5456962Y2385000D01*
D02*
G37*
G36*
X5356962D02*
X5343038D01*
X5330174Y2379672D01*
X5320328Y2369826D01*
X5315000Y2356962D01*
Y2343038D01*
X5320328Y2330174D01*
X5330174Y2320329D01*
X5343038Y2315000D01*
X5356962D01*
X5369826Y2320329D01*
X5379671Y2330174D01*
X5385000Y2343038D01*
Y2356962D01*
X5379671Y2369826D01*
X5369826Y2379672D01*
X5356962Y2385000D01*
D02*
G37*
G36*
X5256962D02*
X5243038D01*
X5230174Y2379672D01*
X5220328Y2369826D01*
X5215000Y2356962D01*
Y2343038D01*
X5220328Y2330174D01*
X5230174Y2320329D01*
X5243038Y2315000D01*
X5256962D01*
X5269826Y2320329D01*
X5279671Y2330174D01*
X5285000Y2343038D01*
Y2356962D01*
X5279671Y2369826D01*
X5269826Y2379672D01*
X5256962Y2385000D01*
D02*
G37*
G36*
X5156962D02*
X5143038D01*
X5130174Y2379672D01*
X5120329Y2369826D01*
X5115000Y2356962D01*
Y2343038D01*
X5120329Y2330174D01*
X5130174Y2320329D01*
X5143038Y2315000D01*
X5156962D01*
X5169826Y2320329D01*
X5179672Y2330174D01*
X5185000Y2343038D01*
Y2356962D01*
X5179672Y2369826D01*
X5169826Y2379672D01*
X5156962Y2385000D01*
D02*
G37*
G36*
X5056962D02*
X5043038D01*
X5030174Y2379672D01*
X5020329Y2369826D01*
X5015000Y2356962D01*
Y2343038D01*
X5020329Y2330174D01*
X5030174Y2320329D01*
X5043038Y2315000D01*
X5056962D01*
X5069826Y2320329D01*
X5079672Y2330174D01*
X5085000Y2343038D01*
Y2356962D01*
X5079672Y2369826D01*
X5069826Y2379672D01*
X5056962Y2385000D01*
D02*
G37*
G36*
X4956962D02*
X4943038D01*
X4930174Y2379672D01*
X4920328Y2369826D01*
X4915000Y2356962D01*
Y2343038D01*
X4920328Y2330174D01*
X4930174Y2320329D01*
X4943038Y2315000D01*
X4956962D01*
X4969826Y2320329D01*
X4979672Y2330174D01*
X4985000Y2343038D01*
Y2356962D01*
X4979672Y2369826D01*
X4969826Y2379672D01*
X4956962Y2385000D01*
D02*
G37*
G36*
X4856962D02*
X4843038D01*
X4830174Y2379672D01*
X4820328Y2369826D01*
X4815000Y2356962D01*
Y2343038D01*
X4820328Y2330174D01*
X4830174Y2320329D01*
X4843038Y2315000D01*
X4856962D01*
X4869826Y2320329D01*
X4879671Y2330174D01*
X4885000Y2343038D01*
Y2356962D01*
X4879671Y2369826D01*
X4869826Y2379672D01*
X4856962Y2385000D01*
D02*
G37*
G36*
X4756962D02*
X4743038D01*
X4730174Y2379672D01*
X4720328Y2369826D01*
X4715000Y2356962D01*
Y2343038D01*
X4720328Y2330174D01*
X4730174Y2320329D01*
X4743038Y2315000D01*
X4756962D01*
X4769826Y2320329D01*
X4779671Y2330174D01*
X4785000Y2343038D01*
Y2356962D01*
X4779671Y2369826D01*
X4769826Y2379672D01*
X4756962Y2385000D01*
D02*
G37*
G36*
X4656962D02*
X4643038D01*
X4630174Y2379672D01*
X4620329Y2369826D01*
X4615000Y2356962D01*
Y2343038D01*
X4620329Y2330174D01*
X4630174Y2320329D01*
X4643038Y2315000D01*
X4656962D01*
X4669826Y2320329D01*
X4679672Y2330174D01*
X4685000Y2343038D01*
Y2356962D01*
X4679672Y2369826D01*
X4669826Y2379672D01*
X4656962Y2385000D01*
D02*
G37*
G36*
X4556962D02*
X4543038D01*
X4530174Y2379672D01*
X4520329Y2369826D01*
X4515000Y2356962D01*
Y2343038D01*
X4520329Y2330174D01*
X4530174Y2320329D01*
X4543038Y2315000D01*
X4556962D01*
X4569826Y2320329D01*
X4579672Y2330174D01*
X4585000Y2343038D01*
Y2356962D01*
X4579672Y2369826D01*
X4569826Y2379672D01*
X4556962Y2385000D01*
D02*
G37*
G36*
X2981962D02*
X2968038D01*
X2955174Y2379672D01*
X2945328Y2369826D01*
X2940000Y2356962D01*
Y2343038D01*
X2945328Y2330174D01*
X2955174Y2320329D01*
X2968038Y2315000D01*
X2981962D01*
X2994826Y2320329D01*
X3004671Y2330174D01*
X3010000Y2343038D01*
Y2356962D01*
X3004671Y2369826D01*
X2994826Y2379672D01*
X2981962Y2385000D01*
D02*
G37*
G36*
X2881962D02*
X2868038D01*
X2855174Y2379672D01*
X2845329Y2369826D01*
X2840000Y2356962D01*
Y2343038D01*
X2845329Y2330174D01*
X2855174Y2320329D01*
X2868038Y2315000D01*
X2881962D01*
X2894826Y2320329D01*
X2904672Y2330174D01*
X2910000Y2343038D01*
Y2356962D01*
X2904672Y2369826D01*
X2894826Y2379672D01*
X2881962Y2385000D01*
D02*
G37*
G36*
X2781962D02*
X2768038D01*
X2755174Y2379672D01*
X2745329Y2369826D01*
X2740000Y2356962D01*
Y2343038D01*
X2745329Y2330174D01*
X2755174Y2320329D01*
X2768038Y2315000D01*
X2781962D01*
X2794826Y2320329D01*
X2804672Y2330174D01*
X2810000Y2343038D01*
Y2356962D01*
X2804672Y2369826D01*
X2794826Y2379672D01*
X2781962Y2385000D01*
D02*
G37*
G36*
X2681962D02*
X2668038D01*
X2655174Y2379672D01*
X2645328Y2369826D01*
X2640000Y2356962D01*
Y2343038D01*
X2645328Y2330174D01*
X2655174Y2320329D01*
X2668038Y2315000D01*
X2681962D01*
X2694826Y2320329D01*
X2704672Y2330174D01*
X2710000Y2343038D01*
Y2356962D01*
X2704672Y2369826D01*
X2694826Y2379672D01*
X2681962Y2385000D01*
D02*
G37*
G36*
X2581962D02*
X2568038D01*
X2555174Y2379672D01*
X2545328Y2369826D01*
X2540000Y2356962D01*
Y2343038D01*
X2545328Y2330174D01*
X2555174Y2320329D01*
X2568038Y2315000D01*
X2581962D01*
X2594826Y2320329D01*
X2604671Y2330174D01*
X2610000Y2343038D01*
Y2356962D01*
X2604671Y2369826D01*
X2594826Y2379672D01*
X2581962Y2385000D01*
D02*
G37*
G36*
X2481962D02*
X2468038D01*
X2455174Y2379672D01*
X2445328Y2369826D01*
X2440000Y2356962D01*
Y2343038D01*
X2445328Y2330174D01*
X2455174Y2320329D01*
X2468038Y2315000D01*
X2481962D01*
X2494826Y2320329D01*
X2504671Y2330174D01*
X2510000Y2343038D01*
Y2356962D01*
X2504671Y2369826D01*
X2494826Y2379672D01*
X2481962Y2385000D01*
D02*
G37*
G36*
X2381962D02*
X2368038D01*
X2355174Y2379672D01*
X2345329Y2369826D01*
X2340000Y2356962D01*
Y2343038D01*
X2345329Y2330174D01*
X2355174Y2320329D01*
X2368038Y2315000D01*
X2381962D01*
X2394826Y2320329D01*
X2404672Y2330174D01*
X2410000Y2343038D01*
Y2356962D01*
X2404672Y2369826D01*
X2394826Y2379672D01*
X2381962Y2385000D01*
D02*
G37*
G36*
X2281962D02*
X2268038D01*
X2255174Y2379672D01*
X2245329Y2369826D01*
X2240000Y2356962D01*
Y2343038D01*
X2245329Y2330174D01*
X2255174Y2320329D01*
X2268038Y2315000D01*
X2281962D01*
X2294826Y2320329D01*
X2304672Y2330174D01*
X2310000Y2343038D01*
Y2356962D01*
X2304672Y2369826D01*
X2294826Y2379672D01*
X2281962Y2385000D01*
D02*
G37*
G36*
X2181962D02*
X2168038D01*
X2155174Y2379672D01*
X2145328Y2369826D01*
X2140000Y2356962D01*
Y2343038D01*
X2145328Y2330174D01*
X2155174Y2320329D01*
X2168038Y2315000D01*
X2181962D01*
X2194826Y2320329D01*
X2204671Y2330174D01*
X2210000Y2343038D01*
Y2356962D01*
X2204671Y2369826D01*
X2194826Y2379672D01*
X2181962Y2385000D01*
D02*
G37*
G36*
X2081962D02*
X2068038D01*
X2055174Y2379672D01*
X2045328Y2369826D01*
X2040000Y2356962D01*
Y2343038D01*
X2045328Y2330174D01*
X2055174Y2320329D01*
X2068038Y2315000D01*
X2081962D01*
X2094826Y2320329D01*
X2104671Y2330174D01*
X2110000Y2343038D01*
Y2356962D01*
X2104671Y2369826D01*
X2094826Y2379672D01*
X2081962Y2385000D01*
D02*
G37*
G36*
X1981962D02*
X1968038D01*
X1955174Y2379672D01*
X1945329Y2369826D01*
X1940000Y2356962D01*
Y2343038D01*
X1945329Y2330174D01*
X1955174Y2320329D01*
X1968038Y2315000D01*
X1981962D01*
X1994826Y2320329D01*
X2004672Y2330174D01*
X2010000Y2343038D01*
Y2356962D01*
X2004672Y2369826D01*
X1994826Y2379672D01*
X1981962Y2385000D01*
D02*
G37*
G36*
X1881962D02*
X1868038D01*
X1855174Y2379672D01*
X1845329Y2369826D01*
X1840000Y2356962D01*
Y2343038D01*
X1845329Y2330174D01*
X1855174Y2320329D01*
X1868038Y2315000D01*
X1881962D01*
X1894826Y2320329D01*
X1904672Y2330174D01*
X1910000Y2343038D01*
Y2356962D01*
X1904672Y2369826D01*
X1894826Y2379672D01*
X1881962Y2385000D01*
D02*
G37*
G36*
X1781962D02*
X1768038D01*
X1755174Y2379672D01*
X1745328Y2369826D01*
X1740000Y2356962D01*
Y2343038D01*
X1745328Y2330174D01*
X1755174Y2320329D01*
X1768038Y2315000D01*
X1781962D01*
X1794826Y2320329D01*
X1804672Y2330174D01*
X1810000Y2343038D01*
Y2356962D01*
X1804672Y2369826D01*
X1794826Y2379672D01*
X1781962Y2385000D01*
D02*
G37*
G36*
X1681962D02*
X1668038D01*
X1655174Y2379672D01*
X1645328Y2369826D01*
X1640000Y2356962D01*
Y2343038D01*
X1645328Y2330174D01*
X1655174Y2320329D01*
X1668038Y2315000D01*
X1681962D01*
X1694826Y2320329D01*
X1704671Y2330174D01*
X1710000Y2343038D01*
Y2356962D01*
X1704671Y2369826D01*
X1694826Y2379672D01*
X1681962Y2385000D01*
D02*
G37*
G36*
X1581962D02*
X1568038D01*
X1555174Y2379672D01*
X1545328Y2369826D01*
X1540000Y2356962D01*
Y2343038D01*
X1545328Y2330174D01*
X1555174Y2320329D01*
X1568038Y2315000D01*
X1581962D01*
X1594826Y2320329D01*
X1604671Y2330174D01*
X1610000Y2343038D01*
Y2356962D01*
X1604671Y2369826D01*
X1594826Y2379672D01*
X1581962Y2385000D01*
D02*
G37*
G36*
X1481962D02*
X1468038D01*
X1455174Y2379672D01*
X1445329Y2369826D01*
X1440000Y2356962D01*
Y2343038D01*
X1445329Y2330174D01*
X1455174Y2320329D01*
X1468038Y2315000D01*
X1481962D01*
X1494826Y2320329D01*
X1504672Y2330174D01*
X1510000Y2343038D01*
Y2356962D01*
X1504672Y2369826D01*
X1494826Y2379672D01*
X1481962Y2385000D01*
D02*
G37*
G36*
X1381962D02*
X1368038D01*
X1355174Y2379672D01*
X1345329Y2369826D01*
X1340000Y2356962D01*
Y2343038D01*
X1345329Y2330174D01*
X1355174Y2320329D01*
X1368038Y2315000D01*
X1381962D01*
X1394826Y2320329D01*
X1404672Y2330174D01*
X1410000Y2343038D01*
Y2356962D01*
X1404672Y2369826D01*
X1394826Y2379672D01*
X1381962Y2385000D01*
D02*
G37*
G36*
X1281962D02*
X1268038D01*
X1255174Y2379672D01*
X1245328Y2369826D01*
X1240000Y2356962D01*
Y2343038D01*
X1245328Y2330174D01*
X1255174Y2320329D01*
X1268038Y2315000D01*
X1281962D01*
X1294826Y2320329D01*
X1304672Y2330174D01*
X1310000Y2343038D01*
Y2356962D01*
X1304672Y2369826D01*
X1294826Y2379672D01*
X1281962Y2385000D01*
D02*
G37*
G36*
X1181962D02*
X1168038D01*
X1155174Y2379672D01*
X1145328Y2369826D01*
X1140000Y2356962D01*
Y2343038D01*
X1145328Y2330174D01*
X1155174Y2320329D01*
X1168038Y2315000D01*
X1181962D01*
X1194826Y2320329D01*
X1204671Y2330174D01*
X1210000Y2343038D01*
Y2356962D01*
X1204671Y2369826D01*
X1194826Y2379672D01*
X1181962Y2385000D01*
D02*
G37*
G36*
X1081962D02*
X1068038D01*
X1055174Y2379672D01*
X1045328Y2369826D01*
X1040000Y2356962D01*
Y2343038D01*
X1045328Y2330174D01*
X1055174Y2320329D01*
X1068038Y2315000D01*
X1081962D01*
X1094826Y2320329D01*
X1104671Y2330174D01*
X1110000Y2343038D01*
Y2356962D01*
X1104671Y2369826D01*
X1094826Y2379672D01*
X1081962Y2385000D01*
D02*
G37*
G36*
X9775400Y2487300D02*
X9512700D01*
Y2224600D01*
X9521675D01*
X9564490Y2231381D01*
X9605717Y2244777D01*
X9644341Y2264457D01*
X9679411Y2289937D01*
X9710063Y2320589D01*
X9735543Y2355659D01*
X9755223Y2394283D01*
X9768619Y2435510D01*
X9775400Y2478325D01*
Y2487300D01*
D02*
G37*
G36*
X9487300D02*
X9224600D01*
Y2478325D01*
X9231381Y2435510D01*
X9244777Y2394283D01*
X9264457Y2355659D01*
X9289937Y2320589D01*
X9320589Y2289937D01*
X9355659Y2264457D01*
X9394283Y2244777D01*
X9435510Y2231381D01*
X9478325Y2224600D01*
X9487300D01*
Y2487300D01*
D02*
G37*
G36*
X775400D02*
X512700D01*
Y2224600D01*
X521675D01*
X564490Y2231381D01*
X605717Y2244777D01*
X644341Y2264457D01*
X679411Y2289937D01*
X710063Y2320589D01*
X735543Y2355659D01*
X755223Y2394283D01*
X768619Y2435510D01*
X775400Y2478325D01*
Y2487300D01*
D02*
G37*
G36*
X487300D02*
X224600D01*
Y2478325D01*
X231381Y2435510D01*
X244777Y2394283D01*
X264457Y2355659D01*
X289937Y2320589D01*
X320589Y2289937D01*
X355659Y2264457D01*
X394283Y2244777D01*
X435510Y2231381D01*
X478325Y2224600D01*
X487300D01*
Y2487300D01*
D02*
G37*
G36*
X8881962Y685000D02*
X8868038D01*
X8855174Y679671D01*
X8845329Y669826D01*
X8840000Y656962D01*
Y643038D01*
X8845329Y630174D01*
X8855174Y620328D01*
X8868038Y615000D01*
X8881962D01*
X8894826Y620328D01*
X8904672Y630174D01*
X8910000Y643038D01*
Y656962D01*
X8904672Y669826D01*
X8894826Y679671D01*
X8881962Y685000D01*
D02*
G37*
G36*
X8781962D02*
X8768038D01*
X8755174Y679671D01*
X8745328Y669826D01*
X8740000Y656962D01*
Y643038D01*
X8745328Y630174D01*
X8755174Y620328D01*
X8768038Y615000D01*
X8781962D01*
X8794826Y620328D01*
X8804671Y630174D01*
X8810000Y643038D01*
Y656962D01*
X8804671Y669826D01*
X8794826Y679671D01*
X8781962Y685000D01*
D02*
G37*
G36*
X8681962D02*
X8668038D01*
X8655174Y679671D01*
X8645328Y669826D01*
X8640000Y656962D01*
Y643038D01*
X8645328Y630174D01*
X8655174Y620328D01*
X8668038Y615000D01*
X8681962D01*
X8694826Y620328D01*
X8704671Y630174D01*
X8710000Y643038D01*
Y656962D01*
X8704671Y669826D01*
X8694826Y679671D01*
X8681962Y685000D01*
D02*
G37*
G36*
X8581962D02*
X8568038D01*
X8555174Y679671D01*
X8545329Y669826D01*
X8540000Y656962D01*
Y643038D01*
X8545329Y630174D01*
X8555174Y620328D01*
X8568038Y615000D01*
X8581962D01*
X8594826Y620328D01*
X8604672Y630174D01*
X8610000Y643038D01*
Y656962D01*
X8604672Y669826D01*
X8594826Y679671D01*
X8581962Y685000D01*
D02*
G37*
G36*
X8481962D02*
X8468038D01*
X8455174Y679671D01*
X8445329Y669826D01*
X8440000Y656962D01*
Y643038D01*
X8445329Y630174D01*
X8455174Y620328D01*
X8468038Y615000D01*
X8481962D01*
X8494826Y620328D01*
X8504672Y630174D01*
X8510000Y643038D01*
Y656962D01*
X8504672Y669826D01*
X8494826Y679671D01*
X8481962Y685000D01*
D02*
G37*
G36*
X8381962D02*
X8368038D01*
X8355174Y679671D01*
X8345328Y669826D01*
X8340000Y656962D01*
Y643038D01*
X8345328Y630174D01*
X8355174Y620328D01*
X8368038Y615000D01*
X8381962D01*
X8394826Y620328D01*
X8404672Y630174D01*
X8410000Y643038D01*
Y656962D01*
X8404672Y669826D01*
X8394826Y679671D01*
X8381962Y685000D01*
D02*
G37*
G36*
X8281962D02*
X8268038D01*
X8255174Y679671D01*
X8245328Y669826D01*
X8240000Y656962D01*
Y643038D01*
X8245328Y630174D01*
X8255174Y620328D01*
X8268038Y615000D01*
X8281962D01*
X8294826Y620328D01*
X8304671Y630174D01*
X8310000Y643038D01*
Y656962D01*
X8304671Y669826D01*
X8294826Y679671D01*
X8281962Y685000D01*
D02*
G37*
G36*
X8181962D02*
X8168038D01*
X8155174Y679671D01*
X8145328Y669826D01*
X8140000Y656962D01*
Y643038D01*
X8145328Y630174D01*
X8155174Y620328D01*
X8168038Y615000D01*
X8181962D01*
X8194826Y620328D01*
X8204671Y630174D01*
X8210000Y643038D01*
Y656962D01*
X8204671Y669826D01*
X8194826Y679671D01*
X8181962Y685000D01*
D02*
G37*
G36*
X8081962D02*
X8068038D01*
X8055174Y679671D01*
X8045329Y669826D01*
X8040000Y656962D01*
Y643038D01*
X8045329Y630174D01*
X8055174Y620328D01*
X8068038Y615000D01*
X8081962D01*
X8094826Y620328D01*
X8104672Y630174D01*
X8110000Y643038D01*
Y656962D01*
X8104672Y669826D01*
X8094826Y679671D01*
X8081962Y685000D01*
D02*
G37*
G36*
X7981962D02*
X7968038D01*
X7955174Y679671D01*
X7945329Y669826D01*
X7940000Y656962D01*
Y643038D01*
X7945329Y630174D01*
X7955174Y620328D01*
X7968038Y615000D01*
X7981962D01*
X7994826Y620328D01*
X8004672Y630174D01*
X8010000Y643038D01*
Y656962D01*
X8004672Y669826D01*
X7994826Y679671D01*
X7981962Y685000D01*
D02*
G37*
G36*
X7881962D02*
X7868038D01*
X7855174Y679671D01*
X7845328Y669826D01*
X7840000Y656962D01*
Y643038D01*
X7845328Y630174D01*
X7855174Y620328D01*
X7868038Y615000D01*
X7881962D01*
X7894826Y620328D01*
X7904672Y630174D01*
X7910000Y643038D01*
Y656962D01*
X7904672Y669826D01*
X7894826Y679671D01*
X7881962Y685000D01*
D02*
G37*
G36*
X7781962D02*
X7768038D01*
X7755174Y679671D01*
X7745328Y669826D01*
X7740000Y656962D01*
Y643038D01*
X7745328Y630174D01*
X7755174Y620328D01*
X7768038Y615000D01*
X7781962D01*
X7794826Y620328D01*
X7804671Y630174D01*
X7810000Y643038D01*
Y656962D01*
X7804671Y669826D01*
X7794826Y679671D01*
X7781962Y685000D01*
D02*
G37*
G36*
X7681962D02*
X7668038D01*
X7655174Y679671D01*
X7645328Y669826D01*
X7640000Y656962D01*
Y643038D01*
X7645328Y630174D01*
X7655174Y620328D01*
X7668038Y615000D01*
X7681962D01*
X7694826Y620328D01*
X7704671Y630174D01*
X7710000Y643038D01*
Y656962D01*
X7704671Y669826D01*
X7694826Y679671D01*
X7681962Y685000D01*
D02*
G37*
G36*
X7581962D02*
X7568038D01*
X7555174Y679671D01*
X7545329Y669826D01*
X7540000Y656962D01*
Y643038D01*
X7545329Y630174D01*
X7555174Y620328D01*
X7568038Y615000D01*
X7581962D01*
X7594826Y620328D01*
X7604672Y630174D01*
X7610000Y643038D01*
Y656962D01*
X7604672Y669826D01*
X7594826Y679671D01*
X7581962Y685000D01*
D02*
G37*
G36*
X7481962D02*
X7468038D01*
X7455174Y679671D01*
X7445329Y669826D01*
X7440000Y656962D01*
Y643038D01*
X7445329Y630174D01*
X7455174Y620328D01*
X7468038Y615000D01*
X7481962D01*
X7494826Y620328D01*
X7504672Y630174D01*
X7510000Y643038D01*
Y656962D01*
X7504672Y669826D01*
X7494826Y679671D01*
X7481962Y685000D01*
D02*
G37*
G36*
X5906962D02*
X5893038D01*
X5880174Y679671D01*
X5870328Y669826D01*
X5865000Y656962D01*
Y643038D01*
X5870328Y630174D01*
X5880174Y620328D01*
X5893038Y615000D01*
X5906962D01*
X5919826Y620328D01*
X5929671Y630174D01*
X5935000Y643038D01*
Y656962D01*
X5929671Y669826D01*
X5919826Y679671D01*
X5906962Y685000D01*
D02*
G37*
G36*
X5806962D02*
X5793038D01*
X5780174Y679671D01*
X5770329Y669826D01*
X5765000Y656962D01*
Y643038D01*
X5770329Y630174D01*
X5780174Y620328D01*
X5793038Y615000D01*
X5806962D01*
X5819826Y620328D01*
X5829672Y630174D01*
X5835000Y643038D01*
Y656962D01*
X5829672Y669826D01*
X5819826Y679671D01*
X5806962Y685000D01*
D02*
G37*
G36*
X5706962D02*
X5693038D01*
X5680174Y679671D01*
X5670329Y669826D01*
X5665000Y656962D01*
Y643038D01*
X5670329Y630174D01*
X5680174Y620328D01*
X5693038Y615000D01*
X5706962D01*
X5719826Y620328D01*
X5729672Y630174D01*
X5735000Y643038D01*
Y656962D01*
X5729672Y669826D01*
X5719826Y679671D01*
X5706962Y685000D01*
D02*
G37*
G36*
X5606962D02*
X5593038D01*
X5580174Y679671D01*
X5570328Y669826D01*
X5565000Y656962D01*
Y643038D01*
X5570328Y630174D01*
X5580174Y620328D01*
X5593038Y615000D01*
X5606962D01*
X5619826Y620328D01*
X5629671Y630174D01*
X5635000Y643038D01*
Y656962D01*
X5629671Y669826D01*
X5619826Y679671D01*
X5606962Y685000D01*
D02*
G37*
G36*
X5506962D02*
X5493038D01*
X5480174Y679671D01*
X5470328Y669826D01*
X5465000Y656962D01*
Y643038D01*
X5470328Y630174D01*
X5480174Y620328D01*
X5493038Y615000D01*
X5506962D01*
X5519826Y620328D01*
X5529671Y630174D01*
X5535000Y643038D01*
Y656962D01*
X5529671Y669826D01*
X5519826Y679671D01*
X5506962Y685000D01*
D02*
G37*
G36*
X5406962D02*
X5393038D01*
X5380174Y679671D01*
X5370329Y669826D01*
X5365000Y656962D01*
Y643038D01*
X5370329Y630174D01*
X5380174Y620328D01*
X5393038Y615000D01*
X5406962D01*
X5419826Y620328D01*
X5429672Y630174D01*
X5435000Y643038D01*
Y656962D01*
X5429672Y669826D01*
X5419826Y679671D01*
X5406962Y685000D01*
D02*
G37*
G36*
X5306962D02*
X5293038D01*
X5280174Y679671D01*
X5270329Y669826D01*
X5265000Y656962D01*
Y643038D01*
X5270329Y630174D01*
X5280174Y620328D01*
X5293038Y615000D01*
X5306962D01*
X5319826Y620328D01*
X5329672Y630174D01*
X5335000Y643038D01*
Y656962D01*
X5329672Y669826D01*
X5319826Y679671D01*
X5306962Y685000D01*
D02*
G37*
G36*
X5206962D02*
X5193038D01*
X5180174Y679671D01*
X5170328Y669826D01*
X5165000Y656962D01*
Y643038D01*
X5170328Y630174D01*
X5180174Y620328D01*
X5193038Y615000D01*
X5206962D01*
X5219826Y620328D01*
X5229672Y630174D01*
X5235000Y643038D01*
Y656962D01*
X5229672Y669826D01*
X5219826Y679671D01*
X5206962Y685000D01*
D02*
G37*
G36*
X5106962D02*
X5093038D01*
X5080174Y679671D01*
X5070328Y669826D01*
X5065000Y656962D01*
Y643038D01*
X5070328Y630174D01*
X5080174Y620328D01*
X5093038Y615000D01*
X5106962D01*
X5119826Y620328D01*
X5129671Y630174D01*
X5135000Y643038D01*
Y656962D01*
X5129671Y669826D01*
X5119826Y679671D01*
X5106962Y685000D01*
D02*
G37*
G36*
X5006962D02*
X4993038D01*
X4980174Y679671D01*
X4970328Y669826D01*
X4965000Y656962D01*
Y643038D01*
X4970328Y630174D01*
X4980174Y620328D01*
X4993038Y615000D01*
X5006962D01*
X5019826Y620328D01*
X5029671Y630174D01*
X5035000Y643038D01*
Y656962D01*
X5029671Y669826D01*
X5019826Y679671D01*
X5006962Y685000D01*
D02*
G37*
G36*
X4906962D02*
X4893038D01*
X4880174Y679671D01*
X4870329Y669826D01*
X4865000Y656962D01*
Y643038D01*
X4870329Y630174D01*
X4880174Y620328D01*
X4893038Y615000D01*
X4906962D01*
X4919826Y620328D01*
X4929672Y630174D01*
X4935000Y643038D01*
Y656962D01*
X4929672Y669826D01*
X4919826Y679671D01*
X4906962Y685000D01*
D02*
G37*
G36*
X4806962D02*
X4793038D01*
X4780174Y679671D01*
X4770329Y669826D01*
X4765000Y656962D01*
Y643038D01*
X4770329Y630174D01*
X4780174Y620328D01*
X4793038Y615000D01*
X4806962D01*
X4819826Y620328D01*
X4829672Y630174D01*
X4835000Y643038D01*
Y656962D01*
X4829672Y669826D01*
X4819826Y679671D01*
X4806962Y685000D01*
D02*
G37*
G36*
X4706962D02*
X4693038D01*
X4680174Y679671D01*
X4670328Y669826D01*
X4665000Y656962D01*
Y643038D01*
X4670328Y630174D01*
X4680174Y620328D01*
X4693038Y615000D01*
X4706962D01*
X4719826Y620328D01*
X4729672Y630174D01*
X4735000Y643038D01*
Y656962D01*
X4729672Y669826D01*
X4719826Y679671D01*
X4706962Y685000D01*
D02*
G37*
G36*
X4606962D02*
X4593038D01*
X4580174Y679671D01*
X4570328Y669826D01*
X4565000Y656962D01*
Y643038D01*
X4570328Y630174D01*
X4580174Y620328D01*
X4593038Y615000D01*
X4606962D01*
X4619826Y620328D01*
X4629671Y630174D01*
X4635000Y643038D01*
Y656962D01*
X4629671Y669826D01*
X4619826Y679671D01*
X4606962Y685000D01*
D02*
G37*
G36*
X4506962D02*
X4493038D01*
X4480174Y679671D01*
X4470328Y669826D01*
X4465000Y656962D01*
Y643038D01*
X4470328Y630174D01*
X4480174Y620328D01*
X4493038Y615000D01*
X4506962D01*
X4519826Y620328D01*
X4529671Y630174D01*
X4535000Y643038D01*
Y656962D01*
X4529671Y669826D01*
X4519826Y679671D01*
X4506962Y685000D01*
D02*
G37*
G36*
X2931962D02*
X2918038D01*
X2905174Y679671D01*
X2895328Y669826D01*
X2890000Y656962D01*
Y643038D01*
X2895328Y630174D01*
X2905174Y620328D01*
X2918038Y615000D01*
X2931962D01*
X2944826Y620328D01*
X2954672Y630174D01*
X2960000Y643038D01*
Y656962D01*
X2954672Y669826D01*
X2944826Y679671D01*
X2931962Y685000D01*
D02*
G37*
G36*
X2831962D02*
X2818038D01*
X2805174Y679671D01*
X2795328Y669826D01*
X2790000Y656962D01*
Y643038D01*
X2795328Y630174D01*
X2805174Y620328D01*
X2818038Y615000D01*
X2831962D01*
X2844826Y620328D01*
X2854671Y630174D01*
X2860000Y643038D01*
Y656962D01*
X2854671Y669826D01*
X2844826Y679671D01*
X2831962Y685000D01*
D02*
G37*
G36*
X2731962D02*
X2718038D01*
X2705174Y679671D01*
X2695328Y669826D01*
X2690000Y656962D01*
Y643038D01*
X2695328Y630174D01*
X2705174Y620328D01*
X2718038Y615000D01*
X2731962D01*
X2744826Y620328D01*
X2754671Y630174D01*
X2760000Y643038D01*
Y656962D01*
X2754671Y669826D01*
X2744826Y679671D01*
X2731962Y685000D01*
D02*
G37*
G36*
X2631962D02*
X2618038D01*
X2605174Y679671D01*
X2595329Y669826D01*
X2590000Y656962D01*
Y643038D01*
X2595329Y630174D01*
X2605174Y620328D01*
X2618038Y615000D01*
X2631962D01*
X2644826Y620328D01*
X2654672Y630174D01*
X2660000Y643038D01*
Y656962D01*
X2654672Y669826D01*
X2644826Y679671D01*
X2631962Y685000D01*
D02*
G37*
G36*
X2531962D02*
X2518038D01*
X2505174Y679671D01*
X2495329Y669826D01*
X2490000Y656962D01*
Y643038D01*
X2495329Y630174D01*
X2505174Y620328D01*
X2518038Y615000D01*
X2531962D01*
X2544826Y620328D01*
X2554672Y630174D01*
X2560000Y643038D01*
Y656962D01*
X2554672Y669826D01*
X2544826Y679671D01*
X2531962Y685000D01*
D02*
G37*
G36*
X2431962D02*
X2418038D01*
X2405174Y679671D01*
X2395328Y669826D01*
X2390000Y656962D01*
Y643038D01*
X2395328Y630174D01*
X2405174Y620328D01*
X2418038Y615000D01*
X2431962D01*
X2444826Y620328D01*
X2454671Y630174D01*
X2460000Y643038D01*
Y656962D01*
X2454671Y669826D01*
X2444826Y679671D01*
X2431962Y685000D01*
D02*
G37*
G36*
X2331962D02*
X2318038D01*
X2305174Y679671D01*
X2295328Y669826D01*
X2290000Y656962D01*
Y643038D01*
X2295328Y630174D01*
X2305174Y620328D01*
X2318038Y615000D01*
X2331962D01*
X2344826Y620328D01*
X2354671Y630174D01*
X2360000Y643038D01*
Y656962D01*
X2354671Y669826D01*
X2344826Y679671D01*
X2331962Y685000D01*
D02*
G37*
G36*
X2231962D02*
X2218038D01*
X2205174Y679671D01*
X2195329Y669826D01*
X2190000Y656962D01*
Y643038D01*
X2195329Y630174D01*
X2205174Y620328D01*
X2218038Y615000D01*
X2231962D01*
X2244826Y620328D01*
X2254672Y630174D01*
X2260000Y643038D01*
Y656962D01*
X2254672Y669826D01*
X2244826Y679671D01*
X2231962Y685000D01*
D02*
G37*
G36*
X2131962D02*
X2118038D01*
X2105174Y679671D01*
X2095329Y669826D01*
X2090000Y656962D01*
Y643038D01*
X2095329Y630174D01*
X2105174Y620328D01*
X2118038Y615000D01*
X2131962D01*
X2144826Y620328D01*
X2154672Y630174D01*
X2160000Y643038D01*
Y656962D01*
X2154672Y669826D01*
X2144826Y679671D01*
X2131962Y685000D01*
D02*
G37*
G36*
X2031962D02*
X2018038D01*
X2005174Y679671D01*
X1995328Y669826D01*
X1990000Y656962D01*
Y643038D01*
X1995328Y630174D01*
X2005174Y620328D01*
X2018038Y615000D01*
X2031962D01*
X2044826Y620328D01*
X2054672Y630174D01*
X2060000Y643038D01*
Y656962D01*
X2054672Y669826D01*
X2044826Y679671D01*
X2031962Y685000D01*
D02*
G37*
G36*
X1931962D02*
X1918038D01*
X1905174Y679671D01*
X1895328Y669826D01*
X1890000Y656962D01*
Y643038D01*
X1895328Y630174D01*
X1905174Y620328D01*
X1918038Y615000D01*
X1931962D01*
X1944826Y620328D01*
X1954671Y630174D01*
X1960000Y643038D01*
Y656962D01*
X1954671Y669826D01*
X1944826Y679671D01*
X1931962Y685000D01*
D02*
G37*
G36*
X1831962D02*
X1818038D01*
X1805174Y679671D01*
X1795328Y669826D01*
X1790000Y656962D01*
Y643038D01*
X1795328Y630174D01*
X1805174Y620328D01*
X1818038Y615000D01*
X1831962D01*
X1844826Y620328D01*
X1854671Y630174D01*
X1860000Y643038D01*
Y656962D01*
X1854671Y669826D01*
X1844826Y679671D01*
X1831962Y685000D01*
D02*
G37*
G36*
X1731962D02*
X1718038D01*
X1705174Y679671D01*
X1695329Y669826D01*
X1690000Y656962D01*
Y643038D01*
X1695329Y630174D01*
X1705174Y620328D01*
X1718038Y615000D01*
X1731962D01*
X1744826Y620328D01*
X1754672Y630174D01*
X1760000Y643038D01*
Y656962D01*
X1754672Y669826D01*
X1744826Y679671D01*
X1731962Y685000D01*
D02*
G37*
G36*
X1631962D02*
X1618038D01*
X1605174Y679671D01*
X1595329Y669826D01*
X1590000Y656962D01*
Y643038D01*
X1595329Y630174D01*
X1605174Y620328D01*
X1618038Y615000D01*
X1631962D01*
X1644826Y620328D01*
X1654672Y630174D01*
X1660000Y643038D01*
Y656962D01*
X1654672Y669826D01*
X1644826Y679671D01*
X1631962Y685000D01*
D02*
G37*
G36*
X1531962D02*
X1518038D01*
X1505174Y679671D01*
X1495328Y669826D01*
X1490000Y656962D01*
Y643038D01*
X1495328Y630174D01*
X1505174Y620328D01*
X1518038Y615000D01*
X1531962D01*
X1544826Y620328D01*
X1554672Y630174D01*
X1560000Y643038D01*
Y656962D01*
X1554672Y669826D01*
X1544826Y679671D01*
X1531962Y685000D01*
D02*
G37*
G36*
X1431962D02*
X1418038D01*
X1405174Y679671D01*
X1395328Y669826D01*
X1390000Y656962D01*
Y643038D01*
X1395328Y630174D01*
X1405174Y620328D01*
X1418038Y615000D01*
X1431962D01*
X1444826Y620328D01*
X1454671Y630174D01*
X1460000Y643038D01*
Y656962D01*
X1454671Y669826D01*
X1444826Y679671D01*
X1431962Y685000D01*
D02*
G37*
G36*
X1331962D02*
X1318038D01*
X1305174Y679671D01*
X1295328Y669826D01*
X1290000Y656962D01*
Y643038D01*
X1295328Y630174D01*
X1305174Y620328D01*
X1318038Y615000D01*
X1331962D01*
X1344826Y620328D01*
X1354671Y630174D01*
X1360000Y643038D01*
Y656962D01*
X1354671Y669826D01*
X1344826Y679671D01*
X1331962Y685000D01*
D02*
G37*
G36*
X1231962D02*
X1218038D01*
X1205174Y679671D01*
X1195329Y669826D01*
X1190000Y656962D01*
Y643038D01*
X1195329Y630174D01*
X1205174Y620328D01*
X1218038Y615000D01*
X1231962D01*
X1244826Y620328D01*
X1254672Y630174D01*
X1260000Y643038D01*
Y656962D01*
X1254672Y669826D01*
X1244826Y679671D01*
X1231962Y685000D01*
D02*
G37*
G36*
X1131962D02*
X1118038D01*
X1105174Y679671D01*
X1095329Y669826D01*
X1090000Y656962D01*
Y643038D01*
X1095329Y630174D01*
X1105174Y620328D01*
X1118038Y615000D01*
X1131962D01*
X1144826Y620328D01*
X1154672Y630174D01*
X1160000Y643038D01*
Y656962D01*
X1154672Y669826D01*
X1144826Y679671D01*
X1131962Y685000D01*
D02*
G37*
G36*
X1031962D02*
X1018038D01*
X1005174Y679671D01*
X995328Y669826D01*
X990000Y656962D01*
Y643038D01*
X995328Y630174D01*
X1005174Y620328D01*
X1018038Y615000D01*
X1031962D01*
X1044826Y620328D01*
X1054671Y630174D01*
X1060000Y643038D01*
Y656962D01*
X1054671Y669826D01*
X1044826Y679671D01*
X1031962Y685000D01*
D02*
G37*
G36*
X9521675Y775400D02*
X9512700D01*
Y512700D01*
X9775400D01*
Y521675D01*
X9768619Y564490D01*
X9755223Y605717D01*
X9735543Y644341D01*
X9710063Y679411D01*
X9679411Y710063D01*
X9644341Y735543D01*
X9605717Y755223D01*
X9564490Y768619D01*
X9521675Y775400D01*
D02*
G37*
G36*
X9487300D02*
X9478325D01*
X9435510Y768619D01*
X9394283Y755223D01*
X9355659Y735543D01*
X9320589Y710063D01*
X9289937Y679411D01*
X9264457Y644341D01*
X9244777Y605717D01*
X9231381Y564490D01*
X9224600Y521675D01*
Y512700D01*
X9487300D01*
Y775400D01*
D02*
G37*
G36*
X521675D02*
X512700D01*
Y512700D01*
X775400D01*
Y521675D01*
X768619Y564490D01*
X755223Y605717D01*
X735543Y644341D01*
X710063Y679411D01*
X679411Y710063D01*
X644341Y735543D01*
X605717Y755223D01*
X564490Y768619D01*
X521675Y775400D01*
D02*
G37*
G36*
X487300D02*
X478325D01*
X435510Y768619D01*
X394283Y755223D01*
X355659Y735543D01*
X320589Y710063D01*
X289937Y679411D01*
X264457Y644341D01*
X244777Y605717D01*
X231381Y564490D01*
X224600Y521675D01*
Y512700D01*
X487300D01*
Y775400D01*
D02*
G37*
G36*
X9775400Y487300D02*
X9512700D01*
Y224600D01*
X9521675D01*
X9564490Y231381D01*
X9605717Y244777D01*
X9644341Y264457D01*
X9679411Y289937D01*
X9710063Y320589D01*
X9735543Y355659D01*
X9755223Y394283D01*
X9768619Y435510D01*
X9775400Y478325D01*
Y487300D01*
D02*
G37*
G36*
X9487300D02*
X9224600D01*
Y478325D01*
X9231381Y435510D01*
X9244777Y394283D01*
X9264457Y355659D01*
X9289937Y320589D01*
X9320589Y289937D01*
X9355659Y264457D01*
X9394283Y244777D01*
X9435510Y231381D01*
X9478325Y224600D01*
X9487300D01*
Y487300D01*
D02*
G37*
G36*
X775400D02*
X512700D01*
Y224600D01*
X521675D01*
X564490Y231381D01*
X605717Y244777D01*
X644341Y264457D01*
X679411Y289937D01*
X710063Y320589D01*
X735543Y355659D01*
X755223Y394283D01*
X768619Y435510D01*
X775400Y478325D01*
Y487300D01*
D02*
G37*
G36*
X487300D02*
X224600D01*
Y478325D01*
X231381Y435510D01*
X244777Y394283D01*
X264457Y355659D01*
X289937Y320589D01*
X320589Y289937D01*
X355659Y264457D01*
X394283Y244777D01*
X435510Y231381D01*
X478325Y224600D01*
X487300D01*
Y487300D01*
D02*
G37*
%LPD*%
D13*
X9500000Y2500000D02*
D03*
Y500000D02*
D03*
X500000D02*
D03*
Y2500000D02*
D03*
D14*
X8925000Y2350000D02*
D03*
X7525000D02*
D03*
X7775000Y650000D02*
D03*
X7575000D02*
D03*
X7475000D02*
D03*
X7675000D02*
D03*
X7625000Y2350000D02*
D03*
X7725000D02*
D03*
X8725000D02*
D03*
X8625000D02*
D03*
X8825000D02*
D03*
X8525000D02*
D03*
X8425000D02*
D03*
X8325000D02*
D03*
X8225000D02*
D03*
X8125000D02*
D03*
X8025000D02*
D03*
X7925000D02*
D03*
X7825000D02*
D03*
X7875000Y650000D02*
D03*
X7975000D02*
D03*
X8875000D02*
D03*
X8775000D02*
D03*
X8675000D02*
D03*
X8475000D02*
D03*
X8375000D02*
D03*
X8275000D02*
D03*
X8175000D02*
D03*
X8075000D02*
D03*
X8575000D02*
D03*
X5650000Y2350000D02*
D03*
X4550000D02*
D03*
X4650000D02*
D03*
X4750000D02*
D03*
X4850000D02*
D03*
X4950000D02*
D03*
X5050000D02*
D03*
X5150000D02*
D03*
X5250000D02*
D03*
X5350000D02*
D03*
X5450000D02*
D03*
X5550000D02*
D03*
X5750000D02*
D03*
X5850000D02*
D03*
X5950000D02*
D03*
X5600000Y650000D02*
D03*
X4500000D02*
D03*
X4600000D02*
D03*
X4700000D02*
D03*
X4800000D02*
D03*
X4900000D02*
D03*
X5000000D02*
D03*
X5100000D02*
D03*
X5200000D02*
D03*
X5300000D02*
D03*
X5400000D02*
D03*
X5500000D02*
D03*
X5700000D02*
D03*
X5800000D02*
D03*
X5900000D02*
D03*
X2175000Y2350000D02*
D03*
X1075000D02*
D03*
X1175000D02*
D03*
X1275000D02*
D03*
X1375000D02*
D03*
X1475000D02*
D03*
X1575000D02*
D03*
X1675000D02*
D03*
X1775000D02*
D03*
X1875000D02*
D03*
X1975000D02*
D03*
X2075000D02*
D03*
X2275000D02*
D03*
X2375000D02*
D03*
X2475000D02*
D03*
X2575000D02*
D03*
X2675000D02*
D03*
X2775000D02*
D03*
X2875000D02*
D03*
X2975000D02*
D03*
X2025000Y650000D02*
D03*
X1925000D02*
D03*
X2125000D02*
D03*
X2225000D02*
D03*
X2325000D02*
D03*
X2425000D02*
D03*
X2525000D02*
D03*
X2625000D02*
D03*
X2725000D02*
D03*
X2825000D02*
D03*
X2925000D02*
D03*
X1825000D02*
D03*
X1725000D02*
D03*
X1625000D02*
D03*
X1525000D02*
D03*
X1425000D02*
D03*
X1325000D02*
D03*
X1225000D02*
D03*
X1125000D02*
D03*
X1025000D02*
D03*
%TF.MD5,956324beb72c2587be99860ab971db92*%
M02*
