%TF.GenerationSoftware,Altium Limited,Altium Designer,24.0.1 (36)*%
G04 Layer_Color=16711935*
%FSLAX45Y45*%
%MOMM*%
%TF.SameCoordinates,D94C8493-D55A-4E0A-ACE1-C1AA60FE3F93*%
%TF.FilePolarity,Positive*%
%TF.FileFunction,Other,Mechanical_13*%
%TF.Part,Single*%
G01*
G75*
%TA.AperFunction,NonConductor*%
%ADD20C,0.20000*%
D20*
X680000Y1600000D02*
X3320000D01*
X680000Y1400000D02*
Y1600000D01*
Y1400000D02*
X3320000D01*
Y1600000D01*
X4155000D02*
X6295000D01*
X4155000Y1400000D02*
Y1600000D01*
Y1400000D02*
X6295000D01*
Y1600000D01*
X9270000Y1400000D02*
Y1600000D01*
X7130000Y1400000D02*
X9270000D01*
X7130000D02*
Y1600000D01*
X9270000D01*
X680000D02*
X3320000D01*
Y1400000D02*
Y1600000D01*
X680000Y1400000D02*
X3320000D01*
X680000D02*
Y1600000D01*
X4155000Y1400000D02*
Y1600000D01*
Y1400000D02*
X6295000D01*
Y1600000D01*
X4155000D02*
X6295000D01*
X7130000D02*
X9270000D01*
Y1400000D02*
Y1600000D01*
X7130000Y1400000D02*
X9270000D01*
X7130000D02*
Y1600000D01*
%TF.MD5,d2f3c4a781d6a1e51fd610c5902ef301*%
M02*
