%TF.GenerationSoftware,Altium Limited,Altium Designer,24.0.1 (36)*%
G04 Layer_Color=128*
%FSLAX45Y45*%
%MOMM*%
%TF.SameCoordinates,D94C8493-D55A-4E0A-ACE1-C1AA60FE3F93*%
%TF.FilePolarity,Positive*%
%TF.FileFunction,Drillmap*%
%TF.Part,Single*%
G01*
G75*
%TA.AperFunction,NonConductor*%
%ADD29C,0.12700*%
D29*
X8910000Y2350000D02*
X8940000D01*
X8925000Y2335000D02*
Y2365000D01*
X7510000Y2350000D02*
X7540000D01*
X7525000Y2335000D02*
Y2365000D01*
X7760000Y650000D02*
X7790000D01*
X7775000Y635000D02*
Y665000D01*
X7560000Y650000D02*
X7590000D01*
X7575000Y635000D02*
Y665000D01*
X7460000Y650000D02*
X7490000D01*
X7475000Y635000D02*
Y665000D01*
X7660000Y650000D02*
X7690000D01*
X7675000Y635000D02*
Y665000D01*
X7610000Y2350000D02*
X7640000D01*
X7625000Y2335000D02*
Y2365000D01*
X7710000Y2350000D02*
X7740000D01*
X7725000Y2335000D02*
Y2365000D01*
X8710000Y2350000D02*
X8740000D01*
X8725000Y2335000D02*
Y2365000D01*
X8610000Y2350000D02*
X8640000D01*
X8625000Y2335000D02*
Y2365000D01*
X8810000Y2350000D02*
X8840000D01*
X8825000Y2335000D02*
Y2365000D01*
X8510000Y2350000D02*
X8540000D01*
X8525000Y2335000D02*
Y2365000D01*
X8410000Y2350000D02*
X8440000D01*
X8425000Y2335000D02*
Y2365000D01*
X8310000Y2350000D02*
X8340000D01*
X8325000Y2335000D02*
Y2365000D01*
X8210000Y2350000D02*
X8240000D01*
X8225000Y2335000D02*
Y2365000D01*
X8110000Y2350000D02*
X8140000D01*
X8125000Y2335000D02*
Y2365000D01*
X8010000Y2350000D02*
X8040000D01*
X8025000Y2335000D02*
Y2365000D01*
X7910000Y2350000D02*
X7940000D01*
X7925000Y2335000D02*
Y2365000D01*
X7810000Y2350000D02*
X7840000D01*
X7825000Y2335000D02*
Y2365000D01*
X7860000Y650000D02*
X7890000D01*
X7875000Y635000D02*
Y665000D01*
X7960000Y650000D02*
X7990000D01*
X7975000Y635000D02*
Y665000D01*
X8860000Y650000D02*
X8890000D01*
X8875000Y635000D02*
Y665000D01*
X8760000Y650000D02*
X8790000D01*
X8775000Y635000D02*
Y665000D01*
X8660000Y650000D02*
X8690000D01*
X8675000Y635000D02*
Y665000D01*
X8460000Y650000D02*
X8490000D01*
X8475000Y635000D02*
Y665000D01*
X8360000Y650000D02*
X8390000D01*
X8375000Y635000D02*
Y665000D01*
X8260000Y650000D02*
X8290000D01*
X8275000Y635000D02*
Y665000D01*
X8160000Y650000D02*
X8190000D01*
X8175000Y635000D02*
Y665000D01*
X8060000Y650000D02*
X8090000D01*
X8075000Y635000D02*
Y665000D01*
X8560000Y650000D02*
X8590000D01*
X8575000Y635000D02*
Y665000D01*
X5635000Y2350000D02*
X5665000D01*
X5650000Y2335000D02*
Y2365000D01*
X4535000Y2350000D02*
X4565000D01*
X4550000Y2335000D02*
Y2365000D01*
X4635000Y2350000D02*
X4665000D01*
X4650000Y2335000D02*
Y2365000D01*
X4735000Y2350000D02*
X4765000D01*
X4750000Y2335000D02*
Y2365000D01*
X4835000Y2350000D02*
X4865000D01*
X4850000Y2335000D02*
Y2365000D01*
X4935000Y2350000D02*
X4965000D01*
X4950000Y2335000D02*
Y2365000D01*
X5035000Y2350000D02*
X5065000D01*
X5050000Y2335000D02*
Y2365000D01*
X5135000Y2350000D02*
X5165000D01*
X5150000Y2335000D02*
Y2365000D01*
X5235000Y2350000D02*
X5265000D01*
X5250000Y2335000D02*
Y2365000D01*
X5335000Y2350000D02*
X5365000D01*
X5350000Y2335000D02*
Y2365000D01*
X5435000Y2350000D02*
X5465000D01*
X5450000Y2335000D02*
Y2365000D01*
X5535000Y2350000D02*
X5565000D01*
X5550000Y2335000D02*
Y2365000D01*
X5735000Y2350000D02*
X5765000D01*
X5750000Y2335000D02*
Y2365000D01*
X5835000Y2350000D02*
X5865000D01*
X5850000Y2335000D02*
Y2365000D01*
X5935000Y2350000D02*
X5965000D01*
X5950000Y2335000D02*
Y2365000D01*
X5585000Y650000D02*
X5615000D01*
X5600000Y635000D02*
Y665000D01*
X4485000Y650000D02*
X4515000D01*
X4500000Y635000D02*
Y665000D01*
X4585000Y650000D02*
X4615000D01*
X4600000Y635000D02*
Y665000D01*
X4685000Y650000D02*
X4715000D01*
X4700000Y635000D02*
Y665000D01*
X4785000Y650000D02*
X4815000D01*
X4800000Y635000D02*
Y665000D01*
X4885000Y650000D02*
X4915000D01*
X4900000Y635000D02*
Y665000D01*
X4985000Y650000D02*
X5015000D01*
X5000000Y635000D02*
Y665000D01*
X5085000Y650000D02*
X5115000D01*
X5100000Y635000D02*
Y665000D01*
X5185000Y650000D02*
X5215000D01*
X5200000Y635000D02*
Y665000D01*
X5285000Y650000D02*
X5315000D01*
X5300000Y635000D02*
Y665000D01*
X5385000Y650000D02*
X5415000D01*
X5400000Y635000D02*
Y665000D01*
X5485000Y650000D02*
X5515000D01*
X5500000Y635000D02*
Y665000D01*
X5685000Y650000D02*
X5715000D01*
X5700000Y635000D02*
Y665000D01*
X5785000Y650000D02*
X5815000D01*
X5800000Y635000D02*
Y665000D01*
X5885000Y650000D02*
X5915000D01*
X5900000Y635000D02*
Y665000D01*
X2160000Y2350000D02*
X2190000D01*
X2175000Y2335000D02*
Y2365000D01*
X1060000Y2350000D02*
X1090000D01*
X1075000Y2335000D02*
Y2365000D01*
X1160000Y2350000D02*
X1190000D01*
X1175000Y2335000D02*
Y2365000D01*
X1260000Y2350000D02*
X1290000D01*
X1275000Y2335000D02*
Y2365000D01*
X1360000Y2350000D02*
X1390000D01*
X1375000Y2335000D02*
Y2365000D01*
X1460000Y2350000D02*
X1490000D01*
X1475000Y2335000D02*
Y2365000D01*
X1560000Y2350000D02*
X1590000D01*
X1575000Y2335000D02*
Y2365000D01*
X1660000Y2350000D02*
X1690000D01*
X1675000Y2335000D02*
Y2365000D01*
X1760000Y2350000D02*
X1790000D01*
X1775000Y2335000D02*
Y2365000D01*
X1860000Y2350000D02*
X1890000D01*
X1875000Y2335000D02*
Y2365000D01*
X1960000Y2350000D02*
X1990000D01*
X1975000Y2335000D02*
Y2365000D01*
X2060000Y2350000D02*
X2090000D01*
X2075000Y2335000D02*
Y2365000D01*
X2260000Y2350000D02*
X2290000D01*
X2275000Y2335000D02*
Y2365000D01*
X2360000Y2350000D02*
X2390000D01*
X2375000Y2335000D02*
Y2365000D01*
X2460000Y2350000D02*
X2490000D01*
X2475000Y2335000D02*
Y2365000D01*
X2560000Y2350000D02*
X2590000D01*
X2575000Y2335000D02*
Y2365000D01*
X2660000Y2350000D02*
X2690000D01*
X2675000Y2335000D02*
Y2365000D01*
X2760000Y2350000D02*
X2790000D01*
X2775000Y2335000D02*
Y2365000D01*
X2860000Y2350000D02*
X2890000D01*
X2875000Y2335000D02*
Y2365000D01*
X2960000Y2350000D02*
X2990000D01*
X2975000Y2335000D02*
Y2365000D01*
X2010000Y650000D02*
X2040000D01*
X2025000Y635000D02*
Y665000D01*
X1910000Y650000D02*
X1940000D01*
X1925000Y635000D02*
Y665000D01*
X2110000Y650000D02*
X2140000D01*
X2125000Y635000D02*
Y665000D01*
X2210000Y650000D02*
X2240000D01*
X2225000Y635000D02*
Y665000D01*
X2310000Y650000D02*
X2340000D01*
X2325000Y635000D02*
Y665000D01*
X2410000Y650000D02*
X2440000D01*
X2425000Y635000D02*
Y665000D01*
X2510000Y650000D02*
X2540000D01*
X2525000Y635000D02*
Y665000D01*
X2610000Y650000D02*
X2640000D01*
X2625000Y635000D02*
Y665000D01*
X2710000Y650000D02*
X2740000D01*
X2725000Y635000D02*
Y665000D01*
X2810000Y650000D02*
X2840000D01*
X2825000Y635000D02*
Y665000D01*
X2910000Y650000D02*
X2940000D01*
X2925000Y635000D02*
Y665000D01*
X1810000Y650000D02*
X1840000D01*
X1825000Y635000D02*
Y665000D01*
X1710000Y650000D02*
X1740000D01*
X1725000Y635000D02*
Y665000D01*
X1610000Y650000D02*
X1640000D01*
X1625000Y635000D02*
Y665000D01*
X1510000Y650000D02*
X1540000D01*
X1525000Y635000D02*
Y665000D01*
X1410000Y650000D02*
X1440000D01*
X1425000Y635000D02*
Y665000D01*
X1310000Y650000D02*
X1340000D01*
X1325000Y635000D02*
Y665000D01*
X1210000Y650000D02*
X1240000D01*
X1225000Y635000D02*
Y665000D01*
X1110000Y650000D02*
X1140000D01*
X1125000Y635000D02*
Y665000D01*
X1010000Y650000D02*
X1040000D01*
X1025000Y635000D02*
Y665000D01*
%TF.MD5,e94c0c1c7ccbab16c17e5bd81a006471*%
M02*
