%TF.GenerationSoftware,Altium Limited,Altium Designer,24.0.1 (36)*%
G04 Layer_Physical_Order=4*
G04 Layer_Color=16711680*
%FSLAX45Y45*%
%MOMM*%
%TF.SameCoordinates,D94C8493-D55A-4E0A-ACE1-C1AA60FE3F93*%
%TF.FilePolarity,Positive*%
%TF.FileFunction,Copper,L4,Bot,Signal*%
%TF.Part,Single*%
G01*
G75*
%TA.AperFunction,SMDPad,CuDef*%
%ADD10R,0.40000X1.50000*%
%ADD11R,0.80000X1.50000*%
%TA.AperFunction,Conductor*%
%ADD12C,0.20000*%
%TA.AperFunction,ViaPad*%
%ADD13C,5.00000*%
%ADD14C,0.50000*%
G36*
X10000000Y0D02*
X0D01*
Y3000000D01*
X10000000D01*
Y0D01*
D02*
G37*
%LPC*%
G36*
X9521675Y2775400D02*
X9512700D01*
Y2512700D01*
X9775400D01*
Y2521675D01*
X9768619Y2564490D01*
X9755223Y2605717D01*
X9735543Y2644341D01*
X9710063Y2679411D01*
X9679411Y2710063D01*
X9644341Y2735543D01*
X9605717Y2755223D01*
X9564490Y2768619D01*
X9521675Y2775400D01*
D02*
G37*
G36*
X9487300D02*
X9478325D01*
X9435510Y2768619D01*
X9394283Y2755223D01*
X9355659Y2735543D01*
X9320589Y2710063D01*
X9289937Y2679411D01*
X9264457Y2644341D01*
X9244777Y2605717D01*
X9231381Y2564490D01*
X9224600Y2521675D01*
Y2512700D01*
X9487300D01*
Y2775400D01*
D02*
G37*
G36*
X521675D02*
X512700D01*
Y2512700D01*
X775400D01*
Y2521675D01*
X768619Y2564490D01*
X755223Y2605717D01*
X735543Y2644341D01*
X710063Y2679411D01*
X679411Y2710063D01*
X644341Y2735543D01*
X605717Y2755223D01*
X564490Y2768619D01*
X521675Y2775400D01*
D02*
G37*
G36*
X487300D02*
X478325D01*
X435510Y2768619D01*
X394283Y2755223D01*
X355659Y2735543D01*
X320589Y2710063D01*
X289937Y2679411D01*
X264457Y2644341D01*
X244777Y2605717D01*
X231381Y2564490D01*
X224600Y2521675D01*
Y2512700D01*
X487300D01*
Y2775400D01*
D02*
G37*
G36*
X9775400Y2487300D02*
X9512700D01*
Y2224600D01*
X9521675D01*
X9564490Y2231381D01*
X9605717Y2244777D01*
X9644341Y2264457D01*
X9679411Y2289937D01*
X9710063Y2320589D01*
X9735543Y2355659D01*
X9755223Y2394283D01*
X9768619Y2435510D01*
X9775400Y2478325D01*
Y2487300D01*
D02*
G37*
G36*
X9487300D02*
X9224600D01*
Y2478325D01*
X9231381Y2435510D01*
X9244777Y2394283D01*
X9264457Y2355659D01*
X9289937Y2320589D01*
X9320589Y2289937D01*
X9355659Y2264457D01*
X9394283Y2244777D01*
X9435510Y2231381D01*
X9478325Y2224600D01*
X9487300D01*
Y2487300D01*
D02*
G37*
G36*
X775400D02*
X512700D01*
Y2224600D01*
X521675D01*
X564490Y2231381D01*
X605717Y2244777D01*
X644341Y2264457D01*
X679411Y2289937D01*
X710063Y2320589D01*
X735543Y2355659D01*
X755223Y2394283D01*
X768619Y2435510D01*
X775400Y2478325D01*
Y2487300D01*
D02*
G37*
G36*
X487300D02*
X224600D01*
Y2478325D01*
X231381Y2435510D01*
X244777Y2394283D01*
X264457Y2355659D01*
X289937Y2320589D01*
X320589Y2289937D01*
X355659Y2264457D01*
X394283Y2244777D01*
X435510Y2231381D01*
X478325Y2224600D01*
X487300D01*
Y2487300D01*
D02*
G37*
G36*
X9521675Y775400D02*
X9512700D01*
Y512700D01*
X9775400D01*
Y521675D01*
X9768619Y564490D01*
X9755223Y605717D01*
X9735543Y644341D01*
X9710063Y679411D01*
X9679411Y710063D01*
X9644341Y735543D01*
X9605717Y755223D01*
X9564490Y768619D01*
X9521675Y775400D01*
D02*
G37*
G36*
X9487300D02*
X9478325D01*
X9435510Y768619D01*
X9394283Y755223D01*
X9355659Y735543D01*
X9320589Y710063D01*
X9289937Y679411D01*
X9264457Y644341D01*
X9244777Y605717D01*
X9231381Y564490D01*
X9224600Y521675D01*
Y512700D01*
X9487300D01*
Y775400D01*
D02*
G37*
G36*
X521675D02*
X512700D01*
Y512700D01*
X775400D01*
Y521675D01*
X768619Y564490D01*
X755223Y605717D01*
X735543Y644341D01*
X710063Y679411D01*
X679411Y710063D01*
X644341Y735543D01*
X605717Y755223D01*
X564490Y768619D01*
X521675Y775400D01*
D02*
G37*
G36*
X487300D02*
X478325D01*
X435510Y768619D01*
X394283Y755223D01*
X355659Y735543D01*
X320589Y710063D01*
X289937Y679411D01*
X264457Y644341D01*
X244777Y605717D01*
X231381Y564490D01*
X224600Y521675D01*
Y512700D01*
X487300D01*
Y775400D01*
D02*
G37*
G36*
X9775400Y487300D02*
X9512700D01*
Y224600D01*
X9521675D01*
X9564490Y231381D01*
X9605717Y244777D01*
X9644341Y264457D01*
X9679411Y289937D01*
X9710063Y320589D01*
X9735543Y355659D01*
X9755223Y394283D01*
X9768619Y435510D01*
X9775400Y478325D01*
Y487300D01*
D02*
G37*
G36*
X9487300D02*
X9224600D01*
Y478325D01*
X9231381Y435510D01*
X9244777Y394283D01*
X9264457Y355659D01*
X9289937Y320589D01*
X9320589Y289937D01*
X9355659Y264457D01*
X9394283Y244777D01*
X9435510Y231381D01*
X9478325Y224600D01*
X9487300D01*
Y487300D01*
D02*
G37*
G36*
X775400D02*
X512700D01*
Y224600D01*
X521675D01*
X564490Y231381D01*
X605717Y244777D01*
X644341Y264457D01*
X679411Y289937D01*
X710063Y320589D01*
X735543Y355659D01*
X755223Y394283D01*
X768619Y435510D01*
X775400Y478325D01*
Y487300D01*
D02*
G37*
G36*
X487300D02*
X224600D01*
Y478325D01*
X231381Y435510D01*
X244777Y394283D01*
X264457Y355659D01*
X289937Y320589D01*
X320589Y289937D01*
X355659Y264457D01*
X394283Y244777D01*
X435510Y231381D01*
X478325Y224600D01*
X487300D01*
Y487300D01*
D02*
G37*
G36*
X8550000Y2825000D02*
X7850000D01*
X7300000Y2350000D01*
Y650000D01*
X7850000Y175000D01*
X8550000D01*
X9100000Y650000D01*
Y2350000D01*
X8550000Y2825000D01*
D02*
G37*
G36*
X5550000D02*
X4900000D01*
X4325000Y2350000D01*
Y650000D01*
X4900000Y175000D01*
X5550000D01*
X6125000Y650000D01*
Y2350000D01*
X5550000Y2825000D01*
D02*
G37*
G36*
X2450000Y2965000D02*
X1550000D01*
X850000Y2350000D01*
Y650000D01*
X1550000Y35000D01*
X2450000D01*
X3150000Y650000D01*
Y2350000D01*
X2450000Y2965000D01*
D02*
G37*
%LPD*%
D10*
X2975000Y1360000D02*
D03*
X2925000Y1640000D02*
D03*
X2875000Y1360000D02*
D03*
X2825000Y1640000D02*
D03*
X2775000Y1360000D02*
D03*
X2725000Y1640000D02*
D03*
X2675000Y1360000D02*
D03*
X2625000Y1640000D02*
D03*
X2575000Y1360000D02*
D03*
X2525000Y1640000D02*
D03*
X2475000Y1360000D02*
D03*
X2425000Y1640000D02*
D03*
X2375000Y1360000D02*
D03*
X2325000Y1640000D02*
D03*
X2275000Y1360000D02*
D03*
X2225000Y1640000D02*
D03*
X2175000Y1360000D02*
D03*
X2125000Y1640000D02*
D03*
X2075000Y1360000D02*
D03*
X2025000Y1640000D02*
D03*
X1975000Y1360000D02*
D03*
X1925000Y1640000D02*
D03*
X1875000Y1360000D02*
D03*
X1825000Y1640000D02*
D03*
X1775000Y1360000D02*
D03*
X1725000Y1640000D02*
D03*
X1675000Y1360000D02*
D03*
X1625000Y1640000D02*
D03*
X1575000Y1360000D02*
D03*
X1525000Y1640000D02*
D03*
X1475000Y1360000D02*
D03*
X1425000Y1640000D02*
D03*
X1375000Y1360000D02*
D03*
X1325000Y1640000D02*
D03*
X1275000Y1360000D02*
D03*
X1225000Y1640000D02*
D03*
X1175000Y1360000D02*
D03*
X1125000Y1640000D02*
D03*
X1075000Y1360000D02*
D03*
X1025000Y1640000D02*
D03*
X5950000Y1360000D02*
D03*
X5900000Y1640000D02*
D03*
X5850000Y1360000D02*
D03*
X5800000Y1640000D02*
D03*
X5750000Y1360000D02*
D03*
X5700000Y1640000D02*
D03*
X5650000Y1360000D02*
D03*
X5600000Y1640000D02*
D03*
X5550000Y1360000D02*
D03*
X5500000Y1640000D02*
D03*
X5450000Y1360000D02*
D03*
X5400000Y1640000D02*
D03*
X5350000Y1360000D02*
D03*
X5300000Y1640000D02*
D03*
X5250000Y1360000D02*
D03*
X5200000Y1640000D02*
D03*
X5150000Y1360000D02*
D03*
X5100000Y1640000D02*
D03*
X5050000Y1360000D02*
D03*
X5000000Y1640000D02*
D03*
X4950000Y1360000D02*
D03*
X4900000Y1640000D02*
D03*
X4850000Y1360000D02*
D03*
X4800000Y1640000D02*
D03*
X4750000Y1360000D02*
D03*
X4700000Y1640000D02*
D03*
X4650000Y1360000D02*
D03*
X4600000Y1640000D02*
D03*
X4550000Y1360000D02*
D03*
X4500000Y1640000D02*
D03*
X7475000D02*
D03*
X7525000Y1360000D02*
D03*
X7575000Y1640000D02*
D03*
X7625000Y1360000D02*
D03*
X7675000Y1640000D02*
D03*
X7725000Y1360000D02*
D03*
X7775000Y1640000D02*
D03*
X7825000Y1360000D02*
D03*
X7875000Y1640000D02*
D03*
X7925000Y1360000D02*
D03*
X7975000Y1640000D02*
D03*
X8025000Y1360000D02*
D03*
X8075000Y1640000D02*
D03*
X8125000Y1360000D02*
D03*
X8175000Y1640000D02*
D03*
X8225000Y1360000D02*
D03*
X8275000Y1640000D02*
D03*
X8325000Y1360000D02*
D03*
X8375000Y1640000D02*
D03*
X8425000Y1360000D02*
D03*
X8475000Y1640000D02*
D03*
X8525000Y1360000D02*
D03*
X8575000Y1640000D02*
D03*
X8625000Y1360000D02*
D03*
X8675000Y1640000D02*
D03*
X8725000Y1360000D02*
D03*
X8775000Y1640000D02*
D03*
X8825000Y1360000D02*
D03*
X8875000Y1640000D02*
D03*
X8925000Y1360000D02*
D03*
D11*
X3075000D02*
D03*
Y1640000D02*
D03*
X925000Y1360000D02*
D03*
Y1640000D02*
D03*
X6050000Y1360000D02*
D03*
Y1640000D02*
D03*
X4400000D02*
D03*
Y1360000D02*
D03*
X7375000D02*
D03*
Y1640000D02*
D03*
X9025000D02*
D03*
Y1360000D02*
D03*
D12*
X8925000Y2350000D02*
Y2356066D01*
X8496066Y2784999D02*
X8925000Y2356066D01*
X7896360Y2784999D02*
X8496066D01*
X7475000Y2363640D02*
X7896360Y2784999D01*
X7475000Y1640000D02*
Y2363640D01*
X7525000Y2350000D02*
Y2356066D01*
X7923934Y2754999D01*
X8483640D01*
X8875000Y2363639D01*
Y1640000D02*
Y2363639D01*
X8825000Y2350000D02*
Y2356066D01*
X8456066Y2724999D02*
X8825000Y2356066D01*
X7936360Y2724999D02*
X8456066D01*
X7575000Y2363640D02*
X7936360Y2724999D01*
X7575000Y1640000D02*
Y2363640D01*
X7625000Y2350000D02*
Y2356066D01*
X7963934Y2694999D01*
X8443640D01*
X8775000Y2363639D01*
Y1640000D02*
Y2363639D01*
X8725000Y2350000D02*
Y2356066D01*
X7976360Y2664999D02*
X8416066D01*
X7675000Y2363640D02*
X7976360Y2664999D01*
X8416066D02*
X8725000Y2356066D01*
X7675000Y1640000D02*
Y2363640D01*
X7775000D02*
X8016360Y2605000D01*
X7775000Y1640000D02*
Y2363640D01*
X8016360Y2605000D02*
X8376066D01*
X7725000Y2356066D02*
X8003934Y2635000D01*
X7725000Y2350000D02*
Y2356066D01*
X8403640Y2635000D02*
X8675000Y2363639D01*
X8003934Y2635000D02*
X8403640D01*
X8675000Y1640000D02*
Y2363639D01*
X8625000Y2350000D02*
Y2356066D01*
X8376066Y2605000D02*
X8625000Y2356066D01*
X8056360Y2545000D02*
X8336066D01*
X7875000Y2363640D02*
X8056360Y2545000D01*
X7875000Y1640000D02*
Y2363640D01*
X7825000Y2350000D02*
Y2356066D01*
X8043934Y2575000D01*
X8363640D01*
X8575000Y2363639D01*
Y1640000D02*
Y2363639D01*
X8525000Y2350000D02*
Y2356066D01*
X8336066Y2545000D02*
X8525000Y2356066D01*
X8283640Y2455000D02*
X8375000Y2363640D01*
X8323640Y2515000D02*
X8475000Y2363639D01*
X8375000Y1640000D02*
Y2363640D01*
X8475000Y1640000D02*
Y2363639D01*
X7925000Y2350000D02*
Y2356066D01*
X8083934Y2515000D01*
X8323640D01*
X8296066Y2485000D02*
X8425000Y2356066D01*
X8096360Y2485000D02*
X8296066D01*
X7975000Y2363640D02*
X8096360Y2485000D01*
X7975000Y1640000D02*
Y2363640D01*
X8425000Y2350000D02*
Y2356066D01*
X8123934Y2455000D02*
X8283640D01*
X8025000Y2356066D02*
X8123934Y2455000D01*
X8125000Y2350000D02*
X8170000Y2395000D01*
X8075000Y2363640D02*
X8136360Y2425000D01*
X8256066D01*
X8170000Y2395000D02*
X8243640D01*
X8025000Y2350000D02*
Y2356066D01*
X8175000Y1640000D02*
Y2300000D01*
X8075000Y1640000D02*
Y2363640D01*
X8325000Y2350000D02*
Y2356066D01*
X8256066Y2425000D02*
X8325000Y2356066D01*
X8175000Y2300000D02*
X8225000Y2350000D01*
X8243640Y2395000D02*
X8275000Y2363639D01*
Y1640000D02*
Y2363639D01*
X7475000Y643934D02*
X7903934Y215001D01*
X7475000Y643934D02*
Y650000D01*
X7903934Y215001D02*
X8503640D01*
X8925000Y636361D01*
Y1360000D01*
X8875000Y643934D02*
Y650000D01*
X8476066Y245001D02*
X8875000Y643934D01*
X7916360Y245001D02*
X8476066D01*
X7525000Y636360D02*
X7916360Y245001D01*
X7525000Y636360D02*
Y1360000D01*
X7956360Y305001D02*
X8436066D01*
X7625000Y636360D02*
Y1360000D01*
Y636360D02*
X7956360Y305001D01*
X7575000Y643934D02*
Y650000D01*
Y643934D02*
X7943934Y275001D01*
X8463640D01*
X8825000Y636361D01*
Y1360000D01*
X7983934Y335001D02*
X8423640D01*
X8725000Y636361D01*
Y1360000D01*
X8775000Y643934D02*
Y650000D01*
X8436066Y305001D02*
X8775000Y643934D01*
X7775000D02*
X8023934Y395000D01*
X7825000Y636360D02*
X8036360Y425000D01*
X7675000Y643934D02*
X7983934Y335001D01*
X7725000Y636360D02*
X7996360Y365001D01*
X8076360Y485000D02*
X8316066D01*
X8023934Y395000D02*
X8383640D01*
X7925000Y636360D02*
X8076360Y485000D01*
X8036360Y425000D02*
X8356066D01*
X7996360Y365001D02*
X8396066D01*
X8063934Y455000D02*
X8343640D01*
X7875000Y643934D02*
X8063934Y455000D01*
X8356066Y425000D02*
X8575000Y643934D01*
X7975000D02*
X8103934Y515000D01*
X8303640D02*
X8425000Y636361D01*
X8230000Y605000D02*
X8275000Y650000D01*
X8263640Y575000D02*
X8325000Y636361D01*
X8343640Y455000D02*
X8525000Y636361D01*
X8396066Y365001D02*
X8675000Y643934D01*
X8383640Y395000D02*
X8625000Y636360D01*
X8156360Y605000D02*
X8230000D01*
X8116360Y545000D02*
X8276066D01*
X8375000Y643934D01*
X8316066Y485000D02*
X8475000Y643934D01*
X8103934Y515000D02*
X8303640D01*
X8143934Y575000D02*
X8263640D01*
X8025000Y636360D02*
X8116360Y545000D01*
X8525000Y636361D02*
Y1360000D01*
X8425000Y636361D02*
Y1360000D01*
X7675000Y643934D02*
Y650000D01*
X7725000Y636360D02*
Y1360000D01*
X8075000Y643934D02*
X8143934Y575000D01*
X8125000Y636360D02*
X8156360Y605000D01*
X8125000Y636360D02*
Y1360000D01*
X7825000Y636360D02*
Y1360000D01*
X8675000Y643934D02*
Y650000D01*
X7775000Y643934D02*
Y650000D01*
X8625000Y636360D02*
Y1360000D01*
X8575000Y643934D02*
Y650000D01*
X7875000Y643934D02*
Y650000D01*
X8475000Y643934D02*
Y650000D01*
X7925000Y636360D02*
Y1360000D01*
X7975000Y643934D02*
Y650000D01*
X8375000Y643934D02*
Y650000D01*
X8025000Y636360D02*
Y1360000D01*
X8225000Y700000D02*
Y1360000D01*
X8325000Y636361D02*
Y1360000D01*
X8175000Y650000D02*
X8225000Y700000D01*
X8075000Y643934D02*
Y650000D01*
X4500000Y643934D02*
Y650000D01*
Y643934D02*
X4928933Y215001D01*
X5528640D02*
X5950000Y636361D01*
Y1360000D01*
X4928933Y215001D02*
X5528640D01*
X4650000Y636361D02*
X4981360Y305001D01*
X4600000Y643934D02*
X4968934Y275001D01*
X4700000Y643934D02*
X5008934Y335001D01*
X4550000Y636360D02*
X4941360Y245001D01*
X4981360Y305001D02*
X5461066D01*
X4550000Y636360D02*
Y1360000D01*
X5008934Y335001D02*
X5448640D01*
X4968934Y275001D02*
X5488640D01*
X4941360Y245001D02*
X5501066D01*
X4750000Y636361D02*
X5021360Y365001D01*
X5421066D01*
X5488640Y275001D02*
X5850000Y636360D01*
Y1360000D01*
X5900000Y643934D02*
Y650000D01*
X5501066Y245001D02*
X5900000Y643934D01*
X4600000Y643934D02*
Y650000D01*
X5800000Y643934D02*
Y650000D01*
X5461066Y305001D02*
X5800000Y643934D01*
X4650000Y636361D02*
Y1360000D01*
X4700000Y643934D02*
Y650000D01*
X5448640Y335001D02*
X5750000Y636360D01*
Y1360000D01*
X5700000Y643934D02*
Y650000D01*
X5421066Y365001D02*
X5700000Y643934D01*
X4750000Y636361D02*
Y1360000D01*
X4800000Y643934D02*
Y650000D01*
X5048934Y395000D02*
X5408640D01*
X4800000Y643934D02*
X5048934Y395000D01*
X5408640D02*
X5650000Y636360D01*
Y1360000D01*
X5600000Y643934D02*
Y650000D01*
X5381066Y425000D02*
X5600000Y643934D01*
X5061360Y425000D02*
X5381066D01*
X4850000Y636361D02*
X5061360Y425000D01*
X4850000Y636361D02*
Y1360000D01*
X4900000Y643934D02*
Y650000D01*
Y643934D02*
X5088934Y455000D01*
X5368640D01*
X5550000Y636361D01*
Y1360000D01*
X5500000Y643934D02*
Y650000D01*
X5341066Y485000D02*
X5500000Y643934D01*
X5101360Y485000D02*
X5341066D01*
X4950000Y636360D02*
X5101360Y485000D01*
X4950000Y636360D02*
Y1360000D01*
X5050000Y636360D02*
Y1360000D01*
X5000000Y643934D02*
Y650000D01*
Y643934D02*
X5128934Y515000D01*
X5328640D01*
X5450000Y636360D01*
Y1360000D01*
X5400000Y643934D02*
Y650000D01*
X5301066Y545000D02*
X5400000Y643934D01*
X5141360Y545000D02*
X5301066D01*
X5050000Y636360D02*
X5141360Y545000D01*
X5288640Y575000D02*
X5350000Y636360D01*
Y1360000D01*
X5150000Y636361D02*
Y1360000D01*
X5100000Y643934D02*
Y650000D01*
X5168934Y575000D02*
X5288640D01*
X5100000Y643934D02*
X5168934Y575000D01*
X5150000Y636361D02*
X5181360Y605000D01*
X5255000D01*
X5300000Y650000D01*
X5950000Y2350000D02*
Y2356066D01*
X4921360Y2784999D02*
X5521066D01*
X4500000Y2363639D02*
X4921360Y2784999D01*
X4500000Y1640000D02*
Y2363639D01*
X5521066Y2784999D02*
X5950000Y2356066D01*
X4600000Y2363639D02*
X4961360Y2724999D01*
X4600000Y1640000D02*
Y2363639D01*
X4961360Y2724999D02*
X5481066D01*
X4550000Y2350000D02*
Y2356066D01*
X4948934Y2754999D02*
X5508640D01*
X5900000Y2363640D01*
Y1640000D02*
Y2363640D01*
X4550000Y2356066D02*
X4948934Y2754999D01*
X5481066Y2724999D02*
X5850000Y2356066D01*
Y2350000D02*
Y2356066D01*
X4650000Y2350000D02*
Y2356066D01*
X4988934Y2694999D01*
X5468640D01*
X5800000Y2363639D01*
Y1640000D02*
Y2363639D01*
X5441066Y2664999D02*
X5750000Y2356066D01*
Y2350000D02*
Y2356066D01*
X5001360Y2664999D02*
X5441066D01*
X4700000Y2363640D02*
X5001360Y2664999D01*
X4700000Y1640000D02*
Y2363640D01*
X4750000Y2350000D02*
Y2356066D01*
X5028934Y2635000D01*
X5428640D01*
X5700000Y2363639D01*
Y1640000D02*
Y2363639D01*
X5650000Y2350000D02*
Y2356066D01*
X5041360Y2605000D02*
X5401066D01*
X4800000Y2363640D02*
X5041360Y2605000D01*
X5401066D02*
X5650000Y2356066D01*
X4800000Y1640000D02*
Y2363640D01*
X4850000Y2350000D02*
Y2356066D01*
X5068934Y2575000D01*
X5388640D01*
X5600000Y2363640D01*
Y1640000D02*
Y2363640D01*
X5550000Y2350000D02*
Y2356066D01*
X5361066Y2545000D02*
X5550000Y2356066D01*
X5081360Y2545000D02*
X5361066D01*
X4900000Y2363639D02*
X5081360Y2545000D01*
X4900000Y1640000D02*
Y2363639D01*
X4950000Y2350000D02*
Y2356066D01*
X5108934Y2515000D01*
X5348640D01*
X5500000Y2363640D01*
Y1640000D02*
Y2363640D01*
X5450000Y2350000D02*
Y2356066D01*
X5321066Y2485000D02*
X5450000Y2356066D01*
X5121360Y2485000D02*
X5321066D01*
X5000000Y1640000D02*
Y2363639D01*
X5121360Y2485000D01*
X5100000Y1640000D02*
Y2363639D01*
X5161361Y2425000D01*
X5050000Y2350000D02*
Y2356066D01*
X5148934Y2455000D01*
X5308640D01*
X5400000Y2363640D01*
Y1640000D02*
Y2363640D01*
X5161361Y2425000D02*
X5281066D01*
X5195000Y2395000D02*
X5268639D01*
X5150000Y2350000D02*
X5195000Y2395000D01*
X5281066Y2425000D02*
X5350000Y2356066D01*
X5300000Y1640000D02*
Y2363639D01*
X5268639Y2395000D02*
X5300000Y2363639D01*
X5350000Y2350000D02*
Y2356066D01*
X5200000Y2300000D02*
X5250000Y2350000D01*
X5200000Y1640000D02*
Y2300000D01*
Y650000D02*
X5250000Y700000D01*
Y1360000D01*
X1596359Y2934999D02*
X2396067D01*
X2975000Y2356066D01*
Y2350000D02*
Y2356066D01*
X1025000Y1640000D02*
Y2363640D01*
X1596359Y2934999D01*
X2183640Y2605000D02*
X2425000Y2363640D01*
X2303640Y2784999D02*
X2725000Y2363639D01*
X2263640Y2724999D02*
X2625000Y2363639D01*
X2356067Y2874999D02*
X2875000Y2356066D01*
X1623933Y2904999D02*
X2383641D01*
X1676360Y2814999D02*
X2316066D01*
X1756360Y2694999D02*
X2236066D01*
X2223640Y2664999D02*
X2525000Y2363639D01*
X1783934Y2664999D02*
X2223640D01*
X1716360Y2754999D02*
X2276066D01*
X1823934Y2605000D02*
X2183640D01*
X1703934Y2784999D02*
X2303640D01*
X2316066Y2814999D02*
X2775000Y2356066D01*
X2156066Y2575000D02*
X2375000Y2356066D01*
X1636359Y2874999D02*
X2356067D01*
X1796360Y2635000D02*
X2196066D01*
X2825000Y1640000D02*
Y2363640D01*
X1836360Y2575000D02*
X2156066D01*
X2143640Y2545000D02*
X2325000Y2363639D01*
X2383641Y2904999D02*
X2925000Y2363640D01*
X1663933Y2844999D02*
X2343640D01*
X2825000Y2363640D01*
X2236066Y2694999D02*
X2575000Y2356066D01*
X2276066Y2754999D02*
X2675000Y2356066D01*
X1743934Y2724999D02*
X2263640D01*
X2196066Y2635000D02*
X2475000Y2356066D01*
X1863934Y2545000D02*
X2143640D01*
X1075000Y2350000D02*
Y2356066D01*
X1623933Y2904999D01*
X2925000Y1640000D02*
Y2363640D01*
X2875000Y2350000D02*
Y2356066D01*
X1125000Y2363640D02*
X1636359Y2874999D01*
X1125000Y1640000D02*
Y2363640D01*
X1175000Y2350000D02*
Y2356066D01*
X1663933Y2844999D01*
X2775000Y2350000D02*
Y2356066D01*
X1225000Y2363640D02*
X1676360Y2814999D01*
X1225000Y1640000D02*
Y2363640D01*
X1275000Y2350000D02*
Y2356066D01*
X1703934Y2784999D01*
X2725000Y1640000D02*
Y2363639D01*
X2675000Y2350000D02*
Y2356066D01*
X1325000Y1640000D02*
Y2363640D01*
X1716360Y2754999D01*
X1375000Y2356066D02*
X1743934Y2724999D01*
X2625000Y1640000D02*
Y2363639D01*
X1375000Y2350000D02*
Y2356066D01*
X1425000Y2363639D02*
X1756360Y2694999D01*
X2575000Y2350000D02*
Y2356066D01*
X1425000Y1640000D02*
Y2363639D01*
X1475000Y2350000D02*
Y2356066D01*
X1783934Y2664999D01*
X2525000Y1640000D02*
Y2363639D01*
X2475000Y2350000D02*
Y2356066D01*
X1525000Y1640000D02*
Y2363640D01*
X1796360Y2635000D01*
X2103640Y2485000D02*
X2225000Y2363639D01*
X2116066Y2515000D02*
X2275000Y2356066D01*
X2425000Y1640000D02*
Y2363640D01*
X1903934Y2485000D02*
X2103640D01*
X1876360Y2515000D02*
X2116066D01*
X1575000Y2350000D02*
Y2356066D01*
X1823934Y2605000D01*
X2375000Y2350000D02*
Y2356066D01*
X1625000Y1640000D02*
Y2363640D01*
X1836360Y2575000D01*
X2076066Y2455000D02*
X2175000Y2356066D01*
X2325000Y1640000D02*
Y2363639D01*
X2063640Y2425000D02*
X2125000Y2363639D01*
X1916360Y2455000D02*
X2076066D01*
X1943934Y2425000D02*
X2063640D01*
X1725000Y1640000D02*
Y2363640D01*
X1876360Y2515000D01*
X1675000Y2350000D02*
Y2356066D01*
X1863934Y2545000D01*
X2275000Y2350000D02*
Y2356066D01*
X2030000Y2395000D02*
X2075000Y2350000D01*
X1956361Y2395000D02*
X2030000D01*
X2225000Y1640000D02*
Y2363639D01*
X1825000Y1640000D02*
Y2363640D01*
X1916360Y2455000D01*
X1775000Y2356066D02*
X1903934Y2485000D01*
X1775000Y2350000D02*
Y2356066D01*
X2175000Y2350000D02*
Y2356066D01*
X1875000D02*
X1943934Y2425000D01*
X2125000Y1640000D02*
Y2363639D01*
X1925000Y1640000D02*
Y2363639D01*
X1956361Y2395000D01*
X1875000Y2350000D02*
Y2356066D01*
X2025000Y1640000D02*
Y2300000D01*
X1975000Y2350000D02*
X2025000Y2300000D01*
X1925000Y650000D02*
X1970000Y605000D01*
X2043640D01*
X2075000Y636361D01*
Y1360000D01*
X1025000Y643934D02*
Y650000D01*
Y643934D02*
X1603933Y65001D01*
X2403641D01*
X2975000Y636361D01*
Y1360000D01*
X1225000Y643934D02*
X1683933Y185001D01*
X1656360Y155001D02*
X2336066D01*
X1175000Y636360D02*
X1656360Y155001D01*
X1616359Y95001D02*
X2376067D01*
X1075000Y636360D02*
X1616359Y95001D01*
X1075000Y636360D02*
Y1360000D01*
X1696360Y215001D02*
X2296067D01*
X1275000Y636360D02*
X1696360Y215001D01*
X1643933Y125001D02*
X2363640D01*
X1125000Y643934D02*
X1643933Y125001D01*
X1683933Y185001D02*
X2323640D01*
X1763934Y305001D02*
X2243640D01*
X2256066Y275001D02*
X2625000Y643934D01*
X1723934Y245001D02*
X2283640D01*
X2203640Y365001D02*
X2475000Y636361D01*
X2096066Y515000D02*
X2225000Y643934D01*
X2123640Y485000D02*
X2275000Y636360D01*
X2163640Y425000D02*
X2375000Y636361D01*
X1843934Y425000D02*
X2163640D01*
X2283640Y245001D02*
X2675000Y636360D01*
X2376067Y95001D02*
X2925000Y643934D01*
X1883934Y485000D02*
X2123640D01*
X2296067Y215001D02*
X2725000Y643934D01*
X2243640Y305001D02*
X2575000Y636361D01*
X1776360Y335001D02*
X2216066D01*
X1803934Y365001D02*
X2203640D01*
X2363640Y125001D02*
X2875000Y636361D01*
X2176066Y395000D02*
X2425000Y643934D01*
X1936360Y575000D02*
X2056066D01*
X1736360Y275001D02*
X2256066D01*
X1896360Y515000D02*
X2096066D01*
X1875000Y636360D02*
Y1360000D01*
X2323640Y185001D02*
X2775000Y636361D01*
X2136066Y455000D02*
X2325000Y643934D01*
X1923934Y545000D02*
X2083640D01*
X2216066Y335001D02*
X2525000Y643934D01*
X2336066Y155001D02*
X2825000Y643934D01*
X2083640Y545000D02*
X2175000Y636360D01*
X1816360Y395000D02*
X2176066D01*
X2056066Y575000D02*
X2125000Y643934D01*
X1856360Y455000D02*
X2136066D01*
X2925000Y643934D02*
Y650000D01*
X1125000Y643934D02*
Y650000D01*
X2875000Y636361D02*
Y1360000D01*
X1175000Y636360D02*
Y1360000D01*
X1325000Y643934D02*
X1723934Y245001D01*
X1375000Y636360D02*
X1736360Y275001D01*
X1425000Y643934D02*
X1763934Y305001D01*
X1525000Y643934D02*
X1803934Y365001D01*
X1825000Y643934D02*
X1923934Y545000D01*
X1575000Y636360D02*
X1816360Y395000D01*
X1875000Y636360D02*
X1936360Y575000D01*
X1775000Y636360D02*
X1896360Y515000D01*
X1725000Y643934D02*
X1883934Y485000D01*
X1675000Y636361D02*
X1856360Y455000D01*
X1475000Y636360D02*
X1776360Y335001D01*
X1625000Y643934D02*
X1843934Y425000D01*
X2825000Y643934D02*
Y650000D01*
X1275000Y636360D02*
Y1360000D01*
X1225000Y643934D02*
Y650000D01*
X2775000Y636361D02*
Y1360000D01*
X1375000Y636360D02*
Y1360000D01*
X2725000Y643934D02*
Y650000D01*
X1325000Y643934D02*
Y650000D01*
X2675000Y636360D02*
Y1360000D01*
X2625000Y643934D02*
Y650000D01*
X1425000Y643934D02*
Y650000D01*
X2575000Y636361D02*
Y1360000D01*
X1475000Y636360D02*
Y1360000D01*
X2525000Y643934D02*
Y650000D01*
X2175000Y636360D02*
Y1360000D01*
X1575000Y636360D02*
Y1360000D01*
X1525000Y643934D02*
Y650000D01*
X2475000Y636361D02*
Y1360000D01*
X2375000Y636361D02*
Y1360000D01*
X2425000Y643934D02*
Y650000D01*
X1625000Y643934D02*
Y650000D01*
X1675000Y636361D02*
Y1360000D01*
X2275000Y636360D02*
Y1360000D01*
X2325000Y643934D02*
Y650000D01*
X1725000Y643934D02*
Y650000D01*
X1775000Y636360D02*
Y1360000D01*
X2225000Y643934D02*
Y650000D01*
X1825000Y643934D02*
Y650000D01*
X2125000Y643934D02*
Y650000D01*
X1975000Y700000D02*
X2025000Y650000D01*
X1975000Y700000D02*
Y1360000D01*
D13*
X9500000Y2500000D02*
D03*
Y500000D02*
D03*
X500000D02*
D03*
Y2500000D02*
D03*
D14*
X8925000Y2350000D02*
D03*
X7525000D02*
D03*
X7775000Y650000D02*
D03*
X7575000D02*
D03*
X7475000D02*
D03*
X7675000D02*
D03*
X7625000Y2350000D02*
D03*
X7725000D02*
D03*
X8725000D02*
D03*
X8625000D02*
D03*
X8825000D02*
D03*
X8525000D02*
D03*
X8425000D02*
D03*
X8325000D02*
D03*
X8225000D02*
D03*
X8125000D02*
D03*
X8025000D02*
D03*
X7925000D02*
D03*
X7825000D02*
D03*
X7875000Y650000D02*
D03*
X7975000D02*
D03*
X8875000D02*
D03*
X8775000D02*
D03*
X8675000D02*
D03*
X8475000D02*
D03*
X8375000D02*
D03*
X8275000D02*
D03*
X8175000D02*
D03*
X8075000D02*
D03*
X8575000D02*
D03*
X5650000Y2350000D02*
D03*
X4550000D02*
D03*
X4650000D02*
D03*
X4750000D02*
D03*
X4850000D02*
D03*
X4950000D02*
D03*
X5050000D02*
D03*
X5150000D02*
D03*
X5250000D02*
D03*
X5350000D02*
D03*
X5450000D02*
D03*
X5550000D02*
D03*
X5750000D02*
D03*
X5850000D02*
D03*
X5950000D02*
D03*
X5600000Y650000D02*
D03*
X4500000D02*
D03*
X4600000D02*
D03*
X4700000D02*
D03*
X4800000D02*
D03*
X4900000D02*
D03*
X5000000D02*
D03*
X5100000D02*
D03*
X5200000D02*
D03*
X5300000D02*
D03*
X5400000D02*
D03*
X5500000D02*
D03*
X5700000D02*
D03*
X5800000D02*
D03*
X5900000D02*
D03*
X2175000Y2350000D02*
D03*
X1075000D02*
D03*
X1175000D02*
D03*
X1275000D02*
D03*
X1375000D02*
D03*
X1475000D02*
D03*
X1575000D02*
D03*
X1675000D02*
D03*
X1775000D02*
D03*
X1875000D02*
D03*
X1975000D02*
D03*
X2075000D02*
D03*
X2275000D02*
D03*
X2375000D02*
D03*
X2475000D02*
D03*
X2575000D02*
D03*
X2675000D02*
D03*
X2775000D02*
D03*
X2875000D02*
D03*
X2975000D02*
D03*
X2025000Y650000D02*
D03*
X1925000D02*
D03*
X2125000D02*
D03*
X2225000D02*
D03*
X2325000D02*
D03*
X2425000D02*
D03*
X2525000D02*
D03*
X2625000D02*
D03*
X2725000D02*
D03*
X2825000D02*
D03*
X2925000D02*
D03*
X1825000D02*
D03*
X1725000D02*
D03*
X1625000D02*
D03*
X1525000D02*
D03*
X1425000D02*
D03*
X1325000D02*
D03*
X1225000D02*
D03*
X1125000D02*
D03*
X1025000D02*
D03*
%TF.MD5,af0bcd10d25e8d705baeeceb244ee7aa*%
M02*
