%TF.GenerationSoftware,Altium Limited,Altium Designer,24.0.1 (36)*%
G04 Layer_Color=32768*
%FSLAX45Y45*%
%MOMM*%
%TF.SameCoordinates,D94C8493-D55A-4E0A-ACE1-C1AA60FE3F93*%
%TF.FilePolarity,Positive*%
%TF.FileFunction,Other,Mechanical_15*%
%TF.Part,Single*%
G01*
G75*
%TA.AperFunction,NonConductor*%
%ADD15C,0.10000*%
D15*
X580000Y1815000D02*
X3420000D01*
X580000Y1135000D02*
Y1815000D01*
Y1135000D02*
X3420000D01*
Y1815000D01*
X4055000D02*
X6395000D01*
X4055000Y1145000D02*
Y1815000D01*
Y1145000D02*
X6395000D01*
Y1815000D01*
X9370000Y1145000D02*
Y1815000D01*
X7030000Y1145000D02*
X9370000D01*
X7030000D02*
Y1815000D01*
X9370000D01*
X580000D02*
X3420000D01*
Y1135000D02*
Y1815000D01*
X580000Y1135000D02*
X3420000D01*
X580000D02*
Y1815000D01*
X4055000Y1145000D02*
Y1815000D01*
Y1145000D02*
X6395000D01*
Y1815000D01*
X4055000D02*
X6395000D01*
X7030000D02*
X9370000D01*
Y1145000D02*
Y1815000D01*
X7030000Y1145000D02*
X9370000D01*
X7030000D02*
Y1815000D01*
%TF.MD5,cf3eedb926980a728f25b05551d7a6d3*%
M02*
