%TF.GenerationSoftware,Altium Limited,Altium Designer,24.0.1 (36)*%
G04 Layer_Color=65535*
%FSLAX45Y45*%
%MOMM*%
%TF.SameCoordinates,D94C8493-D55A-4E0A-ACE1-C1AA60FE3F93*%
%TF.FilePolarity,Positive*%
%TF.FileFunction,Legend,Top*%
%TF.Part,Single*%
G01*
G75*
%TA.AperFunction,NonConductor*%
%ADD15C,0.10000*%
%ADD16C,0.25400*%
D15*
X1020000Y1240000D02*
G03*
X1030000Y1240000I5000J0D01*
G01*
D02*
G03*
X1020000Y1240000I-5000J0D01*
G01*
X4465000Y1250000D02*
G03*
X4475000Y1250000I5000J0D01*
G01*
D02*
G03*
X4465000Y1250000I-5000J0D01*
G01*
X7450000D02*
G03*
X7440000Y1250000I-5000J0D01*
G01*
D02*
G03*
X7450000Y1250000I5000J0D01*
G01*
X680000Y1600000D02*
X840000D01*
X680000Y1400000D02*
Y1600000D01*
Y1400000D02*
X840000D01*
X3140000Y1600000D02*
X3320000D01*
Y1400000D02*
Y1600000D01*
X3140000Y1400000D02*
X3320000D01*
X4155000D02*
X4325000D01*
X4155000D02*
Y1600000D01*
X4325000D01*
X6125000Y1400000D02*
X6295000D01*
Y1600000D01*
X6125000D02*
X6295000D01*
X9100000D02*
X9270000D01*
Y1400000D02*
Y1600000D01*
X9100000Y1400000D02*
X9270000D01*
X7130000Y1600000D02*
X7300000D01*
X7130000Y1400000D02*
Y1600000D01*
Y1400000D02*
X7300000D01*
D16*
X4811575Y327751D02*
X4760792D01*
X4735400Y302359D01*
Y200792D01*
X4760792Y175400D01*
X4811575D01*
X4836967Y200792D01*
Y302359D01*
X4811575Y327751D01*
X4887751Y276967D02*
Y200792D01*
X4913143Y175400D01*
X4989318D01*
Y276967D01*
X5065493Y302359D02*
Y276967D01*
X5040101D01*
X5090885D01*
X5065493D01*
Y200792D01*
X5090885Y175400D01*
X5167060D02*
X5243236D01*
X5268628Y200792D01*
X5243236Y226183D01*
X5192452D01*
X5167060Y251575D01*
X5192452Y276967D01*
X5268628D01*
X5319411Y175400D02*
X5370194D01*
X5344803D01*
Y276967D01*
X5319411D01*
X5547937Y327751D02*
Y175400D01*
X5471762D01*
X5446370Y200792D01*
Y251575D01*
X5471762Y276967D01*
X5547937D01*
X5674896Y175400D02*
X5624112D01*
X5598721Y200792D01*
Y251575D01*
X5624112Y276967D01*
X5674896D01*
X5700288Y251575D01*
Y226183D01*
X5598721D01*
X6736967Y2675400D02*
X6635400D01*
X6736967Y2776967D01*
Y2802359D01*
X6711575Y2827751D01*
X6660792D01*
X6635400Y2802359D01*
X6787751D02*
X6813143Y2827751D01*
X6863926D01*
X6889318Y2802359D01*
Y2776967D01*
X6863926Y2751575D01*
X6838534D01*
X6863926D01*
X6889318Y2726184D01*
Y2700792D01*
X6863926Y2675400D01*
X6813143D01*
X6787751Y2700792D01*
X6940101Y2675400D02*
X6990885D01*
X6965493D01*
Y2827751D01*
X6940101Y2802359D01*
X7168628Y2675400D02*
X7067060D01*
X7168628Y2776967D01*
Y2802359D01*
X7143236Y2827751D01*
X7092452D01*
X7067060Y2802359D01*
X7320978Y2675400D02*
X7219411D01*
X7320978Y2776967D01*
Y2802359D01*
X7295586Y2827751D01*
X7244803D01*
X7219411Y2802359D01*
X7473329Y2675400D02*
X7371762D01*
X7473329Y2776967D01*
Y2802359D01*
X7447937Y2827751D01*
X7397154D01*
X7371762Y2802359D01*
X2691575Y2746183D02*
Y2771575D01*
X2666183D01*
Y2746183D01*
X2691575D01*
X2716967Y2771575D01*
Y2822359D01*
X2691575Y2847751D01*
X2640792D01*
X2615400Y2822359D01*
Y2720792D01*
X2640792Y2695400D01*
X2716967D01*
X2793142Y2796967D02*
X2843926D01*
X2869318Y2771575D01*
Y2695400D01*
X2793142D01*
X2767751Y2720792D01*
X2793142Y2746183D01*
X2869318D01*
X3021669Y2847751D02*
Y2695400D01*
X2945493D01*
X2920101Y2720792D01*
Y2771575D01*
X2945493Y2796967D01*
X3021669D01*
X3072452Y2695400D02*
Y2796967D01*
X3097844D01*
X3123236Y2771575D01*
Y2695400D01*
Y2771575D01*
X3148627Y2796967D01*
X3174019Y2771575D01*
Y2695400D01*
X3224803D02*
X3275586D01*
X3250195D01*
Y2796967D01*
X3224803D01*
X3453329D02*
X3377154D01*
X3351762Y2771575D01*
Y2720792D01*
X3377154Y2695400D01*
X3453329D01*
X3529504D02*
X3580288D01*
X3605680Y2720792D01*
Y2771575D01*
X3580288Y2796967D01*
X3529504D01*
X3504112Y2771575D01*
Y2720792D01*
X3529504Y2695400D01*
X702127Y2047451D02*
X651343D01*
X676735D01*
Y1920492D01*
X651343Y1895100D01*
X625952D01*
X600560Y1920492D01*
X752911Y1895100D02*
X803694D01*
X778302D01*
Y2047451D01*
X752911Y2022059D01*
X879869Y1971275D02*
X981437D01*
X1032220Y1895100D02*
Y2047451D01*
X1108396D01*
X1133787Y2022059D01*
Y1971275D01*
X1108396Y1945884D01*
X1032220D01*
X1184571Y1895100D02*
X1235354D01*
X1209963D01*
Y1996667D01*
X1184571D01*
X4176847Y2047451D02*
X4126063D01*
X4151455D01*
Y1920492D01*
X4126063Y1895100D01*
X4100672D01*
X4075280Y1920492D01*
X4329198Y1895100D02*
X4227631D01*
X4329198Y1996667D01*
Y2022059D01*
X4303806Y2047451D01*
X4253022D01*
X4227631Y2022059D01*
X4379981Y1971275D02*
X4481549D01*
X4532332Y2047451D02*
Y1895100D01*
X4633899D01*
X4760858D02*
X4710075D01*
X4684683Y1920492D01*
Y1971275D01*
X4710075Y1996667D01*
X4760858D01*
X4786250Y1971275D01*
Y1945884D01*
X4684683D01*
X4862425Y1895100D02*
Y2022059D01*
Y1971275D01*
X4837034D01*
X4887817D01*
X4862425D01*
Y2022059D01*
X4887817Y2047451D01*
X4989384Y2022059D02*
Y1996667D01*
X4963992D01*
X5014776D01*
X4989384D01*
Y1920492D01*
X5014776Y1895100D01*
X7151187Y2098251D02*
X7100403D01*
X7125795D01*
Y1971292D01*
X7100403Y1945900D01*
X7075012D01*
X7049620Y1971292D01*
X7201971Y2072859D02*
X7227362Y2098251D01*
X7278146D01*
X7303538Y2072859D01*
Y2047467D01*
X7278146Y2022075D01*
X7252754D01*
X7278146D01*
X7303538Y1996684D01*
Y1971292D01*
X7278146Y1945900D01*
X7227362D01*
X7201971Y1971292D01*
X7354321Y2022075D02*
X7455889D01*
X7506672Y1945900D02*
Y2098251D01*
X7582847D01*
X7608239Y2072859D01*
Y2022075D01*
X7582847Y1996684D01*
X7506672D01*
X7557456D02*
X7608239Y1945900D01*
X7659023D02*
X7709806D01*
X7684415D01*
Y2047467D01*
X7659023D01*
X7836765Y1895117D02*
X7862157D01*
X7887549Y1920508D01*
Y2047467D01*
X7811374D01*
X7785982Y2022075D01*
Y1971292D01*
X7811374Y1945900D01*
X7887549D01*
X7938332Y2098251D02*
Y1945900D01*
Y2022075D01*
X7963724Y2047467D01*
X8014508D01*
X8039900Y2022075D01*
Y1945900D01*
X8116075Y2072859D02*
Y2047467D01*
X8090683D01*
X8141467D01*
X8116075D01*
Y1971292D01*
X8141467Y1945900D01*
%TF.MD5,d9599f2cf1c4c90bd8d713d65f37b1cc*%
M02*
