%TF.GenerationSoftware,Altium Limited,Altium Designer,24.0.1 (36)*%
G04 Layer_Color=16711935*
%FSLAX45Y45*%
%MOMM*%
%TF.SameCoordinates,ACE92CBE-0CF6-43AA-90E2-EA464DF3305A*%
%TF.FilePolarity,Positive*%
%TF.FileFunction,Other,Top_Assembly*%
%TF.Part,Single*%
G01*
G75*
%TA.AperFunction,NonConductor*%
%ADD14C,0.20000*%
G36*
X430001Y60233D02*
X429835D01*
X429501D01*
X429001D01*
X428252Y60317D01*
X427419Y60400D01*
X426502Y60567D01*
X425586Y60816D01*
X424586Y61150D01*
X424503D01*
X424419Y61233D01*
X424169Y61316D01*
X423836Y61483D01*
X423003Y61816D01*
X421920Y62399D01*
X420587Y63149D01*
X419171Y63982D01*
X417671Y65065D01*
X416088Y66315D01*
X416005Y66398D01*
X415921Y66482D01*
X415672Y66732D01*
X415338Y66982D01*
X414422Y67815D01*
X413255Y68981D01*
X411839Y70397D01*
X410173Y72147D01*
X408340Y74230D01*
X406341Y76646D01*
X406257Y76729D01*
X405924Y77062D01*
X405507Y77646D01*
X404924Y78312D01*
X404174Y79145D01*
X403341Y80145D01*
X402425Y81228D01*
X401425Y82311D01*
X399259Y84644D01*
X397010Y86976D01*
X395843Y88060D01*
X394760Y89059D01*
X393760Y89976D01*
X392761Y90725D01*
X392677Y90809D01*
X392511Y90892D01*
X392261Y91059D01*
X391928Y91309D01*
X391428Y91559D01*
X390928Y91892D01*
X389678Y92642D01*
X388262Y93308D01*
X386679Y93891D01*
X384929Y94308D01*
X384096Y94475D01*
X383263D01*
X383180D01*
X383013D01*
X382847D01*
X382513Y94391D01*
X381597Y94308D01*
X380514Y94058D01*
X379264Y93641D01*
X378014Y93058D01*
X376681Y92225D01*
X375432Y91059D01*
X375265Y90892D01*
X374932Y90476D01*
X374432Y89726D01*
X373766Y88726D01*
X373182Y87476D01*
X372683Y85977D01*
X372349Y84227D01*
X372183Y82311D01*
Y81728D01*
X372266Y81395D01*
Y80895D01*
X372349Y80311D01*
X372599Y79062D01*
X373016Y77646D01*
X373599Y76063D01*
X374432Y74563D01*
X375598Y73230D01*
X375765Y73063D01*
X376182Y72730D01*
X377015Y72147D01*
X378014Y71564D01*
X379431Y70897D01*
X381014Y70314D01*
X382847Y69981D01*
X385013Y69814D01*
X384180Y61733D01*
X384096D01*
X383763Y61816D01*
X383346D01*
X382680Y61900D01*
X381930Y62066D01*
X381097Y62233D01*
X380097Y62483D01*
X379098Y62816D01*
X376848Y63566D01*
X375682Y64066D01*
X374599Y64649D01*
X373432Y65315D01*
X372349Y66065D01*
X371350Y66898D01*
X370433Y67898D01*
X370350Y67981D01*
X370266Y68148D01*
X370017Y68481D01*
X369683Y68898D01*
X369350Y69481D01*
X368933Y70147D01*
X368517Y70897D01*
X368017Y71814D01*
X367600Y72813D01*
X367184Y73896D01*
X366767Y75063D01*
X366434Y76396D01*
X366101Y77729D01*
X365851Y79228D01*
X365768Y80811D01*
X365684Y82478D01*
Y83394D01*
X365768Y83977D01*
X365851Y84810D01*
X365934Y85727D01*
X366101Y86727D01*
X366351Y87810D01*
X366934Y90142D01*
X367351Y91309D01*
X367850Y92558D01*
X368434Y93808D01*
X369183Y94974D01*
X369933Y96057D01*
X370850Y97141D01*
X370933Y97224D01*
X371100Y97390D01*
X371350Y97640D01*
X371766Y97974D01*
X372266Y98390D01*
X372849Y98890D01*
X373516Y99307D01*
X374349Y99890D01*
X375182Y100390D01*
X376182Y100806D01*
X378348Y101723D01*
X379514Y102056D01*
X380764Y102306D01*
X382097Y102472D01*
X383513Y102556D01*
X383680D01*
X384180D01*
X384929Y102472D01*
X385929Y102389D01*
X387012Y102139D01*
X388345Y101889D01*
X389678Y101473D01*
X391094Y100973D01*
X391261Y100890D01*
X391761Y100640D01*
X392511Y100306D01*
X393427Y99723D01*
X394594Y98973D01*
X395927Y98057D01*
X397426Y96974D01*
X398926Y95724D01*
X399009D01*
X399092Y95558D01*
X399342Y95308D01*
X399676Y95058D01*
X400092Y94641D01*
X400592Y94141D01*
X401175Y93558D01*
X401842Y92808D01*
X402592Y92058D01*
X403425Y91142D01*
X404424Y90142D01*
X405424Y89059D01*
X406507Y87810D01*
X407590Y86560D01*
X408840Y85060D01*
X410173Y83561D01*
X410256Y83477D01*
X410423Y83227D01*
X410756Y82894D01*
X411089Y82394D01*
X411589Y81894D01*
X412172Y81228D01*
X413422Y79812D01*
X414755Y78229D01*
X416088Y76729D01*
X416671Y76063D01*
X417254Y75479D01*
X417838Y74896D01*
X418254Y74480D01*
X418337Y74396D01*
X418587Y74146D01*
X419004Y73813D01*
X419587Y73313D01*
X420170Y72813D01*
X420920Y72230D01*
X422420Y71147D01*
Y102639D01*
X430001D01*
Y60233D01*
D02*
G37*
G36*
Y45737D02*
X416755Y37323D01*
X416671D01*
X416505Y37156D01*
X416171Y36989D01*
X415838Y36739D01*
X415338Y36406D01*
X414755Y35990D01*
X413505Y35156D01*
X412089Y34157D01*
X410673Y33157D01*
X409256Y32157D01*
X408007Y31157D01*
X407840Y31074D01*
X407507Y30741D01*
X406924Y30324D01*
X406341Y29741D01*
X405591Y29075D01*
X404841Y28325D01*
X404258Y27575D01*
X403675Y26825D01*
X403591Y26742D01*
X403508Y26492D01*
X403258Y26159D01*
X403008Y25659D01*
X402675Y25076D01*
X402425Y24409D01*
X401925Y22993D01*
Y22910D01*
X401842Y22743D01*
Y22410D01*
X401758Y21910D01*
X401675Y21243D01*
Y20410D01*
X401592Y19494D01*
Y8497D01*
X430001D01*
Y-1D01*
X365934D01*
Y29824D01*
X366018Y30574D01*
Y31324D01*
X366101Y32240D01*
X366184Y33240D01*
X366351Y35323D01*
X366684Y37489D01*
X367101Y39572D01*
X367351Y40572D01*
X367684Y41405D01*
Y41488D01*
X367767Y41571D01*
X367850Y41821D01*
X368017Y42155D01*
X368434Y42988D01*
X369100Y43987D01*
X369933Y45154D01*
X371016Y46320D01*
X372349Y47487D01*
X373849Y48570D01*
X373932D01*
X374016Y48653D01*
X374265Y48820D01*
X374599Y48986D01*
X375515Y49403D01*
X376681Y49903D01*
X378098Y50402D01*
X379764Y50819D01*
X381597Y51152D01*
X383513Y51236D01*
X383596D01*
X383846D01*
X384180D01*
X384679Y51152D01*
X385263Y51069D01*
X385929Y50986D01*
X387512Y50652D01*
X389345Y50153D01*
X391261Y49403D01*
X392178Y48903D01*
X393177Y48320D01*
X394094Y47570D01*
X395010Y46820D01*
X395093Y46737D01*
X395177Y46653D01*
X395427Y46320D01*
X395760Y45987D01*
X396093Y45487D01*
X396510Y44904D01*
X397010Y44237D01*
X397509Y43488D01*
X398009Y42571D01*
X398509Y41571D01*
X399009Y40405D01*
X399509Y39155D01*
X399926Y37822D01*
X400342Y36406D01*
X400675Y34823D01*
X400925Y33157D01*
X401009Y33324D01*
X401175Y33740D01*
X401508Y34323D01*
X401925Y35073D01*
X403008Y36739D01*
X403591Y37489D01*
X404174Y38239D01*
Y38322D01*
X404341Y38406D01*
X404758Y38905D01*
X405507Y39572D01*
X406507Y40572D01*
X407674Y41655D01*
X409173Y42821D01*
X410839Y44071D01*
X412672Y45320D01*
X430001Y56401D01*
Y45737D01*
D02*
G37*
G36*
X-309999Y83144D02*
X-360069D01*
X-359986Y82977D01*
X-359653Y82644D01*
X-359070Y81977D01*
X-358403Y81144D01*
X-357570Y80061D01*
X-356654Y78728D01*
X-355654Y77312D01*
X-354654Y75646D01*
Y75562D01*
X-354571Y75479D01*
X-354404Y75229D01*
X-354238Y74896D01*
X-353738Y73980D01*
X-353154Y72896D01*
X-352488Y71647D01*
X-351821Y70230D01*
X-351155Y68814D01*
X-350572Y67398D01*
X-358237D01*
Y67481D01*
X-358403Y67731D01*
X-358570Y68064D01*
X-358820Y68481D01*
X-359070Y69064D01*
X-359486Y69731D01*
X-360319Y71314D01*
X-361402Y73063D01*
X-362735Y75063D01*
X-364152Y76979D01*
X-365735Y78895D01*
X-365818Y78978D01*
X-365901Y79145D01*
X-366151Y79395D01*
X-366484Y79728D01*
X-367318Y80561D01*
X-368484Y81644D01*
X-369734Y82727D01*
X-371233Y83894D01*
X-372733Y84977D01*
X-374316Y85893D01*
Y90975D01*
X-309999D01*
Y83144D01*
D02*
G37*
G36*
Y45737D02*
X-323245Y37322D01*
X-323329D01*
X-323495Y37156D01*
X-323829Y36989D01*
X-324162Y36739D01*
X-324662Y36406D01*
X-325245Y35989D01*
X-326495Y35156D01*
X-327911Y34156D01*
X-329327Y33157D01*
X-330744Y32157D01*
X-331993Y31157D01*
X-332160Y31074D01*
X-332493Y30741D01*
X-333076Y30324D01*
X-333659Y29741D01*
X-334409Y29074D01*
X-335159Y28325D01*
X-335742Y27575D01*
X-336325Y26825D01*
X-336409Y26742D01*
X-336492Y26492D01*
X-336742Y26158D01*
X-336992Y25659D01*
X-337325Y25075D01*
X-337575Y24409D01*
X-338075Y22993D01*
Y22909D01*
X-338158Y22743D01*
Y22409D01*
X-338242Y21910D01*
X-338325Y21243D01*
Y20410D01*
X-338408Y19493D01*
Y8496D01*
X-309999D01*
Y-2D01*
X-374066D01*
Y29824D01*
X-373982Y30574D01*
Y31324D01*
X-373899Y32240D01*
X-373816Y33240D01*
X-373649Y35323D01*
X-373316Y37489D01*
X-372899Y39572D01*
X-372649Y40571D01*
X-372316Y41405D01*
Y41488D01*
X-372233Y41571D01*
X-372150Y41821D01*
X-371983Y42154D01*
X-371566Y42987D01*
X-370900Y43987D01*
X-370067Y45154D01*
X-368984Y46320D01*
X-367651Y47486D01*
X-366151Y48569D01*
X-366068D01*
X-365985Y48653D01*
X-365735Y48819D01*
X-365401Y48986D01*
X-364485Y49402D01*
X-363319Y49902D01*
X-361902Y50402D01*
X-360236Y50819D01*
X-358403Y51152D01*
X-356487Y51235D01*
X-356404D01*
X-356154D01*
X-355820D01*
X-355321Y51152D01*
X-354737Y51069D01*
X-354071Y50985D01*
X-352488Y50652D01*
X-350655Y50152D01*
X-348739Y49402D01*
X-347823Y48903D01*
X-346823Y48319D01*
X-345906Y47570D01*
X-344990Y46820D01*
X-344907Y46737D01*
X-344823Y46653D01*
X-344573Y46320D01*
X-344240Y45987D01*
X-343907Y45487D01*
X-343490Y44904D01*
X-342990Y44237D01*
X-342491Y43487D01*
X-341991Y42571D01*
X-341491Y41571D01*
X-340991Y40405D01*
X-340491Y39155D01*
X-340075Y37822D01*
X-339658Y36406D01*
X-339325Y34823D01*
X-339075Y33157D01*
X-338991Y33323D01*
X-338825Y33740D01*
X-338492Y34323D01*
X-338075Y35073D01*
X-336992Y36739D01*
X-336409Y37489D01*
X-335826Y38239D01*
Y38322D01*
X-335659Y38405D01*
X-335242Y38905D01*
X-334493Y39572D01*
X-333493Y40571D01*
X-332326Y41654D01*
X-330827Y42821D01*
X-329161Y44071D01*
X-327328Y45320D01*
X-309999Y56401D01*
Y45737D01*
D02*
G37*
%LPC*%
G36*
X383513Y42488D02*
X383430D01*
X383346D01*
X383097D01*
X382763Y42405D01*
X381930Y42321D01*
X380847Y42071D01*
X379681Y41655D01*
X378431Y41072D01*
X377181Y40238D01*
X376015Y39155D01*
X375848Y38989D01*
X375515Y38489D01*
X375099Y37739D01*
X374515Y36573D01*
X374265Y35906D01*
X373932Y35156D01*
X373682Y34323D01*
X373516Y33324D01*
X373266Y32324D01*
X373182Y31241D01*
X373016Y29991D01*
Y8497D01*
X394260D01*
Y28075D01*
X394177Y28658D01*
X394094Y29991D01*
X394010Y31407D01*
X393760Y32990D01*
X393511Y34407D01*
X393094Y35740D01*
X393011Y35906D01*
X392844Y36323D01*
X392594Y36906D01*
X392178Y37656D01*
X391678Y38406D01*
X391011Y39239D01*
X390178Y40072D01*
X389262Y40738D01*
X389178Y40822D01*
X388762Y40988D01*
X388262Y41321D01*
X387512Y41655D01*
X386679Y41905D01*
X385679Y42238D01*
X384679Y42405D01*
X383513Y42488D01*
D02*
G37*
G36*
X-356487Y42488D02*
X-356570D01*
X-356654D01*
X-356904D01*
X-357237Y42404D01*
X-358070Y42321D01*
X-359153Y42071D01*
X-360319Y41654D01*
X-361569Y41071D01*
X-362819Y40238D01*
X-363985Y39155D01*
X-364152Y38988D01*
X-364485Y38489D01*
X-364901Y37739D01*
X-365485Y36572D01*
X-365735Y35906D01*
X-366068Y35156D01*
X-366318Y34323D01*
X-366484Y33323D01*
X-366734Y32324D01*
X-366818Y31240D01*
X-366984Y29991D01*
Y8496D01*
X-345740D01*
Y28075D01*
X-345823Y28658D01*
X-345906Y29991D01*
X-345990Y31407D01*
X-346240Y32990D01*
X-346490Y34406D01*
X-346906Y35739D01*
X-346989Y35906D01*
X-347156Y36323D01*
X-347406Y36906D01*
X-347823Y37656D01*
X-348322Y38405D01*
X-348989Y39238D01*
X-349822Y40072D01*
X-350738Y40738D01*
X-350822Y40821D01*
X-351238Y40988D01*
X-351738Y41321D01*
X-352488Y41654D01*
X-353321Y41904D01*
X-354321Y42238D01*
X-355321Y42404D01*
X-356487Y42488D01*
D02*
G37*
%LPD*%
D14*
X350000Y-132911D02*
Y132911D01*
X510000D01*
Y-132911D02*
Y132911D01*
X350000Y-132911D02*
X510000D01*
X-390000D02*
X-230000D01*
Y132911D01*
X-390000D02*
X-230000D01*
X-390000Y-132911D02*
Y132911D01*
%TF.MD5,eee2d86cc6c57210e806f76e275a1f72*%
M02*
