%TF.GenerationSoftware,Altium Limited,Altium Designer,24.0.1 (36)*%
G04 Layer_Color=8388736*
%FSLAX45Y45*%
%MOMM*%
%TF.SameCoordinates,ACE92CBE-0CF6-43AA-90E2-EA464DF3305A*%
%TF.FilePolarity,Negative*%
%TF.FileFunction,Soldermask,Top*%
%TF.Part,Single*%
G01*
G75*
%TA.AperFunction,SMDPad,CuDef*%
%ADD11R,1.30707X0.90606*%
%ADD16R,2.20320X1.20320*%
%TA.AperFunction,ConnectorPad*%
%ADD17R,2.20320X1.20320*%
D11*
X430000Y-77608D02*
D03*
Y77608D02*
D03*
X-310000D02*
D03*
Y-77608D02*
D03*
D16*
X1400000Y-25000D02*
D03*
X-1400000Y25000D02*
D03*
X1700000Y-1000000D02*
D03*
X1400000Y-925000D02*
D03*
X1700000Y-850000D02*
D03*
X1400000Y-775000D02*
D03*
X1700000Y-700000D02*
D03*
X1400000Y-625000D02*
D03*
X1700000Y-550000D02*
D03*
X1400000Y-475000D02*
D03*
X1700000Y-400000D02*
D03*
Y-250000D02*
D03*
X1400000Y-325000D02*
D03*
Y-175000D02*
D03*
X1700000Y-100000D02*
D03*
Y50000D02*
D03*
X1400000Y125000D02*
D03*
X1700000Y200000D02*
D03*
X1400000Y275000D02*
D03*
X1700000Y350000D02*
D03*
X1400000Y425000D02*
D03*
X1700000Y500000D02*
D03*
X1400000Y575000D02*
D03*
X1700000Y650000D02*
D03*
X1400000Y725000D02*
D03*
Y875000D02*
D03*
X1700000Y800000D02*
D03*
Y950000D02*
D03*
X-1700000Y-950000D02*
D03*
X-1400000Y-875000D02*
D03*
X-1700000Y-800000D02*
D03*
X-1400000Y-725000D02*
D03*
X-1700000Y-650000D02*
D03*
X-1400000Y-575000D02*
D03*
X-1700000Y-500000D02*
D03*
X-1400000Y-425000D02*
D03*
X-1700000Y-350000D02*
D03*
X-1400000Y-275000D02*
D03*
X-1700000Y-200000D02*
D03*
X-1400000Y-125000D02*
D03*
X-1700000Y-50000D02*
D03*
Y100000D02*
D03*
X-1400000Y175000D02*
D03*
X-1700000Y250000D02*
D03*
X-1400000Y325000D02*
D03*
X-1700000Y400000D02*
D03*
X-1400000Y475000D02*
D03*
X-1700000Y550000D02*
D03*
X-1400000Y625000D02*
D03*
X-1700000Y700000D02*
D03*
X-1400000Y775000D02*
D03*
X-1700000Y850000D02*
D03*
X-1400000Y925000D02*
D03*
D17*
X-1700000Y1000000D02*
D03*
%TF.MD5,1d9e3736195f11ccfa654cb57ea649b1*%
M02*
