%TF.GenerationSoftware,Altium Limited,Altium Designer,24.0.1 (36)*%
G04 Layer_Color=255*
%FSLAX45Y45*%
%MOMM*%
%TF.SameCoordinates,0C073018-5ED0-424A-AD4F-26D4017CAF05*%
%TF.FilePolarity,Positive*%
%TF.FileFunction,Pads,Top*%
%TF.Part,Single*%
G01*
G75*
%TA.AperFunction,SMDPad,CuDef*%
%ADD10R,2.30000X1.55000*%
%ADD11R,1.00000X1.45000*%
%ADD12R,1.19380X2.48920*%
%ADD13R,4.74980X6.07060*%
%ADD14R,1.00000X3.10000*%
%ADD15R,1.00000X1.84000*%
%ADD16R,1.50000X0.80000*%
%ADD17R,1.50000X0.40000*%
G04:AMPARAMS|DCode=18|XSize=2.16916mm|YSize=0.58213mm|CornerRadius=0.29107mm|HoleSize=0mm|Usage=FLASHONLY|Rotation=270.000|XOffset=0mm|YOffset=0mm|HoleType=Round|Shape=RoundedRectangle|*
%AMROUNDEDRECTD18*
21,1,2.16916,0.00000,0,0,270.0*
21,1,1.58703,0.58213,0,0,270.0*
1,1,0.58213,0.00000,-0.79351*
1,1,0.58213,0.00000,0.79351*
1,1,0.58213,0.00000,0.79351*
1,1,0.58213,0.00000,-0.79351*
%
%ADD18ROUNDEDRECTD18*%
%ADD19R,0.58213X2.16916*%
%ADD20R,1.25814X1.46213*%
%ADD21R,2.70000X1.15000*%
%ADD22R,1.52500X0.65000*%
%ADD23R,2.72000X1.02000*%
%ADD24R,2.82000X1.18000*%
%ADD25R,1.50000X0.40000*%
%ADD26R,1.50000X0.80000*%
G04:AMPARAMS|DCode=27|XSize=0.6mm|YSize=1.45mm|CornerRadius=0.051mm|HoleSize=0mm|Usage=FLASHONLY|Rotation=180.000|XOffset=0mm|YOffset=0mm|HoleType=Round|Shape=RoundedRectangle|*
%AMROUNDEDRECTD27*
21,1,0.60000,1.34800,0,0,180.0*
21,1,0.49800,1.45000,0,0,180.0*
1,1,0.10200,-0.24900,0.67400*
1,1,0.10200,0.24900,0.67400*
1,1,0.10200,0.24900,-0.67400*
1,1,0.10200,-0.24900,-0.67400*
%
%ADD27ROUNDEDRECTD27*%
%ADD28R,1.46213X1.25814*%
%TA.AperFunction,ComponentPad*%
%ADD31C,1.50000*%
%ADD32C,1.11000*%
%ADD33R,1.11000X1.11000*%
%TA.AperFunction,ViaPad*%
%ADD34C,1.65000*%
%ADD35R,1.41600X1.41600*%
%ADD36C,1.41600*%
G04:AMPARAMS|DCode=37|XSize=1.65mm|YSize=1.65mm|CornerRadius=0mm|HoleSize=0mm|Usage=FLASHONLY|Rotation=0.000|XOffset=0mm|YOffset=0mm|HoleType=Round|Shape=Octagon|*
%AMOCTAGOND37*
4,1,8,0.82500,-0.41250,0.82500,0.41250,0.41250,0.82500,-0.41250,0.82500,-0.82500,0.41250,-0.82500,-0.41250,-0.41250,-0.82500,0.41250,-0.82500,0.82500,-0.41250,0.0*
%
%ADD37OCTAGOND37*%

%ADD38C,4.00000*%
%TA.AperFunction,ComponentPad*%
%ADD39C,1.05000*%
%ADD40R,1.05000X1.05000*%
D10*
X5825000Y11760000D02*
D03*
X5395000D02*
D03*
X4875000D02*
D03*
X4445000D02*
D03*
D11*
X4955000Y12320000D02*
D03*
X4765000D02*
D03*
X5895000Y12450000D02*
D03*
X5705000D02*
D03*
D12*
X7671400Y10702300D02*
D03*
X8128600D02*
D03*
Y12402300D02*
D03*
X7671400D02*
D03*
D13*
X7900000Y11531610D02*
D03*
Y13231610D02*
D03*
D14*
X857000Y1649997D02*
D03*
Y1109999D02*
D03*
X603000Y1649997D02*
D03*
Y1109999D02*
D03*
D15*
X6098000Y10303000D02*
D03*
X5844000D02*
D03*
X5590000D02*
D03*
X5336000D02*
D03*
X5082000D02*
D03*
Y9457000D02*
D03*
X5336000D02*
D03*
X5590000D02*
D03*
X5844000D02*
D03*
X6098000D02*
D03*
D16*
X6600000Y13214999D02*
D03*
X6880000D02*
D03*
X6600000Y11065000D02*
D03*
X6880000D02*
D03*
D17*
X6600000Y13114999D02*
D03*
X6880000Y13064999D02*
D03*
X6600000Y13014999D02*
D03*
X6880000Y12964999D02*
D03*
X6600000Y12914999D02*
D03*
X6880000Y12864999D02*
D03*
X6600000Y12814999D02*
D03*
X6880000Y12765000D02*
D03*
X6600000Y12715000D02*
D03*
X6880000Y12665000D02*
D03*
X6600000Y12615000D02*
D03*
X6880000Y12565000D02*
D03*
X6600000Y12515000D02*
D03*
X6880000Y12465000D02*
D03*
X6600000Y12415000D02*
D03*
X6880000Y12365000D02*
D03*
X6600000Y12315000D02*
D03*
X6880000Y12265000D02*
D03*
X6600000Y12215000D02*
D03*
X6880000Y12165000D02*
D03*
X6600000Y12115000D02*
D03*
X6880000Y12065000D02*
D03*
X6600000Y12015000D02*
D03*
X6880000Y11965000D02*
D03*
X6600000Y11915000D02*
D03*
X6880000Y11865000D02*
D03*
X6600000Y11815000D02*
D03*
X6880000Y11765000D02*
D03*
X6600000Y11715000D02*
D03*
X6880000Y11665000D02*
D03*
X6600000Y11615000D02*
D03*
X6880000Y11565000D02*
D03*
X6600000Y11515000D02*
D03*
X6880000Y11465000D02*
D03*
X6600000Y11415000D02*
D03*
X6880000Y11365000D02*
D03*
X6600000Y11315000D02*
D03*
X6880000Y11265000D02*
D03*
X6600000Y11215000D02*
D03*
X6880000Y11165000D02*
D03*
D18*
X3560502Y12443643D02*
D03*
X3433502D02*
D03*
X3306502D02*
D03*
X3179502D02*
D03*
Y12916362D02*
D03*
X3306502D02*
D03*
X3433502D02*
D03*
D19*
X3560502D02*
D03*
D20*
X2902303Y10789999D02*
D03*
X3097700D02*
D03*
X2902301Y9559999D02*
D03*
X3097698D02*
D03*
X3097701Y9020001D02*
D03*
X2902299D02*
D03*
X3097699Y10260001D02*
D03*
X2902302D02*
D03*
D21*
X3270000Y11980000D02*
D03*
Y11680000D02*
D03*
D22*
X2041200Y12020500D02*
D03*
Y11893500D02*
D03*
Y11766500D02*
D03*
Y11639500D02*
D03*
X1498800D02*
D03*
Y11766500D02*
D03*
Y11893500D02*
D03*
Y12020500D02*
D03*
X2041200Y12920500D02*
D03*
Y12793500D02*
D03*
Y12666500D02*
D03*
Y12539500D02*
D03*
X1498800D02*
D03*
Y12666500D02*
D03*
Y12793500D02*
D03*
Y12920500D02*
D03*
D23*
X920000Y12220000D02*
D03*
Y11940000D02*
D03*
Y12720000D02*
D03*
Y12440000D02*
D03*
D24*
X2570000Y11972000D02*
D03*
Y11688000D02*
D03*
Y12922000D02*
D03*
Y12638000D02*
D03*
D25*
X7860003Y3225000D02*
D03*
Y3125000D02*
D03*
X8140003Y3174997D02*
D03*
Y3074997D02*
D03*
X7860003Y2925000D02*
D03*
X8140003Y2874998D02*
D03*
X7860003Y2725001D02*
D03*
X8140003Y2674998D02*
D03*
X7860003Y2525001D02*
D03*
X8140003Y2474999D02*
D03*
Y2274999D02*
D03*
X7860003Y2325001D02*
D03*
X8140003Y2074999D02*
D03*
X7860003Y2124997D02*
D03*
X8140003Y1975000D02*
D03*
X7860003Y2024997D02*
D03*
X8140003Y1775000D02*
D03*
X7860003Y1824997D02*
D03*
X8140003Y1875000D02*
D03*
X7860003Y1924997D02*
D03*
Y2224997D02*
D03*
X8140003Y2174999D02*
D03*
Y2374999D02*
D03*
Y2574998D02*
D03*
X7860003Y2625001D02*
D03*
X8140003Y2774998D02*
D03*
X7860003Y2825000D02*
D03*
X8140003Y2974998D02*
D03*
X7860003Y3025000D02*
D03*
Y2425001D02*
D03*
X7859998Y7025004D02*
D03*
X8139997Y6975002D02*
D03*
X7859998Y6825005D02*
D03*
X8139997Y6775002D02*
D03*
X7859998Y6625005D02*
D03*
X8139997Y6575003D02*
D03*
Y6375003D02*
D03*
X7859998Y6425006D02*
D03*
X8139997Y6175004D02*
D03*
X7859998Y6225001D02*
D03*
Y5925002D02*
D03*
X8139997Y5875004D02*
D03*
X7859998Y5825002D02*
D03*
X8139997Y5775004D02*
D03*
X7859998Y6025001D02*
D03*
X8139997Y5975004D02*
D03*
X7859998Y6125001D02*
D03*
X8139997Y6075004D02*
D03*
X7859998Y6325006D02*
D03*
X8139997Y6275003D02*
D03*
Y6475003D02*
D03*
X7859998Y6525005D02*
D03*
X8139997Y6675003D02*
D03*
X7859998Y6725005D02*
D03*
X8139997Y6875002D02*
D03*
X7859998Y6925005D02*
D03*
X8139997Y7075002D02*
D03*
Y7175002D02*
D03*
X7859998Y7125004D02*
D03*
Y7225004D02*
D03*
D26*
X8140003Y1675000D02*
D03*
X7860003D02*
D03*
Y3324999D02*
D03*
X8140003D02*
D03*
X8139997Y7325004D02*
D03*
X7859998D02*
D03*
Y5675005D02*
D03*
X8139997D02*
D03*
D27*
X1559501Y9177498D02*
D03*
X1686501D02*
D03*
X1813501D02*
D03*
X1940501D02*
D03*
X1559501Y9722501D02*
D03*
X1686501D02*
D03*
X1813501D02*
D03*
X1940501D02*
D03*
Y10972501D02*
D03*
X1813501D02*
D03*
X1686501D02*
D03*
X1559501D02*
D03*
X1940501Y10427498D02*
D03*
X1813501D02*
D03*
X1686501D02*
D03*
X1559501D02*
D03*
D28*
X2399999Y9362300D02*
D03*
Y9557697D02*
D03*
X900000Y9907701D02*
D03*
Y9712298D02*
D03*
X2399999Y10592303D02*
D03*
Y10787700D02*
D03*
X900000Y11177700D02*
D03*
Y10982302D02*
D03*
Y9387699D02*
D03*
Y9192301D02*
D03*
Y10637698D02*
D03*
Y10442300D02*
D03*
D31*
X5586000Y13139999D02*
D03*
X5713000Y13270000D02*
D03*
X5840000Y13139999D02*
D03*
X4656000Y13150000D02*
D03*
X4783000Y13280000D02*
D03*
X4910000Y13150000D02*
D03*
D32*
X3349000Y8261998D02*
D03*
X3603000D02*
D03*
X3857000D02*
D03*
X4111000D02*
D03*
X4365000D02*
D03*
X4619000D02*
D03*
X4873000D02*
D03*
X5127000D02*
D03*
X5381000D02*
D03*
X5635000D02*
D03*
X5889000D02*
D03*
X6143000D02*
D03*
X6397000D02*
D03*
X6651000D02*
D03*
Y6737998D02*
D03*
X6397000D02*
D03*
X6143000D02*
D03*
X5889000D02*
D03*
X5635000D02*
D03*
X5381000D02*
D03*
X5127000D02*
D03*
X4873000D02*
D03*
X4619000D02*
D03*
X4365000D02*
D03*
X4111000D02*
D03*
X3857000D02*
D03*
X3603000D02*
D03*
X1603005Y2538000D02*
D03*
X1857005D02*
D03*
X2111005D02*
D03*
X2365005D02*
D03*
X2619005D02*
D03*
X2873005D02*
D03*
X3127005D02*
D03*
X3381005D02*
D03*
X3635005D02*
D03*
X3889005D02*
D03*
X4143005D02*
D03*
X4397005D02*
D03*
X4651005D02*
D03*
Y4062000D02*
D03*
X4397005D02*
D03*
X4143005D02*
D03*
X3889005D02*
D03*
X3635005D02*
D03*
X3381005D02*
D03*
X3127005D02*
D03*
X2873005D02*
D03*
X2619005D02*
D03*
X2365005D02*
D03*
X2111005D02*
D03*
X1857005D02*
D03*
X1603005D02*
D03*
X1349005D02*
D03*
X3349004Y1961998D02*
D03*
X3603004D02*
D03*
X3857004D02*
D03*
X4111004D02*
D03*
X4365004D02*
D03*
X4619004D02*
D03*
X4873004D02*
D03*
X5127004D02*
D03*
X5381004D02*
D03*
X5635004D02*
D03*
X5889004D02*
D03*
X6143004D02*
D03*
X6397004D02*
D03*
X6651004D02*
D03*
Y437998D02*
D03*
X6397004D02*
D03*
X6143004D02*
D03*
X5889004D02*
D03*
X5635004D02*
D03*
X5381004D02*
D03*
X5127004D02*
D03*
X4873004D02*
D03*
X4619004D02*
D03*
X4365004D02*
D03*
X4111004D02*
D03*
X3857004D02*
D03*
X3603004D02*
D03*
X1603001Y4637998D02*
D03*
X1857001D02*
D03*
X2111001D02*
D03*
X2365001D02*
D03*
X2619001D02*
D03*
X2873001D02*
D03*
X3127001D02*
D03*
X3381001D02*
D03*
X3635001D02*
D03*
X3889001D02*
D03*
X4143001D02*
D03*
X4397001D02*
D03*
X4651001D02*
D03*
Y6161998D02*
D03*
X4397001D02*
D03*
X4143001D02*
D03*
X3889001D02*
D03*
X3635001D02*
D03*
X3381001D02*
D03*
X3127001D02*
D03*
X2873001D02*
D03*
X2619001D02*
D03*
X2365001D02*
D03*
X2111001D02*
D03*
X1857001D02*
D03*
X1603001D02*
D03*
X1349001D02*
D03*
D33*
X3349000Y6737998D02*
D03*
X1349005Y2538000D02*
D03*
X3349004Y437998D02*
D03*
X1349001Y4637998D02*
D03*
D34*
X1850000Y200000D02*
D03*
X2100000D02*
D03*
X3400000Y13750000D02*
D03*
X2600000D02*
D03*
X1800000D02*
D03*
X1370000Y210000D02*
D03*
X1120000D02*
D03*
X7400000Y9200000D02*
D03*
Y9450000D02*
D03*
X7750000Y9950000D02*
D03*
Y9450000D02*
D03*
Y10200000D02*
D03*
Y9200000D02*
D03*
X7400000Y10200000D02*
D03*
Y9950000D02*
D03*
X1000000Y13750000D02*
D03*
D35*
X8750000Y8640000D02*
D03*
Y9400000D02*
D03*
Y10150000D02*
D03*
Y10900000D02*
D03*
Y11650000D02*
D03*
Y12400000D02*
D03*
Y13150000D02*
D03*
D36*
Y8400000D02*
D03*
Y9150000D02*
D03*
Y9900000D02*
D03*
Y10650000D02*
D03*
Y11400000D02*
D03*
Y12150000D02*
D03*
Y12900000D02*
D03*
D37*
X3700000Y13750000D02*
D03*
X2900000D02*
D03*
X2100000D02*
D03*
X1300000D02*
D03*
D38*
X5500000Y5500000D02*
D03*
X8750000Y250000D02*
D03*
X250000D02*
D03*
X8750000Y13750000D02*
D03*
X250000D02*
D03*
D39*
X3499998Y9082999D02*
D03*
Y9209999D02*
D03*
Y10480000D02*
D03*
Y10353000D02*
D03*
D40*
Y9336999D02*
D03*
Y10607000D02*
D03*
%TF.MD5,084a40c804f87b14cd5da490ed3f05e9*%
M02*
