%TF.GenerationSoftware,Altium Limited,Altium Designer,24.0.1 (36)*%
G04 Layer_Physical_Order=1*
G04 Layer_Color=255*
%FSLAX45Y45*%
%MOMM*%
%TF.SameCoordinates,0C073018-5ED0-424A-AD4F-26D4017CAF05*%
%TF.FilePolarity,Positive*%
%TF.FileFunction,Copper,L1,Top,Signal*%
%TF.Part,Single*%
G01*
G75*
%TA.AperFunction,SMDPad,CuDef*%
%ADD10R,2.30000X1.55000*%
%ADD11R,1.00000X1.45000*%
%ADD12R,1.19380X2.48920*%
%ADD13R,4.74980X6.07060*%
%ADD14R,1.00000X3.10000*%
%ADD15R,1.00000X1.84000*%
%ADD16R,1.50000X0.80000*%
%ADD17R,1.50000X0.40000*%
G04:AMPARAMS|DCode=18|XSize=2.16916mm|YSize=0.58213mm|CornerRadius=0.29107mm|HoleSize=0mm|Usage=FLASHONLY|Rotation=270.000|XOffset=0mm|YOffset=0mm|HoleType=Round|Shape=RoundedRectangle|*
%AMROUNDEDRECTD18*
21,1,2.16916,0.00000,0,0,270.0*
21,1,1.58703,0.58213,0,0,270.0*
1,1,0.58213,0.00000,-0.79351*
1,1,0.58213,0.00000,0.79351*
1,1,0.58213,0.00000,0.79351*
1,1,0.58213,0.00000,-0.79351*
%
%ADD18ROUNDEDRECTD18*%
%ADD19R,0.58213X2.16916*%
%ADD20R,1.25814X1.46213*%
%ADD21R,2.70000X1.15000*%
%ADD22R,1.52500X0.65000*%
%ADD23R,2.72000X1.02000*%
%ADD24R,2.82000X1.18000*%
%ADD25R,1.50000X0.40000*%
%ADD26R,1.50000X0.80000*%
G04:AMPARAMS|DCode=27|XSize=0.6mm|YSize=1.45mm|CornerRadius=0.051mm|HoleSize=0mm|Usage=FLASHONLY|Rotation=180.000|XOffset=0mm|YOffset=0mm|HoleType=Round|Shape=RoundedRectangle|*
%AMROUNDEDRECTD27*
21,1,0.60000,1.34800,0,0,180.0*
21,1,0.49800,1.45000,0,0,180.0*
1,1,0.10200,-0.24900,0.67400*
1,1,0.10200,0.24900,0.67400*
1,1,0.10200,0.24900,-0.67400*
1,1,0.10200,-0.24900,-0.67400*
%
%ADD27ROUNDEDRECTD27*%
%ADD28R,1.46213X1.25814*%
%TA.AperFunction,Conductor*%
%ADD29C,0.10000*%
%ADD30C,0.20000*%
%TA.AperFunction,ComponentPad*%
%ADD31C,1.50000*%
%ADD32C,1.11000*%
%ADD33R,1.11000X1.11000*%
%TA.AperFunction,ViaPad*%
%ADD34C,1.65000*%
%ADD35R,1.41600X1.41600*%
%ADD36C,1.41600*%
G04:AMPARAMS|DCode=37|XSize=1.65mm|YSize=1.65mm|CornerRadius=0mm|HoleSize=0mm|Usage=FLASHONLY|Rotation=0.000|XOffset=0mm|YOffset=0mm|HoleType=Round|Shape=Octagon|*
%AMOCTAGOND37*
4,1,8,0.82500,-0.41250,0.82500,0.41250,0.41250,0.82500,-0.41250,0.82500,-0.82500,0.41250,-0.82500,-0.41250,-0.41250,-0.82500,0.41250,-0.82500,0.82500,-0.41250,0.0*
%
%ADD37OCTAGOND37*%

%ADD38C,4.00000*%
%TA.AperFunction,ComponentPad*%
%ADD39C,1.05000*%
%ADD40R,1.05000X1.05000*%
%TA.AperFunction,ViaPad*%
%ADD41C,1.00000*%
D10*
X5825000Y11760000D02*
D03*
X5395000D02*
D03*
X4875000D02*
D03*
X4445000D02*
D03*
D11*
X4955000Y12320000D02*
D03*
X4765000D02*
D03*
X5895000Y12450000D02*
D03*
X5705000D02*
D03*
D12*
X7671400Y10702300D02*
D03*
X8128600D02*
D03*
Y12402300D02*
D03*
X7671400D02*
D03*
D13*
X7900000Y11531610D02*
D03*
Y13231610D02*
D03*
D14*
X857000Y1649997D02*
D03*
Y1109999D02*
D03*
X603000Y1649997D02*
D03*
Y1109999D02*
D03*
D15*
X6098000Y10303000D02*
D03*
X5844000D02*
D03*
X5590000D02*
D03*
X5336000D02*
D03*
X5082000D02*
D03*
Y9457000D02*
D03*
X5336000D02*
D03*
X5590000D02*
D03*
X5844000D02*
D03*
X6098000D02*
D03*
D16*
X6600000Y13214999D02*
D03*
X6880000D02*
D03*
X6600000Y11065000D02*
D03*
X6880000D02*
D03*
D17*
X6600000Y13114999D02*
D03*
X6880000Y13064999D02*
D03*
X6600000Y13014999D02*
D03*
X6880000Y12964999D02*
D03*
X6600000Y12914999D02*
D03*
X6880000Y12864999D02*
D03*
X6600000Y12814999D02*
D03*
X6880000Y12765000D02*
D03*
X6600000Y12715000D02*
D03*
X6880000Y12665000D02*
D03*
X6600000Y12615000D02*
D03*
X6880000Y12565000D02*
D03*
X6600000Y12515000D02*
D03*
X6880000Y12465000D02*
D03*
X6600000Y12415000D02*
D03*
X6880000Y12365000D02*
D03*
X6600000Y12315000D02*
D03*
X6880000Y12265000D02*
D03*
X6600000Y12215000D02*
D03*
X6880000Y12165000D02*
D03*
X6600000Y12115000D02*
D03*
X6880000Y12065000D02*
D03*
X6600000Y12015000D02*
D03*
X6880000Y11965000D02*
D03*
X6600000Y11915000D02*
D03*
X6880000Y11865000D02*
D03*
X6600000Y11815000D02*
D03*
X6880000Y11765000D02*
D03*
X6600000Y11715000D02*
D03*
X6880000Y11665000D02*
D03*
X6600000Y11615000D02*
D03*
X6880000Y11565000D02*
D03*
X6600000Y11515000D02*
D03*
X6880000Y11465000D02*
D03*
X6600000Y11415000D02*
D03*
X6880000Y11365000D02*
D03*
X6600000Y11315000D02*
D03*
X6880000Y11265000D02*
D03*
X6600000Y11215000D02*
D03*
X6880000Y11165000D02*
D03*
D18*
X3560502Y12443643D02*
D03*
X3433502D02*
D03*
X3306502D02*
D03*
X3179502D02*
D03*
Y12916362D02*
D03*
X3306502D02*
D03*
X3433502D02*
D03*
D19*
X3560502D02*
D03*
D20*
X2902303Y10789999D02*
D03*
X3097700D02*
D03*
X2902301Y9559999D02*
D03*
X3097698D02*
D03*
X3097701Y9020001D02*
D03*
X2902299D02*
D03*
X3097699Y10260001D02*
D03*
X2902302D02*
D03*
D21*
X3270000Y11980000D02*
D03*
Y11680000D02*
D03*
D22*
X2041200Y12020500D02*
D03*
Y11893500D02*
D03*
Y11766500D02*
D03*
Y11639500D02*
D03*
X1498800D02*
D03*
Y11766500D02*
D03*
Y11893500D02*
D03*
Y12020500D02*
D03*
X2041200Y12920500D02*
D03*
Y12793500D02*
D03*
Y12666500D02*
D03*
Y12539500D02*
D03*
X1498800D02*
D03*
Y12666500D02*
D03*
Y12793500D02*
D03*
Y12920500D02*
D03*
D23*
X920000Y12220000D02*
D03*
Y11940000D02*
D03*
Y12720000D02*
D03*
Y12440000D02*
D03*
D24*
X2570000Y11972000D02*
D03*
Y11688000D02*
D03*
Y12922000D02*
D03*
Y12638000D02*
D03*
D25*
X7860003Y3225000D02*
D03*
Y3125000D02*
D03*
X8140003Y3174997D02*
D03*
Y3074997D02*
D03*
X7860003Y2925000D02*
D03*
X8140003Y2874998D02*
D03*
X7860003Y2725001D02*
D03*
X8140003Y2674998D02*
D03*
X7860003Y2525001D02*
D03*
X8140003Y2474999D02*
D03*
Y2274999D02*
D03*
X7860003Y2325001D02*
D03*
X8140003Y2074999D02*
D03*
X7860003Y2124997D02*
D03*
X8140003Y1975000D02*
D03*
X7860003Y2024997D02*
D03*
X8140003Y1775000D02*
D03*
X7860003Y1824997D02*
D03*
X8140003Y1875000D02*
D03*
X7860003Y1924997D02*
D03*
Y2224997D02*
D03*
X8140003Y2174999D02*
D03*
Y2374999D02*
D03*
Y2574998D02*
D03*
X7860003Y2625001D02*
D03*
X8140003Y2774998D02*
D03*
X7860003Y2825000D02*
D03*
X8140003Y2974998D02*
D03*
X7860003Y3025000D02*
D03*
Y2425001D02*
D03*
X7859998Y7025004D02*
D03*
X8139997Y6975002D02*
D03*
X7859998Y6825005D02*
D03*
X8139997Y6775002D02*
D03*
X7859998Y6625005D02*
D03*
X8139997Y6575003D02*
D03*
Y6375003D02*
D03*
X7859998Y6425006D02*
D03*
X8139997Y6175004D02*
D03*
X7859998Y6225001D02*
D03*
Y5925002D02*
D03*
X8139997Y5875004D02*
D03*
X7859998Y5825002D02*
D03*
X8139997Y5775004D02*
D03*
X7859998Y6025001D02*
D03*
X8139997Y5975004D02*
D03*
X7859998Y6125001D02*
D03*
X8139997Y6075004D02*
D03*
X7859998Y6325006D02*
D03*
X8139997Y6275003D02*
D03*
Y6475003D02*
D03*
X7859998Y6525005D02*
D03*
X8139997Y6675003D02*
D03*
X7859998Y6725005D02*
D03*
X8139997Y6875002D02*
D03*
X7859998Y6925005D02*
D03*
X8139997Y7075002D02*
D03*
Y7175002D02*
D03*
X7859998Y7125004D02*
D03*
Y7225004D02*
D03*
D26*
X8140003Y1675000D02*
D03*
X7860003D02*
D03*
Y3324999D02*
D03*
X8140003D02*
D03*
X8139997Y7325004D02*
D03*
X7859998D02*
D03*
Y5675005D02*
D03*
X8139997D02*
D03*
D27*
X1559501Y9177498D02*
D03*
X1686501D02*
D03*
X1813501D02*
D03*
X1940501D02*
D03*
X1559501Y9722501D02*
D03*
X1686501D02*
D03*
X1813501D02*
D03*
X1940501D02*
D03*
Y10972501D02*
D03*
X1813501D02*
D03*
X1686501D02*
D03*
X1559501D02*
D03*
X1940501Y10427498D02*
D03*
X1813501D02*
D03*
X1686501D02*
D03*
X1559501D02*
D03*
D28*
X2399999Y9362300D02*
D03*
Y9557697D02*
D03*
X900000Y9907701D02*
D03*
Y9712298D02*
D03*
X2399999Y10592303D02*
D03*
Y10787700D02*
D03*
X900000Y11177700D02*
D03*
Y10982302D02*
D03*
Y9387699D02*
D03*
Y9192301D02*
D03*
Y10637698D02*
D03*
Y10442300D02*
D03*
D29*
X8140003Y2075000D02*
X8500000D01*
X8140003Y1875000D02*
X8500000D01*
X8140003Y1775000D02*
X8400000D01*
X8140003Y1875000D02*
X8140003Y1875000D01*
X1370000Y340000D02*
X3724142D01*
X1220000D02*
X1370000D01*
Y210000D02*
Y340000D01*
X1120000Y440000D02*
X1220000Y340000D01*
X710003Y849998D02*
X1120000Y440000D01*
Y210000D02*
Y440000D01*
X6651004Y437998D02*
X6950000Y736994D01*
Y2280000D01*
X6840000Y2150994D02*
Y2280000D01*
X6651004Y1961998D02*
X6840000Y2150994D01*
X6404501Y1961998D02*
X6722503Y2280000D01*
X6397004Y1961998D02*
X6404501D01*
X6722503Y2280000D02*
X6730000D01*
X6143004Y1961998D02*
X6461006Y2280000D01*
X6620000D01*
X4651005Y2538000D02*
X4729005Y2460000D01*
X6200000D02*
X6290000Y2550000D01*
X4729005Y2460000D02*
X6200000D01*
X5710000Y3130000D02*
X6290000Y2550000D01*
X5710000Y3130000D02*
Y3420000D01*
X5600000Y3130000D02*
Y3420000D01*
Y3130000D02*
X6180000Y2550000D01*
X5490000Y3130000D02*
X6070000Y2550000D01*
X5490000Y3130000D02*
Y3420000D01*
X5380000Y3130000D02*
Y3420000D01*
Y3130000D02*
X5960000Y2550000D01*
X4873004Y1961998D02*
Y2243004D01*
X5030000Y2400000D02*
X7050000D01*
X4873004Y2243004D02*
X5030000Y2400000D01*
X5381004Y1961998D02*
Y2251004D01*
X5510000Y2380000D02*
X7040000D01*
X5381004Y2251004D02*
X5510000Y2380000D01*
X7040000D02*
X7595003Y1824997D01*
X7050000Y2400000D02*
X7525003Y1924997D01*
X4365004Y1961998D02*
X4823006Y2420000D01*
X7060000D01*
X7455003Y2024997D01*
X4335005Y2440000D02*
X7070000D01*
X3857004Y1961999D02*
X4335005Y2440000D01*
X7070000D02*
X7385003Y2124997D01*
X5074142Y2820000D02*
X5080000Y2825858D01*
Y3330000D01*
X4171005Y2820000D02*
X5074142D01*
X3889005Y2538000D02*
X4171005Y2820000D01*
X4068005Y3225000D02*
X4965000D01*
X3381005Y2538000D02*
X4068005Y3225000D01*
X4965000D02*
X4970000Y3220000D01*
X5320000Y4310000D02*
Y4560000D01*
X5210000Y4310000D02*
Y4560000D01*
X5100000Y4310000D02*
Y4560000D01*
X4990000Y4310000D02*
Y4560000D01*
X4230000Y4950000D02*
Y5900000D01*
X4340000Y4950000D02*
Y5900000D01*
X4450000Y4950000D02*
Y5900000D01*
X4560000Y4950000D02*
Y5900000D01*
X2365001Y6161998D02*
X2506999Y6020000D01*
X1857001Y6161998D02*
X2018999Y6000000D01*
X6194852D01*
X6186568Y6020000D02*
X6211569Y6045001D01*
X2873001Y6161998D02*
X2994999Y6040000D01*
X6178284D01*
X6203285Y6065001D01*
X6211569Y6045001D02*
X6215001D01*
X2506999Y6020000D02*
X6186568D01*
X6170000Y6060000D02*
X6430000Y6320000D01*
X6203285Y6065001D02*
X6205001D01*
X3381001Y6161998D02*
X3482999Y6060000D01*
X6219854Y6025001D02*
X7859998D01*
X6194852Y6000000D02*
X6219854Y6025001D01*
X3482999Y6060000D02*
X6170000D01*
X4580000Y7050000D02*
X4740000Y7210000D01*
X6100000D01*
X6340000Y7450000D01*
X4470000Y7050000D02*
X4650000Y7230000D01*
X6010000D01*
X6230000Y7450000D01*
X4360000Y7050000D02*
X4560000Y7250000D01*
X5920000D01*
X6120000Y7450000D01*
X5830000Y7270000D02*
X6010000Y7450000D01*
X4470000Y7270000D02*
X5830000D01*
X4250000Y7050000D02*
X4470000Y7270000D01*
X6340000Y7260000D02*
X6651000Y6949000D01*
Y6737998D02*
Y6949000D01*
X6340000Y7260000D02*
Y7450000D01*
X7535000Y8250000D02*
Y8625000D01*
X7440000Y8720000D02*
X7535000Y8625000D01*
X7460000Y8630000D02*
X7470000Y8620000D01*
X7420000Y8630000D02*
X7460000D01*
X7470000Y8200000D02*
Y8620000D01*
X7400000Y8080000D02*
Y8580000D01*
X7350000Y8630000D02*
X7400000Y8580000D01*
X7240000Y8630000D02*
X7330000Y8540000D01*
Y7960000D02*
Y8540000D01*
X5381000Y7619000D02*
Y8261998D01*
X5390000Y7610000D02*
X6680000D01*
X5381000Y7619000D02*
X5390000Y7610000D01*
X4873000Y7697000D02*
Y8261998D01*
X4980000Y7590000D02*
X6670000D01*
X4873000Y7697000D02*
X4980000Y7590000D01*
X4365000Y8165000D02*
Y8261998D01*
X4960000Y7570000D02*
X6660000D01*
X4365000Y8165000D02*
X4960000Y7570000D01*
X1810000Y2080000D02*
X2170000D01*
X7000000Y8400000D02*
Y8540000D01*
X6890000Y8400000D02*
Y8540000D01*
X7030000Y8630000D02*
X7110000Y8550000D01*
X7220000Y8400000D02*
Y8540000D01*
X6910000Y8630000D02*
X7000000Y8540000D01*
X6800000Y8630000D02*
X6890000Y8540000D01*
X6900000Y7420000D02*
Y8240000D01*
X3860000Y8520000D02*
X6620000D01*
X6900000Y8240000D01*
X3740000Y8400000D02*
X3860000Y8520000D01*
X6890000Y8720000D02*
X6980000Y8630000D01*
X6670000Y8720000D02*
X6760000Y8630000D01*
X6800000D01*
X6870000D02*
X6910000D01*
X6780000Y8720000D02*
X6870000Y8630000D01*
X6980000D02*
X7030000D01*
X7000000Y8720000D02*
X7090000Y8630000D01*
X7130000D02*
X7220000Y8540000D01*
X7090000Y8630000D02*
X7130000D01*
X7220000Y8720000D02*
X7310000Y8630000D01*
X7350000D01*
X7330000Y8720000D02*
X7420000Y8630000D01*
X7200000D02*
X7240000D01*
X7110000Y8720000D02*
X7200000Y8630000D01*
X6900000Y7420000D02*
X7094996Y7225004D01*
X6260000Y8800000D02*
X8350000D01*
X8750000Y8400000D01*
X5844000Y9216000D02*
X6260000Y8800000D01*
X6390000Y8820000D02*
X8490000D01*
X5970000Y9240000D02*
X6390000Y8820000D01*
X8490000D02*
X8670000Y8640000D01*
X6300000Y12880000D02*
Y13650000D01*
X6465000Y12715000D02*
X6600000D01*
X6300000Y12880000D02*
X6465000Y12715000D01*
X6310000Y12670000D02*
X6365000Y12615000D01*
X6600000D01*
X6475000Y13014999D02*
X6600000D01*
X6340000Y13150000D02*
Y13610001D01*
Y13150000D02*
X6475000Y13014999D01*
X6365858Y13595857D02*
X7154142D01*
X6360000Y13589999D02*
X6365858Y13595857D01*
X6360000Y13230000D02*
X6475000Y13114999D01*
X6360000Y13230000D02*
Y13589999D01*
X6340000Y13610001D02*
X6345858Y13615858D01*
X7174142D01*
X6325858Y13635858D02*
X7194142D01*
X6320000Y13070000D02*
Y13630000D01*
X6325858Y13635858D01*
X6320000Y13070000D02*
X6475000Y12914999D01*
X6300000Y13650000D02*
X6305858Y13655858D01*
X7214142D01*
X7220000Y13650000D01*
X7174142Y13615858D02*
X7180000Y13610001D01*
X7154142Y13595857D02*
X7160000Y13589999D01*
X7220000Y8900000D02*
Y13650000D01*
X7180000Y10220000D02*
Y13610001D01*
X7160000Y10290000D02*
Y13589999D01*
X7200000Y10140000D02*
Y13630000D01*
X7194142Y13635858D02*
X7200000Y13630000D01*
X6450000Y9920000D02*
X7080000Y10550000D01*
X6970000Y12665000D02*
X7080000Y12555000D01*
Y10550000D02*
Y12555000D01*
X6560000Y9960000D02*
X7100000Y10500000D01*
X6970000Y12765000D02*
X7100000Y12635000D01*
Y10500000D02*
Y12635000D01*
X6970000Y12864999D02*
X7120000Y12715000D01*
X6670000Y10000000D02*
X7120000Y10450000D01*
Y12715000D01*
X6780000Y10030000D02*
X7140000Y10390000D01*
X6970000Y12964999D02*
X7140000Y12795000D01*
Y10390000D02*
Y12795000D01*
X6890000Y10020000D02*
X7160000Y10290000D01*
X7000000Y10040000D02*
X7180000Y10220000D01*
X7110000Y10050000D02*
X7200000Y10140000D01*
X7110000Y8900000D02*
Y10050000D01*
X7000000Y8900000D02*
Y10040000D01*
X6560000Y8900000D02*
Y9960000D01*
X6880000Y12864999D02*
X6970000D01*
X6880000Y12665000D02*
X6970000D01*
X6880000Y12964999D02*
X6970000D01*
X6880000Y12765000D02*
X6970000D01*
X4150000Y13939999D02*
X8494142D01*
X8500000Y13934142D01*
X3840000Y13630000D02*
X4150000Y13939999D01*
X6475000Y12914999D02*
X6600000D01*
X6475000Y13114999D02*
X6600000D01*
X6780000Y8900000D02*
Y10030000D01*
X6890000Y8900000D02*
Y10020000D01*
X6670000Y8900000D02*
Y10000000D01*
X6450000Y8900000D02*
Y9920000D01*
X5844000Y10261000D02*
X5970000Y10135000D01*
Y9240000D02*
Y10135000D01*
X5687002Y9082999D02*
X5770000Y9000001D01*
Y8990000D02*
Y9000001D01*
X3499998Y9082999D02*
X5687002D01*
X4722998Y9130000D02*
X5770000D01*
X3499998Y10353000D02*
X4722998Y9130000D01*
X2754995Y6425006D02*
X7859998D01*
X2350000Y6830000D02*
X2754995Y6425005D01*
X7300000Y2425000D02*
X7860002D01*
X7860003Y2425001D01*
X8360000Y3760000D02*
X8595002Y3995002D01*
Y7175002D01*
X8544142Y3680000D02*
X8550000Y3674142D01*
X8510000Y3080855D02*
Y3634142D01*
X8504142Y3640000D02*
X8510000Y3634142D01*
X7165000Y3640000D02*
X8504142D01*
X6805000Y3680000D02*
X8544142D01*
X8530000Y2980856D02*
Y3654142D01*
X6985000Y3660000D02*
X8524142D01*
X8550000Y2880856D02*
Y3674142D01*
X8524142Y3660000D02*
X8530000Y3654142D01*
X8140003Y3174997D02*
X8354142D01*
X8360000Y3180855D02*
Y3560000D01*
X8354142Y3174997D02*
X8360000Y3180855D01*
X8500000Y13650000D02*
Y13934142D01*
Y13650000D02*
X8960000Y13189999D01*
Y7540000D02*
Y13189999D01*
X8595002Y7175002D02*
X8960000Y7540000D01*
X8139997Y7175002D02*
X8595002D01*
X3560000Y13630000D02*
X3840000D01*
X3400000Y13750000D02*
X3440000D01*
X3560000Y13630000D01*
X3740000Y6930000D02*
X5950999D01*
X3740000D02*
Y8400000D01*
X2280000Y6930000D02*
X3740000D01*
X7094996Y7225004D02*
X7859998D01*
X7500000Y3225000D02*
X7860003D01*
X7600000Y7150000D02*
X7624354D01*
X7649350Y7125004D01*
X7859998D01*
X7860003Y3125000D02*
X7860003Y3125000D01*
X7600000Y3125000D02*
X7860003D01*
X1624142Y9010000D02*
X1734142Y8900000D01*
X1800000D01*
X1620000Y10220000D02*
X1690000Y10150000D01*
X1800000D01*
X1980000Y2285858D02*
Y3190000D01*
X3574995Y2280000D02*
X3730000Y2124995D01*
X1985858Y2280000D02*
X3574995D01*
X1980000Y2285858D02*
X1985858Y2280000D01*
X1730000Y5480000D02*
X1980000Y5230000D01*
X1730000Y5480000D02*
Y6380000D01*
X1980000Y4520000D02*
Y5230000D01*
X1603001Y5406999D02*
X1730000Y5280000D01*
Y4510000D02*
Y5280000D01*
X1603001Y5406999D02*
Y6161998D01*
X1730000Y3440000D02*
Y4270000D01*
X1980000Y4520000D01*
X1730000Y3440000D02*
X1980000Y3190000D01*
Y4520000D02*
X2040000Y4460000D01*
X1603005Y4062000D02*
Y4383005D01*
X1730000Y4510000D01*
X1603005Y3256995D02*
Y4062000D01*
X1730000Y2195858D02*
Y3130000D01*
X1603005Y3256995D02*
X1730000Y3130000D01*
Y2195858D02*
X1735858Y2190000D01*
X3375002D01*
X1730000Y6380000D02*
X2280000Y6930000D01*
X5950999D02*
X6143000Y6737998D01*
X1603001Y6523001D02*
X3020000Y7940000D01*
X3597142D01*
X2040000Y4460000D02*
X3965003D01*
X4143001Y4637998D01*
X2025005Y4230000D02*
X5420000D01*
X6825000Y2825000D01*
X1857005Y4062000D02*
X2025005Y4230000D01*
X3730000Y640000D02*
Y2124995D01*
Y345858D02*
Y640000D01*
Y2124995D02*
X4143005Y2538000D01*
X3724142Y340000D02*
X3730000Y345858D01*
X6137146Y650000D02*
X6143004Y644142D01*
X3740000Y650000D02*
X6137146D01*
X6143004Y437998D02*
Y644142D01*
X3730000Y640000D02*
X3740000Y650000D01*
X1152002Y437998D02*
X3349004D01*
X1603001Y6161998D02*
Y6523001D01*
X3603000Y7945858D02*
Y8261998D01*
X3597142Y7940000D02*
X3603000Y7945858D01*
X3375002Y2190000D02*
X3603004Y1961998D01*
X3199999Y1109999D02*
X3603004Y1513004D01*
Y1961998D01*
X1024142Y1109999D02*
X3199999D01*
X960000Y8370000D02*
X1170000D01*
X1278002Y8261998D02*
X3071998D01*
X1170000Y8370000D02*
X1278002Y8261998D01*
X1349001Y6161998D02*
Y6539001D01*
X3071998Y8261998D02*
X3349000D01*
X1349001Y6539001D02*
X3071998Y8261998D01*
X880000Y4010000D02*
Y8050000D01*
X1080000Y8250000D01*
X1368002Y1961998D02*
X3349004D01*
X880000Y2450000D02*
X1368002Y1961998D01*
X880000Y2450000D02*
Y4010000D01*
X932000Y4062000D01*
X1349005D01*
X730000Y1960000D02*
X857000D01*
Y2213001D01*
Y1649997D02*
Y1960000D01*
X720000Y1950000D02*
X730000Y1960000D01*
X730003Y859998D02*
X1152002Y437998D01*
X730003Y859998D02*
Y1640000D01*
X603000Y1649997D02*
X704145D01*
X710003Y849998D02*
Y1644139D01*
X704145Y1649997D02*
X710003Y1644139D01*
X740000Y1649997D02*
X857000D01*
X730003Y1640000D02*
X740000Y1649997D01*
X603000Y427001D02*
X970000Y60000D01*
X1710000D01*
X603000Y427001D02*
Y1109999D01*
X1850000Y200000D02*
X2100000D01*
X1710000Y60000D02*
X1850000Y200000D01*
X490000Y2610000D02*
X1030000Y2070000D01*
X1024142Y1109999D02*
X1030000Y1115857D01*
Y2070000D01*
X857000Y1109999D02*
X1024142D01*
X495858Y11930000D02*
X910000D01*
X490000Y2610000D02*
Y11924142D01*
X495858Y11930000D01*
X470000Y2600000D02*
Y12500000D01*
Y2600000D02*
X857000Y2213001D01*
X470000Y12500000D02*
X690000Y12720000D01*
X450000Y12510000D02*
X1150000Y13210001D01*
X430000Y1121716D02*
Y13360001D01*
Y1121716D02*
X441716Y1110000D01*
X450000Y2590000D02*
Y12510000D01*
Y2590000D02*
X590000Y2450000D01*
X430000Y13360001D02*
X970000Y13900000D01*
X1450000D01*
X441716Y1110000D02*
X602998D01*
X603000Y1109999D01*
X1300000Y13750000D02*
X1450000Y13900000D01*
X1300000Y13750000D02*
X1300000D01*
X1450000Y13900000D02*
X2250000D01*
X2100000Y13750000D02*
X2250000Y13900000D01*
X2100000Y13750000D02*
X2100000D01*
X2250000Y13900000D02*
X3050000D01*
X2900000Y13750000D02*
X3050000Y13900000D01*
X2900000Y13750000D02*
X2900000D01*
X3550000Y13900000D02*
X3700000Y13750000D01*
X3050000Y13900000D02*
X3550000D01*
X3700000Y13750000D02*
X3700000D01*
X1150000Y13210001D02*
X3491004D01*
X690000Y12720000D02*
X920000D01*
X1110000D01*
X590000Y1662997D02*
Y2450000D01*
Y1662997D02*
X603000Y1649997D01*
X910000Y11930000D02*
X920000Y11940000D01*
X2902303Y10789999D02*
Y10932303D01*
X3020000Y11050000D01*
X3300000D01*
X2902301Y9559999D02*
Y9702301D01*
X3000000Y9800000D01*
X3300000D01*
X8360000Y10900000D02*
X8750000D01*
X3410000Y10480000D02*
X3499998D01*
X3190001Y10260001D02*
X3410000Y10480000D01*
X3097699Y10260001D02*
X3190001D01*
X3097700Y10789999D02*
X3316999D01*
X3499998Y10607000D01*
X2539999Y10260001D02*
X2902302D01*
X2399999Y10400001D02*
Y10592303D01*
Y10400001D02*
X2539999Y10260001D01*
X2206443Y11177700D02*
X2399999Y10984143D01*
Y10787700D02*
Y10984143D01*
Y10787700D02*
X2900004D01*
X2902303Y10789999D01*
X900000Y11177700D02*
X2206443D01*
X2187697Y10592303D02*
X2399999D01*
X1580000Y10700000D02*
X2080000D01*
X2187697Y10592303D01*
X1559501Y10679501D02*
X1580000Y10700000D01*
X1559501Y10427498D02*
Y10679501D01*
X1620000Y10220000D02*
X1686501Y10286501D01*
X980000Y10220000D02*
X1620000D01*
X1686501Y10286501D02*
Y10427498D01*
X900000Y10300000D02*
X980000Y10220000D01*
X900000Y10300000D02*
Y10442300D01*
X909802Y10972501D02*
X1559501D01*
X900000Y10982302D02*
X909802Y10972501D01*
X3379999Y9209999D02*
X3499998D01*
X3097701Y9020001D02*
X3190001D01*
X3379999Y9209999D01*
X3276998Y9559999D02*
X3499998Y9336999D01*
X3097698Y9559999D02*
X3276998D01*
X2399999Y9557697D02*
X2900000D01*
X2902301Y9559999D01*
X2489999Y9020001D02*
X2902299D01*
X2399999Y9110001D02*
X2489999Y9020001D01*
X2399999Y9110001D02*
Y9362300D01*
X2187700D02*
X2399999D01*
X1570000Y9450000D02*
X2100000D01*
X2187700Y9362300D01*
X1559501Y9439501D02*
X1570000Y9450000D01*
X1559501Y9177498D02*
Y9439501D01*
X2399999Y9557697D02*
Y9750001D01*
X2242300Y9907701D02*
X2399999Y9750001D01*
X900000Y9907701D02*
X2242300D01*
X1624142Y9010000D02*
X1686501Y9072359D01*
Y9177498D01*
X1092501Y9010000D02*
X1624142D01*
X910200Y9192301D02*
X1092501Y9010000D01*
X900000Y9192301D02*
X910200D01*
X910202Y9722501D02*
X1559501D01*
X900000Y9712298D02*
X910202Y9722501D01*
X900000Y9387699D02*
Y9712298D01*
Y10637698D02*
Y10982302D01*
X3433502Y12675858D02*
Y12916362D01*
X2925858Y12670000D02*
X3427644D01*
X2920000Y11688000D02*
Y12664142D01*
X2925858Y12670000D01*
X3427644D02*
X3433502Y12675858D01*
X3020000Y12780000D02*
X3110000Y12690000D01*
X3310000Y12695858D02*
Y12912865D01*
X3110000Y12690000D02*
X3304142D01*
X3310000Y12695858D01*
X3306502Y12916362D02*
X3310000Y12912865D01*
X3730000Y11560000D02*
X4760000Y10530000D01*
X3730000Y11560000D02*
Y12450000D01*
X4760000Y9235858D02*
Y10530000D01*
X4740000Y9215858D02*
Y10520000D01*
X3580000Y11680000D02*
X4740000Y10520000D01*
Y9215858D02*
X4745858Y9210000D01*
X5584142D01*
X4765858Y9230000D02*
X5464142D01*
X4760000Y9235858D02*
X4765858Y9230000D01*
X5584142Y9210000D02*
X5590000Y9215858D01*
Y9457000D01*
X5470000Y9235858D02*
Y9890000D01*
X5464142Y9230000D02*
X5470000Y9235858D01*
Y9890000D02*
X5590000Y10010000D01*
X3270000Y11680000D02*
X3580000D01*
X5590000Y10010000D02*
Y10303000D01*
X5336000D02*
X5340000Y10307000D01*
X3275858Y12200000D02*
X3554644D01*
X3560502Y12205858D02*
Y12443643D01*
X3554644Y12200000D02*
X3560502Y12205858D01*
X1310500Y12920500D02*
X1498800D01*
X1110000Y12720000D02*
X1310500Y12920500D01*
X920000Y11940000D02*
X1210000D01*
X1290500Y12020500D01*
X1498800D01*
X920000Y12330000D02*
Y12440000D01*
Y12220000D02*
Y12330000D01*
X1770000Y12330000D02*
Y12787642D01*
Y12295858D02*
Y12330000D01*
X920000Y12330000D02*
X1770000D01*
X1770000Y12330000D01*
X3491004Y13210001D02*
X3560502Y13140501D01*
X2570000Y12290000D02*
X2680000D01*
X1770000Y12295858D02*
X1775858Y12290000D01*
X2570000D01*
Y12638000D01*
Y11972000D02*
Y12290000D01*
X1764142Y12793500D02*
X1770000Y12787642D01*
X1498800Y12793500D02*
X1764142D01*
X1498800Y11893500D02*
X1764142D01*
X1770000Y11887642D01*
Y11485858D02*
X1775858Y11480000D01*
X2564142D01*
X1770000Y11485858D02*
Y11887642D01*
X2564142Y11480000D02*
X2570000Y11485858D01*
Y11688000D01*
X2920000D02*
X3262000D01*
X2570000D02*
X2920000D01*
X2285858Y11972000D02*
X2570000D01*
X2280000Y11645358D02*
Y11966142D01*
X2041200Y11639500D02*
X2274142D01*
X2280000Y11645358D01*
Y11966142D02*
X2285858Y11972000D01*
X3262000Y11688000D02*
X3270000Y11680000D01*
Y11980000D02*
Y12194142D01*
X3275858Y12200000D01*
X2041200Y12920500D02*
X2568500D01*
X2570000Y12922000D01*
X2580000Y12932001D01*
Y13144142D01*
X2585858Y13150000D02*
X3300000D01*
X2580000Y13144142D02*
X2585858Y13150000D01*
X3306502Y12916362D02*
Y13143498D01*
X3300000Y13150000D02*
X3306502Y13143498D01*
X3880000Y13460001D02*
X5220000D01*
X3560502Y13140501D02*
X3880000Y13460001D01*
X3560502Y12916362D02*
Y13140501D01*
X7500000Y10460000D02*
Y11800000D01*
X7671400Y11971400D02*
Y12402300D01*
X7500000Y11800000D02*
X7671400Y11971400D01*
X7500000Y10460000D02*
X7560000Y10400000D01*
Y9390000D02*
Y10400000D01*
Y9390000D02*
X7750000Y9200000D01*
X7580000Y10400000D02*
X7671400Y10491400D01*
X7720000Y9950000D02*
X7750000D01*
X7580000Y10090000D02*
X7720000Y9950000D01*
X7580000Y10090000D02*
Y10400000D01*
X7671400Y10491400D02*
Y10702300D01*
X7900000Y11531610D02*
X7941610Y11490000D01*
X8370000D01*
X8530000Y11650000D02*
X8750000D01*
X8370000Y11490000D02*
X8530000Y11650000D01*
X8668390Y13231610D02*
X8750000Y13150000D01*
X7900000Y13231610D02*
X8668390D01*
X8180000Y10150000D02*
X8750000D01*
X7750000Y10200000D02*
X8130000D01*
X8180000Y10150000D01*
X7750000Y9450000D02*
X8150000D01*
X8200000Y9400000D01*
X8750000D01*
Y12900000D02*
X8910000Y12740000D01*
Y11990000D02*
Y12740000D01*
Y9310000D02*
Y11990000D01*
X8750000Y12150000D02*
X8910000Y11990000D01*
X8750000Y9150000D02*
X8910000Y9310000D01*
X8890000Y10040000D02*
Y10530000D01*
X8750000Y9900000D02*
X8890000Y10040000D01*
X8750000Y11400000D02*
X8890000Y11260000D01*
Y10530000D02*
Y11260000D01*
X8770000Y10650000D02*
X8890000Y10530000D01*
X8750000Y10650000D02*
X8770000D01*
X5844000Y10261000D02*
Y10303000D01*
X8670000Y8640000D02*
X8750000D01*
X5844000Y9216000D02*
Y9457000D01*
X5080000Y9459000D02*
X5082000Y9457000D01*
X4440000Y11755000D02*
X4445000Y11760000D01*
X4875000D02*
X4912500D01*
X5825000D02*
X5862500D01*
X5395000D02*
X5400000Y11765000D01*
X4960000Y12315000D02*
X6600000D01*
X4765000Y12320000D02*
X4783000Y12338000D01*
Y13280000D01*
X5705000Y12450000D02*
X5713000Y12458000D01*
Y13270000D01*
X4955000Y12320000D02*
X4960000Y12315000D01*
X5895000Y12450000D02*
X6050000D01*
X6085000Y12415000D02*
X6600000D01*
X6050000Y12450000D02*
X6085000Y12415000D01*
X8544142Y2874998D02*
X8550000Y2880856D01*
X8140003Y2874998D02*
X8544142D01*
X8140003Y3074997D02*
X8504142D01*
X8510000Y3080855D01*
X8140003Y2974998D02*
X8524142D01*
X8530000Y2980856D01*
X6450000Y3325000D02*
X6805000Y3680000D01*
X6550000Y3225000D02*
X6985000Y3660000D01*
X6650000Y3125000D02*
X7165000Y3640000D01*
X6750000Y3025000D02*
X7860003D01*
X7860003Y2925000D02*
X7860003Y2925000D01*
X6850000Y2925000D02*
X7860003D01*
X3001005Y4190000D02*
X5401716D01*
X2513005Y4210000D02*
X5410000D01*
X5393432Y4170000D02*
X7038431Y2525001D01*
X7860003D01*
X6966715Y2625001D02*
X7860003D01*
X5410000Y4210000D02*
X6895000Y2725001D01*
X7860003D01*
X3489005Y4170000D02*
X5393432D01*
X6825000Y2825000D02*
X7860003D01*
X5401716Y4190000D02*
X6966715Y2625001D01*
X8140005Y2775000D02*
X8500000D01*
X8140003Y2774998D02*
X8140005Y2775000D01*
X8140005Y2675000D02*
X8400000D01*
X8140003Y2674998D02*
X8140005Y2675000D01*
X8140003Y2574998D02*
X8140004Y2575000D01*
X8510000D01*
X8140004Y2475000D02*
X8400000D01*
X8140003Y2474999D02*
X8140004Y2475000D01*
X2365005Y4062000D02*
X2513005Y4210000D01*
X3381005Y4062000D02*
X3489005Y4170000D01*
X2873005Y4062000D02*
X3001005Y4190000D01*
X7140000Y275858D02*
Y1294142D01*
X5041002Y270000D02*
X7134142D01*
X7140000Y275858D01*
Y1294142D02*
X7145858Y1300000D01*
X8604142D01*
X8610000Y1305858D01*
Y2140000D01*
X7120000Y295858D02*
Y1314142D01*
X7125858Y1320000D02*
X8584142D01*
X7114142Y290000D02*
X7120000Y295858D01*
X5529002Y290000D02*
X7114142D01*
X7120000Y1314142D02*
X7125858Y1320000D01*
X7099493Y315858D02*
Y1333635D01*
X7105858Y1340000D01*
X8564142D01*
X5889004Y437998D02*
X6017002Y310000D01*
X7093635D02*
X7099493Y315858D01*
X6017002Y310000D02*
X7093635D01*
X8590000Y1325858D02*
Y2130000D01*
X8584142Y1320000D02*
X8590000Y1325858D01*
X8564142Y1340000D02*
X8570000Y1345858D01*
Y2121716D01*
X5381004Y437998D02*
X5529002Y290000D01*
X7500000Y2225000D02*
X7860000D01*
X7860003Y2224997D01*
X7860002Y2325000D02*
X7860003Y2325001D01*
X7600000Y2325000D02*
X7860002D01*
X8140003Y2374999D02*
X8375001D01*
X8610000Y2140000D01*
X4873004Y437998D02*
X5041002Y270000D01*
X8140003Y2274999D02*
X8445001D01*
X8590000Y2130000D01*
X8516717Y2174999D02*
X8570000Y2121716D01*
X8140003Y2174999D02*
X8516717D01*
X8140003Y1975000D02*
X8400000D01*
X8140003Y2074999D02*
X8140003Y2075000D01*
X8140003Y1975000D02*
X8140003Y1975000D01*
X7385003Y2124997D02*
X7860003D01*
X7455003Y2024997D02*
X7860003D01*
X7525003Y1924997D02*
X7860003D01*
X7595003Y1824997D02*
X7860003D01*
X3095003Y4860000D02*
X6185000D01*
X6450000Y5125000D01*
X6290000Y4840000D02*
X6450000Y5000000D01*
X3329003Y4840000D02*
X6290000D01*
X3563003Y4820000D02*
X6395000D01*
X6450000Y4875000D01*
X2873001Y4637998D02*
X3095003Y4860000D01*
X3127001Y4637998D02*
X3329003Y4840000D01*
X6564142Y4800000D02*
X6570000Y4805858D01*
X3797003Y4800000D02*
X6564142D01*
X3381001Y4637998D02*
X3563003Y4820000D01*
X3635001Y4637998D02*
X3797003Y4800000D01*
X4031003Y4780000D02*
X8384142D01*
X8390000Y4785858D01*
X3889001Y4637998D02*
X4031003Y4780000D01*
X7005000Y4820000D02*
X8344142D01*
X6700000Y5125000D02*
X7005000Y4820000D01*
X6700000Y4875000D02*
X6775000Y4800000D01*
X8364142D01*
X6642112Y4955752D02*
X6686360Y5000000D01*
X6690000D01*
X8350000Y4825858D02*
Y5769146D01*
X8370000Y4805858D02*
Y5874142D01*
X8390000Y4785858D02*
Y5969146D01*
X8364142Y4800000D02*
X8370000Y4805858D01*
X8344142Y4820000D02*
X8350000Y4825858D01*
X8344142Y5775004D02*
X8350000Y5769146D01*
X8139997Y5775004D02*
X8344142D01*
X8144993Y5880000D02*
X8364142D01*
X8370000Y5874142D01*
X8139997Y5975004D02*
X8384142D01*
X8390000Y5969146D01*
X6595858Y4955752D02*
X6642112D01*
X6590000Y4961610D02*
Y5819144D01*
Y4961610D02*
X6595858Y4955752D01*
X6590000Y5819144D02*
X6595858Y5825002D01*
X7859998D01*
X6570000Y4805858D02*
Y5919144D01*
X6575858Y5925002D02*
X7859998D01*
X6570000Y5919144D02*
X6575858Y5925002D01*
X8139997Y5875004D02*
X8145001Y5870000D01*
X8139997Y7075002D02*
X8139999Y7075000D01*
X8400000D01*
X8139999Y6975000D02*
X8500000D01*
X8139997Y6975002D02*
X8139999Y6975000D01*
X8139999Y6875000D02*
X8400000D01*
X8139997Y6875002D02*
X8139999Y6875000D01*
X8140000Y6775000D02*
X8500000D01*
X8139997Y6775002D02*
X8140000Y6775000D01*
X6680000Y7610000D02*
X7264996Y7025004D01*
X7859998D01*
X7334995Y6925005D02*
X7859998D01*
X7474995Y6725005D02*
X7859998D01*
X6670000Y7590000D02*
X7334995Y6925005D01*
X6660000Y7570000D02*
X7404995Y6825005D01*
X6650000Y7550000D02*
X7474995Y6725005D01*
X4568999Y7550000D02*
X6650000D01*
X7404995Y6825005D02*
X7859998D01*
X3857000Y8261998D02*
X4568999Y7550000D01*
X5822999Y6550000D02*
X7280000D01*
X7355005Y6625005D02*
X7859998D01*
X7280000Y6550000D02*
X7355005Y6625005D01*
X5635000Y6737998D02*
X5822999Y6550000D01*
X5339993Y6525005D02*
X7859998D01*
X5127000Y6737998D02*
X5339993Y6525005D01*
X8139997Y6475003D02*
X8140000Y6475000D01*
X8400000D01*
X8139997Y6575003D02*
X8140000Y6575000D01*
X8500000D01*
X8139997Y6675003D02*
X8140000Y6675000D01*
X8400000D01*
Y6075004D02*
X8404996D01*
X8139997D02*
X8400000D01*
X8139997Y6375003D02*
X8499997D01*
X8139997Y6275003D02*
X8399996D01*
X8494996Y6175004D02*
X8500000Y6170000D01*
X8139997Y6175004D02*
X8494996D01*
X6430000Y6320000D02*
X7854992D01*
X3381001Y6161998D02*
Y6161998D01*
X6215001Y6045001D02*
X6295001Y6125001D01*
X6205001Y6065001D02*
X6350001Y6210001D01*
X7854992Y6320000D02*
X7859998Y6325006D01*
X6350001Y6210001D02*
X7844998D01*
X6295001Y6125001D02*
X7859998D01*
X7844998Y6210001D02*
X7859998Y6225001D01*
X8139997Y5875004D02*
X8144993Y5880000D01*
D30*
X6310000Y12670000D02*
X6310000D01*
X5840000Y13139999D02*
X6310000Y12670000D01*
X5840000Y13139999D02*
Y13360001D01*
X5080000Y9459000D02*
Y9960000D01*
X5336000Y9457000D02*
Y10303000D01*
X5340000Y10307000D02*
Y10550000D01*
X6321250Y11301250D02*
X6407500Y11215000D01*
X6161250Y11461250D02*
X6321250Y11301250D01*
X6320000D02*
X6321250D01*
X6098000Y11079250D02*
X6320000Y11301250D01*
X4440000Y11440000D02*
Y11755000D01*
Y11440000D02*
X5082000Y10798000D01*
Y10303000D02*
Y10798000D01*
X6098000Y9457000D02*
Y10303000D01*
X5211250Y11461250D02*
X6161250D01*
X6098000Y10303000D02*
Y11079250D01*
X5862500Y11760000D02*
X6161250Y11461250D01*
X4912500Y11760000D02*
X5211250Y11461250D01*
X6407500Y11215000D02*
X6600000D01*
X4910000Y13150000D02*
X5220000Y13460001D01*
X5740000D01*
X5840000Y13360001D01*
X4445000Y12939000D02*
X4656000Y13150000D01*
X4445000Y11760000D02*
Y12939000D01*
X5400000Y11765000D02*
Y12220000D01*
Y12420000D02*
Y12953999D01*
X5586000Y13139999D01*
D31*
D03*
X5713000Y13270000D02*
D03*
X5840000Y13139999D02*
D03*
X4656000Y13150000D02*
D03*
X4783000Y13280000D02*
D03*
X4910000Y13150000D02*
D03*
D32*
X3349000Y8261998D02*
D03*
X3603000D02*
D03*
X3857000D02*
D03*
X4111000D02*
D03*
X4365000D02*
D03*
X4619000D02*
D03*
X4873000D02*
D03*
X5127000D02*
D03*
X5381000D02*
D03*
X5635000D02*
D03*
X5889000D02*
D03*
X6143000D02*
D03*
X6397000D02*
D03*
X6651000D02*
D03*
Y6737998D02*
D03*
X6397000D02*
D03*
X6143000D02*
D03*
X5889000D02*
D03*
X5635000D02*
D03*
X5381000D02*
D03*
X5127000D02*
D03*
X4873000D02*
D03*
X4619000D02*
D03*
X4365000D02*
D03*
X4111000D02*
D03*
X3857000D02*
D03*
X3603000D02*
D03*
X1603005Y2538000D02*
D03*
X1857005D02*
D03*
X2111005D02*
D03*
X2365005D02*
D03*
X2619005D02*
D03*
X2873005D02*
D03*
X3127005D02*
D03*
X3381005D02*
D03*
X3635005D02*
D03*
X3889005D02*
D03*
X4143005D02*
D03*
X4397005D02*
D03*
X4651005D02*
D03*
Y4062000D02*
D03*
X4397005D02*
D03*
X4143005D02*
D03*
X3889005D02*
D03*
X3635005D02*
D03*
X3381005D02*
D03*
X3127005D02*
D03*
X2873005D02*
D03*
X2619005D02*
D03*
X2365005D02*
D03*
X2111005D02*
D03*
X1857005D02*
D03*
X1603005D02*
D03*
X1349005D02*
D03*
X3349004Y1961998D02*
D03*
X3603004D02*
D03*
X3857004D02*
D03*
X4111004D02*
D03*
X4365004D02*
D03*
X4619004D02*
D03*
X4873004D02*
D03*
X5127004D02*
D03*
X5381004D02*
D03*
X5635004D02*
D03*
X5889004D02*
D03*
X6143004D02*
D03*
X6397004D02*
D03*
X6651004D02*
D03*
Y437998D02*
D03*
X6397004D02*
D03*
X6143004D02*
D03*
X5889004D02*
D03*
X5635004D02*
D03*
X5381004D02*
D03*
X5127004D02*
D03*
X4873004D02*
D03*
X4619004D02*
D03*
X4365004D02*
D03*
X4111004D02*
D03*
X3857004D02*
D03*
X3603004D02*
D03*
X1603001Y4637998D02*
D03*
X1857001D02*
D03*
X2111001D02*
D03*
X2365001D02*
D03*
X2619001D02*
D03*
X2873001D02*
D03*
X3127001D02*
D03*
X3381001D02*
D03*
X3635001D02*
D03*
X3889001D02*
D03*
X4143001D02*
D03*
X4397001D02*
D03*
X4651001D02*
D03*
Y6161998D02*
D03*
X4397001D02*
D03*
X4143001D02*
D03*
X3889001D02*
D03*
X3635001D02*
D03*
X3381001D02*
D03*
X3127001D02*
D03*
X2873001D02*
D03*
X2619001D02*
D03*
X2365001D02*
D03*
X2111001D02*
D03*
X1857001D02*
D03*
X1603001D02*
D03*
X1349001D02*
D03*
D33*
X3349000Y6737998D02*
D03*
X1349005Y2538000D02*
D03*
X3349004Y437998D02*
D03*
X1349001Y4637998D02*
D03*
D34*
X1850000Y200000D02*
D03*
X2100000D02*
D03*
X3400000Y13750000D02*
D03*
X2600000D02*
D03*
X1800000D02*
D03*
X1370000Y210000D02*
D03*
X1120000D02*
D03*
X7400000Y9200000D02*
D03*
Y9450000D02*
D03*
X7750000Y9950000D02*
D03*
Y9450000D02*
D03*
Y10200000D02*
D03*
Y9200000D02*
D03*
X7400000Y10200000D02*
D03*
Y9950000D02*
D03*
X1000000Y13750000D02*
D03*
D35*
X8750000Y8640000D02*
D03*
Y9400000D02*
D03*
Y10150000D02*
D03*
Y10900000D02*
D03*
Y11650000D02*
D03*
Y12400000D02*
D03*
Y13150000D02*
D03*
D36*
Y8400000D02*
D03*
Y9150000D02*
D03*
Y9900000D02*
D03*
Y10650000D02*
D03*
Y11400000D02*
D03*
Y12150000D02*
D03*
Y12900000D02*
D03*
D37*
X3700000Y13750000D02*
D03*
X2900000D02*
D03*
X2100000D02*
D03*
X1300000D02*
D03*
D38*
X5500000Y5500000D02*
D03*
X8750000Y250000D02*
D03*
X250000D02*
D03*
X8750000Y13750000D02*
D03*
X250000D02*
D03*
D39*
X3499998Y9082999D02*
D03*
Y9209999D02*
D03*
Y10480000D02*
D03*
Y10353000D02*
D03*
D40*
Y9336999D02*
D03*
Y10607000D02*
D03*
D41*
X8500000Y1875000D02*
D03*
Y2075000D02*
D03*
X8400000Y1775000D02*
D03*
X6620000Y2280000D02*
D03*
X6730000D02*
D03*
X6840000D02*
D03*
X6950000D02*
D03*
X5960000Y2550000D02*
D03*
X6070000D02*
D03*
X6180000D02*
D03*
X6290000D02*
D03*
X5710000Y3420000D02*
D03*
X5600000D02*
D03*
X5490000D02*
D03*
X5380000D02*
D03*
X5080000Y3330000D02*
D03*
X4970000Y3220000D02*
D03*
X4230000Y4950000D02*
D03*
X4340000D02*
D03*
X4450000D02*
D03*
X4990000Y4310000D02*
D03*
X5100000D02*
D03*
X5210000D02*
D03*
X5320000D02*
D03*
Y4560000D02*
D03*
X5210000D02*
D03*
X5100000D02*
D03*
X4990000D02*
D03*
X4560000Y4950000D02*
D03*
Y5900000D02*
D03*
X4450000D02*
D03*
X4340000D02*
D03*
X4230000D02*
D03*
X4580000Y7050000D02*
D03*
X4470000D02*
D03*
X4360000D02*
D03*
X4250000D02*
D03*
X7535000Y8250000D02*
D03*
X7470000Y8150000D02*
D03*
X7400000Y8050000D02*
D03*
X7330000Y7950000D02*
D03*
X6340000Y7450000D02*
D03*
X6230000D02*
D03*
X6120000D02*
D03*
X6010000D02*
D03*
X2170000Y2080000D02*
D03*
X1810000D02*
D03*
X7000000Y8400000D02*
D03*
X6890000D02*
D03*
X7110000Y8550000D02*
D03*
X6890000Y8720000D02*
D03*
X7220000Y8400000D02*
D03*
X7220000Y8720000D02*
D03*
X7000000D02*
D03*
X6670000D02*
D03*
X7440000D02*
D03*
X7330000D02*
D03*
X7110000D02*
D03*
X6780000D02*
D03*
X6310000Y12670000D02*
D03*
X6450000Y8900000D02*
D03*
X5770000Y8990000D02*
D03*
Y9130000D02*
D03*
X7220000Y8900000D02*
D03*
X7110000D02*
D03*
X7000000D02*
D03*
X6890000D02*
D03*
X6780000D02*
D03*
X6670000D02*
D03*
X6560000D02*
D03*
X2350000Y6830000D02*
D03*
X7300000Y2425000D02*
D03*
X8360000Y3560000D02*
D03*
Y3760000D02*
D03*
X7500000Y3225000D02*
D03*
X7600000Y7150000D02*
D03*
Y3125000D02*
D03*
X1800000Y10150000D02*
D03*
Y8900000D02*
D03*
X1080000Y8250000D02*
D03*
X960000Y8370000D02*
D03*
X750000Y1950000D02*
D03*
X3300000Y11050000D02*
D03*
Y9800000D02*
D03*
X5080000Y9960000D02*
D03*
X8360000Y10900000D02*
D03*
X5340000Y10550000D02*
D03*
X3730000Y12450000D02*
D03*
X3020000Y12780000D02*
D03*
X2680000Y12290000D02*
D03*
X3470000Y13210001D02*
D03*
X5400000Y12220000D02*
D03*
Y12420000D02*
D03*
X6850000Y2925000D02*
D03*
X6750000Y3025000D02*
D03*
X6650000Y3125000D02*
D03*
X6550000Y3225000D02*
D03*
X6450000Y3325000D02*
D03*
X8500000Y2775000D02*
D03*
X8400000Y2675000D02*
D03*
X8510000Y2575000D02*
D03*
X8400000Y2475000D02*
D03*
X7500000Y2225000D02*
D03*
X7600000Y2325000D02*
D03*
X8400000Y1975000D02*
D03*
X6450000Y4875000D02*
D03*
Y5000000D02*
D03*
Y5125000D02*
D03*
X6700000Y5000000D02*
D03*
Y4875000D02*
D03*
Y5125000D02*
D03*
X8400000Y7075000D02*
D03*
X8500000Y6975000D02*
D03*
X8400000Y6875000D02*
D03*
X8500000Y6775000D02*
D03*
X8400000Y6475000D02*
D03*
Y6675000D02*
D03*
X8500000Y6575000D02*
D03*
X8400000Y6275000D02*
D03*
X8500000Y6375000D02*
D03*
Y6175000D02*
D03*
X8400000Y6075004D02*
D03*
%TF.MD5,53d7d6f89b2a6ff0c754c6738dcbf445*%
M02*
