%TF.GenerationSoftware,Altium Limited,Altium Designer,24.0.1 (36)*%
G04 Layer_Color=0*
%FSLAX45Y45*%
%MOMM*%
%TF.SameCoordinates,BA06A275-F6DB-48CF-8214-C1EAF842E6E6*%
%TF.FilePolarity,Positive*%
%TF.FileFunction,Plated,1,2,PTH,Drill*%
%TF.Part,Single*%
G01*
G75*
%TA.AperFunction,OtherDrill,Pad Free-3 (30mm,-14.5mm)*%
%ADD30C,0.90000*%
%TA.AperFunction,ComponentDrill*%
%ADD31C,0.90000*%
%TA.AperFunction,OtherDrill,Pad Free-2 (25mm,-14.5mm)*%
%ADD32C,0.90000*%
%TA.AperFunction,OtherDrill,Pad Free-1 (20mm,-14.5mm)*%
%ADD33C,0.90000*%
%TA.AperFunction,OtherDrill,Pad Free-M2 (31mm,-19mm)*%
%ADD34C,2.00000*%
%TA.AperFunction,OtherDrill,Pad Free-M2 (31mm,19mm)*%
%ADD35C,2.00000*%
%TA.AperFunction,OtherDrill,Pad Free-M2 (17mm,19mm)*%
%ADD36C,2.00000*%
%TA.AperFunction,OtherDrill,Pad Free-M2 (17mm,-19mm)*%
%ADD37C,2.00000*%
%TA.AperFunction,ViaDrill,NotFilled*%
%ADD38C,0.71120*%
D30*
X3000000Y-1450000D02*
D03*
D31*
X1699999Y-999998D02*
D03*
Y950001D02*
D03*
Y650001D02*
D03*
Y200000D02*
D03*
Y350002D02*
D03*
X1400000Y275001D02*
D03*
Y124999D02*
D03*
Y875000D02*
D03*
Y725003D02*
D03*
Y424998D02*
D03*
Y-24998D02*
D03*
X1699999Y49998D02*
D03*
Y799999D02*
D03*
Y499999D02*
D03*
X1400000Y575000D02*
D03*
X1699999Y-100000D02*
D03*
X1400000Y-175001D02*
D03*
X1699999Y-250002D02*
D03*
X1400000Y-324998D02*
D03*
X1699999Y-399999D02*
D03*
X1400000Y-475000D02*
D03*
X1699999Y-550001D02*
D03*
X1400000Y-625002D02*
D03*
X1699999Y-699998D02*
D03*
X1400000Y-774999D02*
D03*
X1699999Y-850001D02*
D03*
X1400000Y-925002D02*
D03*
D32*
X2500000Y-1450000D02*
D03*
D33*
X2000000D02*
D03*
D34*
X3100000Y-1900000D02*
D03*
D35*
X3099999Y1900002D02*
D03*
D36*
X1699999D02*
D03*
D37*
Y-1900001D02*
D03*
D38*
X3625000Y-600000D02*
D03*
Y-750000D02*
D03*
Y-300000D02*
D03*
Y900000D02*
D03*
Y750000D02*
D03*
Y600000D02*
D03*
Y450000D02*
D03*
Y-900000D02*
D03*
Y-450000D02*
D03*
Y-150000D02*
D03*
Y150000D02*
D03*
Y300000D02*
D03*
Y0D02*
D03*
%TF.MD5,6e53b76aa99de05ea4328b7c01385ef9*%
M02*
