%TF.GenerationSoftware,Altium Limited,Altium Designer,24.0.1 (36)*%
G04 Layer_Color=8388736*
%FSLAX45Y45*%
%MOMM*%
%TF.SameCoordinates,BA06A275-F6DB-48CF-8214-C1EAF842E6E6*%
%TF.FilePolarity,Negative*%
%TF.FileFunction,Soldermask,Top*%
%TF.Part,Single*%
G01*
G75*
%TA.AperFunction,ComponentPad*%
G04:AMPARAMS|DCode=15|XSize=1mm|YSize=2mm|CornerRadius=0.25mm|HoleSize=0mm|Usage=FLASHONLY|Rotation=90.000|XOffset=0mm|YOffset=0mm|HoleType=Round|Shape=RoundedRectangle|*
%AMROUNDEDRECTD15*
21,1,1.00000,1.50000,0,0,90.0*
21,1,0.50000,2.00000,0,0,90.0*
1,1,0.50000,0.75000,0.25000*
1,1,0.50000,0.75000,-0.25000*
1,1,0.50000,-0.75000,-0.25000*
1,1,0.50000,-0.75000,0.25000*
%
%ADD15ROUNDEDRECTD15*%
%TA.AperFunction,SMDPad,CuDef*%
%ADD22R,1.70320X1.00320*%
%ADD23R,1.70320X0.60320*%
%TA.AperFunction,ViaPad*%
%ADD24C,2.20320*%
%ADD25C,1.72720*%
D15*
X1699999Y-999998D02*
D03*
Y950001D02*
D03*
Y650001D02*
D03*
Y200000D02*
D03*
Y350002D02*
D03*
X1400000Y275001D02*
D03*
Y124999D02*
D03*
Y875000D02*
D03*
Y725003D02*
D03*
Y424998D02*
D03*
Y-24998D02*
D03*
X1699999Y49998D02*
D03*
Y799999D02*
D03*
Y499999D02*
D03*
X1400000Y575000D02*
D03*
X1699999Y-100000D02*
D03*
X1400000Y-175001D02*
D03*
X1699999Y-250002D02*
D03*
X1400000Y-324998D02*
D03*
X1699999Y-399999D02*
D03*
X1400000Y-475000D02*
D03*
X1699999Y-550001D02*
D03*
X1400000Y-625002D02*
D03*
X1699999Y-699998D02*
D03*
X1400000Y-774999D02*
D03*
X1699999Y-850001D02*
D03*
X1400000Y-925002D02*
D03*
D22*
X2925001Y-799998D02*
D03*
X3205000D02*
D03*
Y850001D02*
D03*
X2925001D02*
D03*
D23*
X3205000Y-499999D02*
D03*
X2925001Y-450001D02*
D03*
X3205000Y-299999D02*
D03*
X2925001Y-250002D02*
D03*
X3205000Y-100000D02*
D03*
X2925001Y-50002D02*
D03*
Y149997D02*
D03*
X3205000Y100000D02*
D03*
X2925001Y350002D02*
D03*
X3205000Y300000D02*
D03*
Y599999D02*
D03*
X2925001Y650001D02*
D03*
X3205000Y699999D02*
D03*
X2925001Y750001D02*
D03*
X3205000Y499999D02*
D03*
X2925001Y550002D02*
D03*
X3205000Y399999D02*
D03*
X2925001Y450002D02*
D03*
X3205000Y200000D02*
D03*
X2925001Y250002D02*
D03*
Y49998D02*
D03*
X3205000Y0D02*
D03*
X2925001Y-150002D02*
D03*
X3205000Y-199999D02*
D03*
X2925001Y-350002D02*
D03*
X3205000Y-399999D02*
D03*
X2925001Y-550001D02*
D03*
Y-650001D02*
D03*
X3205000Y-599999D02*
D03*
Y-699998D02*
D03*
D24*
X3000000Y-1450000D02*
D03*
X2500000D02*
D03*
X2000000D02*
D03*
D25*
X3100000Y-1900000D02*
D03*
X3099999Y1900002D02*
D03*
X1699999D02*
D03*
Y-1900001D02*
D03*
%TF.MD5,32319a73bfeec0d0fa15484fabb6d03b*%
M02*
