%TF.GenerationSoftware,Altium Limited,Altium Designer,24.0.1 (36)*%
G04 Layer_Physical_Order=1*
G04 Layer_Color=255*
%FSLAX45Y45*%
%MOMM*%
%TF.SameCoordinates,BA06A275-F6DB-48CF-8214-C1EAF842E6E6*%
%TF.FilePolarity,Positive*%
%TF.FileFunction,Copper,L1,Top,Signal*%
%TF.Part,Single*%
G01*
G75*
%TA.AperFunction,SMDPad,CuDef*%
%ADD10R,1.50000X0.80000*%
%ADD11R,1.50000X0.40000*%
%TA.AperFunction,Conductor*%
%ADD12C,0.12700*%
%ADD13C,0.25400*%
%TA.AperFunction,ViaPad*%
%ADD14C,2.00000*%
%TA.AperFunction,ComponentPad*%
G04:AMPARAMS|DCode=15|XSize=1mm|YSize=2mm|CornerRadius=0.25mm|HoleSize=0mm|Usage=FLASHONLY|Rotation=90.000|XOffset=0mm|YOffset=0mm|HoleType=Round|Shape=RoundedRectangle|*
%AMROUNDEDRECTD15*
21,1,1.00000,1.50000,0,0,90.0*
21,1,0.50000,2.00000,0,0,90.0*
1,1,0.50000,0.75000,0.25000*
1,1,0.50000,0.75000,-0.25000*
1,1,0.50000,-0.75000,-0.25000*
1,1,0.50000,-0.75000,0.25000*
%
%ADD15ROUNDEDRECTD15*%
%TA.AperFunction,ViaPad*%
%ADD16C,1.52400*%
%ADD17C,1.27000*%
D10*
X2925001Y-799998D02*
D03*
X3205000D02*
D03*
Y850001D02*
D03*
X2925001D02*
D03*
D11*
X3205000Y-499999D02*
D03*
X2925001Y-450001D02*
D03*
X3205000Y-299999D02*
D03*
X2925001Y-250002D02*
D03*
X3205000Y-100000D02*
D03*
X2925001Y-50002D02*
D03*
Y149997D02*
D03*
X3205000Y100000D02*
D03*
X2925001Y350002D02*
D03*
X3205000Y300000D02*
D03*
Y599999D02*
D03*
X2925001Y650001D02*
D03*
X3205000Y699999D02*
D03*
X2925001Y750001D02*
D03*
X3205000Y499999D02*
D03*
X2925001Y550002D02*
D03*
X3205000Y399999D02*
D03*
X2925001Y450002D02*
D03*
X3205000Y200000D02*
D03*
X2925001Y250002D02*
D03*
Y49998D02*
D03*
X3205000Y0D02*
D03*
X2925001Y-150002D02*
D03*
X3205000Y-199999D02*
D03*
X2925001Y-350002D02*
D03*
X3205000Y-399999D02*
D03*
X2925001Y-550001D02*
D03*
Y-650001D02*
D03*
X3205000Y-599999D02*
D03*
Y-699998D02*
D03*
D12*
X2500000Y-1450000D02*
Y-825002D01*
X2675001Y-650001D01*
X2925001D01*
X3000000Y-1450000D02*
X3350000D01*
X3375000Y-1425000D02*
Y-750000D01*
X3350000Y-1450000D02*
X3375000Y-1425000D01*
X3324998Y-699998D02*
X3375000Y-750000D01*
X3275000Y-1650000D02*
X3450000Y-1475000D01*
X3299999Y-599999D02*
X3450000Y-750000D01*
Y-1475000D02*
Y-750000D01*
X2200000Y-1650000D02*
X3275000D01*
X2000000Y-1450000D02*
X2200000Y-1650000D01*
X3525000Y-800000D02*
X3625000Y-900000D01*
X3525000Y-800000D02*
Y-725000D01*
X3205000Y-599999D02*
X3299999D01*
X3205000Y-699998D02*
X3324998D01*
X3205000Y-399999D02*
X3299999D01*
X3625000Y-750000D02*
Y-725000D01*
X3299999Y-399999D02*
X3625000Y-725000D01*
X3615843Y-609158D02*
X3625000Y-600000D01*
X3324999Y-299999D02*
X3625000Y-600000D01*
X3205001Y-500000D02*
X3300000D01*
X3525000Y-725000D01*
X3205000Y-499999D02*
X3205001Y-500000D01*
X3205000Y-199999D02*
X3299999D01*
X3375000Y-200000D02*
X3625000Y-450000D01*
X3299999Y-199999D02*
X3300000Y-200000D01*
X3375000D01*
X3625000Y-300000D02*
Y-279400D01*
X3445600Y-100000D02*
X3625000Y-279400D01*
X3205000Y-299999D02*
X3324999D01*
X3205000Y699999D02*
X3424999D01*
X3625000Y900000D01*
X3205000Y599999D02*
X3474999D01*
X3625000Y750000D01*
X3205000Y499999D02*
X3524999D01*
X3625000Y600000D01*
X3205000Y399999D02*
X3558258D01*
X3608258Y450000D01*
X3625000D01*
X3603659Y855121D02*
X3625000Y876462D01*
Y900000D01*
Y450000D02*
Y477730D01*
X3594071Y-750000D02*
X3625000D01*
X3606944Y-468056D02*
X3625000Y-450000D01*
Y-150000D02*
Y-139700D01*
X3485300Y0D02*
X3625000Y-139700D01*
X3205000Y-100000D02*
X3445600D01*
X3205000Y200000D02*
X3558257D01*
X3608257Y150000D01*
X3625000D01*
X3205000Y300000D02*
X3205000Y300000D01*
X3625000D01*
X3205000Y0D02*
X3485300D01*
X3205000Y100000D02*
X3525000D01*
X3625000Y0D01*
X1699999Y950001D02*
X1975004D01*
X2175004Y750001D01*
X2925001D01*
X1699999Y799999D02*
X1950009D01*
X2100006Y650001D01*
X2925001D01*
X1699999D02*
X1925002D01*
X2025002Y550002D01*
X2925001D01*
X1699999Y499999D02*
X1900034D01*
X1950031Y450002D01*
X2925001D01*
X2624999Y-550001D02*
X2925001D01*
X1699999Y-999998D02*
X2175003D01*
X2624999Y-550001D01*
X1699999Y-850001D02*
X2150001D01*
X2550000Y-450001D01*
X2925001D01*
X1699999Y-699998D02*
X2100004D01*
X2450000Y-350002D01*
X2925001D01*
X2050002Y-550001D02*
X2350002Y-250002D01*
X1699999Y-550001D02*
X2050002D01*
X2350002Y-250002D02*
X2925001D01*
X2250003Y-150002D02*
X2925001D01*
X2000006Y-399999D02*
X2250003Y-150002D01*
X1699999Y-399999D02*
X2000006D01*
X1950007Y-250002D02*
X2150006Y-50002D01*
X1699999Y-250002D02*
X1950007D01*
X2150006Y-50002D02*
X2925001D01*
X1699999Y-100000D02*
X1925013D01*
X2075010Y49998D01*
X2925001D01*
X1699999D02*
X1925019D01*
X2025019Y149997D01*
X2925001D01*
X1975002Y250002D02*
X2925001D01*
X1699999Y200000D02*
X1925000D01*
X1975002Y250002D01*
X1699999Y350002D02*
X2925001D01*
D13*
X1400000Y424998D02*
X1450000D01*
X1343684Y875000D02*
X1400000D01*
X1340000Y425000D02*
X1400000D01*
Y-925000D02*
X1431299D01*
X1340000Y-475000D02*
X1400000D01*
X1700000Y350000D02*
X1700000Y350000D01*
X1431299Y-925000D02*
X1475000Y-968701D01*
X1340000Y575000D02*
X1400000D01*
X1340000Y-625000D02*
X1400000D01*
X1340000Y725000D02*
X1400000D01*
X1340000Y-775000D02*
X1400000D01*
D14*
X3000000Y-1450000D02*
D03*
X2500000D02*
D03*
X2000000D02*
D03*
D15*
X1699999Y-999998D02*
D03*
Y950001D02*
D03*
Y650001D02*
D03*
Y200000D02*
D03*
Y350002D02*
D03*
X1400000Y275001D02*
D03*
Y124999D02*
D03*
Y875000D02*
D03*
Y725003D02*
D03*
Y424998D02*
D03*
Y-24998D02*
D03*
X1699999Y49998D02*
D03*
Y799999D02*
D03*
Y499999D02*
D03*
X1400000Y575000D02*
D03*
X1699999Y-100000D02*
D03*
X1400000Y-175001D02*
D03*
X1699999Y-250002D02*
D03*
X1400000Y-324998D02*
D03*
X1699999Y-399999D02*
D03*
X1400000Y-475000D02*
D03*
X1699999Y-550001D02*
D03*
X1400000Y-625002D02*
D03*
X1699999Y-699998D02*
D03*
X1400000Y-774999D02*
D03*
X1699999Y-850001D02*
D03*
X1400000Y-925002D02*
D03*
D16*
X3100000Y-1900000D02*
D03*
X3099999Y1900002D02*
D03*
X1699999D02*
D03*
Y-1900001D02*
D03*
D17*
X3625000Y-600000D02*
D03*
Y-750000D02*
D03*
Y-300000D02*
D03*
Y900000D02*
D03*
Y750000D02*
D03*
Y600000D02*
D03*
Y450000D02*
D03*
Y-900000D02*
D03*
Y-450000D02*
D03*
Y-150000D02*
D03*
Y150000D02*
D03*
Y300000D02*
D03*
Y0D02*
D03*
%TF.MD5,dae34631c48c2180333b8637dd047cd2*%
M02*
