%TF.GenerationSoftware,Altium Limited,Altium Designer,24.0.1 (36)*%
G04 Layer_Color=128*
%FSLAX45Y45*%
%MOMM*%
%TF.SameCoordinates,BA06A275-F6DB-48CF-8214-C1EAF842E6E6*%
%TF.FilePolarity,Positive*%
%TF.FileFunction,Drillmap*%
%TF.Part,Single*%
G01*
G75*
%TA.AperFunction,NonConductor*%
%ADD40C,0.12700*%
D40*
X2955000Y-1450000D02*
X3045000D01*
X3000000Y-1495000D02*
Y-1405000D01*
X1654999Y-999998D02*
X1744999D01*
X1699999Y-1044998D02*
Y-954998D01*
X2455000Y-1450000D02*
X2545000D01*
X2500000Y-1495000D02*
Y-1405000D01*
X1955000Y-1450000D02*
X2045000D01*
X2000000Y-1495000D02*
Y-1405000D01*
X3000000Y-1900000D02*
X3200000D01*
X3100000Y-2000000D02*
Y-1800000D01*
X2999999Y1900002D02*
X3199999D01*
X3099999Y1800001D02*
Y2000002D01*
X1599999Y1900002D02*
X1799999D01*
X1699999Y1800001D02*
Y2000002D01*
X1654999Y950001D02*
X1744999D01*
X1699999Y905001D02*
Y995001D01*
X1654999Y650001D02*
X1744999D01*
X1699999Y605002D02*
Y695001D01*
X1654999Y200000D02*
X1744999D01*
X1699999Y155000D02*
Y245000D01*
X1654999Y350002D02*
X1744999D01*
X1699999Y305002D02*
Y395002D01*
X1355000Y275001D02*
X1445000D01*
X1400000Y230001D02*
Y320001D01*
X1355000Y124999D02*
X1445000D01*
X1400000Y79999D02*
Y169999D01*
X1355000Y875000D02*
X1445000D01*
X1400000Y830000D02*
Y920000D01*
X1355000Y725003D02*
X1445000D01*
X1400000Y680003D02*
Y770003D01*
X1355000Y424998D02*
X1445000D01*
X1400000Y379998D02*
Y469998D01*
X1355000Y-24998D02*
X1445000D01*
X1400000Y-69998D02*
Y20001D01*
X1654999Y49998D02*
X1744999D01*
X1699999Y4998D02*
Y94998D01*
X1654999Y799999D02*
X1744999D01*
X1699999Y754999D02*
Y844999D01*
X1654999Y499999D02*
X1744999D01*
X1699999Y454999D02*
Y544999D01*
X1355000Y575000D02*
X1445000D01*
X1400000Y530000D02*
Y620000D01*
X1654999Y-100000D02*
X1744999D01*
X1699999Y-144999D02*
Y-55000D01*
X1355000Y-175001D02*
X1445000D01*
X1400000Y-220001D02*
Y-130001D01*
X1654999Y-250002D02*
X1744999D01*
X1699999Y-295002D02*
Y-205002D01*
X1355000Y-324998D02*
X1445000D01*
X1400000Y-369998D02*
Y-279998D01*
X1654999Y-399999D02*
X1744999D01*
X1699999Y-444999D02*
Y-354999D01*
X1355000Y-475000D02*
X1445000D01*
X1400000Y-520000D02*
Y-430000D01*
X1654999Y-550001D02*
X1744999D01*
X1699999Y-595001D02*
Y-505001D01*
X1355000Y-625002D02*
X1445000D01*
X1400000Y-670002D02*
Y-580002D01*
X1654999Y-699998D02*
X1744999D01*
X1699999Y-744998D02*
Y-654998D01*
X1355000Y-774999D02*
X1445000D01*
X1400000Y-819999D02*
Y-730000D01*
X1599999Y-1900001D02*
X1799999D01*
X1699999Y-2000001D02*
Y-1800001D01*
X1654999Y-850001D02*
X1744999D01*
X1699999Y-895000D02*
Y-805001D01*
X1355000Y-925002D02*
X1445000D01*
X1400000Y-970002D02*
Y-880002D01*
X3589440Y-600000D02*
X3660560D01*
X3625000Y-635560D02*
Y-564440D01*
X3589440Y-750000D02*
X3660560D01*
X3625000Y-785560D02*
Y-714440D01*
X3589440Y-300000D02*
X3660560D01*
X3625000Y-335560D02*
Y-264440D01*
X3589440Y900000D02*
X3660560D01*
X3625000Y864440D02*
Y935560D01*
X3589440Y750000D02*
X3660560D01*
X3625000Y714440D02*
Y785560D01*
X3589440Y600000D02*
X3660560D01*
X3625000Y564440D02*
Y635560D01*
X3589440Y450000D02*
X3660560D01*
X3625000Y414440D02*
Y485560D01*
X3589440Y-900000D02*
X3660560D01*
X3625000Y-935560D02*
Y-864440D01*
X3589440Y-450000D02*
X3660560D01*
X3625000Y-485560D02*
Y-414440D01*
X3589440Y-150000D02*
X3660560D01*
X3625000Y-185560D02*
Y-114440D01*
X3589440Y150000D02*
X3660560D01*
X3625000Y114440D02*
Y185560D01*
X3589440Y300000D02*
X3660560D01*
X3625000Y264440D02*
Y335560D01*
X3589440Y0D02*
X3660560D01*
X3625000Y-35560D02*
Y35560D01*
%TF.MD5,5f0f646dca8c5d569609fa83622e5bea*%
M02*
